<?xml version="1.0" encoding="utf-8"?>
<svg width="60" height="61" viewBox="0 0 60 61" fill="none" xmlns="http://www.w3.org/2000/svg">
<g clip-path="url(#clip0)">
<path d="M48.2022 3.87198C48.2022 1.93876 46.635 0.371582 44.7018 0.371582H3.50039C1.56718 0.371582 0 1.93876 0 3.87198V56.8712C0 58.8044 1.56718 60.3716 3.50039 60.3716H47.3271C47.8104 60.3716 48.2022 59.9798 48.2022 59.4965V3.87198Z" fill="#EEF1F7"/>
<path d="M10.345 13.736H36.2071C36.7781 13.736 37.2416 13.2735 37.2416 12.7015C37.2416 12.1294 36.7781 11.667 36.2071 11.667H10.345C9.774 11.667 9.31055 12.1294 9.31055 12.7015C9.31055 13.2735 9.774 13.736 10.345 13.736Z" fill="#747A84"/>
<path d="M10.345 46.8395H20.6899C21.2609 46.8395 21.7243 46.3771 21.7243 45.805C21.7243 45.2329 21.2609 44.7705 20.6899 44.7705H10.345C9.774 44.7705 9.31055 45.2329 9.31055 45.805C9.31055 46.3771 9.774 46.8395 10.345 46.8395Z" fill="#747A84"/>
<path d="M36.2071 19.9429H10.345C9.774 19.9429 9.31055 20.4053 9.31055 20.9774C9.31055 21.5494 9.774 22.0118 10.345 22.0118H36.2071C36.7781 22.0118 37.2416 21.5494 37.2416 20.9774C37.2416 20.4053 36.7781 19.9429 36.2071 19.9429Z" fill="#747A84"/>
<path d="M36.2071 28.2188H10.345C9.774 28.2188 9.31055 28.6812 9.31055 29.2532C9.31055 29.8253 9.774 30.2877 10.345 30.2877H36.2071C36.7781 30.2877 37.2416 29.8253 37.2416 29.2532C37.2416 28.6812 36.7781 28.2188 36.2071 28.2188Z" fill="#747A84"/>
<path d="M36.2071 36.4946H10.345C9.774 36.4946 9.31055 36.957 9.31055 37.5291C9.31055 38.1012 9.774 38.5636 10.345 38.5636H36.2071C36.7781 38.5636 37.2416 38.1012 37.2416 37.5291C37.2416 36.957 36.7781 36.4946 36.2071 36.4946Z" fill="#747A84"/>
<path fill-rule="evenodd" clip-rule="evenodd" d="M48.8577 60.3717C55.0117 60.3717 60.0006 55.3828 60.0006 49.2288C60.0006 43.0748 55.0117 38.0859 48.8577 38.0859C42.7037 38.0859 37.7148 43.0748 37.7148 49.2288C37.7148 55.3828 42.7037 60.3717 48.8577 60.3717Z" fill="#00E8A1"/>
<path d="M44.2148 50.3987L47.4163 53.4919L53.9648 45.5146" stroke="white" stroke-width="2.17857" stroke-linecap="round"/>
</g>
<defs>
<clipPath id="clip0">
<rect width="60" height="60" fill="white" transform="translate(0 0.371582)"/>
</clipPath>
</defs>
</svg>
