<?xml version="1.0" encoding="utf-8"?>
<svg width="12" height="14" viewBox="0 0 12 14" fill="none" xmlns="http://www.w3.org/2000/svg">
<path d="M0.870438 4.56494H0.834575C0.374842 4.56494 0 4.94098 0 5.39952V9.03312C0 9.49346 0.374842 9.86827 0.834575 9.86827H0.871048C1.33078 9.86827 1.70562 9.49224 1.70562 9.03312V5.39949C1.70501 4.94098 1.32959 4.56494 0.870438 4.56494Z" fill="white"/>
<path d="M2.10498 10.4356C2.10498 10.8577 2.44992 11.2014 2.87199 11.2014H3.69162V13.1641C3.69162 13.625 4.06766 13.9999 4.5262 13.9999H4.56206C5.0224 13.9999 5.39783 13.6244 5.39783 13.1641V11.2014H6.54328V13.1641C6.54328 13.625 6.92051 13.9999 7.37905 13.9999H7.41433C7.87464 13.9999 8.24948 13.6244 8.24948 13.1641V11.2014H9.0697C9.49116 11.2014 9.83613 10.8577 9.83613 10.4356V4.69824H2.10498V10.4356Z" fill="white"/>
<path d="M7.89611 1.21897L8.54716 0.214034C8.58901 0.15065 8.57047 0.0639862 8.5065 0.0227189C8.44315 -0.0191304 8.35645 -0.00178092 8.31519 0.0633765L7.64025 1.10301C7.1339 0.895568 6.56835 0.779 5.9711 0.779C5.37326 0.779 4.80891 0.895568 4.30137 1.10301L3.62762 0.0633765C3.58638 -0.00178092 3.49908 -0.0191304 3.43511 0.0227189C3.37115 0.0639585 3.35261 0.15065 3.39446 0.214034L4.04609 1.21897C2.87134 1.79469 2.07922 2.87975 2.07922 4.12442C2.07922 4.20094 2.08402 4.27627 2.09059 4.35099H9.85219C9.85876 4.27627 9.86295 4.20094 9.86295 4.12442C9.86297 2.87975 9.07025 1.79469 7.89611 1.21897ZM4.17163 3.01844C3.96538 3.01844 3.79798 2.85223 3.79798 2.6454C3.79798 2.43856 3.96538 2.27294 4.17163 2.27294C4.37908 2.27294 4.54528 2.43853 4.54528 2.6454C4.54528 2.85226 4.37789 3.01844 4.17163 3.01844ZM7.76998 3.01844C7.56373 3.01844 7.39633 2.85223 7.39633 2.6454C7.39633 2.43856 7.56373 2.27294 7.76998 2.27294C7.97682 2.27294 8.14302 2.43853 8.14302 2.6454C8.14302 2.85223 7.97682 3.01844 7.76998 3.01844Z" fill="white"/>
<path d="M11.1065 4.56494H11.0719C10.6121 4.56494 10.2361 4.94098 10.2361 5.39952V9.03312C10.2361 9.49346 10.6127 9.86827 11.0719 9.86827H11.1071C11.5674 9.86827 11.9417 9.49224 11.9417 9.03312V5.39949C11.9417 4.94098 11.5663 4.56494 11.1065 4.56494Z" fill="white"/>
</svg>
