<?xml version="1.0" encoding="utf-8"?>
<svg width="60" height="60" viewBox="0 0 60 60" fill="none" xmlns="http://www.w3.org/2000/svg">
<g clip-path="url(#clip0)">
<circle cx="29.8958" cy="18.2288" r="17.3958" fill="#6AFCE3"/>
<circle cx="17.0833" cy="42.0833" r="17.0833" fill="#A991FB"/>
<circle cx="42.9173" cy="42.0833" r="17.0833" fill="#00C8FF"/>
<path d="M45.7915 25.245C43.094 31.3579 36.9796 35.6245 29.8686 35.6245C28.9461 35.6245 28.0966 35.5218 27.2129 35.3834C29.8108 29.262 35.8206 24.9995 42.8894 24.9995C43.8787 24.9995 44.8483 25.0836 45.7915 25.245Z" fill="#03B8D3"/>
<path d="M29.9892 30.9316C34.2843 35.919 36.0442 43.3364 31.7397 50.8923C31.2723 51.7571 30.5772 52.5057 29.9986 53.2628C25.3513 47.9056 24.387 39.9771 28.0969 33.5887C28.5976 32.6622 29.3593 31.732 29.9892 30.9316Z" fill="#8259F7"/>
<path d="M13.9824 25.2584C16.5806 31.4995 22.9791 35.6245 30.0901 35.6245C31.0126 35.6245 31.9023 35.5084 32.786 35.3701C30.1881 29.2486 24.1381 24.9995 17.0693 24.9995C16.08 24.9995 14.9256 25.097 13.9824 25.2584Z" fill="#468FDF"/>
<path d="M29.9978 30.9019C31.1499 32.2316 32.1107 33.7284 32.8112 35.3698C31.866 35.5289 30.8841 35.6243 29.8937 35.6243C28.9711 35.6243 28.0654 35.5525 27.1816 35.4141C27.8835 33.7604 28.8384 32.2401 29.9978 30.9019Z" fill="#021EAE"/>
</g>
<defs>
<clipPath id="clip0">
<rect width="60" height="60" fill="white" transform="translate(0 -0.000488281)"/>
</clipPath>
</defs>
</svg>
