<?xml version="1.0" encoding="utf-8"?>
<svg width="22" height="21" viewBox="0 0 22 21" fill="none" xmlns="http://www.w3.org/2000/svg">
<path fill-rule="evenodd" clip-rule="evenodd" d="M3.25259 0.847656C1.71098 0.847656 0.702393 1.82014 0.702393 3.09784C0.702393 4.3484 1.68174 5.34898 3.19343 5.34898H3.22267C4.79453 5.34898 5.77186 4.3484 5.77186 3.09784C5.74195 1.82014 4.79453 0.847656 3.25259 0.847656ZM21.7234 12.682V20.1518H17.2169V13.1826C17.2169 11.4328 16.5663 10.2377 14.9346 10.2377C13.6894 10.2377 12.9497 11.0423 12.623 11.8213C12.5044 12.0997 12.4738 12.4863 12.4738 12.8768V20.1515H7.96692C7.96692 20.1515 8.02741 8.34799 7.96692 7.12617H12.4741V8.97198C12.465 8.98653 12.4523 9.00073 12.4442 9.01462H12.4741V8.97198C13.073 8.08638 14.1411 6.82031 16.5357 6.82031C19.5006 6.82031 21.7234 8.68195 21.7234 12.682ZM5.4754 20.1521H0.970215V7.12646H5.4754V20.1521Z" fill="white"/>
</svg>
