<?xml version="1.0" encoding="utf-8"?>
<svg width="60" height="60" viewBox="0 0 60 60" fill="none" xmlns="http://www.w3.org/2000/svg">
<path d="M40.3944 0H19.3251C16.2305 0 13.7129 2.51765 13.7129 5.61222V54.3878C13.7129 57.4824 16.2305 60 19.3251 60H40.3944C43.489 60 46.0066 57.4824 46.0066 54.3878V5.61222C46.0066 2.51765 43.4891 0 40.3944 0Z" fill="#5C546A"/>
<path d="M42.8991 54.3877C42.8991 55.7699 41.7785 56.8905 40.3963 56.8905H19.327C17.9448 56.8905 16.8242 55.7699 16.8242 54.3877V5.61226C16.8242 4.23004 17.9448 3.10949 19.327 3.10949H21.9528C22.4701 3.10949 22.8894 3.52879 22.8894 4.04605V4.63996C22.8894 5.43683 23.5413 6.08874 24.3381 6.08874H35.385C36.1819 6.08874 36.8338 5.43683 36.8338 4.63996V3.78098C36.8338 3.41008 37.1345 3.10938 37.5054 3.10938H40.3963C41.7785 3.10938 42.8991 4.22992 42.8991 5.61214V54.3877Z" fill="#69D2FF"/>
<path d="M33.5043 4.01487H28.7766C28.2766 4.01487 27.8711 3.60952 27.8711 3.10936C27.8711 2.60921 28.2764 2.20386 28.7766 2.20386H33.5043C34.0043 2.20386 34.4098 2.60921 34.4098 3.10936C34.4097 3.60952 34.0043 4.01487 33.5043 4.01487Z" fill="#8D8D8D"/>
<path d="M25.4288 3.86242C24.7805 3.43633 24.9377 2.39465 25.7535 2.22168C26.3085 2.10719 26.8366 2.53703 26.8366 3.10903C26.8366 3.52961 26.5463 3.9066 26.1073 3.99766C26.0494 4.00844 25.6132 3.98711 25.4288 3.86242Z" fill="#8D8D8D"/>
<rect x="18.8574" y="13.7144" width="22.2857" height="6.85714" rx="0.857143" fill="#EEF1F7"/>
<path d="M27.8983 16.2856H20.9605C20.7462 16.2856 20.5723 16.0936 20.5723 15.857C20.5723 15.6202 20.7462 15.4285 20.9605 15.4285H27.8983C28.1128 15.4285 28.2866 15.6202 28.2866 15.857C28.2866 16.0936 28.1128 16.2856 27.8983 16.2856Z" fill="#B1BBC0"/>
<path d="M29.5263 18.0002H21.0468C20.7848 18.0002 20.5723 17.8082 20.5723 17.5716C20.5723 17.3348 20.7848 17.1431 21.0468 17.1431H29.5263C29.7885 17.1431 30.0008 17.3348 30.0008 17.5716C30.0008 17.8082 29.7885 18.0002 29.5263 18.0002Z" fill="#B1BBC0"/>
<rect x="36" y="15.4285" width="3.42857" height="3.42857" rx="0.857143" fill="#B1BBC0"/>
<rect x="18.8574" y="23.1428" width="22.2857" height="6.85714" rx="0.857143" fill="#EEF1F7"/>
<path d="M27.8983 25.7143H20.9605C20.7462 25.7143 20.5723 25.5224 20.5723 25.2857C20.5723 25.0489 20.7462 24.8572 20.9605 24.8572H27.8983C28.1128 24.8572 28.2866 25.0489 28.2866 25.2857C28.2866 25.5224 28.1128 25.7143 27.8983 25.7143Z" fill="#B1BBC0"/>
<path d="M29.5263 27.4284H21.0468C20.7848 27.4284 20.5723 27.2365 20.5723 26.9999C20.5723 26.763 20.7848 26.5713 21.0468 26.5713H29.5263C29.7885 26.5713 30.0008 26.763 30.0008 26.9999C30.0008 27.2365 29.7885 27.4284 29.5263 27.4284Z" fill="#B1BBC0"/>
<rect x="36" y="24.8572" width="3.42857" height="3.42857" rx="0.857143" fill="#B1BBC0"/>
<path d="M36.9496 50.6589C36.9496 49.6639 36.1433 48.8572 35.1483 48.8572H28.374C27.379 48.8572 26.5723 49.6639 26.5723 50.6589C26.5723 51.6536 27.379 52.4603 28.374 52.4603H35.1483C36.1433 52.4603 36.9496 51.6536 36.9496 50.6589Z" fill="#ACE5FE"/>
<path d="M31.7606 50.6589C31.7606 49.6639 32.5673 48.8572 33.5623 48.8572H28.3736C27.3786 48.8572 26.5723 49.6639 26.5723 50.6589C26.5723 51.6536 27.3786 52.4603 28.3736 52.4603H33.5623C32.5673 52.4603 31.7606 51.6536 31.7606 50.6589Z" fill="#22BDFF"/>
</svg>
