<?xml version="1.0" encoding="utf-8"?>
<svg width="674" height="590" viewBox="0 0 674 590" fill="none" xmlns="http://www.w3.org/2000/svg">
<g filter="url(#filter0_d)">
<rect x="227.625" y="271.246" width="404.374" height="277.042" rx="29.2439" fill="white"/>
</g>
<rect x="274.691" y="425.957" width="306.316" height="78.7396" rx="9.60239" fill="#F2F3F4"/>
<rect width="48.012" height="26.2206" rx="13.1103" transform="matrix(-1 0 0 1 540.561 452.216)" fill="#00E8A1"/>
<path fill-rule="evenodd" clip-rule="evenodd" d="M526.079 476.339C519.804 476.339 514.717 471.448 514.717 465.414C514.717 459.38 519.804 454.489 526.079 454.489C532.354 454.489 537.441 459.38 537.441 465.414C537.441 471.448 532.354 476.339 526.079 476.339Z" fill="#FFFEFE"/>
<path d="M280.383 358.758H282.803V351.905H290.229V358.758H292.649V342.858H290.229V349.677H282.803V342.858H280.383V358.758ZM300.582 347.303C298.444 347.303 297.049 348.226 295.968 349.722L297.746 351.005C298.32 350.071 299.243 349.34 300.593 349.34C302.563 349.34 303.159 350.195 303.204 352.131H300.076C297.443 352.131 295.53 352.974 295.53 355.371C295.53 357.656 297.24 358.972 299.547 358.972C300.953 358.972 302.484 358.32 303.238 357.003L303.395 358.758H305.319V351.917C305.319 349.149 303.587 347.303 300.582 347.303ZM300.008 356.992C298.624 356.992 297.915 356.362 297.915 355.439C297.915 354.516 298.647 353.818 300.211 353.818H303.204V354.167C302.968 355.686 301.831 356.992 300.008 356.992ZM311.238 358.758H313.174L317.765 347.517H315.233L312.206 355.765L309.19 347.517H306.647L311.238 358.758ZM323.819 358.972C325.676 358.972 327.094 358.342 328.331 356.992L326.734 355.585C325.867 356.519 324.956 356.857 323.83 356.857C321.895 356.857 320.927 355.686 320.725 353.863H328.635C328.68 353.706 328.725 353.245 328.725 352.817C328.725 350.398 327.488 347.303 323.628 347.303C320.004 347.303 318.271 350.173 318.271 353.188C318.271 356.272 320.106 358.972 323.819 358.972ZM320.725 352.176C320.961 350.488 321.85 349.261 323.605 349.261C325.158 349.261 326.137 350.195 326.362 351.467C326.419 351.692 326.441 351.928 326.43 352.176H320.725ZM337.795 363.586H340.338L346.685 347.517H344.13L341.058 355.844L337.851 347.517H335.297L339.821 358.511L337.795 363.586ZM352.615 358.972C356.002 358.972 358.275 356.305 358.275 353.11C358.275 349.925 356.002 347.303 352.615 347.303C349.228 347.303 346.966 349.925 346.966 353.11C346.966 356.317 349.228 358.972 352.615 358.972ZM352.615 356.958C350.421 356.958 349.385 355.18 349.385 353.11C349.385 351.05 350.421 349.317 352.615 349.317C354.809 349.317 355.856 351.062 355.856 353.11C355.856 355.169 354.809 356.958 352.615 356.958ZM364.419 358.972C365.657 358.972 366.974 358.443 367.806 357.251V358.758H370.113V347.517H367.806V353.83C367.806 355.866 366.737 356.823 365.072 356.823C363.519 356.823 362.709 355.709 362.709 354.043V347.517H360.402V354.392C360.413 356.767 361.572 358.972 364.419 358.972ZM383.11 358.972C383.864 358.972 384.607 358.803 385.001 358.657L384.989 356.553C384.64 356.71 384.067 356.913 383.515 356.913C382.637 356.913 382.075 356.485 382.075 355.236V349.475H385.001V347.517H382.075V342.903L379.791 344.569V347.517H377.911V349.475H379.757V355.63C379.757 357.712 380.983 358.972 383.11 358.972ZM387.521 358.758H389.761V353.683C389.761 350.758 391.246 349.565 392.607 349.565C393.046 349.565 393.474 349.7 393.845 349.936L394.903 348.023C394.385 347.528 393.654 347.303 392.956 347.303C391.662 347.303 390.289 348.068 389.783 349.565V347.517H387.521V358.758ZM400.755 347.303C398.616 347.303 397.221 348.226 396.141 349.722L397.919 351.005C398.493 350.071 399.415 349.34 400.766 349.34C402.735 349.34 403.331 350.195 403.376 352.131H400.248C397.615 352.131 395.702 352.974 395.702 355.371C395.702 357.656 397.412 358.972 399.719 358.972C401.126 358.972 402.656 358.32 403.41 357.003L403.568 358.758H405.492V351.917C405.492 349.149 403.759 347.303 400.755 347.303ZM400.181 356.992C398.797 356.992 398.088 356.362 398.088 355.439C398.088 354.516 398.819 353.818 400.383 353.818H403.376V354.167C403.14 355.686 402.004 356.992 400.181 356.992ZM411.411 358.758H413.346L417.938 347.517H415.406L412.379 355.765L409.363 347.517H406.82L411.411 358.758ZM423.992 358.972C425.848 358.972 427.266 358.342 428.504 356.992L426.906 355.585C426.04 356.519 425.128 356.857 424.003 356.857C422.067 356.857 421.1 355.686 420.897 353.863H428.808C428.853 353.706 428.898 353.245 428.898 352.817C428.898 350.398 427.66 347.303 423.8 347.303C420.177 347.303 418.444 350.173 418.444 353.188C418.444 356.272 420.278 358.972 423.992 358.972ZM420.897 352.176C421.133 350.488 422.022 349.261 423.778 349.261C425.331 349.261 426.31 350.195 426.535 351.467C426.591 351.692 426.613 351.928 426.602 352.176H420.897ZM433.669 358.972C434.254 358.972 435.008 358.871 435.559 358.758L435.548 356.8C435.244 356.845 434.929 356.879 434.738 356.879C433.995 356.879 433.725 356.485 433.725 355.844V342.858H431.407V356.474C431.407 358.331 432.274 358.972 433.669 358.972ZM440.038 358.972C440.623 358.972 441.377 358.871 441.929 358.758L441.917 356.8C441.613 356.845 441.298 356.879 441.107 356.879C440.364 356.879 440.094 356.485 440.094 355.844V342.858H437.776V356.474C437.776 358.331 438.643 358.972 440.038 358.972ZM448.793 358.972C450.649 358.972 452.067 358.342 453.305 356.992L451.707 355.585C450.841 356.519 449.929 356.857 448.804 356.857C446.869 356.857 445.901 355.686 445.698 353.863H453.609C453.654 353.706 453.699 353.245 453.699 352.817C453.699 350.398 452.461 347.303 448.601 347.303C444.978 347.303 443.245 350.173 443.245 353.188C443.245 356.272 445.079 358.972 448.793 358.972ZM445.698 352.176C445.935 350.488 446.823 349.261 448.579 349.261C450.132 349.261 451.111 350.195 451.336 351.467C451.392 351.692 451.415 351.928 451.403 352.176H445.698ZM460.259 358.972C461.7 358.972 463.039 358.331 463.804 357.059L463.894 358.758H466.066V342.858H463.703V349.092C462.949 347.899 461.598 347.303 460.226 347.303C457.142 347.303 455.353 349.992 455.353 353.132C455.353 356.294 457.142 358.972 460.259 358.972ZM460.822 356.857C458.774 356.857 457.716 355.225 457.716 353.132C457.716 351.062 458.774 349.419 460.822 349.419C462.859 349.419 463.894 351.039 463.894 353.132C463.894 355.248 462.859 356.857 460.822 356.857ZM479.907 358.972C483.294 358.972 485.567 356.305 485.567 353.11C485.567 349.925 483.294 347.303 479.907 347.303C476.52 347.303 474.258 349.925 474.258 353.11C474.258 356.317 476.52 358.972 479.907 358.972ZM479.907 356.958C477.712 356.958 476.677 355.18 476.677 353.11C476.677 351.05 477.712 349.317 479.907 349.317C482.101 349.317 483.148 351.062 483.148 353.11C483.148 355.169 482.101 356.958 479.907 356.958ZM490.608 358.758H492.544L497.135 347.517H494.603L491.576 355.765L488.56 347.517H486.017L490.608 358.758ZM503.189 358.972C505.045 358.972 506.463 358.342 507.701 356.992L506.103 355.585C505.237 356.519 504.325 356.857 503.2 356.857C501.265 356.857 500.297 355.686 500.094 353.863H508.005C508.05 353.706 508.095 353.245 508.095 352.817C508.095 350.398 506.857 347.303 502.997 347.303C499.374 347.303 497.641 350.173 497.641 353.188C497.641 356.272 499.475 358.972 503.189 358.972ZM500.094 352.176C500.331 350.488 501.22 349.261 502.975 349.261C504.528 349.261 505.507 350.195 505.732 351.467C505.788 351.692 505.811 351.928 505.799 352.176H500.094ZM510.672 358.758H512.911V353.683C512.911 350.758 514.397 349.565 515.758 349.565C516.197 349.565 516.625 349.7 516.996 349.936L518.054 348.023C517.536 347.528 516.805 347.303 516.107 347.303C514.813 347.303 513.44 348.068 512.934 349.565V347.517H510.672V358.758ZM522.724 358.972C524.873 358.972 526.977 357.824 526.977 355.338C526.977 351.152 520.979 352.423 520.979 350.364C520.979 349.666 521.655 349.149 522.735 349.149C524.006 349.149 524.738 349.891 525.177 350.69L526.977 349.711C526.144 348.203 524.693 347.303 522.814 347.303C520.653 347.303 518.751 348.417 518.751 350.668C518.751 354.662 524.693 353.177 524.693 355.45C524.693 356.238 524.018 357.025 522.611 357.025C521.036 357.025 520.259 355.99 519.922 355.056L518.054 355.878C518.616 357.599 520.406 358.972 522.724 358.972ZM534.179 358.972C536.036 358.972 537.454 358.342 538.691 356.992L537.093 355.585C536.227 356.519 535.316 356.857 534.19 356.857C532.255 356.857 531.287 355.686 531.084 353.863H538.995C539.04 353.706 539.085 353.245 539.085 352.817C539.085 350.398 537.847 347.303 533.988 347.303C530.364 347.303 528.631 350.173 528.631 353.188C528.631 356.272 530.466 358.972 534.179 358.972ZM531.084 352.176C531.321 350.488 532.21 349.261 533.965 349.261C535.518 349.261 536.497 350.195 536.722 351.467C536.778 351.692 536.801 351.928 536.79 352.176H531.084ZM545.691 347.303C543.553 347.303 542.157 348.226 541.077 349.722L542.855 351.005C543.429 350.071 544.352 349.34 545.702 349.34C547.671 349.34 548.268 350.195 548.313 352.131H545.184C542.551 352.131 540.638 352.974 540.638 355.371C540.638 357.656 542.349 358.972 544.655 358.972C546.062 358.972 547.592 358.32 548.346 357.003L548.504 358.758H550.428V351.917C550.428 349.149 548.695 347.303 545.691 347.303ZM545.117 356.992C543.733 356.992 543.024 356.362 543.024 355.439C543.024 354.516 543.755 353.818 545.319 353.818H548.313V354.167C548.076 355.686 546.94 356.992 545.117 356.992ZM557 358.972C559.149 358.972 561.253 357.824 561.253 355.338C561.253 351.152 555.256 352.423 555.256 350.364C555.256 349.666 555.931 349.149 557.011 349.149C558.283 349.149 559.014 349.891 559.453 350.69L561.253 349.711C560.421 348.203 558.969 347.303 557.09 347.303C554.929 347.303 553.027 348.417 553.027 350.668C553.027 354.662 558.969 353.177 558.969 355.45C558.969 356.238 558.294 357.025 556.887 357.025C555.312 357.025 554.535 355.99 554.198 355.056L552.33 355.878C552.892 357.599 554.682 358.972 557 358.972ZM279.888 377.311H282.319V374.858H279.888V377.311ZM279.944 390.758H282.263V379.517H279.944V390.758ZM285.796 390.758H288.114V384.446C288.114 382.409 289.172 381.452 290.837 381.452C292.379 381.452 293.2 382.566 293.2 384.232V390.758H295.518V383.883C295.507 381.509 294.326 379.303 291.49 379.303C290.252 379.303 288.947 379.832 288.114 381.025V379.517H285.796V390.758ZM308.189 390.972C308.943 390.972 309.686 390.803 310.079 390.657L310.068 388.553C309.719 388.71 309.145 388.913 308.594 388.913C307.716 388.913 307.154 388.485 307.154 387.236V381.475H310.079V379.517H307.154V374.903L304.869 376.569V379.517H302.99V381.475H304.836V387.63C304.836 389.712 306.062 390.972 308.189 390.972ZM312.307 390.758H314.671V384.828C314.671 382.87 315.605 381.419 317.439 381.419C319.205 381.419 319.712 382.634 319.712 384.232V390.758H322.075V383.883C322.052 381.509 320.837 379.303 318.001 379.303C316.764 379.303 315.503 379.832 314.671 381.025V374.858H312.307V390.758ZM329.873 390.972C331.73 390.972 333.148 390.342 334.385 388.992L332.788 387.585C331.921 388.519 331.01 388.857 329.884 388.857C327.949 388.857 326.981 387.686 326.779 385.863H334.689C334.734 385.706 334.779 385.245 334.779 384.817C334.779 382.398 333.542 379.303 329.682 379.303C326.058 379.303 324.325 382.173 324.325 385.188C324.325 388.272 326.16 390.972 329.873 390.972ZM326.779 384.176C327.015 382.488 327.904 381.261 329.659 381.261C331.212 381.261 332.191 382.195 332.416 383.467C332.473 383.692 332.495 383.928 332.484 384.176H326.779ZM343.05 395.417H345.447V389.183C346.201 390.376 347.495 390.972 348.89 390.972C352.007 390.972 353.729 388.294 353.729 385.143C353.729 382.004 352.007 379.303 348.924 379.303C347.551 379.303 346.201 379.899 345.447 381.092V379.517H343.05V395.417ZM348.35 388.857C346.313 388.857 345.233 387.236 345.233 385.143C345.233 383.039 346.313 381.452 348.35 381.452C350.398 381.452 351.377 383.062 351.377 385.143C351.377 387.214 350.398 388.857 348.35 388.857ZM360.379 379.303C358.241 379.303 356.846 380.226 355.766 381.722L357.544 383.005C358.118 382.071 359.04 381.34 360.391 381.34C362.36 381.34 362.956 382.195 363.001 384.131H359.873C357.24 384.131 355.327 384.974 355.327 387.371C355.327 389.656 357.037 390.972 359.344 390.972C360.751 390.972 362.281 390.32 363.035 389.003L363.193 390.758H365.117V383.917C365.117 381.149 363.384 379.303 360.379 379.303ZM359.806 388.992C358.421 388.992 357.713 388.362 357.713 387.439C357.713 386.516 358.444 385.818 360.008 385.818H363.001V386.167C362.765 387.686 361.629 388.992 359.806 388.992ZM371.689 390.972C373.838 390.972 375.942 389.824 375.942 387.338C375.942 383.152 369.944 384.423 369.944 382.364C369.944 381.666 370.62 381.149 371.7 381.149C372.971 381.149 373.703 381.891 374.142 382.69L375.942 381.711C375.109 380.203 373.658 379.303 371.779 379.303C369.618 379.303 367.716 380.417 367.716 382.668C367.716 386.662 373.658 385.177 373.658 387.45C373.658 388.238 372.983 389.025 371.576 389.025C370.001 389.025 369.224 387.99 368.887 387.056L367.019 387.878C367.581 389.599 369.37 390.972 371.689 390.972ZM382.412 390.972C383.166 390.972 383.909 390.803 384.303 390.657L384.292 388.553C383.943 388.71 383.369 388.913 382.818 388.913C381.94 388.913 381.377 388.485 381.377 387.236V381.475H384.303V379.517H381.377V374.903L379.093 376.569V379.517H377.214V381.475H379.059V387.63C379.059 389.712 380.286 390.972 382.412 390.972ZM397.412 374.858V375.961C397.412 376.951 396.85 377.368 395.826 377.368H393.519V379.213H397.322V390.758H399.697V374.858H397.412ZM414.303 384.794V374.858H412.244L404.367 385.571V387.011H411.929V390.758H414.303V387.011H416.857V384.794H414.303ZM407.461 384.794L411.929 378.515V384.794H407.461ZM428.684 390.972C430.124 390.972 431.463 390.331 432.229 389.059L432.319 390.758H434.49V374.858H432.127V381.092C431.373 379.899 430.023 379.303 428.65 379.303C425.567 379.303 423.778 381.992 423.778 385.132C423.778 388.294 425.567 390.972 428.684 390.972ZM429.247 388.857C427.199 388.857 426.141 387.225 426.141 385.132C426.141 383.062 427.199 381.419 429.247 381.419C431.283 381.419 432.319 383.039 432.319 385.132C432.319 387.248 431.283 388.857 429.247 388.857ZM442.007 379.303C439.869 379.303 438.474 380.226 437.394 381.722L439.172 383.005C439.745 382.071 440.668 381.34 442.019 381.34C443.988 381.34 444.584 382.195 444.629 384.131H441.501C438.868 384.131 436.955 384.974 436.955 387.371C436.955 389.656 438.665 390.972 440.972 390.972C442.379 390.972 443.909 390.32 444.663 389.003L444.82 390.758H446.745V383.917C446.745 381.149 445.012 379.303 442.007 379.303ZM441.433 388.992C440.049 388.992 439.34 388.362 439.34 387.439C439.34 386.516 440.072 385.818 441.636 385.818H444.629V386.167C444.393 387.686 443.256 388.992 441.433 388.992ZM450.458 395.586H453.001L459.348 379.517H456.793L453.721 387.844L450.514 379.517H447.96L452.484 390.511L450.458 395.586ZM464.389 390.972C466.538 390.972 468.643 389.824 468.643 387.338C468.643 383.152 462.645 384.423 462.645 382.364C462.645 381.666 463.32 381.149 464.4 381.149C465.672 381.149 466.403 381.891 466.842 382.69L468.643 381.711C467.81 380.203 466.358 379.303 464.479 379.303C462.319 379.303 460.417 380.417 460.417 382.668C460.417 386.662 466.358 385.177 466.358 387.45C466.358 388.238 465.683 389.025 464.277 389.025C462.701 389.025 461.925 387.99 461.587 387.056L459.719 387.878C460.282 389.599 462.071 390.972 464.389 390.972ZM474.089 386.1H476.07V384.401C476.07 382.623 479.974 383.118 479.974 379.033C479.974 376.164 477.724 374.644 474.978 374.644C472.086 374.644 470.173 376.411 470.173 379.438H472.221C472.232 377.626 473.133 376.58 475.057 376.58C476.801 376.58 477.937 377.356 477.937 378.999C477.937 381.824 474.089 380.777 474.089 384.389V386.1ZM473.841 390.758H476.373V387.945H473.841V390.758Z" fill="#747A84"/>
<path d="M326.602 454.02V467.917L318.247 454.02H314.703V473.895H318.135V459.928L326.462 473.895H330.035V454.02H326.602ZM340.429 474.177C344.776 474.177 347.631 470.815 347.631 466.834C347.631 462.868 344.776 459.548 340.429 459.548C336.083 459.548 333.228 462.868 333.228 466.834C333.228 470.815 336.083 474.177 340.429 474.177ZM340.429 471.223C337.841 471.223 336.8 469.141 336.8 466.834C336.8 464.527 337.841 462.516 340.429 462.516C343.032 462.516 344.058 464.527 344.058 466.834C344.058 469.141 343.032 471.223 340.429 471.223Z" fill="#747A84"/>
<g filter="url(#filter1_d)">
<path d="M45.0273 62.1685C45.0273 52.8605 52.5729 45.3149 61.8809 45.3149H494.474C503.782 45.3149 511.327 52.8605 511.327 62.1685V101.853H45.0273V62.1685Z" fill="#FF7F7F"/>
<path fill-rule="evenodd" clip-rule="evenodd" d="M45.0273 101.853V295.275C45.0273 302.979 51.2724 309.224 58.976 309.224H497.379C505.082 309.224 511.327 302.979 511.327 295.275V101.853H45.0273Z" fill="white"/>
<path d="M91.3008 138.152V147.318L85.79 138.152H83.4521V151.261H85.7158V142.048L91.208 151.261H93.5645V138.152H91.3008ZM100.42 151.446C103.287 151.446 105.17 149.229 105.17 146.603C105.17 143.987 103.287 141.798 100.42 141.798C97.5537 141.798 95.6704 143.987 95.6704 146.603C95.6704 149.229 97.5537 151.446 100.42 151.446ZM100.42 149.498C98.7134 149.498 98.0269 148.125 98.0269 146.603C98.0269 145.082 98.7134 143.755 100.42 143.755C102.137 143.755 102.814 145.082 102.814 146.603C102.814 148.125 102.137 149.498 100.42 149.498ZM110.245 151.446C110.922 151.446 111.59 151.298 111.934 151.168V149.118C111.627 149.266 111.117 149.452 110.644 149.452C110.05 149.452 109.614 149.192 109.614 148.301V143.885H111.934V141.993H109.614V138.078L107.388 139.692V141.993H105.857V143.885H107.351V148.7C107.351 150.389 108.436 151.446 110.245 151.446ZM117.806 151.446C119.365 151.446 120.599 150.899 121.61 149.776L120.051 148.412C119.402 149.136 118.66 149.396 117.825 149.396C116.368 149.396 115.7 148.579 115.505 147.364H121.87C121.916 147.234 121.953 146.854 121.953 146.474C121.953 144.405 120.905 141.798 117.658 141.798C114.522 141.798 113.112 144.247 113.112 146.659C113.112 149.155 114.615 151.446 117.806 151.446ZM115.505 145.731C115.719 144.572 116.303 143.7 117.639 143.7C118.623 143.7 119.42 144.191 119.652 145.147C119.708 145.332 119.727 145.527 119.727 145.731H115.505ZM126.647 151.446C128.401 151.446 130.266 150.5 130.266 148.357C130.266 144.952 125.553 145.787 125.553 144.386C125.553 143.95 126.007 143.588 126.75 143.588C127.751 143.588 128.271 144.191 128.586 144.766L130.34 143.811C129.635 142.558 128.419 141.798 126.824 141.798C125.033 141.798 123.382 142.725 123.382 144.683C123.382 147.958 128.039 146.91 128.039 148.468C128.039 148.96 127.584 149.572 126.536 149.572C125.302 149.572 124.811 148.719 124.56 148.051L122.76 148.849C123.215 150.277 124.699 151.446 126.647 151.446Z" fill="#BEC0C2"/>
<path d="M83.7119 181.261H85.3354V175.62H87.4785C90.1597 175.62 91.9688 174.303 91.9688 171.918C91.9688 169.534 90.1318 168.152 87.4785 168.152H83.7119V181.261ZM85.3354 174.089V169.682H87.4785C89.3804 169.682 90.3452 170.508 90.3452 171.918C90.3452 173.328 89.4175 174.089 87.4785 174.089H85.3354ZM95.8374 181.418C96.2827 181.418 96.8394 181.344 97.2661 181.251L97.2568 179.925C96.9878 179.971 96.728 179.999 96.5425 179.999C95.7817 179.999 95.624 179.544 95.624 178.923V168.152H94.0469V179.34C94.0469 180.76 94.6035 181.418 95.8374 181.418ZM102.953 181.418C104.465 181.418 105.579 180.936 106.608 179.832L105.514 178.876C104.744 179.693 103.983 179.99 102.962 179.99C101.228 179.99 100.291 178.876 100.17 177.095H106.84C106.877 176.956 106.915 176.585 106.915 176.242C106.915 174.33 105.903 171.835 102.795 171.835C99.9565 171.835 98.5093 174.117 98.5093 176.668C98.5093 179.275 100.021 181.418 102.953 181.418ZM100.17 175.945C100.346 174.321 101.218 173.161 102.786 173.161C104.345 173.161 105.161 174.21 105.319 175.36C105.356 175.546 105.356 175.741 105.356 175.945H100.17ZM112.444 171.835C110.746 171.835 109.633 172.549 108.733 173.783L109.939 174.655C110.496 173.792 111.284 173.208 112.462 173.208C114.216 173.208 114.81 174.052 114.819 175.861H112.193C109.911 175.861 108.371 176.594 108.371 178.515C108.371 180.351 109.744 181.418 111.627 181.418C112.898 181.418 114.179 180.815 114.837 179.609L114.939 181.261H116.248V175.611C116.248 173.31 114.875 171.835 112.444 171.835ZM111.934 180.073C110.672 180.073 109.985 179.47 109.985 178.57C109.985 177.633 110.728 177.012 112.286 177.012H114.819V177.615C114.513 179.006 113.501 180.073 111.934 180.073ZM121.86 181.418C123.651 181.418 125.265 180.472 125.265 178.524C125.265 175.026 120.079 176.288 120.079 174.284C120.079 173.588 120.738 173.087 121.786 173.087C122.872 173.087 123.558 173.709 123.966 174.451L125.182 173.792C124.514 172.558 123.345 171.835 121.842 171.835C120.061 171.835 118.576 172.744 118.576 174.488C118.576 177.819 123.716 176.399 123.716 178.598C123.716 179.414 123.066 180.101 121.786 180.101C120.422 180.101 119.643 179.247 119.328 178.366L118.057 178.923C118.521 180.333 119.986 181.418 121.86 181.418ZM131.268 181.418C132.78 181.418 133.893 180.936 134.923 179.832L133.828 178.876C133.058 179.693 132.297 179.99 131.277 179.99C129.542 179.99 128.605 178.876 128.484 177.095H135.155C135.192 176.956 135.229 176.585 135.229 176.242C135.229 174.33 134.218 171.835 131.11 171.835C128.271 171.835 126.824 174.117 126.824 176.668C126.824 179.275 128.336 181.418 131.268 181.418ZM128.484 175.945C128.661 174.321 129.533 173.161 131.101 173.161C132.659 173.161 133.476 174.21 133.633 175.36C133.67 175.546 133.67 175.741 133.67 175.945H128.484ZM145.805 181.418C147.559 181.418 148.932 180.453 149.516 178.793L148.087 178.255C147.753 179.312 146.9 179.99 145.787 179.99C143.931 179.99 143.124 178.385 143.124 176.641C143.124 174.924 143.931 173.264 145.787 173.264C146.891 173.264 147.744 173.95 148.115 175.026L149.609 174.442C148.922 172.716 147.521 171.835 145.787 171.835C142.92 171.835 141.528 174.21 141.528 176.641C141.528 179.21 143.022 181.418 145.805 181.418ZM155.333 181.418C158.051 181.418 159.916 179.257 159.916 176.603C159.916 173.969 158.051 171.835 155.333 171.835C152.615 171.835 150.769 173.969 150.769 176.603C150.769 179.257 152.615 181.418 155.333 181.418ZM155.333 180.055C153.431 180.055 152.401 178.487 152.401 176.603C152.401 174.729 153.431 173.199 155.333 173.199C157.244 173.199 158.283 174.739 158.283 176.603C158.283 178.477 157.244 180.055 155.333 180.055ZM162.226 181.261H163.803V175.898C163.803 174.414 164.685 173.301 166.132 173.301C167.533 173.301 168.089 174.284 168.089 175.75V181.261H169.657V175.898C169.657 174.414 170.548 173.301 171.977 173.301C173.424 173.301 173.943 174.321 173.943 175.982V181.261H175.521V175.796C175.521 173.56 174.546 171.835 172.283 171.835C170.984 171.835 169.861 172.438 169.249 173.746C168.794 172.382 167.69 171.835 166.438 171.835C165.288 171.835 164.276 172.317 163.738 173.449V171.993H162.217L162.226 181.261ZM178.396 185.101H180.02V179.591C180.623 180.76 181.783 181.418 183.091 181.418C185.633 181.418 187.052 179.247 187.052 176.631C187.052 174.024 185.633 171.835 183.119 171.835C181.82 171.835 180.623 172.494 180.02 173.662V171.993H178.396V185.101ZM182.738 179.99C180.929 179.99 179.881 178.533 179.881 176.631C179.881 174.72 180.929 173.291 182.738 173.291C184.547 173.291 185.475 174.748 185.475 176.631C185.475 178.515 184.547 179.99 182.738 179.99ZM191.171 181.418C191.617 181.418 192.173 181.344 192.6 181.251L192.591 179.925C192.322 179.971 192.062 179.999 191.876 179.999C191.116 179.999 190.958 179.544 190.958 178.923V168.152H189.381V179.34C189.381 180.76 189.938 181.418 191.171 181.418ZM198.287 181.418C199.799 181.418 200.913 180.936 201.942 179.832L200.848 178.876C200.078 179.693 199.317 179.99 198.296 179.99C196.562 179.99 195.625 178.876 195.504 177.095H202.174C202.211 176.956 202.249 176.585 202.249 176.242C202.249 174.33 201.237 171.835 198.129 171.835C195.291 171.835 193.843 174.117 193.843 176.668C193.843 179.275 195.355 181.418 198.287 181.418ZM195.504 175.945C195.68 174.321 196.552 173.161 198.12 173.161C199.679 173.161 200.495 174.21 200.653 175.36C200.69 175.546 200.69 175.741 200.69 175.945H195.504ZM207.527 181.418C208.103 181.418 208.659 181.307 208.956 181.196L208.947 179.767C208.678 179.888 208.223 180.027 207.796 180.027C206.943 180.027 206.451 179.581 206.451 178.412V173.319H208.956V171.993H206.451V168.3L204.902 169.432V171.993H203.353V173.319H204.883V178.672C204.883 180.416 205.83 181.418 207.527 181.418ZM214.856 181.418C216.369 181.418 217.482 180.936 218.512 179.832L217.417 178.876C216.647 179.693 215.886 179.99 214.866 179.99C213.131 179.99 212.194 178.876 212.073 177.095H218.744C218.781 176.956 218.818 176.585 218.818 176.242C218.818 174.33 217.807 171.835 214.699 171.835C211.86 171.835 210.413 174.117 210.413 176.668C210.413 179.275 211.925 181.418 214.856 181.418ZM212.073 175.945C212.25 174.321 213.122 173.161 214.689 173.161C216.248 173.161 217.064 174.21 217.222 175.36C217.259 175.546 217.259 175.741 217.259 175.945H212.073ZM228.865 181.418C229.44 181.418 229.997 181.307 230.294 181.196L230.285 179.767C230.016 179.888 229.561 180.027 229.134 180.027C228.281 180.027 227.789 179.581 227.789 178.412V173.319H230.294V171.993H227.789V168.3L226.24 169.432V171.993H224.69V173.319H226.221V178.672C226.221 180.416 227.167 181.418 228.865 181.418ZM232.316 181.261H233.912V176.167C233.912 174.479 234.775 173.264 236.361 173.264C237.892 173.264 238.43 174.293 238.43 175.778V181.261H240.026V175.49C239.998 173.505 238.978 171.835 236.723 171.835C235.601 171.835 234.543 172.345 233.912 173.403V168.152H232.316V181.261ZM242.855 170.119H244.498V168.152H242.855V170.119ZM242.893 181.261H244.46V171.993H242.893V181.261ZM250.333 181.418C252.124 181.418 253.738 180.472 253.738 178.524C253.738 175.026 248.552 176.288 248.552 174.284C248.552 173.588 249.21 173.087 250.259 173.087C251.344 173.087 252.031 173.709 252.439 174.451L253.654 173.792C252.986 172.558 251.817 171.835 250.314 171.835C248.533 171.835 247.049 172.744 247.049 174.488C247.049 177.819 252.188 176.399 252.188 178.598C252.188 179.414 251.539 180.101 250.259 180.101C248.895 180.101 248.116 179.247 247.8 178.366L246.529 178.923C246.993 180.333 248.459 181.418 250.333 181.418ZM266.485 181.418C269.055 181.418 270.984 180.157 272.014 177.782L270.502 177.16C269.713 179.053 268.424 179.86 266.485 179.86C263.349 179.86 262.032 177.578 262.032 174.627C262.032 171.64 263.479 169.534 266.513 169.534C268.479 169.534 269.862 170.323 270.465 172.206L271.996 171.594C271.003 169.219 269.12 167.975 266.531 167.975C262.431 167.975 260.408 170.898 260.408 174.692C260.408 178.477 262.44 181.418 266.485 181.418ZM279.789 181.418C283.973 181.418 285.921 178.273 285.921 174.702C285.921 171.13 283.973 167.994 279.789 167.994C275.623 167.994 273.684 171.13 273.684 174.702C273.684 178.273 275.623 181.418 279.789 181.418ZM279.789 179.962C276.681 179.962 275.4 177.531 275.4 174.702C275.4 171.881 276.681 169.451 279.789 169.451C282.924 169.451 284.195 171.881 284.195 174.702C284.195 177.531 282.924 179.962 279.789 179.962ZM296.84 168.152L292.805 178.682L288.75 168.152H286.941L292.155 181.261H293.436L298.631 168.152H296.84ZM301.024 181.261H302.657V168.152H301.024V181.261ZM306.572 181.261H310.181C314.514 181.261 316.926 178.895 316.926 174.804C316.926 170.536 314.579 168.152 310.2 168.152H306.572V181.261ZM308.205 179.758V169.655H310.172C313.697 169.655 315.293 171.269 315.293 174.739C315.293 178.255 313.317 179.758 310.023 179.758H308.205ZM319.468 176.158H324.617V174.952H319.468V176.158ZM331.519 168.152V169.172C331.519 169.933 331.092 170.248 330.313 170.248H328.244V171.501H331.463V181.261H333.068V168.152H331.519ZM342.216 167.994C339.702 167.994 337.67 169.979 337.67 172.41C337.67 174.488 339.164 176.195 341.075 176.622C341.761 176.78 342.466 176.761 343.144 176.594L340.277 181.261H342.142L346.075 174.766C346.493 174.071 346.771 173.291 346.771 172.391C346.771 169.979 344.73 167.994 342.216 167.994ZM342.216 175.323C340.583 175.323 339.266 174.006 339.266 172.419C339.266 170.824 340.583 169.516 342.216 169.516C343.858 169.516 345.175 170.814 345.175 172.41C345.175 174.015 343.849 175.323 342.216 175.323ZM87.2095 208.391C89.6309 208.391 91.542 206.906 91.542 204.587C91.542 200.254 84.9365 201.247 84.9365 198.352C84.9365 197.239 85.8643 196.451 87.0796 196.451C88.1836 196.451 89.0278 196.97 89.5845 198L90.939 197.165C90.0854 195.653 88.7402 194.994 87.1353 194.994C85.0293 194.994 83.3037 196.293 83.3037 198.427C83.3037 202.583 89.9092 201.525 89.9092 204.726C89.9092 205.978 88.8887 206.934 87.2373 206.934C85.6045 206.934 84.3428 206.053 84.1108 204.299L82.4966 204.707C82.8955 207.12 84.9272 208.391 87.2095 208.391ZM97.3403 208.418C99.0938 208.418 100.467 207.453 101.051 205.793L99.6226 205.255C99.2886 206.312 98.4351 206.99 97.3218 206.99C95.4663 206.99 94.6592 205.385 94.6592 203.641C94.6592 201.924 95.4663 200.264 97.3218 200.264C98.4258 200.264 99.2793 200.95 99.6504 202.026L101.144 201.442C100.458 199.716 99.0566 198.835 97.3218 198.835C94.4551 198.835 93.0635 201.21 93.0635 203.641C93.0635 206.21 94.5571 208.418 97.3403 208.418ZM103.231 208.261H104.753V203.798C104.753 201.34 106.098 200.366 107.267 200.366C107.638 200.366 107.991 200.468 108.306 200.644L109.03 199.345C108.612 198.993 108.046 198.835 107.499 198.835C106.414 198.835 105.208 199.475 104.762 200.811V198.993H103.231V208.261ZM113.752 208.418C115.264 208.418 116.377 207.936 117.407 206.832L116.312 205.876C115.542 206.693 114.782 206.99 113.761 206.99C112.026 206.99 111.089 205.876 110.969 204.095H117.639C117.676 203.956 117.713 203.585 117.713 203.242C117.713 201.33 116.702 198.835 113.594 198.835C110.755 198.835 109.308 201.117 109.308 203.668C109.308 206.275 110.82 208.418 113.752 208.418ZM110.969 202.945C111.145 201.321 112.017 200.161 113.585 200.161C115.144 200.161 115.96 201.21 116.118 202.36C116.155 202.546 116.155 202.741 116.155 202.945H110.969ZM123.697 208.418C125.209 208.418 126.323 207.936 127.353 206.832L126.258 205.876C125.488 206.693 124.727 206.99 123.707 206.99C121.972 206.99 121.035 205.876 120.914 204.095H127.584C127.622 203.956 127.659 203.585 127.659 203.242C127.659 201.33 126.647 198.835 123.54 198.835C120.701 198.835 119.253 201.117 119.253 203.668C119.253 206.275 120.766 208.418 123.697 208.418ZM120.914 202.945C121.09 201.321 121.962 200.161 123.53 200.161C125.089 200.161 125.905 201.21 126.063 202.36C126.1 202.546 126.1 202.741 126.1 202.945H120.914ZM129.969 208.261H131.537V202.917C131.537 201.173 132.474 200.291 133.949 200.291C135.35 200.291 136.083 201.247 136.083 202.778V208.261H137.65V202.49C137.623 200.505 136.63 198.835 134.375 198.835C133.253 198.835 132.177 199.345 131.537 200.403V198.993H129.969V208.261ZM140.489 197.119H142.131V195.152H140.489V197.119ZM140.526 208.261H142.094V198.993H140.526V208.261ZM145.202 208.261H146.77V202.917C146.77 201.173 147.707 200.291 149.182 200.291C150.583 200.291 151.316 201.247 151.316 202.778V208.261H152.884V202.49C152.856 200.505 151.863 198.835 149.609 198.835C148.486 198.835 147.41 199.345 146.77 200.403V198.993H145.202V208.261ZM159.471 207.036C157.819 206.804 156.585 206.702 156.585 205.765C156.585 205.403 156.771 205.143 157.161 204.958C157.708 205.236 158.348 205.394 159.053 205.394C161.039 205.394 162.625 204.132 162.625 202.175C162.625 201.535 162.458 200.95 162.161 200.468L163.432 199.41L162.616 198.39L161.298 199.531C160.677 199.085 159.879 198.835 159.007 198.835C157.003 198.835 155.398 200.171 155.398 202.091C155.398 202.917 155.686 203.641 156.187 204.206C155.565 204.661 155.231 205.236 155.231 206.034C155.231 206.953 155.695 207.491 156.335 207.825L155.055 208.966C155.036 209.086 155.027 209.198 155.027 209.374C155.027 211.229 156.558 212.565 159.285 212.565C161.558 212.565 163.228 211.563 163.228 209.652C163.228 207.62 161.298 207.305 159.471 207.036ZM159.062 200.059C160.306 200.059 161.066 200.904 161.066 202.11C161.066 203.279 160.315 204.104 159.053 204.104C157.782 204.104 157.021 203.279 157.021 202.1C157.021 200.913 157.81 200.059 159.062 200.059ZM159.276 211.331C157.782 211.331 156.65 210.747 156.465 209.578L156.437 209.3L157.309 208.159C157.847 208.279 158.413 208.344 158.923 208.409C160.621 208.622 161.734 208.799 161.734 209.819C161.734 210.784 160.77 211.331 159.276 211.331ZM174.955 208.418C177.469 208.418 178.888 206.229 178.888 203.622C178.888 201.006 177.469 198.835 174.927 198.835C173.619 198.835 172.459 199.494 171.856 200.662V195.152H170.232V208.261H171.856V206.581C172.459 207.76 173.656 208.418 174.955 208.418ZM174.574 206.962C172.765 206.962 171.717 205.524 171.717 203.622C171.717 201.72 172.765 200.264 174.574 200.264C176.383 200.264 177.311 201.739 177.311 203.622C177.311 205.505 176.383 206.962 174.574 206.962ZM184.946 208.418C186.458 208.418 187.572 207.936 188.602 206.832L187.507 205.876C186.737 206.693 185.976 206.99 184.956 206.99C183.221 206.99 182.284 205.876 182.163 204.095H188.833C188.871 203.956 188.908 203.585 188.908 203.242C188.908 201.33 187.896 198.835 184.789 198.835C181.95 198.835 180.502 201.117 180.502 203.668C180.502 206.275 182.015 208.418 184.946 208.418ZM182.163 202.945C182.339 201.321 183.211 200.161 184.779 200.161C186.338 200.161 187.154 201.21 187.312 202.36C187.349 202.546 187.349 202.741 187.349 202.945H182.163ZM191.821 208.261H193.444V200.319H195.977V198.993H193.444V197.777C193.444 196.812 193.936 196.395 194.715 196.395C194.984 196.395 195.263 196.497 195.532 196.645L196.051 195.356C195.597 195.133 195.096 194.994 194.576 194.994C193.018 194.994 191.83 195.903 191.83 197.62V198.993H189.965V200.319H191.821V208.261ZM201.163 208.418C203.881 208.418 205.746 206.257 205.746 203.603C205.746 200.969 203.881 198.835 201.163 198.835C198.445 198.835 196.599 200.969 196.599 203.603C196.599 206.257 198.445 208.418 201.163 208.418ZM201.163 207.055C199.261 207.055 198.231 205.487 198.231 203.603C198.231 201.729 199.261 200.199 201.163 200.199C203.074 200.199 204.113 201.739 204.113 203.603C204.113 205.477 203.074 207.055 201.163 207.055ZM208.047 208.261H209.568V203.798C209.568 201.34 210.914 200.366 212.083 200.366C212.454 200.366 212.806 200.468 213.122 200.644L213.845 199.345C213.428 198.993 212.862 198.835 212.314 198.835C211.229 198.835 210.023 199.475 209.578 200.811V198.993H208.047V208.261ZM218.567 208.418C220.08 208.418 221.193 207.936 222.223 206.832L221.128 205.876C220.358 206.693 219.597 206.99 218.577 206.99C216.842 206.99 215.905 205.876 215.784 204.095H222.455C222.492 203.956 222.529 203.585 222.529 203.242C222.529 201.33 221.518 198.835 218.41 198.835C215.571 198.835 214.124 201.117 214.124 203.668C214.124 206.275 215.636 208.418 218.567 208.418ZM215.784 202.945C215.96 201.321 216.833 200.161 218.4 200.161C219.959 200.161 220.775 201.21 220.933 202.36C220.97 202.546 220.97 202.741 220.97 202.945H215.784ZM232.827 198.835C231.129 198.835 230.016 199.549 229.116 200.783L230.322 201.655C230.878 200.792 231.667 200.208 232.845 200.208C234.599 200.208 235.192 201.052 235.202 202.861H232.576C230.294 202.861 228.754 203.594 228.754 205.515C228.754 207.351 230.127 208.418 232.01 208.418C233.281 208.418 234.562 207.815 235.22 206.609L235.322 208.261H236.63V202.611C236.63 200.31 235.257 198.835 232.827 198.835ZM232.316 207.073C231.055 207.073 230.368 206.47 230.368 205.57C230.368 204.633 231.11 204.012 232.669 204.012H235.202V204.615C234.896 206.006 233.884 207.073 232.316 207.073ZM242.41 208.418C242.985 208.418 243.542 208.307 243.839 208.196L243.83 206.767C243.561 206.888 243.106 207.027 242.679 207.027C241.826 207.027 241.334 206.581 241.334 205.412V200.319H243.839V198.993H241.334V195.3L239.785 196.432V198.993H238.235V200.319H239.766V205.672C239.766 207.416 240.712 208.418 242.41 208.418ZM249.09 208.418C249.665 208.418 250.222 208.307 250.519 208.196L250.509 206.767C250.24 206.888 249.786 207.027 249.359 207.027C248.505 207.027 248.014 206.581 248.014 205.412V200.319H250.519V198.993H248.014V195.3L246.464 196.432V198.993H244.915V200.319H246.446V205.672C246.446 207.416 247.392 208.418 249.09 208.418ZM256.419 208.418C257.931 208.418 259.044 207.936 260.074 206.832L258.979 205.876C258.209 206.693 257.449 206.99 256.428 206.99C254.693 206.99 253.756 205.876 253.636 204.095H260.306C260.343 203.956 260.38 203.585 260.38 203.242C260.38 201.33 259.369 198.835 256.261 198.835C253.422 198.835 251.975 201.117 251.975 203.668C251.975 206.275 253.487 208.418 256.419 208.418ZM253.636 202.945C253.812 201.321 254.684 200.161 256.252 200.161C257.811 200.161 258.627 201.21 258.785 202.36C258.822 202.546 258.822 202.741 258.822 202.945H253.636ZM262.69 208.261H264.258V202.917C264.258 201.173 265.195 200.291 266.67 200.291C268.071 200.291 268.804 201.247 268.804 202.778V208.261H270.372V202.49C270.344 200.505 269.352 198.835 267.097 198.835C265.975 198.835 264.898 199.345 264.258 200.403V198.993H262.69V208.261ZM276.579 208.418C277.915 208.418 279.111 207.732 279.714 206.507L279.779 208.261H281.245V195.152H279.649V200.662C279.046 199.494 277.85 198.835 276.551 198.835C274.037 198.835 272.487 201.015 272.487 203.622C272.487 206.238 274.037 208.418 276.579 208.418ZM276.95 206.99C275.131 206.99 274.083 205.515 274.083 203.622C274.083 201.739 275.131 200.264 276.95 200.264C278.75 200.264 279.779 201.72 279.779 203.622C279.779 205.533 278.75 206.99 276.95 206.99ZM284.344 197.119H285.986V195.152H284.344V197.119ZM284.381 208.261H285.949V198.993H284.381V208.261ZM289.057 208.261H290.625V202.917C290.625 201.173 291.562 200.291 293.037 200.291C294.438 200.291 295.17 201.247 295.17 202.778V208.261H296.738V202.49C296.71 200.505 295.718 198.835 293.463 198.835C292.341 198.835 291.265 199.345 290.625 200.403V198.993H289.057V208.261ZM303.325 207.036C301.674 206.804 300.44 206.702 300.44 205.765C300.44 205.403 300.625 205.143 301.015 204.958C301.562 205.236 302.203 205.394 302.908 205.394C304.893 205.394 306.479 204.132 306.479 202.175C306.479 201.535 306.312 200.95 306.016 200.468L307.287 199.41L306.47 198.39L305.153 199.531C304.531 199.085 303.733 198.835 302.861 198.835C300.857 198.835 299.252 200.171 299.252 202.091C299.252 202.917 299.54 203.641 300.041 204.206C299.419 204.661 299.085 205.236 299.085 206.034C299.085 206.953 299.549 207.491 300.189 207.825L298.909 208.966C298.891 209.086 298.881 209.198 298.881 209.374C298.881 211.229 300.412 212.565 303.14 212.565C305.413 212.565 307.083 211.563 307.083 209.652C307.083 207.62 305.153 207.305 303.325 207.036ZM302.917 200.059C304.16 200.059 304.921 200.904 304.921 202.11C304.921 203.279 304.169 204.104 302.908 204.104C301.637 204.104 300.876 203.279 300.876 202.1C300.876 200.913 301.665 200.059 302.917 200.059ZM303.13 211.331C301.637 211.331 300.505 210.747 300.319 209.578L300.292 209.3L301.164 208.159C301.702 208.279 302.268 208.344 302.778 208.409C304.476 208.622 305.589 208.799 305.589 209.819C305.589 210.784 304.624 211.331 303.13 211.331ZM316.833 208.418C318.624 208.418 320.238 207.472 320.238 205.524C320.238 202.026 315.052 203.288 315.052 201.284C315.052 200.588 315.71 200.087 316.759 200.087C317.844 200.087 318.531 200.709 318.939 201.451L320.154 200.792C319.486 199.558 318.317 198.835 316.814 198.835C315.033 198.835 313.549 199.744 313.549 201.488C313.549 204.819 318.688 203.399 318.688 205.598C318.688 206.414 318.039 207.101 316.759 207.101C315.395 207.101 314.616 206.247 314.3 205.366L313.029 205.923C313.493 207.333 314.959 208.418 316.833 208.418ZM322.585 197.119H324.227V195.152H322.585V197.119ZM322.622 208.261H324.19V198.993H322.622V208.261ZM330.267 208.418C330.842 208.418 331.398 208.307 331.695 208.196L331.686 206.767C331.417 206.888 330.962 207.027 330.536 207.027C329.682 207.027 329.19 206.581 329.19 205.412V200.319H331.695V198.993H329.19V195.3L327.641 196.432V198.993H326.092V200.319H327.623V205.672C327.623 207.416 328.569 208.418 330.267 208.418ZM337.596 208.418C339.108 208.418 340.221 207.936 341.251 206.832L340.156 205.876C339.386 206.693 338.625 206.99 337.605 206.99C335.87 206.99 334.933 205.876 334.812 204.095H341.483C341.52 203.956 341.557 203.585 341.557 203.242C341.557 201.33 340.546 198.835 337.438 198.835C334.599 198.835 333.152 201.117 333.152 203.668C333.152 206.275 334.664 208.418 337.596 208.418ZM334.812 202.945C334.989 201.321 335.861 200.161 337.429 200.161C338.987 200.161 339.804 201.21 339.961 202.36C339.999 202.546 339.999 202.741 339.999 202.945H334.812ZM344.498 201.581H346.214V199.41H344.498V201.581ZM344.498 208.261H346.214V206.08H344.498V208.261Z" fill="#535353"/>
<path d="M83.2578 259.359H84.7695V254.534C84.7695 252.935 85.5869 251.783 87.0898 251.783C88.54 251.783 89.0498 252.759 89.0498 254.165V259.359H90.5615V253.893C90.5352 252.012 89.5684 250.43 87.4326 250.43C86.3691 250.43 85.3672 250.913 84.7695 251.915V246.94H83.2578V259.359ZM96.0898 259.509C96.6348 259.509 97.1621 259.403 97.4434 259.298L97.4346 257.944C97.1797 258.059 96.749 258.19 96.3447 258.19C95.5361 258.19 95.0703 257.769 95.0703 256.661V251.836H97.4434V250.579H95.0703V247.081L93.6025 248.153V250.579H92.1348V251.836H93.585V256.907C93.585 258.56 94.4814 259.509 96.0898 259.509ZM102.418 259.509C102.963 259.509 103.49 259.403 103.771 259.298L103.763 257.944C103.508 258.059 103.077 258.19 102.673 258.19C101.864 258.19 101.398 257.769 101.398 256.661V251.836H103.771V250.579H101.398V247.081L99.9307 248.153V250.579H98.4629V251.836H99.9131V256.907C99.9131 258.56 100.81 259.509 102.418 259.509ZM105.846 262.998H107.384V257.777C107.955 258.885 109.054 259.509 110.293 259.509C112.701 259.509 114.046 257.452 114.046 254.974C114.046 252.504 112.701 250.43 110.319 250.43C109.089 250.43 107.955 251.054 107.384 252.161V250.579H105.846V262.998ZM109.959 258.155C108.245 258.155 107.252 256.775 107.252 254.974C107.252 253.163 108.245 251.81 109.959 251.81C111.673 251.81 112.552 253.19 112.552 254.974C112.552 256.758 111.673 258.155 109.959 258.155ZM118.924 259.509C120.62 259.509 122.149 258.612 122.149 256.767C122.149 253.453 117.236 254.648 117.236 252.75C117.236 252.091 117.86 251.616 118.854 251.616C119.882 251.616 120.532 252.205 120.919 252.908L122.07 252.284C121.438 251.115 120.33 250.43 118.906 250.43C117.219 250.43 115.812 251.291 115.812 252.943C115.812 256.099 120.682 254.754 120.682 256.837C120.682 257.61 120.066 258.261 118.854 258.261C117.562 258.261 116.823 257.452 116.524 256.617L115.32 257.145C115.76 258.481 117.148 259.509 118.924 259.509ZM125.006 253.031H126.632V250.975H125.006V253.031ZM125.006 259.359H126.632V257.294H125.006V259.359ZM128.688 263.121H130.095L136.493 246.94H135.096L128.688 263.121ZM134.946 263.121H136.353L142.751 246.94H141.354L134.946 263.121ZM145.256 259.509C146.952 259.509 148.481 258.612 148.481 256.767C148.481 253.453 143.568 254.648 143.568 252.75C143.568 252.091 144.192 251.616 145.186 251.616C146.214 251.616 146.864 252.205 147.251 252.908L148.402 252.284C147.77 251.115 146.662 250.43 145.238 250.43C143.551 250.43 142.145 251.291 142.145 252.943C142.145 256.099 147.014 254.754 147.014 256.837C147.014 257.61 146.398 258.261 145.186 258.261C143.894 258.261 143.155 257.452 142.856 256.617L141.652 257.145C142.092 258.481 143.48 259.509 145.256 259.509ZM150.705 248.804H152.261V246.94H150.705V248.804ZM150.74 259.359H152.226V250.579H150.74V259.359ZM155.17 259.359H156.655V254.297C156.655 252.645 157.543 251.81 158.94 251.81C160.268 251.81 160.962 252.715 160.962 254.165V259.359H162.447V253.893C162.421 252.012 161.48 250.43 159.345 250.43C158.281 250.43 157.262 250.913 156.655 251.915V250.579H155.17V259.359ZM168.652 259.509C170.085 259.509 171.14 259.052 172.115 258.006L171.078 257.101C170.349 257.874 169.628 258.155 168.661 258.155C167.018 258.155 166.13 257.101 166.016 255.413H172.335C172.37 255.281 172.405 254.93 172.405 254.605C172.405 252.794 171.447 250.43 168.503 250.43C165.813 250.43 164.442 252.592 164.442 255.009C164.442 257.479 165.875 259.509 168.652 259.509ZM166.016 254.323C166.183 252.785 167.009 251.687 168.494 251.687C169.971 251.687 170.744 252.68 170.894 253.77C170.929 253.945 170.929 254.13 170.929 254.323H166.016ZM172.985 263.121H174.392L180.79 246.94H179.393L172.985 263.121ZM183.295 259.359H184.666L186.846 252.653L189.017 259.359H190.388L193.007 250.579H191.416L189.623 257.092L187.505 250.579H186.187L184.06 257.101L182.284 250.579H180.693L183.295 259.359ZM195.714 259.359H197.252V251.836H199.651V250.579H197.252V249.428C197.252 248.514 197.718 248.118 198.456 248.118C198.711 248.118 198.975 248.215 199.229 248.356L199.722 247.134C199.291 246.923 198.816 246.791 198.324 246.791C196.848 246.791 195.723 247.652 195.723 249.278V250.579H193.956V251.836H195.714V259.359ZM199.546 263.121H200.952L207.351 246.94H205.953L199.546 263.121ZM209.188 259.359H216.298V257.892H210.734V246.94H209.188V259.359ZM220.051 259.359H221.589L224.621 250.069L227.653 259.359H229.183L232.812 246.94H231.204L228.312 257.118L225.236 247.626H224.006L220.921 257.118L218.029 246.94H216.421L220.051 259.359ZM239.747 259.509C243.711 259.509 245.557 256.529 245.557 253.146C245.557 249.762 243.711 246.791 239.747 246.791C235.801 246.791 233.964 249.762 233.964 253.146C233.964 256.529 235.801 259.509 239.747 259.509ZM239.747 258.129C236.803 258.129 235.59 255.826 235.59 253.146C235.59 250.474 236.803 248.171 239.747 248.171C242.718 248.171 243.922 250.474 243.922 253.146C243.922 255.826 242.718 258.129 239.747 258.129ZM251.902 250.992C251.05 250.992 250.241 251.256 249.433 251.845L250.065 248.364H255.4V246.94H248.835L247.684 253.374L249.151 253.77C249.74 252.882 250.707 252.381 251.683 252.381C253.344 252.381 254.407 253.62 254.407 255.167C254.407 256.723 253.221 258.103 251.595 258.103C249.969 258.103 249.046 256.89 248.738 255.475L247.306 255.87C247.763 257.953 249.459 259.509 251.595 259.509C254.021 259.509 255.98 257.531 255.98 255.185C255.98 252.847 254.17 250.992 251.902 250.992ZM268.769 260.221L269.771 259.272L267.995 257.558C268.9 256.433 269.366 254.851 269.366 253.163C269.366 249.779 267.521 246.791 263.565 246.791C259.619 246.791 257.773 249.762 257.773 253.146C257.773 256.529 259.619 259.509 263.565 259.509C264.954 259.509 266.097 259.122 266.993 258.445L268.769 260.221ZM263.565 258.041C260.612 258.041 259.32 255.826 259.32 253.146C259.32 250.474 260.612 248.25 263.565 248.25C266.527 248.25 267.819 250.474 267.819 253.146C267.819 254.42 267.521 255.545 266.879 256.441L264.954 254.605L263.943 255.527L265.895 257.373C265.306 257.786 264.532 258.041 263.565 258.041ZM275.334 259.509C278.164 259.509 279.342 257.637 279.342 254.851V246.94H272.864V248.364H277.786V254.868C277.786 256.951 277.171 258.067 275.334 258.067C273.761 258.067 272.926 256.978 272.82 255.483L271.3 255.65C271.458 257.83 272.926 259.509 275.334 259.509ZM292.675 246.94L288.799 256.591L284.923 246.94H282.805V259.359H284.299V249.032L288.043 258.322H289.555L293.299 249.032V259.359H294.793V246.94H292.675ZM301.262 259.359H302.809V248.329H306.992V246.94H297.078V248.329H301.262V259.359Z" fill="#3982F7"/>
</g>
<path d="M232.391 80.9234H235.023V66.2822H232.391V80.9234ZM238.412 80.9234H240.94V75.2555C240.94 73.4526 241.831 72.6858 243.251 72.6858C244.546 72.6858 245.23 73.6702 245.23 75.0276V80.9234H247.758V74.7063C247.758 72.5407 246.691 70.3544 243.976 70.3544C242.96 70.3544 241.769 70.7585 240.94 71.774V70.572H238.412V80.9234ZM254.13 81.1306C254.887 81.1306 255.633 80.9648 256.016 80.8198V78.5298C255.674 78.6956 255.104 78.9029 254.576 78.9029C253.913 78.9029 253.426 78.6127 253.426 77.618V72.6858H256.016V70.572H253.426V66.1993L250.939 68.0023V70.572H249.229V72.6858H250.897V78.0636C250.897 79.9494 252.11 81.1306 254.13 81.1306ZM262.575 81.1306C264.316 81.1306 265.694 80.5193 266.824 79.2655L265.083 77.7423C264.357 78.5506 263.528 78.8407 262.596 78.8407C260.969 78.8407 260.223 77.9289 260.005 76.5715H267.114C267.165 76.4264 267.207 76.0016 267.207 75.5767C267.207 73.2661 266.036 70.3544 262.409 70.3544C258.907 70.3544 257.332 73.0899 257.332 75.784C257.332 78.5713 259.011 81.1306 262.575 81.1306ZM260.005 74.7478C260.244 73.4526 260.897 72.4786 262.389 72.4786C263.487 72.4786 264.378 73.0277 264.637 74.095C264.699 74.3022 264.72 74.5198 264.72 74.7478H260.005ZM269.331 80.9234H271.776V76.5507C271.776 73.9189 273.009 72.8205 274.191 72.8205C274.595 72.8205 274.978 72.9448 275.32 73.1728L276.47 71.1005C275.973 70.5927 275.258 70.3544 274.574 70.3544C273.414 70.3544 272.243 71.059 271.797 72.3128V70.572H269.331V80.9234ZM277.848 80.9234H280.377V75.2555C280.377 73.4526 281.268 72.6858 282.687 72.6858C283.983 72.6858 284.666 73.6702 284.666 75.0276V80.9234H287.195V74.7063C287.195 72.5407 286.127 70.3544 283.413 70.3544C282.397 70.3544 281.206 70.7585 280.377 71.774V70.572H277.848V80.9234ZM293.733 70.3544C291.692 70.3544 290.376 71.2662 289.381 72.6236L291.319 74.0225C291.764 73.2661 292.562 72.5615 293.754 72.5615C295.401 72.5615 295.857 73.2143 295.909 74.7478H293.101C290.78 74.7478 288.977 75.4938 288.977 77.7423C288.977 79.9079 290.614 81.1306 292.738 81.1306C293.919 81.1306 295.298 80.6125 295.971 79.5453L296.127 80.9234H298.209V74.6442C298.209 72.1159 296.551 70.3544 293.733 70.3544ZM293.246 78.9961C292.117 78.9961 291.567 78.5091 291.567 77.8252C291.567 77.1724 292.096 76.5715 293.246 76.5715H295.919V76.6544C295.764 77.877 294.8 78.9961 293.246 78.9961ZM304.509 81.1306C305.266 81.1306 306.012 80.9648 306.395 80.8198V78.5298C306.053 78.6956 305.483 78.9029 304.955 78.9029C304.292 78.9029 303.805 78.6127 303.805 77.618V72.6858H306.395V70.572H303.805V66.1993L301.318 68.0023V70.572H299.608V72.6858H301.276V78.0636C301.276 79.9494 302.489 81.1306 304.509 81.1306ZM308.664 68.6136H311.317V66.2822H308.664V68.6136ZM308.726 80.9234H311.255V70.572H308.726V80.9234ZM318.612 81.1306C321.813 81.1306 323.917 78.6542 323.917 75.7218C323.917 72.7998 321.813 70.3544 318.612 70.3544C315.41 70.3544 313.306 72.7998 313.306 75.7218C313.306 78.6542 315.41 81.1306 318.612 81.1306ZM318.612 78.9547C316.705 78.9547 315.938 77.4211 315.938 75.7218C315.938 74.0225 316.705 72.5407 318.612 72.5407C320.529 72.5407 321.285 74.0225 321.285 75.7218C321.285 77.4211 320.529 78.9547 318.612 78.9547ZM325.968 80.9234H328.497V75.2555C328.497 73.4526 329.388 72.6858 330.807 72.6858C332.103 72.6858 332.786 73.6702 332.786 75.0276V80.9234H335.315V74.7063C335.315 72.5407 334.247 70.3544 331.533 70.3544C330.517 70.3544 329.326 70.7585 328.497 71.774V70.572H325.968V80.9234ZM341.853 70.3544C339.812 70.3544 338.496 71.2662 337.501 72.6236L339.439 74.0225C339.884 73.2661 340.682 72.5615 341.874 72.5615C343.521 72.5615 343.977 73.2143 344.029 74.7478H341.221C338.9 74.7478 337.097 75.4938 337.097 77.7423C337.097 79.9079 338.734 81.1306 340.858 81.1306C342.04 81.1306 343.418 80.6125 344.091 79.5453L344.247 80.9234H346.329V74.6442C346.329 72.1159 344.671 70.3544 341.853 70.3544ZM341.366 78.9961C340.237 78.9961 339.687 78.5091 339.687 77.8252C339.687 77.1724 340.216 76.5715 341.366 76.5715H344.039V76.6544C343.884 77.877 342.92 78.9961 341.366 78.9961ZM351.137 81.1306C351.738 81.1306 352.495 81.027 353.023 80.9234V78.7992C352.754 78.8407 352.474 78.8614 352.329 78.8614C351.821 78.8614 351.5 78.6542 351.5 78.1672V66.2822H348.972V78.8614C348.972 80.6851 349.946 81.1306 351.137 81.1306ZM369.509 66.2822L365.581 76.6544L361.634 66.2822H358.722L364.587 80.9234H366.555L372.389 66.2822H369.509ZM373.964 68.6136H376.617V66.2822H373.964V68.6136ZM374.026 80.9234H376.555V70.572H374.026V80.9234ZM382.699 81.1306C384.657 81.1306 386.74 80.0737 386.74 77.6802C386.74 73.8774 381.476 74.81 381.476 73.2453C381.476 72.7583 381.984 72.3542 382.813 72.3542C383.932 72.3542 384.512 73.0277 384.865 73.6702L386.823 72.6029C386.036 71.2041 384.678 70.3544 382.896 70.3544C380.896 70.3544 379.052 71.3906 379.052 73.5769C379.052 77.2346 384.253 76.0637 384.253 77.8045C384.253 78.3537 383.746 79.0376 382.575 79.0376C381.197 79.0376 380.647 78.0843 380.368 77.3382L378.357 78.2293C378.865 79.8251 380.523 81.1306 382.699 81.1306ZM388.947 68.6136H391.6V66.2822H388.947V68.6136ZM389.009 80.9234H391.538V70.572H389.009V80.9234ZM398.221 81.1306C398.977 81.1306 399.723 80.9648 400.107 80.8198V78.5298C399.765 78.6956 399.195 78.9029 398.667 78.9029C398.003 78.9029 397.516 78.6127 397.516 77.618V72.6858H400.107V70.572H397.516V66.1993L395.03 68.0023V70.572H393.32V72.6858H394.988V78.0636C394.988 79.9494 396.2 81.1306 398.221 81.1306ZM406.666 81.1306C409.868 81.1306 411.971 78.6542 411.971 75.7218C411.971 72.7998 409.868 70.3544 406.666 70.3544C403.464 70.3544 401.361 72.7998 401.361 75.7218C401.361 78.6542 403.464 81.1306 406.666 81.1306ZM406.666 78.9547C404.759 78.9547 403.992 77.4211 403.992 75.7218C403.992 74.0225 404.759 72.5407 406.666 72.5407C408.583 72.5407 409.339 74.0225 409.339 75.7218C409.339 77.4211 408.583 78.9547 406.666 78.9547ZM414.023 80.9234H416.468V76.5507C416.468 73.9189 417.701 72.8205 418.882 72.8205C419.286 72.8205 419.67 72.9448 420.012 73.1728L421.162 71.1005C420.665 70.5927 419.95 70.3544 419.266 70.3544C418.105 70.3544 416.934 71.059 416.489 72.3128V70.572H414.023V80.9234ZM427.98 80.9234H430.612V66.2822H427.98V80.9234ZM434 80.9234H436.528V75.2555C436.528 73.4526 437.42 72.6858 438.839 72.6858C440.134 72.6858 440.818 73.6702 440.818 75.0276V80.9234H443.346V74.7063C443.346 72.5407 442.279 70.3544 439.564 70.3544C438.549 70.3544 437.357 70.7585 436.528 71.774V70.572H434V80.9234ZM448.507 80.9234H450.589L454.817 70.572H452.071L449.553 77.6594L447.046 70.572H444.289L448.507 80.9234ZM456.174 68.6136H458.827V66.2822H456.174V68.6136ZM456.236 80.9234H458.765V70.572H456.236V80.9234ZM465.448 81.1306C466.204 81.1306 466.951 80.9648 467.334 80.8198V78.5298C466.992 78.6956 466.422 78.9029 465.894 78.9029C465.23 78.9029 464.743 78.6127 464.743 77.618V72.6858H467.334V70.572H464.743V66.1993L462.257 68.0023V70.572H460.547V72.6858H462.215V78.0636C462.215 79.9494 463.428 81.1306 465.448 81.1306ZM473.893 81.1306C475.634 81.1306 477.012 80.5193 478.141 79.2655L476.4 77.7423C475.675 78.5506 474.846 78.8407 473.914 78.8407C472.287 78.8407 471.541 77.9289 471.323 76.5715H478.431C478.483 76.4264 478.525 76.0016 478.525 75.5767C478.525 73.2661 477.354 70.3544 473.727 70.3544C470.225 70.3544 468.65 73.0899 468.65 75.784C468.65 78.5713 470.328 81.1306 473.893 81.1306ZM471.323 74.7478C471.561 73.4526 472.214 72.4786 473.706 72.4786C474.805 72.4786 475.696 73.0277 475.955 74.095C476.017 74.3022 476.038 74.5198 476.038 74.7478H471.323Z" fill="white"/>
<path fill-rule="evenodd" clip-rule="evenodd" d="M378.393 166.978H382.792V171.378H378.393V166.978ZM382.792 166.978H387.191V171.377H382.792V166.978ZM387.191 166.978H391.59V171.377H387.191V166.978ZM391.592 166.978H395.991V171.377H391.592V166.978ZM395.993 166.978H400.392V171.377H395.993V166.978ZM400.386 166.978H404.785V171.377H400.386V166.978ZM404.789 166.978H409.188V171.377H404.789V166.978ZM422.383 166.978H426.782V171.377H422.383V166.978ZM426.785 166.978H431.185V171.377H426.785V166.978ZM431.184 166.978H435.584V171.377H431.184V166.978ZM439.982 166.978H444.381V171.377H439.982V166.978ZM444.378 166.978H448.777V171.377H444.378V166.978ZM448.778 166.978H453.177V171.377H448.778V166.978ZM453.177 166.978H457.576V171.377H453.177V166.978ZM457.576 166.978H461.975V171.377H457.576V166.978ZM461.977 166.978H466.376V171.377H461.977V166.978ZM466.378 166.978H470.777V171.377H466.378V166.978ZM378.393 171.378H382.793V175.777H378.393V171.378ZM404.789 171.378H409.188V175.777H404.789V171.378ZM413.585 171.378H417.984V175.777H413.585V171.378ZM417.986 171.378H422.385V175.777H417.986V171.378ZM422.383 171.378H426.782V175.777H422.383V171.378ZM431.184 171.378H435.584V175.777H431.184V171.378ZM439.982 171.378H444.381V175.777H439.982V171.378ZM466.378 171.378H470.777V175.777H466.378V171.378ZM378.393 175.777H382.793V180.176H378.393V175.777ZM387.191 175.777H391.59V180.176H387.191V175.777ZM391.592 175.777H395.991V180.176H391.592V175.777ZM395.993 175.777H400.392V180.176H395.993V175.777ZM404.789 175.777H409.188V180.176H404.789V175.777ZM422.383 175.777H426.782V180.176H422.383V175.777ZM426.785 175.777H431.185V180.176H426.785V175.777ZM431.184 175.777H435.584V180.176H431.184V175.777ZM439.982 175.777H444.381V180.176H439.982V175.777ZM448.778 175.777H453.177V180.176H448.778V175.777ZM453.177 175.777H457.576V180.176H453.177V175.777ZM457.576 175.777H461.975V180.176H457.576V175.777ZM466.378 175.777H470.777V180.176H466.378V175.777ZM378.393 180.175H382.793V184.574H378.393V180.175ZM387.191 180.175H391.59V184.574H387.191V180.175ZM391.592 180.175H395.991V184.574H391.592V180.175ZM395.993 180.175H400.392V184.574H395.993V180.175ZM404.789 180.175H409.188V184.574H404.789V180.175ZM413.585 180.175H417.984V184.574H413.585V180.175ZM417.986 180.175H422.385V184.574H417.986V180.175ZM431.184 180.175H435.584V184.574H431.184V180.175ZM439.982 180.175H444.381V184.574H439.982V180.175ZM448.778 180.175H453.177V184.574H448.778V180.175ZM453.177 180.175H457.576V184.574H453.177V180.175ZM457.576 180.175H461.975V184.574H457.576V180.175ZM466.378 180.175H470.777V184.574H466.378V180.175ZM378.393 184.575H382.793V188.974H378.393V184.575ZM387.191 184.575H391.59V188.974H387.191V184.575ZM391.592 184.575H395.991V188.974H391.592V184.575ZM395.993 184.575H400.392V188.974H395.993V184.575ZM404.789 184.575H409.188V188.974H404.789V184.575ZM417.986 184.575H422.385V188.974H417.986V184.575ZM431.184 184.575H435.584V188.974H431.184V184.575ZM439.982 184.575H444.381V188.974H439.982V184.575ZM448.778 184.575H453.177V188.974H448.778V184.575ZM453.177 184.575H457.576V188.974H453.177V184.575ZM457.576 184.575H461.975V188.974H457.576V184.575ZM466.378 184.575H470.777V188.974H466.378V184.575ZM378.393 188.973H382.793V193.373H378.393V188.973ZM404.789 188.973H409.188V193.373H404.789V188.973ZM413.585 188.973H417.984V193.373H413.585V188.973ZM426.785 188.973H431.185V193.373H426.785V188.973ZM439.982 188.973H444.381V193.373H439.982V188.973ZM466.378 188.973H470.777V193.373H466.378V188.973ZM378.393 193.373H382.793V197.772H378.393V193.373ZM382.792 193.373H387.191V197.772H382.792V193.373ZM387.191 193.373H391.59V197.772H387.191V193.373ZM391.592 193.373H395.991V197.772H391.592V193.373ZM395.993 193.373H400.392V197.772H395.993V193.373ZM400.386 193.373H404.785V197.772H400.386V193.373ZM404.789 193.373H409.188V197.772H404.789V193.373ZM413.585 193.373H417.984V197.772H413.585V193.373ZM422.383 193.373H426.782V197.772H422.383V193.373ZM431.184 193.373H435.584V197.772H431.184V193.373ZM439.982 193.373H444.381V197.772H439.982V193.373ZM444.378 193.373H448.777V197.772H444.378V193.373ZM448.778 193.373H453.177V197.772H448.778V193.373ZM453.177 193.373H457.576V197.772H453.177V193.373ZM457.576 193.373H461.975V197.772H457.576V193.373ZM461.977 193.373H466.376V197.772H461.977V193.373ZM466.378 193.373H470.777V197.772H466.378V193.373ZM417.986 197.771H422.385V202.171H417.986V197.771ZM378.393 202.171H382.793V206.57H378.393V202.171ZM382.792 202.171H387.191V206.57H382.792V202.171ZM387.191 202.171H391.59V206.57H387.191V202.171ZM391.592 202.171H395.991V206.57H391.592V202.171ZM395.993 202.171H400.392V206.57H395.993V202.171ZM404.789 202.171H409.188V206.57H404.789V202.171ZM409.186 202.171H413.585V206.57H409.186V202.171ZM413.585 202.171H417.984V206.57H413.585V202.171ZM426.785 202.171H431.185V206.57H426.785V202.171ZM435.583 202.171H439.982V206.57H435.583V202.171ZM444.378 202.171H448.777V206.57H444.378V202.171ZM453.177 202.171H457.576V206.57H453.177V202.171ZM461.977 202.171H466.376V206.57H461.977V202.171ZM382.792 206.57H387.191V210.969H382.792V206.57ZM387.191 206.57H391.59V210.969H387.191V206.57ZM391.592 206.57H395.991V210.969H391.592V206.57ZM426.785 206.57H431.185V210.969H426.785V206.57ZM431.184 206.57H435.584V210.969H431.184V206.57ZM435.583 206.57H439.982V210.969H435.583V206.57ZM439.982 206.57H444.381V210.969H439.982V206.57ZM461.977 206.57H466.376V210.969H461.977V206.57ZM382.792 210.969H387.191V215.369H382.792V210.969ZM391.592 210.969H395.991V215.369H391.592V210.969ZM400.386 210.969H404.785V215.369H400.386V210.969ZM404.789 210.969H409.188V215.369H404.789V210.969ZM409.186 210.969H413.585V215.369H409.186V210.969ZM413.585 210.969H417.984V215.369H413.585V210.969ZM431.184 210.969H435.584V215.369H431.184V210.969ZM439.982 210.969H444.381V215.369H439.982V210.969ZM444.378 210.969H448.777V215.369H444.378V210.969ZM453.177 210.969H457.576V215.369H453.177V210.969ZM461.977 210.969H466.376V215.369H461.977V210.969ZM466.378 210.969H470.777V215.369H466.378V210.969ZM378.393 215.368H382.793V219.767H378.393V215.368ZM382.792 215.368H387.191V219.767H382.792V215.368ZM387.191 215.368H391.59V219.767H387.191V215.368ZM400.386 215.368H404.785V219.767H400.386V215.368ZM409.186 215.368H413.585V219.767H409.186V215.368ZM426.785 215.368H431.185V219.767H426.785V215.368ZM431.184 215.368H435.584V219.767H431.184V215.368ZM435.583 215.368H439.982V219.767H435.583V215.368ZM439.982 215.368H444.381V219.767H439.982V215.368ZM453.177 215.368H457.576V219.767H453.177V215.368ZM466.378 215.368H470.777V219.767H466.378V215.368ZM378.393 219.767H382.793V224.166H378.393V219.767ZM382.792 219.767H387.191V224.166H382.792V219.767ZM387.191 219.767H391.59V224.166H387.191V219.767ZM391.592 219.767H395.991V224.166H391.592V219.767ZM404.789 219.767H409.188V224.166H404.789V219.767ZM409.186 219.767H413.585V224.166H409.186V219.767ZM417.986 219.767H422.385V224.166H417.986V219.767ZM422.383 219.767H426.782V224.166H422.383V219.767ZM431.184 219.767H435.584V224.166H431.184V219.767ZM444.378 219.767H448.777V224.166H444.378V219.767ZM457.576 219.767H461.975V224.166H457.576V219.767ZM466.378 219.767H470.777V224.166H466.378V219.767ZM413.585 224.167H417.984V228.566H413.585V224.167ZM422.383 224.167H426.782V228.566H422.383V224.167ZM431.184 224.167H435.584V228.566H431.184V224.167ZM444.378 224.167H448.777V228.566H444.378V224.167ZM457.576 224.167H461.975V228.566H457.576V224.167ZM378.393 228.566H382.793V232.965H378.393V228.566ZM382.792 228.566H387.191V232.965H382.792V228.566ZM387.191 228.566H391.59V232.965H387.191V228.566ZM391.592 228.566H395.991V232.965H391.592V228.566ZM395.993 228.566H400.392V232.965H395.993V228.566ZM400.386 228.566H404.785V232.965H400.386V228.566ZM404.789 228.566H409.188V232.965H404.789V228.566ZM413.585 228.566H417.984V232.965H413.585V228.566ZM417.986 228.566H422.385V232.965H417.986V228.566ZM426.785 228.566H431.185V232.965H426.785V228.566ZM435.583 228.566H439.982V232.965H435.583V228.566ZM448.778 228.566H453.177V232.965H448.778V228.566ZM457.576 228.566H461.975V232.965H457.576V228.566ZM461.977 228.566H466.376V232.965H461.977V228.566ZM378.393 232.964H382.793V237.364H378.393V232.964ZM404.789 232.964H409.188V237.364H404.789V232.964ZM422.383 232.964H426.782V237.364H422.383V232.964ZM444.378 232.964H448.777V237.364H444.378V232.964ZM448.778 232.964H453.177V237.364H448.778V232.964ZM457.576 232.964H461.975V237.364H457.576V232.964ZM461.977 232.964H466.376V237.364H461.977V232.964ZM378.393 237.364H382.793V241.763H378.393V237.364ZM387.191 237.364H391.59V241.763H387.191V237.364ZM391.592 237.364H395.991V241.763H391.592V237.364ZM395.993 237.364H400.392V241.763H395.993V237.364ZM404.789 237.364H409.188V241.763H404.789V237.364ZM413.585 237.364H417.984V241.763H413.585V237.364ZM417.986 237.364H422.385V241.763H417.986V237.364ZM422.383 237.364H426.782V241.763H422.383V237.364ZM426.785 237.364H431.185V241.763H426.785V237.364ZM435.583 237.364H439.982V241.763H435.583V237.364ZM448.778 237.364H453.177V241.763H448.778V237.364ZM457.576 237.364H461.975V241.763H457.576V237.364ZM378.393 241.763H382.793V246.162H378.393V241.763ZM387.191 241.763H391.59V246.162H387.191V241.763ZM391.592 241.763H395.991V246.162H391.592V241.763ZM395.993 241.763H400.392V246.162H395.993V241.763ZM404.789 241.763H409.188V246.162H404.789V241.763ZM413.585 241.763H417.984V246.162H413.585V241.763ZM417.986 241.763H422.385V246.162H417.986V241.763ZM422.383 241.763H426.782V246.162H422.383V241.763ZM426.785 241.763H431.185V246.162H426.785V241.763ZM431.184 241.763H435.584V246.162H431.184V241.763ZM435.583 241.763H439.982V246.162H435.583V241.763ZM439.982 241.763H444.381V246.162H439.982V241.763ZM453.177 241.763H457.576V246.162H453.177V241.763ZM378.393 246.162H382.793V250.561H378.393V246.162ZM387.191 246.162H391.59V250.561H387.191V246.162ZM391.592 246.162H395.991V250.561H391.592V246.162ZM395.993 246.162H400.392V250.561H395.993V246.162ZM404.789 246.162H409.188V250.561H404.789V246.162ZM413.585 246.162H417.984V250.561H413.585V246.162ZM417.986 246.162H422.385V250.561H417.986V246.162ZM431.184 246.162H435.584V250.561H431.184V246.162ZM439.982 246.162H444.381V250.561H439.982V246.162ZM444.378 246.162H448.777V250.561H444.378V246.162ZM378.393 250.561H382.793V254.961H378.393V250.561ZM404.789 250.561H409.188V254.961H404.789V250.561ZM413.585 250.561H417.984V254.961H413.585V250.561ZM422.383 250.561H426.782V254.961H422.383V250.561ZM426.785 250.561H431.185V254.961H426.785V250.561ZM431.184 250.561H435.584V254.961H431.184V250.561ZM435.583 250.561H439.982V254.961H435.583V250.561ZM439.982 250.561H444.381V254.961H439.982V250.561ZM453.177 250.561H457.576V254.961H453.177V250.561ZM461.977 250.561H466.376V254.961H461.977V250.561ZM378.393 254.96H382.793V259.359H378.393V254.96ZM382.792 254.96H387.191V259.359H382.792V254.96ZM387.191 254.96H391.59V259.359H387.191V254.96ZM391.592 254.96H395.991V259.359H391.592V254.96ZM395.993 254.96H400.392V259.359H395.993V254.96ZM400.386 254.96H404.785V259.359H400.386V254.96ZM404.789 254.96H409.188V259.359H404.789V254.96ZM413.585 254.96H417.984V259.359H413.585V254.96ZM422.383 254.96H426.782V259.359H422.383V254.96ZM431.184 254.96H435.584V259.359H431.184V254.96ZM444.378 254.96H448.777V259.359H444.378V254.96ZM457.576 254.96H461.975V259.359H457.576V254.96Z" fill="black"/>
<defs>
<filter id="filter0_d" x="186.059" y="229.681" width="487.506" height="360.173" filterUnits="userSpaceOnUse" color-interpolation-filters="sRGB">
<feFlood flood-opacity="0" result="BackgroundImageFix"/>
<feColorMatrix in="SourceAlpha" type="matrix" values="0 0 0 0 0 0 0 0 0 0 0 0 0 0 0 0 0 0 127 0"/>
<feOffset/>
<feGaussianBlur stdDeviation="20.7828"/>
<feColorMatrix type="matrix" values="0 0 0 0 0 0 0 0 0 0 0 0 0 0 0 0 0 0 0.15 0"/>
<feBlend mode="normal" in2="BackgroundImageFix" result="effect1_dropShadow"/>
<feBlend mode="normal" in="SourceGraphic" in2="effect1_dropShadow" result="shape"/>
</filter>
<filter id="filter1_d" x="0.224094" y="0.511692" width="555.906" height="353.515" filterUnits="userSpaceOnUse" color-interpolation-filters="sRGB">
<feFlood flood-opacity="0" result="BackgroundImageFix"/>
<feColorMatrix in="SourceAlpha" type="matrix" values="0 0 0 0 0 0 0 0 0 0 0 0 0 0 0 0 0 0 127 0"/>
<feOffset/>
<feGaussianBlur stdDeviation="22.4016"/>
<feColorMatrix type="matrix" values="0 0 0 0 0 0 0 0 0 0 0 0 0 0 0 0 0 0 0.15 0"/>
<feBlend mode="normal" in2="BackgroundImageFix" result="effect1_dropShadow"/>
<feBlend mode="normal" in="SourceGraphic" in2="effect1_dropShadow" result="shape"/>
</filter>
</defs>
</svg>
