<?xml version="1.0" encoding="utf-8"?>
<svg width="60" height="61" viewBox="0 0 60 61" fill="none" xmlns="http://www.w3.org/2000/svg">
<line x1="37.3265" y1="36.772" x2="54.96" y2="54.4055" stroke="#464655" stroke-width="7.9167" stroke-linecap="round"/>
<path d="M46.5748 36.8633L42.9207 33.2095C41.9488 35.0298 40.6974 36.7391 39.1644 38.272C37.6487 39.7877 35.9464 41.0487 34.1094 42.0346L37.7566 45.6816C38.1736 46.0988 38.8561 46.0988 39.2733 45.6816L46.5748 38.3801C46.9918 37.9631 46.9918 37.2805 46.5748 36.8633Z" fill="#293D7C"/>
<path d="M39.4691 7.56862C48.0313 16.1307 48.0313 30.013 39.4689 38.5753C30.9072 47.1368 17.0252 47.137 8.46245 38.5751C-0.0996754 30.013 -0.0992467 16.1307 8.46245 7.56884C17.0252 -0.993505 30.9072 -0.993721 39.4691 7.56862Z" fill="#445EA0"/>
<path d="M36.4061 35.5135C29.4502 42.4697 18.1717 42.4697 11.2151 35.513C4.25916 28.5575 4.25891 17.2786 11.2151 10.3224C18.171 3.36637 29.4499 3.36662 36.4059 10.3224C43.3623 17.2789 43.3623 28.5572 36.4061 35.5135Z" fill="#69CDFF"/>
<path d="M26.6053 13.3732C28.0269 13.3732 29.1793 12.2207 29.1793 10.7991C29.1793 9.37753 28.0269 8.2251 26.6053 8.2251C25.1837 8.2251 24.0312 9.37753 24.0312 10.7991C24.0312 12.2207 25.1837 13.3732 26.6053 13.3732Z" fill="#D9EAFC"/>
<path d="M32.0147 15.2969C33.0217 15.2969 33.838 14.4806 33.838 13.4737C33.838 12.4667 33.0217 11.6504 32.0147 11.6504C31.0077 11.6504 30.1914 12.4667 30.1914 13.4737C30.1914 14.4806 31.0077 15.2969 32.0147 15.2969Z" fill="#D9EAFC"/>
</svg>
