<?xml version="1.0" encoding="utf-8"?>
<svg width="60" height="61" viewBox="0 0 60 61" fill="none" xmlns="http://www.w3.org/2000/svg">
<g clip-path="url(#clip0)">
<path d="M55.269 55.6144C55.6684 55.6144 55.868 55.6144 56.0365 55.6011C58.1456 55.4352 59.8208 53.76 59.9867 51.6509C60 51.4824 60 51.2827 60 50.8834L60 10.6903C60 10.2909 60 10.0912 59.9867 9.92272C59.8208 7.81364 58.1456 6.13847 56.0365 5.97249C55.868 5.95923 55.6684 5.95923 55.269 5.95923L4.73104 5.95923C4.33165 5.95923 4.13196 5.95923 3.9635 5.97248C1.85442 6.13847 0.179253 7.81364 0.0132635 9.92272C7.44878e-06 10.0912 7.44005e-06 10.2909 7.42259e-06 10.6903L5.6657e-06 50.8834C5.64824e-06 51.2827 5.63951e-06 51.4824 0.0132617 51.6509C0.179251 53.76 1.85442 55.4351 3.96349 55.6011C4.13196 55.6144 4.33165 55.6144 4.73103 55.6144L55.269 55.6144Z" fill="#EEF1F7"/>
<path d="M7.92773 27.4618H51.9634" stroke="#ACB3BA" stroke-width="2.58056" stroke-linecap="round"/>
<path d="M7.92773 37.1599H51.9634" stroke="#ACB3BA" stroke-width="2.58056" stroke-linecap="round"/>
<path d="M7.92773 46.858H51.9634" stroke="#ACB3BA" stroke-width="2.58056" stroke-linecap="round"/>
<ellipse cx="17.1724" cy="27.4617" rx="4.28571" ry="4.28572" fill="#FF7F7F"/>
<ellipse cx="27.3756" cy="46.8581" rx="4.28572" ry="4.28571" fill="#8764FF"/>
<circle cx="43.6373" cy="37.1599" r="4.28571" fill="#3982F7"/>
<path d="M0 10.2602C0 7.88482 1.9256 5.95923 4.30094 5.95923H55.6991C58.0744 5.95923 60 7.88482 60 10.2602V17.3136H0V10.2602Z" fill="#0ADBB8"/>
</g>
<defs>
<clipPath id="clip0">
<rect width="60" height="60" fill="white" transform="translate(0 0.786865)"/>
</clipPath>
</defs>
</svg>
