<?xml version="1.0" encoding="utf-8"?>
<svg width="486" height="151" viewBox="0 0 486 151" fill="none" xmlns="http://www.w3.org/2000/svg">
<rect y="0.647461" width="485.77" height="150" rx="12" fill="white"/>
<mask id="mask0" mask-type="alpha" maskUnits="userSpaceOnUse" x="0" y="0" width="486" height="151">
<rect y="0.647461" width="485.77" height="150" rx="12" fill="white"/>
</mask>
<g mask="url(#mask0)">
<path d="M75.5771 33.6782L73.1968 40.0576L70.8164 33.6782H68.6455V42.6475H70.1943V35.9507L72.416 41.8667H73.9775L76.1992 35.9507V42.6475H77.748V33.6782H75.5771ZM80.0586 42.6475H86.0254V41.124H81.6709V38.9023H85.7271V37.4233H81.6709V35.1572H86.0254V33.6782H80.0586V42.6475ZM90.5322 42.749C92.2461 42.749 93.6489 41.7271 93.6489 40.0322C93.6489 37.0552 89.3071 37.6265 89.3071 35.938C89.3071 35.3667 89.8022 34.9795 90.437 34.9795C91.04 34.9795 91.5732 35.3286 91.8843 35.938L93.2236 35.1191C92.6079 34.0273 91.5986 33.5449 90.4941 33.5449C88.9834 33.5449 87.6948 34.4336 87.6948 36.0205C87.6948 38.9404 92.0366 38.3184 92.0366 40.1782C92.0366 40.813 91.5161 41.3208 90.5576 41.3208C89.6055 41.3208 88.812 40.8257 88.6978 39.7085L87.0981 40.1147C87.3838 41.8794 88.9453 42.749 90.5322 42.749ZM97.7559 42.749C99.4697 42.749 100.873 41.7271 100.873 40.0322C100.873 37.0552 96.5308 37.6265 96.5308 35.938C96.5308 35.3667 97.0259 34.9795 97.6606 34.9795C98.2637 34.9795 98.7969 35.3286 99.1079 35.938L100.447 35.1191C99.8315 34.0273 98.8223 33.5449 97.7178 33.5449C96.207 33.5449 94.9185 34.4336 94.9185 36.0205C94.9185 38.9404 99.2603 38.3184 99.2603 40.1782C99.2603 40.813 98.7397 41.3208 97.7812 41.3208C96.8291 41.3208 96.0356 40.8257 95.9214 39.7085L94.3218 40.1147C94.6074 41.8794 96.1689 42.749 97.7559 42.749ZM101.146 42.6475H102.904L103.627 40.6987H107.062L107.779 42.6475H109.518L105.944 33.6782H104.738L101.146 42.6475ZM104.135 39.3213L105.348 36.0459L106.554 39.3213H104.135ZM114.488 37.7979V39.0991H116.462C116.412 40.5591 115.421 41.3335 114.019 41.3335C112.095 41.3335 111.276 39.8799 111.276 38.0962C111.276 36.4331 112.095 34.9414 113.993 34.9414C115.136 34.9414 116.075 35.4873 116.488 36.7061L117.916 36.1094C117.192 34.4336 115.771 33.5322 114.006 33.5322C111.042 33.5322 109.677 35.7031 109.677 38.1597C109.677 40.6226 111.067 42.7744 114.019 42.7744C115.212 42.7744 116.189 42.2285 116.672 41.3843L116.812 42.6475H118.087V37.7979H114.488ZM120.049 42.6475H126.016V41.124H121.661V38.9023H125.717V37.4233H121.661V35.1572H126.016V33.6782H120.049V42.6475ZM130.522 42.749C132.236 42.749 133.639 41.7271 133.639 40.0322C133.639 37.0552 129.297 37.6265 129.297 35.938C129.297 35.3667 129.792 34.9795 130.427 34.9795C131.03 34.9795 131.563 35.3286 131.875 35.938L133.214 35.1191C132.598 34.0273 131.589 33.5449 130.484 33.5449C128.974 33.5449 127.685 34.4336 127.685 36.0205C127.685 38.9404 132.027 38.3184 132.027 40.1782C132.027 40.813 131.506 41.3208 130.548 41.3208C129.596 41.3208 128.802 40.8257 128.688 39.7085L127.088 40.1147C127.374 41.8794 128.936 42.749 130.522 42.749Z" fill="#979797"/>
<path d="M428.52 40.6475H430.029V36.5386C430.029 35.2129 430.717 34.5903 431.801 34.5903C432.805 34.5903 433.339 35.3154 433.339 36.3994V40.6475H434.848V36.1724C434.841 34.627 434.072 33.1914 432.226 33.1914C431.42 33.1914 430.571 33.5356 430.029 34.312V33.3306H428.52V40.6475ZM439.946 40.7866C442.15 40.7866 443.63 39.0508 443.63 36.9707C443.63 34.8979 442.15 33.1914 439.946 33.1914C437.741 33.1914 436.269 34.8979 436.269 36.9707C436.269 39.0581 437.741 40.7866 439.946 40.7866ZM439.946 39.4756C438.518 39.4756 437.844 38.3184 437.844 36.9707C437.844 35.6304 438.518 34.5024 439.946 34.5024C441.374 34.5024 442.055 35.6377 442.055 36.9707C442.055 38.311 441.374 39.4756 439.946 39.4756ZM446.303 40.6475H447.673L449.306 35.4546L450.925 40.6475H452.302L454.528 33.3306H452.91L451.533 38.333L449.958 33.3306H448.647L447.072 38.3403L445.703 33.3306H444.091L446.303 40.6475Z" fill="#979797"/>
<path fill-rule="evenodd" clip-rule="evenodd" d="M35.3535 24.6475C32.5921 24.6475 30.3535 26.886 30.3535 29.6475V46.6475C30.3535 49.4089 32.5921 51.6475 35.3535 51.6475H52.4523C55.2137 51.6475 57.4523 49.4089 57.4523 46.6475V29.6475C57.4523 26.886 55.2137 24.6475 52.4523 24.6475H35.3535Z" fill="url(#paint0_linear)"/>
<path fill-rule="evenodd" clip-rule="evenodd" d="M53.3871 37.4726C53.3871 41.9461 49.1407 45.5726 43.9025 45.5726C42.9975 45.5726 42.122 45.4643 41.2929 45.2621L37.1266 46.9226L38.8589 44.3336C36.191 42.9002 34.418 40.3632 34.418 37.4726C34.418 32.9991 38.6644 29.3726 43.9025 29.3726C49.1407 29.3726 53.3871 32.9991 53.3871 37.4726Z" fill="white"/>
<path d="M34.5039 79.7881C36.877 79.7881 38.8193 78.373 38.8193 76.0264C38.8193 71.9043 32.8076 72.6953 32.8076 70.3574C32.8076 69.5664 33.4932 69.0303 34.3721 69.0303C35.207 69.0303 35.9453 69.5137 36.376 70.3574L38.2305 69.2236C37.3779 67.7119 35.9805 67.0439 34.4512 67.0439C32.3594 67.0439 30.5752 68.2744 30.5752 70.4717C30.5752 74.5146 36.5869 73.6533 36.5869 76.2285C36.5869 77.1074 35.8662 77.8105 34.5391 77.8105C33.2207 77.8105 32.1221 77.125 31.9639 75.5781L29.749 76.1406C30.1445 78.584 32.3066 79.7881 34.5039 79.7881ZM40.542 69.2061H42.792V67.2285H40.542V69.2061ZM40.5947 79.6475H42.7393V70.8672H40.5947V79.6475ZM45.3057 79.6475H47.4502V74.8398C47.4502 73.3105 48.2061 72.6602 49.4102 72.6602C50.5088 72.6602 51.0889 73.4951 51.0889 74.6465V79.6475H53.2334V74.374C53.2334 72.5371 52.3281 70.6826 50.0254 70.6826C49.1641 70.6826 48.1533 71.0254 47.4502 71.8867V70.8672H45.3057V79.6475ZM59.21 79.8232C60.6865 79.8232 61.8555 79.3047 62.8135 78.2412L61.3369 76.9492C60.7217 77.6348 60.0186 77.8809 59.2275 77.8809C57.8477 77.8809 57.2148 77.1074 57.0303 75.9561H63.0596C63.1035 75.833 63.1387 75.4727 63.1387 75.1123C63.1387 73.1523 62.1455 70.6826 59.0693 70.6826C56.0986 70.6826 54.7627 73.0029 54.7627 75.2881C54.7627 77.6523 56.1865 79.8232 59.21 79.8232ZM57.0303 74.4092C57.2324 73.3105 57.7861 72.4844 59.0518 72.4844C59.9834 72.4844 60.7393 72.9502 60.959 73.8555C61.0117 74.0312 61.0293 74.2158 61.0293 74.4092H57.0303Z" fill="black"/>
<path d="M30.9941 102.647H32.3691V97.7412H37.8457V102.647H39.2207V91.6084H37.8457V96.4678H32.3691V91.6084H30.9941V102.647ZM41.9104 93.2646H43.2932V91.6084H41.9104V93.2646ZM41.9416 102.647H43.262V94.8428H41.9416V102.647ZM49.7429 102.647H51.1101V97.8975H52.9148C55.1726 97.8975 56.696 96.7881 56.696 94.7803C56.696 92.7725 55.1491 91.6084 52.9148 91.6084H49.7429V102.647ZM51.1101 96.6084V92.8975H52.9148C54.5163 92.8975 55.3288 93.5928 55.3288 94.7803C55.3288 95.9678 54.5476 96.6084 52.9148 96.6084H51.1101ZM60.7295 94.71C59.2998 94.71 58.3623 95.3115 57.6045 96.3506L58.6201 97.085C59.0888 96.3584 59.7529 95.8662 60.7451 95.8662C62.2216 95.8662 62.7216 96.5771 62.7295 98.1006H60.5185C58.5966 98.1006 57.2998 98.7178 57.2998 100.335C57.2998 101.882 58.456 102.78 60.042 102.78C61.1123 102.78 62.1904 102.272 62.7451 101.257L62.831 102.647H63.9326V97.8896C63.9326 95.9521 62.7763 94.71 60.7295 94.71ZM60.2998 101.647C59.2373 101.647 58.6591 101.14 58.6591 100.382C58.6591 99.5928 59.2841 99.0693 60.5966 99.0693H62.7295V99.5771C62.4716 100.749 61.6201 101.647 60.2998 101.647ZM68.5051 102.78C69.4504 102.78 70.3723 102.351 70.9035 101.46V102.647H72.216V94.8428H70.9035V99.3428C70.9035 100.804 70.1066 101.554 68.8645 101.554C67.6848 101.554 67.0676 100.749 67.0676 99.46V94.8428H65.7551V99.6943C65.7785 101.366 66.6066 102.78 68.5051 102.78ZM76.062 102.78C76.437 102.78 76.9057 102.718 77.2651 102.64L77.2573 101.522C77.0307 101.562 76.812 101.585 76.6557 101.585C76.0151 101.585 75.8823 101.202 75.8823 100.679V91.6084H74.5541V101.03C74.5541 102.226 75.0229 102.78 76.062 102.78ZM78.5251 105.077H79.4235L81.486 100.593H79.9626L78.5251 105.077ZM89.9513 94.71C88.5216 94.71 87.5841 95.3115 86.8263 96.3506L87.842 97.085C88.3107 96.3584 88.9748 95.8662 89.967 95.8662C91.4435 95.8662 91.9435 96.5771 91.9513 98.1006H89.7404C87.8185 98.1006 86.5216 98.7178 86.5216 100.335C86.5216 101.882 87.6779 102.78 89.2638 102.78C90.3341 102.78 91.4123 102.272 91.967 101.257L92.0529 102.647H93.1545V97.8896C93.1545 95.9521 91.9982 94.71 89.9513 94.71ZM89.5216 101.647C88.4591 101.647 87.881 101.14 87.881 100.382C87.881 99.5928 88.506 99.0693 89.8185 99.0693H91.9513V99.5771C91.6935 100.749 90.842 101.647 89.5216 101.647ZM100.401 102.647H101.62L103.557 96.6865L105.487 102.647H106.706L109.034 94.8428H107.62L106.026 100.632L104.143 94.8428H102.971L101.081 100.64L99.5026 94.8428H98.0885L100.401 102.647ZM113.349 102.78C115.638 102.78 117.208 100.96 117.208 98.7256C117.208 96.5068 115.638 94.71 113.349 94.71C111.059 94.71 109.505 96.5068 109.505 98.7256C109.505 100.96 111.059 102.78 113.349 102.78ZM113.349 101.632C111.747 101.632 110.88 100.312 110.88 98.7256C110.88 97.1475 111.747 95.8584 113.349 95.8584C114.958 95.8584 115.833 97.1553 115.833 98.7256C115.833 100.304 114.958 101.632 113.349 101.632ZM118.905 102.647H120.187V98.8896C120.187 96.8193 121.319 95.999 122.304 95.999C122.616 95.999 122.913 96.085 123.179 96.2334L123.788 95.1396C123.437 94.8428 122.96 94.71 122.499 94.71C121.585 94.71 120.569 95.249 120.194 96.374V94.8428H118.905V102.647ZM124.962 102.647H126.283V100.343L127.908 98.6162L130.517 102.647H132.079L128.806 97.7959L131.673 94.8428H129.947L126.283 98.7568V91.6084H124.962V102.647ZM139.441 102.78C139.808 102.78 140.277 102.718 140.644 102.64L140.636 101.522C140.41 101.562 140.183 101.585 140.035 101.585C139.386 101.585 139.254 101.202 139.254 100.679V92.2568C138.152 91.6475 137.519 91.4756 136.433 91.4756C134.871 91.4756 133.574 92.3896 133.574 94.2178V94.8428H132.277V95.96H133.574V102.647H134.894V95.96H136.574L136.582 94.8428H134.894V94.2412C134.894 93.1084 135.441 92.5537 136.496 92.5537C137.05 92.5537 137.527 92.6865 137.933 92.9287V101.03C137.933 102.226 138.394 102.78 139.441 102.78ZM145.232 102.78C147.521 102.78 149.092 100.96 149.092 98.7256C149.092 96.5068 147.521 94.71 145.232 94.71C142.943 94.71 141.389 96.5068 141.389 98.7256C141.389 100.96 142.943 102.78 145.232 102.78ZM145.232 101.632C143.631 101.632 142.764 100.312 142.764 98.7256C142.764 97.1475 143.631 95.8584 145.232 95.8584C146.842 95.8584 147.717 97.1553 147.717 98.7256C147.717 100.304 146.842 101.632 145.232 101.632ZM151.899 102.647H153.117L155.055 96.6865L156.984 102.647H158.203L160.531 94.8428H159.117L157.524 100.632L155.641 94.8428H154.469L152.578 100.64L151 94.8428H149.586L151.899 102.647ZM165.653 93.2646H167.036V91.6084H165.653V93.2646ZM165.684 102.647H167.004V94.8428H165.684V102.647ZM171.71 102.78C173.218 102.78 174.577 101.983 174.577 100.343C174.577 97.3975 170.21 98.46 170.21 96.7725C170.21 96.1865 170.764 95.7646 171.647 95.7646C172.561 95.7646 173.139 96.2881 173.483 96.9131L174.507 96.3584C173.944 95.3193 172.96 94.71 171.694 94.71C170.194 94.71 168.944 95.4756 168.944 96.9443C168.944 99.749 173.272 98.5537 173.272 100.405C173.272 101.093 172.725 101.671 171.647 101.671C170.499 101.671 169.843 100.952 169.577 100.21L168.507 100.679C168.897 101.866 170.132 102.78 171.71 102.78ZM180.12 102.647H181.402V98.8896C181.402 96.8193 182.534 95.999 183.519 95.999C183.831 95.999 184.128 96.085 184.394 96.2334L185.003 95.1396C184.652 94.8428 184.175 94.71 183.714 94.71C182.8 94.71 181.784 95.249 181.409 96.374V94.8428H180.12V102.647ZM188.74 102.78C190.013 102.78 190.951 102.374 191.818 101.444L190.896 100.64C190.248 101.327 189.607 101.577 188.748 101.577C187.287 101.577 186.498 100.64 186.396 99.1396H192.013C192.044 99.0225 192.076 98.71 192.076 98.4209C192.076 96.8115 191.224 94.71 188.607 94.71C186.216 94.71 184.998 96.6318 184.998 98.7803C184.998 100.976 186.271 102.78 188.74 102.78ZM186.396 98.1709C186.544 96.8037 187.279 95.8271 188.599 95.8271C189.912 95.8271 190.599 96.71 190.732 97.6787C190.763 97.835 190.763 97.999 190.763 98.1709H186.396ZM200.445 105.882V94.8428H199.078V96.249C198.57 95.2646 197.562 94.71 196.469 94.71C194.351 94.71 193.156 96.5537 193.156 98.749C193.156 100.952 194.351 102.78 196.492 102.78C197.594 102.78 198.57 102.226 199.078 101.241V105.882H200.445ZM196.789 101.577C195.265 101.577 194.484 100.335 194.484 98.749C194.484 97.1631 195.265 95.9365 196.789 95.9365C198.312 95.9365 199.195 97.1396 199.195 98.749C199.195 100.351 198.312 101.577 196.789 101.577ZM205.393 102.78C206.338 102.78 207.26 102.351 207.791 101.46V102.647H209.104V94.8428H207.791V99.3428C207.791 100.804 206.994 101.554 205.752 101.554C204.572 101.554 203.955 100.749 203.955 99.46V94.8428H202.643V99.6943C202.666 101.366 203.494 102.78 205.393 102.78ZM211.457 93.2646H212.84V91.6084H211.457V93.2646ZM211.489 102.647H212.809V94.8428H211.489V102.647ZM215.186 102.647H216.467V98.8896C216.467 96.8193 217.6 95.999 218.584 95.999C218.897 95.999 219.194 96.085 219.459 96.2334L220.069 95.1396C219.717 94.8428 219.241 94.71 218.78 94.71C217.866 94.71 216.85 95.249 216.475 96.374V94.8428H215.186V102.647ZM223.805 102.78C225.079 102.78 226.016 102.374 226.884 101.444L225.962 100.64C225.313 101.327 224.673 101.577 223.813 101.577C222.352 101.577 221.563 100.64 221.462 99.1396H227.079C227.11 99.0225 227.141 98.71 227.141 98.4209C227.141 96.8115 226.29 94.71 223.673 94.71C221.282 94.71 220.063 96.6318 220.063 98.7803C220.063 100.976 221.337 102.78 223.805 102.78ZM221.462 98.1709C221.61 96.8037 222.344 95.8271 223.665 95.8271C224.977 95.8271 225.665 96.71 225.798 97.6787C225.829 97.835 225.829 97.999 225.829 98.1709H221.462ZM231.651 102.78C232.776 102.78 233.784 102.202 234.292 101.171L234.347 102.647H235.581V91.6084H234.237V96.249C233.729 95.2646 232.722 94.71 231.628 94.71C229.511 94.71 228.206 96.5459 228.206 98.7412C228.206 100.944 229.511 102.78 231.651 102.78ZM231.964 101.577C230.433 101.577 229.55 100.335 229.55 98.7412C229.55 97.1553 230.433 95.9131 231.964 95.9131C233.479 95.9131 234.347 97.1396 234.347 98.7412C234.347 100.351 233.479 101.577 231.964 101.577ZM242.265 102.647H243.632V95.96H245.765V94.8428H243.632V93.8193C243.632 93.0068 244.046 92.6553 244.703 92.6553C244.929 92.6553 245.164 92.7412 245.39 92.8662L245.828 91.7803C245.445 91.5928 245.023 91.4756 244.585 91.4756C243.273 91.4756 242.273 92.2412 242.273 93.6865V94.8428H240.703V95.96H242.265V102.647ZM249.892 102.78C252.181 102.78 253.752 100.96 253.752 98.7256C253.752 96.5068 252.181 94.71 249.892 94.71C247.603 94.71 246.049 96.5068 246.049 98.7256C246.049 100.96 247.603 102.78 249.892 102.78ZM249.892 101.632C248.291 101.632 247.424 100.312 247.424 98.7256C247.424 97.1475 248.291 95.8584 249.892 95.8584C251.502 95.8584 252.377 97.1553 252.377 98.7256C252.377 100.304 251.502 101.632 249.892 101.632ZM255.449 102.647H256.73V98.8896C256.73 96.8193 257.863 95.999 258.848 95.999C259.16 95.999 259.457 96.085 259.723 96.2334L260.332 95.1396C259.98 94.8428 259.504 94.71 259.043 94.71C258.129 94.71 257.113 95.249 256.738 96.374V94.8428H255.449V102.647ZM268.18 102.78C269.657 102.78 270.813 101.968 271.305 100.569L270.102 100.116C269.821 101.007 269.102 101.577 268.164 101.577C266.602 101.577 265.922 100.226 265.922 98.7568C265.922 97.3115 266.602 95.9131 268.164 95.9131C269.094 95.9131 269.813 96.4912 270.125 97.3975L271.383 96.9053C270.805 95.4521 269.625 94.71 268.164 94.71C265.75 94.71 264.579 96.71 264.579 98.7568C264.579 100.921 265.836 102.78 268.18 102.78ZM272.917 102.647H274.26V98.3584C274.26 96.9365 274.987 95.9131 276.323 95.9131C277.612 95.9131 278.065 96.7803 278.065 98.0303V102.647H279.409V97.7881C279.385 96.1162 278.526 94.71 276.628 94.71C275.682 94.71 274.792 95.1396 274.26 96.0303V91.6084H272.917V102.647ZM284.677 102.78C285.95 102.78 286.888 102.374 287.755 101.444L286.833 100.64C286.184 101.327 285.544 101.577 284.684 101.577C283.224 101.577 282.434 100.64 282.333 99.1396H287.95C287.981 99.0225 288.013 98.71 288.013 98.4209C288.013 96.8115 287.161 94.71 284.544 94.71C282.153 94.71 280.934 96.6318 280.934 98.7803C280.934 100.976 282.208 102.78 284.677 102.78ZM282.333 98.1709C282.481 96.8037 283.216 95.8271 284.536 95.8271C285.849 95.8271 286.536 96.71 286.669 97.6787C286.7 97.835 286.7 97.999 286.7 98.1709H282.333ZM292.663 102.78C294.14 102.78 295.296 101.968 295.788 100.569L294.585 100.116C294.304 101.007 293.585 101.577 292.648 101.577C291.085 101.577 290.405 100.226 290.405 98.7568C290.405 97.3115 291.085 95.9131 292.648 95.9131C293.577 95.9131 294.296 96.4912 294.609 97.3975L295.866 96.9053C295.288 95.4521 294.109 94.71 292.648 94.71C290.234 94.71 289.062 96.71 289.062 98.7568C289.062 100.921 290.319 102.78 292.663 102.78ZM297.4 102.647H298.72V100.343L300.345 98.6162L302.954 102.647H304.517L301.244 97.7959L304.111 94.8428H302.384L298.72 98.7568V91.6084H297.4V102.647ZM305.191 98.3506H309.527V97.335H305.191V98.3506ZM311.826 93.2646H313.209V91.6084H311.826V93.2646ZM311.857 102.647H313.178V94.8428H311.857V102.647ZM315.555 102.647H316.875V98.1475C316.875 96.6787 317.664 95.9365 318.906 95.9365C320.086 95.9365 320.703 96.7412 320.703 98.0303V102.647H322.024V97.7881C322 96.1162 321.164 94.71 319.266 94.71C318.32 94.71 317.414 95.1396 316.875 96.0303V94.8428H315.555V102.647ZM324.698 102.647H326.034V100.812H324.698V102.647ZM30.9941 122.647H32.3613V117.897H34.166C36.4238 117.897 37.9473 116.788 37.9473 114.78C37.9473 112.772 36.4004 111.608 34.166 111.608H30.9941V122.647ZM32.3613 116.608V112.897H34.166C35.7676 112.897 36.5801 113.593 36.5801 114.78C36.5801 115.968 35.7988 116.608 34.166 116.608H32.3613ZM40.9651 122.78C41.3401 122.78 41.8088 122.718 42.1682 122.64L42.1604 121.522C41.9338 121.562 41.7151 121.585 41.5588 121.585C40.9182 121.585 40.7854 121.202 40.7854 120.679V111.608H39.4573V121.03C39.4573 122.226 39.926 122.78 40.9651 122.78ZM46.7173 122.78C47.9907 122.78 48.9282 122.374 49.7954 121.444L48.8735 120.64C48.2251 121.327 47.5845 121.577 46.7251 121.577C45.2641 121.577 44.4751 120.64 44.3735 119.14H49.9907C50.022 119.022 50.0532 118.71 50.0532 118.421C50.0532 116.812 49.2016 114.71 46.5845 114.71C44.1938 114.71 42.9751 116.632 42.9751 118.78C42.9751 120.976 44.2485 122.78 46.7173 122.78ZM44.3735 118.171C44.522 116.804 45.2563 115.827 46.5766 115.827C47.8891 115.827 48.5766 116.71 48.7095 117.679C48.7407 117.835 48.7407 117.999 48.7407 118.171H44.3735ZM54.4695 114.71C53.0398 114.71 52.1023 115.312 51.3445 116.351L52.3601 117.085C52.8288 116.358 53.4929 115.866 54.4851 115.866C55.9616 115.866 56.4616 116.577 56.4695 118.101H54.2585C52.3366 118.101 51.0398 118.718 51.0398 120.335C51.0398 121.882 52.196 122.78 53.782 122.78C54.8523 122.78 55.9304 122.272 56.4851 121.257L56.571 122.647H57.6726V117.89C57.6726 115.952 56.5163 114.71 54.4695 114.71ZM54.0398 121.647C52.9773 121.647 52.3991 121.14 52.3991 120.382C52.3991 119.593 53.0241 119.069 54.3366 119.069H56.4695V119.577C56.2116 120.749 55.3601 121.647 54.0398 121.647ZM62.1591 122.78C63.667 122.78 65.0263 121.983 65.0263 120.343C65.0263 117.397 60.6591 118.46 60.6591 116.772C60.6591 116.187 61.2138 115.765 62.0966 115.765C63.0107 115.765 63.5888 116.288 63.9326 116.913L64.956 116.358C64.3935 115.319 63.4091 114.71 62.1435 114.71C60.6435 114.71 59.3935 115.476 59.3935 116.944C59.3935 119.749 63.7216 118.554 63.7216 120.405C63.7216 121.093 63.1748 121.671 62.0966 121.671C60.9482 121.671 60.292 120.952 60.0263 120.21L58.956 120.679C59.3466 121.866 60.581 122.78 62.1591 122.78ZM69.841 122.78C71.1145 122.78 72.052 122.374 72.9191 121.444L71.9973 120.64C71.3488 121.327 70.7082 121.577 69.8488 121.577C68.3879 121.577 67.5988 120.64 67.4973 119.14H73.1145C73.1457 119.022 73.177 118.71 73.177 118.421C73.177 116.812 72.3254 114.71 69.7082 114.71C67.3176 114.71 66.0988 116.632 66.0988 118.78C66.0988 120.976 67.3723 122.78 69.841 122.78ZM67.4973 118.171C67.6457 116.804 68.3801 115.827 69.7004 115.827C71.0129 115.827 71.7004 116.71 71.8332 117.679C71.8645 117.835 71.8645 117.999 71.8645 118.171H67.4973ZM84.447 114.843H80.2595V114.241C80.2595 113.108 80.8298 112.554 81.9235 112.554C82.6813 112.554 83.3063 112.772 83.8298 113.171L84.4548 112.241C83.736 111.749 82.9548 111.476 81.861 111.476C80.2595 111.476 78.9391 112.39 78.9391 114.218V114.843H77.6032V115.96H78.9391V122.647H80.2595V115.96H83.2204V122.647H84.447V114.843ZM88.2851 122.78C88.6601 122.78 89.1288 122.718 89.4882 122.64L89.4804 121.522C89.2538 121.562 89.0351 121.585 88.8788 121.585C88.2382 121.585 88.1054 121.202 88.1054 120.679V111.608H86.7773V121.03C86.7773 122.226 87.246 122.78 88.2851 122.78ZM92.4045 122.78C92.7795 122.78 93.2482 122.718 93.6076 122.64L93.5998 121.522C93.3732 121.562 93.1545 121.585 92.9982 121.585C92.3576 121.585 92.2248 121.202 92.2248 120.679V111.608H90.8966V121.03C90.8966 122.226 91.3654 122.78 92.4045 122.78ZM98.8073 113.265H100.19V111.608H98.8073V113.265ZM98.8385 122.647H100.159V114.843H98.8385V122.647ZM102.536 122.647H103.856V118.147C103.856 116.679 104.645 115.937 105.888 115.937C107.067 115.937 107.684 116.741 107.684 118.03V122.647H109.005V117.788C108.981 116.116 108.145 114.71 106.247 114.71C105.302 114.71 104.395 115.14 103.856 116.03V114.843H102.536V122.647ZM117.462 122.78C117.947 122.78 118.415 122.687 118.665 122.593L118.658 121.39C118.431 121.491 118.048 121.608 117.689 121.608C116.97 121.608 116.556 121.233 116.556 120.249V115.96H118.665V114.843H116.556V111.733L115.251 112.687V114.843H113.947V115.96H115.236V120.468C115.236 121.937 116.033 122.78 117.462 122.78ZM120.129 122.647H121.472V118.358C121.472 116.937 122.199 115.913 123.535 115.913C124.824 115.913 125.277 116.78 125.277 118.03V122.647H126.621V117.788C126.597 116.116 125.738 114.71 123.839 114.71C122.894 114.71 122.004 115.14 121.472 116.03V111.608H120.129V122.647ZM128.764 113.265H130.146V111.608H128.764V113.265ZM128.795 122.647H130.115V114.843H128.795V122.647ZM134.82 122.78C136.328 122.78 137.688 121.983 137.688 120.343C137.688 117.397 133.32 118.46 133.32 116.772C133.32 116.187 133.875 115.765 134.758 115.765C135.672 115.765 136.25 116.288 136.594 116.913L137.617 116.358C137.055 115.319 136.07 114.71 134.805 114.71C133.305 114.71 132.055 115.476 132.055 116.944C132.055 119.749 136.383 118.554 136.383 120.405C136.383 121.093 135.836 121.671 134.758 121.671C133.609 121.671 132.953 120.952 132.688 120.21L131.617 120.679C132.008 121.866 133.242 122.78 134.82 122.78ZM144.544 122.647H145.762L147.7 116.687L149.629 122.647H150.848L153.176 114.843H151.762L150.169 120.632L148.286 114.843H147.114L145.223 120.64L143.645 114.843H142.231L144.544 122.647ZM157.491 122.78C159.78 122.78 161.35 120.96 161.35 118.726C161.35 116.507 159.78 114.71 157.491 114.71C155.202 114.71 153.647 116.507 153.647 118.726C153.647 120.96 155.202 122.78 157.491 122.78ZM157.491 121.632C155.889 121.632 155.022 120.312 155.022 118.726C155.022 117.147 155.889 115.858 157.491 115.858C159.1 115.858 159.975 117.155 159.975 118.726C159.975 120.304 159.1 121.632 157.491 121.632ZM163.048 122.647H164.329V118.89C164.329 116.819 165.462 115.999 166.446 115.999C166.759 115.999 167.056 116.085 167.321 116.233L167.931 115.14C167.579 114.843 167.103 114.71 166.642 114.71C165.728 114.71 164.712 115.249 164.337 116.374V114.843H163.048V122.647ZM169.105 122.647H170.425V120.343L172.05 118.616L174.659 122.647H176.222L172.949 117.796L175.816 114.843H174.089L170.425 118.757V111.608H169.105V122.647ZM183.584 122.78C183.951 122.78 184.419 122.718 184.787 122.64L184.779 121.522C184.552 121.562 184.326 121.585 184.177 121.585C183.529 121.585 183.396 121.202 183.396 120.679V112.257C182.294 111.647 181.662 111.476 180.576 111.476C179.013 111.476 177.716 112.39 177.716 114.218V114.843H176.419V115.96H177.716V122.647H179.037V115.96H180.716L180.724 114.843H179.037V114.241C179.037 113.108 179.584 112.554 180.638 112.554C181.193 112.554 181.669 112.687 182.076 112.929V121.03C182.076 122.226 182.537 122.78 183.584 122.78ZM189.375 122.78C191.664 122.78 193.234 120.96 193.234 118.726C193.234 116.507 191.664 114.71 189.375 114.71C187.086 114.71 185.531 116.507 185.531 118.726C185.531 120.96 187.086 122.78 189.375 122.78ZM189.375 121.632C187.773 121.632 186.906 120.312 186.906 118.726C186.906 117.147 187.773 115.858 189.375 115.858C190.984 115.858 191.859 117.155 191.859 118.726C191.859 120.304 190.984 121.632 189.375 121.632ZM196.041 122.647H197.26L199.197 116.687L201.127 122.647H202.346L204.674 114.843H203.26L201.666 120.632L199.783 114.843H198.611L196.721 120.64L195.143 114.843H193.729L196.041 122.647ZM215.616 114.843H211.428V114.241C211.428 113.108 211.999 112.554 213.092 112.554C213.85 112.554 214.475 112.772 214.999 113.171L215.624 112.241C214.905 111.749 214.124 111.476 213.03 111.476C211.428 111.476 210.108 112.39 210.108 114.218V114.843H208.772V115.96H210.108V122.647H211.428V115.96H214.389V122.647H215.616V114.843ZM217.993 122.647H219.274V118.89C219.274 116.819 220.407 115.999 221.391 115.999C221.704 115.999 222.001 116.085 222.266 116.233L222.876 115.14C222.524 114.843 222.048 114.71 221.587 114.71C220.673 114.71 219.657 115.249 219.282 116.374V114.843H217.993V122.647ZM226.019 122.78C227.526 122.78 228.886 121.983 228.886 120.343C228.886 117.397 224.519 118.46 224.519 116.772C224.519 116.187 225.073 115.765 225.956 115.765C226.87 115.765 227.448 116.288 227.792 116.913L228.815 116.358C228.253 115.319 227.269 114.71 226.003 114.71C224.503 114.71 223.253 115.476 223.253 116.944C223.253 119.749 227.581 118.554 227.581 120.405C227.581 121.093 227.034 121.671 225.956 121.671C224.808 121.671 224.151 120.952 223.886 120.21L222.815 120.679C223.206 121.866 224.44 122.78 226.019 122.78ZM233.154 122.78C233.638 122.78 234.107 122.687 234.357 122.593L234.349 121.39C234.122 121.491 233.739 121.608 233.38 121.608C232.661 121.608 232.247 121.233 232.247 120.249V115.96H234.357V114.843H232.247V111.733L230.943 112.687V114.843H229.638V115.96H230.927V120.468C230.927 121.937 231.724 122.78 233.154 122.78ZM239.83 122.647H241.174V118.358C241.174 116.937 241.9 115.913 243.236 115.913C244.525 115.913 244.978 116.78 244.978 118.03V122.647H246.322V117.788C246.299 116.116 245.439 114.71 243.541 114.71C242.595 114.71 241.705 115.14 241.174 116.03V111.608H239.83V122.647ZM250.996 122.78C251.48 122.78 251.949 122.687 252.199 122.593L252.191 121.39C251.965 121.491 251.582 121.608 251.223 121.608C250.504 121.608 250.09 121.233 250.09 120.249V115.96H252.199V114.843H250.09V111.733L248.785 112.687V114.843H247.48V115.96H248.769V120.468C248.769 121.937 249.566 122.78 250.996 122.78ZM256.381 122.78C256.865 122.78 257.334 122.687 257.584 122.593L257.576 121.39C257.35 121.491 256.967 121.608 256.608 121.608C255.889 121.608 255.475 121.233 255.475 120.249V115.96H257.584V114.843H255.475V111.733L254.17 112.687V114.843H252.865V115.96H254.154V120.468C254.154 121.937 254.951 122.78 256.381 122.78ZM259.188 125.882H260.555V121.241C261.063 122.226 262.039 122.78 263.141 122.78C265.282 122.78 266.477 120.952 266.477 118.749C266.477 116.554 265.282 114.71 263.164 114.71C262.071 114.71 261.063 115.265 260.555 116.249V114.843H259.188V125.882ZM262.844 121.577C261.321 121.577 260.438 120.351 260.438 118.749C260.438 117.14 261.321 115.937 262.844 115.937C264.368 115.937 265.149 117.163 265.149 118.749C265.149 120.335 264.368 121.577 262.844 121.577ZM270.573 122.78C272.081 122.78 273.44 121.983 273.44 120.343C273.44 117.397 269.073 118.46 269.073 116.772C269.073 116.187 269.628 115.765 270.51 115.765C271.424 115.765 272.003 116.288 272.346 116.913L273.37 116.358C272.807 115.319 271.823 114.71 270.557 114.71C269.057 114.71 267.807 115.476 267.807 116.944C267.807 119.749 272.135 118.554 272.135 120.405C272.135 121.093 271.589 121.671 270.51 121.671C269.362 121.671 268.706 120.952 268.44 120.21L267.37 120.679C267.76 121.866 268.995 122.78 270.573 122.78ZM275.739 117.022H277.184V115.194H275.739V117.022ZM275.739 122.647H277.184V120.812H275.739V122.647ZM278.773 125.991H280.023L285.71 111.608H284.468L278.773 125.991ZM284.095 125.991H285.345L291.033 111.608H289.79L284.095 125.991ZM293.019 122.78C294.527 122.78 295.886 121.983 295.886 120.343C295.886 117.397 291.519 118.46 291.519 116.772C291.519 116.187 292.074 115.765 292.957 115.765C293.871 115.765 294.449 116.288 294.793 116.913L295.816 116.358C295.254 115.319 294.269 114.71 293.004 114.71C291.504 114.71 290.254 115.476 290.254 116.944C290.254 119.749 294.582 118.554 294.582 120.405C294.582 121.093 294.035 121.671 292.957 121.671C291.808 121.671 291.152 120.952 290.886 120.21L289.816 120.679C290.207 121.866 291.441 122.78 293.019 122.78ZM297.623 113.265H299.006V111.608H297.623V113.265ZM297.654 122.647H298.974V114.843H297.654V122.647ZM301.352 122.647H302.672V118.147C302.672 116.679 303.461 115.937 304.703 115.937C305.883 115.937 306.5 116.741 306.5 118.03V122.647H307.82V117.788C307.797 116.116 306.961 114.71 305.063 114.71C304.117 114.71 303.211 115.14 302.672 116.03V114.843H301.352V122.647ZM313.096 122.78C314.369 122.78 315.307 122.374 316.174 121.444L315.252 120.64C314.604 121.327 313.963 121.577 313.104 121.577C311.643 121.577 310.854 120.64 310.752 119.14H316.369C316.401 119.022 316.432 118.71 316.432 118.421C316.432 116.812 315.58 114.71 312.963 114.71C310.573 114.71 309.354 116.632 309.354 118.78C309.354 120.976 310.627 122.78 313.096 122.78ZM310.752 118.171C310.901 116.804 311.635 115.827 312.955 115.827C314.268 115.827 314.955 116.71 315.088 117.679C315.119 117.835 315.119 117.999 315.119 118.171H310.752ZM316.708 125.991H317.958L323.645 111.608H322.403L316.708 125.991ZM325.632 122.647H326.85L328.788 116.687L330.718 122.647H331.936L334.264 114.843H332.85L331.257 120.632L329.374 114.843H328.202L326.311 120.64L324.733 114.843H323.319L325.632 122.647ZM336.431 122.647H337.798V115.96H339.931V114.843H337.798V113.819C337.798 113.007 338.212 112.655 338.868 112.655C339.095 112.655 339.329 112.741 339.556 112.866L339.993 111.78C339.61 111.593 339.189 111.476 338.751 111.476C337.439 111.476 336.439 112.241 336.439 113.687V114.843H334.868V115.96H336.431V122.647ZM339.597 125.991H340.847L346.534 111.608H345.292L339.597 125.991ZM347.927 122.647H354.248V121.343H349.302V111.608H347.927V122.647ZM357.344 122.647H358.711L361.406 114.39L364.101 122.647H365.461L368.687 111.608H367.258L364.687 120.655L361.953 112.218H360.859L358.117 120.655L355.547 111.608H354.117L357.344 122.647ZM374.611 122.78C378.135 122.78 379.775 120.132 379.775 117.124C379.775 114.116 378.135 111.476 374.611 111.476C371.104 111.476 369.471 114.116 369.471 117.124C369.471 120.132 371.104 122.78 374.611 122.78ZM374.611 121.554C371.994 121.554 370.916 119.507 370.916 117.124C370.916 114.749 371.994 112.702 374.611 112.702C377.252 112.702 378.322 114.749 378.322 117.124C378.322 119.507 377.252 121.554 374.611 121.554ZM385.176 115.21C384.418 115.21 383.699 115.444 382.981 115.968L383.543 112.874H388.285V111.608H382.449L381.426 117.327L382.731 117.679C383.254 116.89 384.114 116.444 384.981 116.444C386.457 116.444 387.403 117.546 387.403 118.921C387.403 120.304 386.348 121.53 384.903 121.53C383.457 121.53 382.637 120.452 382.364 119.194L381.09 119.546C381.496 121.397 383.004 122.78 384.903 122.78C387.059 122.78 388.801 121.022 388.801 118.937C388.801 116.858 387.192 115.21 385.176 115.21ZM399.928 123.413L400.819 122.569L399.241 121.046C400.045 120.046 400.459 118.64 400.459 117.14C400.459 114.132 398.819 111.476 395.303 111.476C391.795 111.476 390.155 114.116 390.155 117.124C390.155 120.132 391.795 122.78 395.303 122.78C396.538 122.78 397.553 122.437 398.35 121.835L399.928 123.413ZM395.303 121.476C392.678 121.476 391.53 119.507 391.53 117.124C391.53 114.749 392.678 112.772 395.303 112.772C397.936 112.772 399.084 114.749 399.084 117.124C399.084 118.257 398.819 119.257 398.249 120.054L396.538 118.421L395.639 119.241L397.374 120.882C396.85 121.249 396.163 121.476 395.303 121.476ZM405.524 122.78C408.04 122.78 409.087 121.116 409.087 118.64V111.608H403.329V112.874H407.704V118.655C407.704 120.507 407.157 121.499 405.524 121.499C404.126 121.499 403.384 120.53 403.29 119.202L401.938 119.351C402.079 121.288 403.384 122.78 405.524 122.78ZM420.698 111.608L417.253 120.187L413.808 111.608H411.925V122.647H413.253V113.468L416.581 121.726H417.925L421.253 113.468V122.647H422.581V111.608H420.698ZM428.091 122.647H429.466V112.843H433.185V111.608H424.372V112.843H428.091V122.647Z" fill="black"/>
</g>
<defs>
<linearGradient id="paint0_linear" x1="30.3535" y1="24.6475" x2="30.3535" y2="51.6475" gradientUnits="userSpaceOnUse">
<stop stop-color="#67FE80"/>
<stop offset="1" stop-color="#01B51F"/>
</linearGradient>
</defs>
</svg>
