<?xml version="1.0" encoding="utf-8"?>
<!-- Generator: Adobe Illustrator 23.0.5, SVG Export Plug-In . SVG Version: 6.00 Build 0)  -->
<svg version="1.1" id="Layer_1" xmlns="http://www.w3.org/2000/svg" xmlns:xlink="http://www.w3.org/1999/xlink" x="0px" y="0px"
	 viewBox="0 0 487 218.6" style="enable-background:new 0 0 487 218.6;" xml:space="preserve">
<style type="text/css">
	.st0{fill:#FFFFFF;}
	.st1{fill:#3A3A3A;}
	.st2{fill:#535353;}
	.st3{fill:#979797;}
	.st4{fill-rule:evenodd;clip-rule:evenodd;fill:#9FACBF;}
	.st5{fill-rule:evenodd;clip-rule:evenodd;fill:#FFFFFF;filter:url(#Adobe_OpacityMaskFilter);}
	.st6{mask:url(#mask0_1_);}
	.st7{fill:#9FACBF;}
</style>
<path class="st0" d="M10.4,0.6h466c5.5,0,10,4.5,10,10v198c0,5.5-4.5,10-10,10h-466c-5.5,0-10-4.5-10-10v-198
	C0.4,5.1,4.8,0.6,10.4,0.6z"/>
<path class="st1" d="M142,67.8c2.9,0,5.3-1.7,5.3-4.6c0-5-7.3-4.1-7.3-6.9c0-1,0.8-1.6,1.9-1.6c1,0,1.9,0.6,2.4,1.6l2.3-1.4
	c-1-1.8-2.8-2.7-4.6-2.7c-2.6,0-4.7,1.5-4.7,4.2c0,4.9,7.3,3.9,7.3,7c0,1.1-0.9,1.9-2.5,1.9c-1.6,0-3-0.8-3.1-2.7l-2.7,0.7
	C136.7,66.3,139.3,67.8,142,67.8z M148.9,54.9h2.8v-2.4h-2.8V54.9z M149,67.6h2.6V56.9H149V67.6z M154.3,67.6h2.6v-5.9
	c0-1.9,0.9-2.7,2.4-2.7c1.3,0,2.1,1,2.1,2.4v6.1h2.6v-6.4c0-2.2-1.1-4.5-3.9-4.5c-1.1,0-2.3,0.4-3.1,1.5v-1.2h-2.6V67.6z
	 M170.8,67.9c1.8,0,3.2-0.6,4.4-1.9l-1.8-1.6c-0.8,0.8-1.6,1.1-2.6,1.1c-1.7,0-2.5-0.9-2.7-2.4h7.4c0.1-0.2,0.1-0.6,0.1-1
	c0-2.4-1.2-5.4-5-5.4c-3.6,0-5.3,2.8-5.3,5.6C165.4,65.2,167.1,67.9,170.8,67.9z M168.2,61.2c0.2-1.3,0.9-2.4,2.5-2.4
	c1.1,0,2.1,0.6,2.3,1.7c0.1,0.2,0.1,0.4,0.1,0.7H168.2z M184.1,67.6h2.4l2.1-7l2.1,7h2.4l3.3-10.7h-2.8l-1.8,6.7l-2-6.7h-2.2l-2,6.7
	l-1.8-6.7h-2.8L184.1,67.6z M201.7,67.9c3.3,0,5.5-2.6,5.5-5.6c0-3-2.2-5.6-5.5-5.6c-3.3,0-5.5,2.5-5.5,5.6
	C196.2,65.3,198.4,67.9,201.7,67.9z M201.7,65.6c-2,0-2.8-1.6-2.8-3.4c0-1.8,0.8-3.3,2.8-3.3c2,0,2.8,1.5,2.8,3.3
	C204.5,64,203.7,65.6,201.7,65.6z M208.9,67.6h2.5v-4.5c0-2.7,1.3-3.9,2.5-3.9c0.4,0,0.8,0.1,1.2,0.4l1.2-2.1
	c-0.5-0.5-1.3-0.8-2-0.8c-1.2,0-2.4,0.7-2.9,2v-1.8h-2.6V67.6z M217.3,67.6h2.6v-3.1l1.7-1.8l3.1,5h3.1l-4.5-6.6l4-4.2h-3.4
	l-4.1,4.5v-8.9h-2.6V67.6z M229.5,67.6h2.7v-8.5h2.5v-2.2h-2.5v-1.2c0-0.8,0.5-1.2,1-1.2c0.3,0,0.6,0.1,0.8,0.3l0.9-2.2
	c-0.6-0.3-1.2-0.4-1.9-0.4c-1.8,0-3.4,1.1-3.4,3.2v1.4h-2v2.2h2V67.6z M238,67.9c0.6,0,1.4-0.1,2-0.2v-2.2c-0.3,0-0.6,0.1-0.7,0.1
	c-0.5,0-0.9-0.2-0.9-0.7V52.5h-2.6v13C235.7,67.4,236.7,67.9,238,67.9z M246,67.9c3.3,0,5.5-2.6,5.5-5.6c0-3-2.2-5.6-5.5-5.6
	c-3.3,0-5.5,2.5-5.5,5.6C240.5,65.3,242.7,67.9,246,67.9z M246,65.6c-2,0-2.8-1.6-2.8-3.4c0-1.8,0.8-3.3,2.8-3.3
	c2,0,2.8,1.5,2.8,3.3C248.8,64,248,65.6,246,65.6z M254.7,67.6h2.4l2.1-7l2.1,7h2.4l3.3-10.7h-2.8l-1.8,6.7l-2-6.7h-2.2l-2,6.7
	l-1.8-6.7h-2.8L254.7,67.6z M273,67.6h2.5v-4.5c0-2.7,1.3-3.9,2.5-3.9c0.4,0,0.8,0.1,1.2,0.4l1.2-2.1c-0.5-0.5-1.3-0.8-2-0.8
	c-1.2,0-2.4,0.7-2.9,2v-1.8H273V67.6z M285.3,67.9c1.8,0,3.2-0.6,4.4-1.9l-1.8-1.6c-0.8,0.8-1.6,1.1-2.6,1.1c-1.7,0-2.5-0.9-2.7-2.4
	h7.4c0.1-0.2,0.1-0.6,0.1-1c0-2.4-1.2-5.4-5-5.4c-3.6,0-5.3,2.8-5.3,5.6C279.9,65.2,281.6,67.9,285.3,67.9z M282.6,61.2
	c0.2-1.3,0.9-2.4,2.5-2.4c1.1,0,2.1,0.6,2.3,1.7c0.1,0.2,0.1,0.4,0.1,0.7H282.6z M301.3,72.1V56.9h-2.7V58c-0.8-0.9-1.9-1.3-3.1-1.3
	c-3,0-4.6,2.6-4.6,5.6c0,3,1.6,5.6,4.6,5.6c1.2,0,2.3-0.4,3-1.3v5.5H301.3z M296.2,65.5c-1.8,0-2.6-1.4-2.6-3.2
	c0-1.8,0.8-3.2,2.6-3.2c1.8,0,2.6,1.4,2.6,3.2C298.9,64.1,298,65.5,296.2,65.5z M307.6,67.9c1.1,0,2.3-0.4,3.2-1.5v1.3h2.6V56.9
	h-2.6v5.9c0,1.9-0.9,2.7-2.4,2.7c-1.3,0-2.1-1-2.1-2.4v-6.1h-2.6v6.4C303.7,65.6,304.8,67.9,307.6,67.9z M316,54.9h2.8v-2.4H316
	V54.9z M316,67.6h2.6V56.9H316V67.6z M321.3,67.6h2.5v-4.5c0-2.7,1.3-3.9,2.5-3.9c0.4,0,0.8,0.1,1.2,0.4l1.2-2.1
	c-0.5-0.5-1.3-0.8-2-0.8c-1.2,0-2.4,0.7-2.9,2v-1.8h-2.6V67.6z M333.7,67.9c1.8,0,3.2-0.6,4.4-1.9l-1.8-1.6
	c-0.8,0.8-1.6,1.1-2.6,1.1c-1.7,0-2.5-0.9-2.7-2.4h7.4c0.1-0.2,0.1-0.6,0.1-1c0-2.4-1.2-5.4-5-5.4c-3.6,0-5.3,2.8-5.3,5.6
	C328.2,65.2,330,67.9,333.7,67.9z M331,61.2c0.2-1.3,0.9-2.4,2.5-2.4c1.1,0,2.1,0.6,2.3,1.7c0.1,0.2,0.1,0.4,0.1,0.7H331z M344,67.9
	c1.2,0,2.4-0.4,3.1-1.4l0.1,1.2h2.4V52.5H347V58c-0.7-0.9-1.9-1.3-3-1.3c-3,0-4.6,2.6-4.6,5.6C339.3,65.3,341,67.9,344,67.9z
	 M344.6,65.5c-1.8,0-2.6-1.4-2.6-3.2c0-1.8,0.8-3.2,2.6-3.2c1.8,0,2.6,1.4,2.6,3.2C347.2,64.1,346.4,65.5,344.6,65.5z"/>
<path class="st2" d="M81.4,107.8c2.7,0,4.7-1.3,5.8-3.8l-1.6-0.7c-0.8,2-2.2,2.8-4.2,2.8c-3.3,0-4.7-2.4-4.7-5.5
	c0-3.1,1.5-5.4,4.7-5.4c2.1,0,3.5,0.8,4.2,2.8l1.6-0.6c-1-2.5-3-3.8-5.8-3.8c-4.3,0-6.4,3.1-6.4,7.1C75,104.7,77.1,107.8,81.4,107.8
	z M89.4,107.6H91v-5.4c0-1.8,0.9-3.1,2.6-3.1c1.6,0,2.2,1.1,2.2,2.6v5.8h1.7v-6.1c0-2.1-1.1-3.8-3.5-3.8c-1.2,0-2.3,0.5-3,1.7v-5.5
	h-1.7V107.6z M104.3,107.8c1.6,0,2.8-0.5,3.8-1.7l-1.2-1c-0.8,0.9-1.6,1.2-2.7,1.2c-1.8,0-2.8-1.2-2.9-3h7c0-0.1,0.1-0.5,0.1-0.9
	c0-2-1.1-4.6-4.3-4.6c-3,0-4.5,2.4-4.5,5.1C99.6,105.6,101.2,107.8,104.3,107.8z M101.3,102.1c0.2-1.7,1.1-2.9,2.8-2.9
	c1.6,0,2.5,1.1,2.7,2.3c0,0.2,0,0.4,0,0.6H101.3z M114.4,107.8c1.8,0,3.3-1,3.9-2.8l-1.5-0.6c-0.4,1.1-1.2,1.8-2.4,1.8
	c-2,0-2.8-1.7-2.8-3.5c0-1.8,0.8-3.6,2.8-3.6c1.2,0,2.1,0.7,2.5,1.9l1.6-0.6c-0.7-1.8-2.2-2.7-4-2.7c-3,0-4.5,2.5-4.5,5.1
	C109.9,105.5,111.5,107.8,114.4,107.8z M120.6,107.6h1.6v-2.9l2-2.2l3.3,5h2l-4.1-6.1l3.6-3.7h-2.2l-4.6,4.9v-8.9h-1.6V107.6z
	 M137,111.8h1.8l5.4-13.9h-1.8l-2.8,7.7l-3.1-7.7h-1.8l4,9.6L137,111.8z M149.5,107.8c2.9,0,4.8-2.3,4.8-5.1c0-2.8-2-5-4.8-5
	c-2.9,0-4.8,2.2-4.8,5C144.7,105.5,146.6,107.8,149.5,107.8z M149.5,106.4c-2,0-3.1-1.7-3.1-3.6c0-2,1.1-3.6,3.1-3.6
	c2,0,3.1,1.6,3.1,3.6C152.6,104.7,151.5,106.4,149.5,106.4z M159.7,107.8c1.2,0,2.3-0.5,3-1.7v1.5h1.6v-9.8h-1.6v5.6
	c0,1.8-1,2.8-2.5,2.8c-1.5,0-2.2-1-2.2-2.6v-5.8h-1.6v6.1C156.3,106,157.4,107.8,159.7,107.8z M167.6,107.6h1.6v-4.7
	c0-2.6,1.4-3.6,2.6-3.6c0.4,0,0.8,0.1,1.1,0.3l0.8-1.4c-0.4-0.4-1-0.5-1.6-0.5c-1.1,0-2.4,0.7-2.9,2.1v-1.9h-1.6V107.6z
	 M184.1,107.8c1.6,0,2.8-0.5,3.8-1.7l-1.2-1c-0.8,0.9-1.6,1.2-2.7,1.2c-1.8,0-2.8-1.2-2.9-3h7c0-0.1,0.1-0.5,0.1-0.9
	c0-2-1.1-4.6-4.3-4.6c-3,0-4.5,2.4-4.5,5.1C179.4,105.6,181,107.8,184.1,107.8z M181.1,102.1c0.2-1.7,1.1-2.9,2.8-2.9
	c1.6,0,2.5,1.1,2.7,2.3c0,0.2,0,0.4,0,0.6H181.1z M190.6,107.6h1.7V102c0-1.6,0.9-2.7,2.5-2.7c1.5,0,2.1,1,2.1,2.6v5.8h1.7V102
	c0-1.6,0.9-2.7,2.4-2.7c1.5,0,2.1,1.1,2.1,2.8v5.6h1.7v-5.8c0-2.4-1-4.2-3.4-4.2c-1.4,0-2.5,0.6-3.2,2c-0.5-1.4-1.6-2-3-2
	c-1.2,0-2.3,0.5-2.8,1.7v-1.5h-1.6L190.6,107.6z M210.8,97.7c-1.8,0-3,0.8-3.9,2.1l1.3,0.9c0.6-0.9,1.4-1.5,2.7-1.5
	c1.8,0,2.5,0.9,2.5,2.8h-2.8c-2.4,0-4,0.8-4,2.8c0,1.9,1.4,3.1,3.4,3.1c1.3,0,2.7-0.6,3.4-1.9l0.1,1.7h1.4v-5.9
	C214.9,99.3,213.4,97.7,210.8,97.7z M210.3,106.4c-1.3,0-2.1-0.6-2.1-1.6c0-1,0.8-1.6,2.4-1.6h2.7v0.6
	C213,105.3,212,106.4,210.3,106.4z M217.7,95.9h1.7v-2.1h-1.7V95.9z M217.7,107.6h1.7v-9.8h-1.7V107.6z M224.4,107.8
	c0.5,0,1.1-0.1,1.5-0.2l0-1.4c-0.3,0-0.6,0.1-0.8,0.1c-0.8,0-1-0.5-1-1.1V93.8h-1.7v11.8C222.5,107.1,223.1,107.8,224.4,107.8z
	 M236.8,107.8c2.9,0,4.8-2.3,4.8-5.1c0-2.8-2-5-4.8-5c-2.9,0-4.8,2.2-4.8,5C232,105.5,233.9,107.8,236.8,107.8z M236.8,106.4
	c-2,0-3.1-1.7-3.1-3.6c0-2,1.1-3.6,3.1-3.6c2,0,3.1,1.6,3.1,3.6C239.9,104.7,238.8,106.4,236.8,106.4z M243.9,107.6h1.6v-4.7
	c0-2.6,1.4-3.6,2.6-3.6c0.4,0,0.8,0.1,1.1,0.3l0.8-1.4c-0.4-0.4-1-0.5-1.6-0.5c-1.1,0-2.4,0.7-2.9,2.1v-1.9h-1.6V107.6z
	 M259.4,107.8c1.9,0,3.6-1,3.6-3c0-3.7-5.5-2.4-5.5-4.5c0-0.7,0.7-1.3,1.8-1.3c1.1,0,1.9,0.7,2.3,1.4l1.3-0.7
	c-0.7-1.3-1.9-2.1-3.5-2.1c-1.9,0-3.4,1-3.4,2.8c0,3.5,5.4,2,5.4,4.3c0,0.9-0.7,1.6-2,1.6c-1.4,0-2.3-0.9-2.6-1.8l-1.3,0.6
	C255.9,106.7,257.5,107.8,259.4,107.8z M265.4,107.6h1.7V102c0-1.6,0.9-2.7,2.5-2.7c1.5,0,2.1,1,2.1,2.6v5.8h1.7V102
	c0-1.6,0.9-2.7,2.4-2.7c1.5,0,2.1,1.1,2.1,2.8v5.6h1.7v-5.8c0-2.4-1-4.2-3.4-4.2c-1.4,0-2.5,0.6-3.2,2c-0.5-1.4-1.6-2-3-2
	c-1.2,0-2.3,0.5-2.8,1.7v-1.5h-1.6L265.4,107.6z M285.3,107.8c1.9,0,3.6-1,3.6-3c0-3.7-5.5-2.4-5.5-4.5c0-0.7,0.7-1.3,1.8-1.3
	c1.1,0,1.9,0.7,2.3,1.4l1.3-0.7c-0.7-1.3-1.9-2.1-3.5-2.1c-1.9,0-3.4,1-3.4,2.8c0,3.5,5.4,2,5.4,4.3c0,0.9-0.7,1.6-2,1.6
	c-1.4,0-2.3-0.9-2.6-1.8l-1.3,0.6C281.7,106.7,283.3,107.8,285.3,107.8z M296.8,107.6h1.7v-8.4h2.7v-1.4h-2.7v-1.3
	c0-1,0.5-1.5,1.3-1.5c0.3,0,0.6,0.1,0.9,0.3l0.5-1.4c-0.5-0.2-1-0.4-1.6-0.4c-1.6,0-2.9,1-2.9,2.8v1.4h-2v1.4h2V107.6z M306.5,107.8
	c2.9,0,4.8-2.3,4.8-5.1c0-2.8-2-5-4.8-5s-4.8,2.2-4.8,5C301.7,105.5,303.7,107.8,306.5,107.8z M306.5,106.4c-2,0-3.1-1.7-3.1-3.6
	c0-2,1.1-3.6,3.1-3.6c2,0,3.1,1.6,3.1,3.6C309.6,104.7,308.5,106.4,306.5,106.4z M313.7,107.6h1.6v-4.7c0-2.6,1.4-3.6,2.6-3.6
	c0.4,0,0.8,0.1,1.1,0.3l0.8-1.4c-0.4-0.4-1-0.5-1.6-0.5c-1.1,0-2.4,0.7-2.9,2.1v-1.9h-1.6V107.6z M329.7,97.7c-1.8,0-3,0.8-3.9,2.1
	l1.3,0.9c0.6-0.9,1.4-1.5,2.7-1.5c1.8,0,2.5,0.9,2.5,2.8h-2.8c-2.4,0-4,0.8-4,2.8c0,1.9,1.4,3.1,3.4,3.1c1.3,0,2.7-0.6,3.4-1.9
	l0.1,1.7h1.4v-5.9C333.7,99.3,332.3,97.7,329.7,97.7z M329.2,106.4c-1.3,0-2-0.6-2-1.6c0-1,0.8-1.6,2.4-1.6h2.7v0.6
	C331.9,105.3,330.8,106.4,329.2,106.4z M343.3,107.8c0.5,0,1.1-0.1,1.5-0.2l0-1.4c-0.3,0-0.6,0.1-0.8,0.1c-0.8,0-1-0.5-1-1.1V93.8
	h-1.7v11.8C341.5,107.1,342,107.8,343.3,107.8z M346.8,95.9h1.7v-2.1h-1.7V95.9z M346.9,107.6h1.6v-9.8h-1.6V107.6z M351.7,107.6
	h1.6V102c0-1.8,1-2.8,2.5-2.8c1.5,0,2.2,1,2.2,2.6v5.8h1.7v-6.1c0-2.1-1.1-3.8-3.4-3.8c-1.2,0-2.3,0.5-3,1.7v-1.5h-1.6V107.6z
	 M362.7,107.6h1.6v-2.9l2-2.2l3.3,5h2l-4.1-6.1l3.6-3.7h-2.2l-4.6,4.9v-8.9h-1.6V107.6z M381.4,107.8c0.6,0,1.2-0.1,1.5-0.2l0-1.5
	c-0.3,0.1-0.8,0.3-1.2,0.3c-0.9,0-1.4-0.5-1.4-1.7v-5.4h2.6v-1.4h-2.6V94l-1.6,1.2v2.7H377v1.4h1.6v5.6
	C378.6,106.8,379.6,107.8,381.4,107.8z M389,107.8c2.9,0,4.8-2.3,4.8-5.1c0-2.8-2-5-4.8-5s-4.8,2.2-4.8,5
	C384.2,105.5,386.2,107.8,389,107.8z M389,106.4c-2,0-3.1-1.7-3.1-3.6c0-2,1.1-3.6,3.1-3.6c2,0,3.1,1.6,3.1,3.6
	C392.1,104.7,391.1,106.4,389,106.4z M116.6,131.8c1.8,0,3.3-1,3.9-2.8l-1.5-0.6c-0.4,1.1-1.2,1.8-2.4,1.8c-2,0-2.8-1.7-2.8-3.5
	c0-1.8,0.8-3.6,2.8-3.6c1.2,0,2.1,0.7,2.5,1.9l1.6-0.6c-0.7-1.8-2.2-2.7-4-2.7c-3,0-4.5,2.5-4.5,5.1
	C112.1,129.5,113.7,131.8,116.6,131.8z M126.5,131.8c2.9,0,4.8-2.3,4.8-5.1c0-2.8-2-5-4.8-5c-2.9,0-4.8,2.2-4.8,5
	C121.7,129.5,123.7,131.8,126.5,131.8z M126.5,130.4c-2,0-3.1-1.7-3.1-3.6c0-2,1.1-3.6,3.1-3.6c2,0,3.1,1.6,3.1,3.6
	C129.7,128.7,128.6,130.4,126.5,130.4z M133.7,131.6h1.7V126c0-1.6,0.9-2.7,2.5-2.7c1.5,0,2.1,1,2.1,2.6v5.8h1.7V126
	c0-1.6,0.9-2.7,2.4-2.7c1.5,0,2.1,1.1,2.1,2.8v5.6h1.7v-5.8c0-2.4-1-4.2-3.4-4.2c-1.4,0-2.5,0.6-3.2,2c-0.5-1.4-1.6-2-3-2
	c-1.2,0-2.3,0.5-2.8,1.7v-1.5h-1.6L133.7,131.6z M150.6,135.7h1.7v-5.8c0.6,1.2,1.9,1.9,3.2,1.9c2.7,0,4.2-2.3,4.2-5
	c0-2.7-1.5-5-4.1-5c-1.4,0-2.6,0.7-3.3,1.9v-1.8h-1.7V135.7z M155.2,130.3c-1.9,0-3-1.5-3-3.5c0-2,1.1-3.5,3-3.5
	c1.9,0,2.9,1.5,2.9,3.5C158.1,128.8,157.1,130.3,155.2,130.3z M164,131.8c0.5,0,1.1-0.1,1.5-0.2l0-1.4c-0.3,0-0.6,0.1-0.8,0.1
	c-0.8,0-1-0.5-1-1.1v-11.3h-1.7v11.8C162.1,131.1,162.7,131.8,164,131.8z M171.4,131.8c1.6,0,2.8-0.5,3.8-1.7l-1.2-1
	c-0.8,0.9-1.6,1.2-2.7,1.2c-1.8,0-2.8-1.2-2.9-3h7c0-0.1,0.1-0.5,0.1-0.9c0-2-1.1-4.6-4.3-4.6c-3,0-4.5,2.4-4.5,5.1
	C166.7,129.6,168.3,131.8,171.4,131.8z M168.4,126.1c0.2-1.7,1.1-2.9,2.8-2.9c1.6,0,2.5,1.1,2.7,2.3c0,0.2,0,0.4,0,0.6H168.4z
	 M181,131.8c0.6,0,1.2-0.1,1.5-0.2l0-1.5c-0.3,0.1-0.8,0.3-1.2,0.3c-0.9,0-1.4-0.5-1.4-1.7v-5.4h2.6v-1.4h-2.6V118l-1.6,1.2v2.7
	h-1.6v1.4h1.6v5.6C178.2,130.8,179.2,131.8,181,131.8z M188.6,131.8c1.6,0,2.8-0.5,3.8-1.7l-1.2-1c-0.8,0.9-1.6,1.2-2.7,1.2
	c-1.8,0-2.8-1.2-2.9-3h7c0-0.1,0.1-0.5,0.1-0.9c0-2-1.1-4.6-4.3-4.6c-3,0-4.5,2.4-4.5,5.1C183.9,129.6,185.5,131.8,188.6,131.8z
	 M185.7,126.1c0.2-1.7,1.1-2.9,2.8-2.9c1.6,0,2.5,1.1,2.7,2.3c0,0.2,0,0.4,0,0.6H185.7z M200,131.6h1.6v-4.7c0-2.6,1.4-3.6,2.6-3.6
	c0.4,0,0.8,0.1,1.1,0.3l0.8-1.4c-0.4-0.4-1-0.5-1.6-0.5c-1.1,0-2.4,0.7-2.9,2.1v-1.9H200V131.6z M211,131.8c1.6,0,2.8-0.5,3.8-1.7
	l-1.2-1c-0.8,0.9-1.6,1.2-2.7,1.2c-1.8,0-2.8-1.2-2.9-3h7c0-0.1,0.1-0.5,0.1-0.9c0-2-1.1-4.6-4.3-4.6c-3,0-4.5,2.4-4.5,5.1
	C206.3,129.6,207.9,131.8,211,131.8z M208.1,126.1c0.2-1.7,1.1-2.9,2.8-2.9c1.6,0,2.5,1.1,2.7,2.3c0,0.2,0,0.4,0,0.6H208.1z
	 M225.8,135.7v-13.8h-1.7v1.8c-0.6-1.2-1.9-1.9-3.3-1.9c-2.6,0-4.1,2.3-4.1,5c0,2.8,1.5,5,4.2,5c1.4,0,2.6-0.7,3.2-1.9v5.8H225.8z
	 M221.2,130.3c-1.9,0-2.9-1.6-2.9-3.5c0-2,1-3.5,2.9-3.5c1.9,0,3,1.5,3,3.5C224.2,128.8,223.1,130.3,221.2,130.3z M232.2,131.8
	c1.2,0,2.3-0.5,3-1.7v1.5h1.6v-9.8h-1.6v5.6c0,1.8-1,2.8-2.5,2.8c-1.5,0-2.2-1-2.2-2.6v-5.8h-1.6v6.1
	C228.8,130,229.8,131.8,232.2,131.8z M240,119.9h1.7v-2.1H240V119.9z M240,131.6h1.7v-9.8H240V131.6z M244.8,131.6h1.6v-4.7
	c0-2.6,1.4-3.6,2.6-3.6c0.4,0,0.8,0.1,1.1,0.3l0.8-1.4c-0.4-0.4-1-0.5-1.6-0.5c-1.1,0-2.4,0.7-2.9,2.1v-1.9h-1.6V131.6z
	 M255.8,131.8c1.6,0,2.8-0.5,3.8-1.7l-1.2-1c-0.8,0.9-1.6,1.2-2.7,1.2c-1.8,0-2.8-1.2-2.9-3h7c0-0.1,0.1-0.5,0.1-0.9
	c0-2-1.1-4.6-4.3-4.6c-3,0-4.5,2.4-4.5,5.1C251.1,129.6,252.7,131.8,255.8,131.8z M252.9,126.1c0.2-1.7,1.1-2.9,2.8-2.9
	c1.6,0,2.5,1.1,2.7,2.3c0,0.2,0,0.4,0,0.6H252.9z M265.8,131.8c1.4,0,2.7-0.7,3.3-2l0.1,1.8h1.5v-13.8H269v5.8
	c-0.6-1.2-1.9-1.9-3.3-1.9c-2.6,0-4.3,2.3-4.3,5C261.5,129.5,263.1,131.8,265.8,131.8z M266.2,130.3c-1.9,0-3-1.6-3-3.5
	c0-2,1.1-3.5,3-3.5c1.9,0,3,1.5,3,3.5C269.2,128.8,268.1,130.3,266.2,130.3z M280.5,131.6h1.5l2.4-7.5l2.4,7.5h1.5l2.9-9.8h-1.8
	l-2,7.2l-2.4-7.2h-1.5l-2.4,7.2l-2-7.2h-1.8L280.5,131.6z M296.9,131.8c2.9,0,4.8-2.3,4.8-5.1c0-2.8-2-5-4.8-5s-4.8,2.2-4.8,5
	C292.1,129.5,294,131.8,296.9,131.8z M296.9,130.4c-2,0-3.1-1.7-3.1-3.6c0-2,1.1-3.6,3.1-3.6c2,0,3.1,1.6,3.1,3.6
	C300,128.7,298.9,130.4,296.9,130.4z M304,131.6h1.6v-4.7c0-2.6,1.4-3.6,2.6-3.6c0.4,0,0.8,0.1,1.1,0.3l0.8-1.4
	c-0.4-0.4-1-0.5-1.6-0.5c-1.1,0-2.4,0.7-2.9,2.1v-1.9H304V131.6z M311.8,131.6h1.6v-2.9l2-2.2l3.3,5h2l-4.1-6.1l3.6-3.7H318
	l-4.6,4.9v-8.9h-1.6V131.6z M330.1,131.8c0.5,0,1-0.1,1.5-0.2l0-1.4c-0.3,0-0.6,0.1-0.8,0.1c-0.8,0-1-0.5-1-1.1v-10.5
	c-1.4-0.8-2.2-1-3.5-1c-2,0-3.6,1.1-3.6,3.4v0.8h-1.6v1.4h1.6v8.4h1.7v-8.4h2.1l0-1.4h-2.1v-0.8c0-1.4,0.7-2.1,2-2.1
	c0.7,0,1.3,0.2,1.8,0.5v10.1C328.2,131.1,328.8,131.8,330.1,131.8z M337.5,131.8c2.9,0,4.8-2.3,4.8-5.1c0-2.8-2-5-4.8-5
	c-2.9,0-4.8,2.2-4.8,5C332.7,129.5,334.6,131.8,337.5,131.8z M337.5,130.4c-2,0-3.1-1.7-3.1-3.6c0-2,1.1-3.6,3.1-3.6
	c2,0,3.1,1.6,3.1,3.6C340.6,128.7,339.5,130.4,337.5,130.4z M346,131.6h1.5l2.4-7.5l2.4,7.5h1.5l2.9-9.8h-1.8l-2,7.2l-2.4-7.2h-1.5
	l-2.4,7.2l-2-7.2h-1.8L346,131.6z"/>
<path class="st3" d="M207.4,169.2h5.3c1,0,1.9,0.1,2.9,0.4c1,0.3,1.9,0.7,2.6,1.3c0.8,0.6,1.4,1.3,1.9,2.3c0.5,0.9,0.7,2.1,0.7,3.5
	c0,1.3-0.2,2.4-0.7,3.4c-0.5,0.9-1.1,1.7-1.9,2.3c-0.8,0.6-1.7,1-2.6,1.3c-1,0.3-1.9,0.4-2.9,0.4h-5.3V169.2z M212.2,181.7
	c0.7,0,1.4-0.1,2.1-0.2c0.7-0.2,1.3-0.4,1.8-0.8c0.6-0.4,1-0.9,1.4-1.6c0.3-0.7,0.5-1.5,0.5-2.5c0-1.1-0.2-1.9-0.5-2.6
	c-0.3-0.7-0.8-1.2-1.4-1.6c-0.5-0.4-1.2-0.6-1.8-0.8c-0.7-0.1-1.4-0.2-2.1-0.2H210v10.3H212.2z M223.3,174h2.5V184h-2.5V174z
	 M223,170.5c0-0.4,0.1-0.8,0.4-1c0.3-0.3,0.7-0.5,1.2-0.5s0.8,0.1,1.2,0.4c0.3,0.3,0.5,0.6,0.5,1.1s-0.2,0.8-0.5,1.1
	c-0.3,0.3-0.7,0.4-1.2,0.4s-0.8-0.1-1.2-0.4C223.1,171.3,223,171,223,170.5z M234.4,176.6c-0.2-0.3-0.5-0.5-0.9-0.8
	c-0.4-0.2-0.8-0.3-1.3-0.3c-0.4,0-0.8,0.1-1.1,0.3c-0.3,0.2-0.5,0.4-0.5,0.8c0,0.4,0.2,0.7,0.5,0.8c0.4,0.2,0.9,0.3,1.6,0.5
	c0.4,0.1,0.8,0.2,1.1,0.3c0.4,0.1,0.7,0.3,1,0.6c0.3,0.2,0.6,0.5,0.8,0.9c0.2,0.3,0.3,0.7,0.3,1.2c0,0.6-0.1,1.1-0.4,1.6
	c-0.2,0.4-0.5,0.8-0.9,1c-0.4,0.3-0.8,0.5-1.3,0.6c-0.5,0.1-1,0.2-1.6,0.2c-0.8,0-1.5-0.1-2.3-0.4c-0.7-0.3-1.4-0.7-1.8-1.2l1.7-1.6
	c0.3,0.4,0.6,0.7,1.1,0.9c0.4,0.2,0.9,0.4,1.5,0.4c0.2,0,0.4,0,0.5-0.1c0.2,0,0.4-0.1,0.5-0.2c0.2-0.1,0.3-0.2,0.4-0.4
	c0.1-0.2,0.1-0.3,0.1-0.6c0-0.4-0.2-0.7-0.6-0.9c-0.4-0.2-0.9-0.4-1.7-0.5c-0.4-0.1-0.7-0.2-1.1-0.3c-0.3-0.1-0.7-0.3-0.9-0.5
	c-0.3-0.2-0.5-0.5-0.7-0.8c-0.2-0.3-0.3-0.7-0.3-1.2c0-0.6,0.1-1,0.3-1.4c0.2-0.4,0.5-0.7,0.9-1c0.4-0.3,0.8-0.5,1.3-0.6
	c0.5-0.1,1-0.2,1.5-0.2c0.7,0,1.4,0.1,2.1,0.4c0.7,0.3,1.3,0.6,1.7,1.2L234.4,176.6z M250.2,173.7c0.7,0,1.2,0.1,1.7,0.4
	c0.5,0.2,0.9,0.5,1.2,0.9c0.3,0.4,0.5,0.8,0.7,1.3c0.1,0.5,0.2,1,0.2,1.5v6.3h-2.5v-5.6c0-0.3,0-0.6-0.1-0.9c0-0.3-0.1-0.6-0.3-0.9
	c-0.1-0.3-0.3-0.5-0.6-0.6c-0.2-0.2-0.6-0.3-1-0.3c-0.4,0-0.7,0.1-1,0.3c-0.3,0.2-0.5,0.4-0.7,0.6c-0.2,0.3-0.3,0.6-0.4,0.9
	c-0.1,0.3-0.1,0.6-0.1,1v5.5h-2.5v-6.1c0-0.6-0.2-1.1-0.5-1.6c-0.3-0.4-0.8-0.6-1.4-0.6c-0.4,0-0.7,0.1-1,0.3
	c-0.3,0.2-0.5,0.4-0.7,0.6c-0.2,0.3-0.3,0.5-0.4,0.9c-0.1,0.3-0.1,0.7-0.1,1v5.5h-2.5V174h2.4v1.6h0c0.1-0.3,0.3-0.5,0.4-0.7
	c0.2-0.2,0.4-0.4,0.7-0.6c0.3-0.2,0.6-0.3,0.9-0.4c0.3-0.1,0.7-0.2,1.1-0.2c0.8,0,1.4,0.2,1.9,0.5c0.5,0.3,0.9,0.8,1.2,1.4
	c0.3-0.6,0.8-1.1,1.3-1.4C248.8,173.8,249.5,173.7,250.2,173.7z M256.9,174h2.5V184h-2.5V174z M256.5,170.5c0-0.4,0.1-0.8,0.4-1
	c0.3-0.3,0.7-0.5,1.2-0.5c0.5,0,0.8,0.1,1.2,0.4c0.3,0.3,0.5,0.6,0.5,1.1s-0.2,0.8-0.5,1.1c-0.3,0.3-0.7,0.4-1.2,0.4
	c-0.5,0-0.8-0.1-1.2-0.4C256.7,171.3,256.5,171,256.5,170.5z M268,176.6c-0.2-0.3-0.5-0.5-0.9-0.8c-0.4-0.2-0.8-0.3-1.3-0.3
	c-0.4,0-0.8,0.1-1.1,0.3c-0.3,0.2-0.5,0.4-0.5,0.8c0,0.4,0.2,0.7,0.5,0.8c0.4,0.2,0.9,0.3,1.6,0.5c0.4,0.1,0.8,0.2,1.1,0.3
	c0.4,0.1,0.7,0.3,1,0.6c0.3,0.2,0.6,0.5,0.8,0.9c0.2,0.3,0.3,0.7,0.3,1.2c0,0.6-0.1,1.1-0.4,1.6c-0.2,0.4-0.5,0.8-0.9,1
	c-0.4,0.3-0.8,0.5-1.3,0.6c-0.5,0.1-1,0.2-1.6,0.2c-0.8,0-1.5-0.1-2.3-0.4c-0.7-0.3-1.4-0.7-1.8-1.2l1.7-1.6
	c0.3,0.4,0.6,0.7,1.1,0.9c0.4,0.2,0.9,0.4,1.5,0.4c0.2,0,0.4,0,0.5-0.1c0.2,0,0.4-0.1,0.5-0.2c0.2-0.1,0.3-0.2,0.4-0.4
	c0.1-0.2,0.1-0.3,0.1-0.6c0-0.4-0.2-0.7-0.6-0.9c-0.4-0.2-0.9-0.4-1.7-0.5c-0.4-0.1-0.7-0.2-1.1-0.3c-0.3-0.1-0.7-0.3-0.9-0.5
	c-0.3-0.2-0.5-0.5-0.7-0.8c-0.2-0.3-0.3-0.7-0.3-1.2c0-0.6,0.1-1,0.3-1.4c0.2-0.4,0.5-0.7,0.9-1c0.4-0.3,0.8-0.5,1.3-0.6
	c0.5-0.1,1-0.2,1.5-0.2c0.7,0,1.4,0.1,2.1,0.4c0.7,0.3,1.2,0.6,1.7,1.2L268,176.6z M277.3,176.6c-0.2-0.3-0.5-0.5-0.9-0.8
	c-0.4-0.2-0.8-0.3-1.3-0.3c-0.4,0-0.8,0.1-1.1,0.3c-0.3,0.2-0.5,0.4-0.5,0.8c0,0.4,0.2,0.7,0.5,0.8c0.4,0.2,0.9,0.3,1.6,0.5
	c0.4,0.1,0.8,0.2,1.1,0.3c0.4,0.1,0.7,0.3,1,0.6c0.3,0.2,0.6,0.5,0.8,0.9c0.2,0.3,0.3,0.7,0.3,1.2c0,0.6-0.1,1.1-0.4,1.6
	c-0.2,0.4-0.5,0.8-0.9,1c-0.4,0.3-0.8,0.5-1.3,0.6c-0.5,0.1-1,0.2-1.6,0.2c-0.8,0-1.5-0.1-2.3-0.4c-0.7-0.3-1.4-0.7-1.8-1.2l1.7-1.6
	c0.3,0.4,0.6,0.7,1.1,0.9c0.4,0.2,0.9,0.4,1.5,0.4c0.2,0,0.4,0,0.5-0.1c0.2,0,0.4-0.1,0.5-0.2c0.2-0.1,0.3-0.2,0.4-0.4
	c0.1-0.2,0.1-0.3,0.1-0.6c0-0.4-0.2-0.7-0.6-0.9c-0.4-0.2-1-0.4-1.7-0.5c-0.4-0.1-0.7-0.2-1.1-0.3c-0.4-0.1-0.7-0.3-0.9-0.5
	c-0.3-0.2-0.5-0.5-0.7-0.8c-0.2-0.3-0.3-0.7-0.3-1.2c0-0.6,0.1-1,0.3-1.4c0.2-0.4,0.5-0.7,0.9-1c0.4-0.3,0.8-0.5,1.3-0.6
	c0.5-0.1,1-0.2,1.5-0.2c0.7,0,1.4,0.1,2.1,0.4c0.7,0.3,1.3,0.6,1.7,1.2L277.3,176.6z"/>
<path class="st4" d="M469,23.1l-5.6,5.6l5.6,5.6l-1.4,1.4l-5.6-5.6l-5.6,5.6l-1.4-1.4l5.6-5.6l-5.6-5.6l1.4-1.4l5.6,5.6l5.6-5.6
	L469,23.1z"/>
<defs>
	<filter id="Adobe_OpacityMaskFilter" filterUnits="userSpaceOnUse" x="450" y="16.6" width="24.1" height="24">
		<feColorMatrix  type="matrix" values="1 0 0 0 0  0 1 0 0 0  0 0 1 0 0  0 0 0 1 0"/>
	</filter>
</defs>
<mask maskUnits="userSpaceOnUse" x="450" y="16.6" width="24.1" height="24" id="mask0_1_">
	<path class="st5" d="M469,23.1l-5.6,5.6l5.6,5.6l-1.4,1.4l-5.6-5.6l-5.6,5.6l-1.4-1.4l5.6-5.6l-5.6-5.6l1.4-1.4l5.6,5.6l5.6-5.6
		L469,23.1z"/>
</mask>
<g class="st6">
	<rect x="450" y="16.6" class="st7" width="24.1" height="24"/>
</g>
</svg>
