<?xml version="1.0" encoding="utf-8"?>
<svg width="60" height="61" viewBox="0 0 60 61" fill="none" xmlns="http://www.w3.org/2000/svg">
<g clip-path="url(#clip0)">
<ellipse cx="30.2205" cy="31.1195" rx="22.0779" ry="23.0995" fill="#B1FFE7"/>
<path fill-rule="evenodd" clip-rule="evenodd" d="M12.1886 49.864C16.9464 54.6386 23.2722 57.2681 30.0009 57.2681C36.7295 57.2681 43.0553 54.6386 47.8131 49.864C52.5709 45.0894 55.1912 38.7413 55.1912 31.9888C55.1912 25.2364 52.5709 18.8882 47.8131 14.1136C43.0553 9.33893 36.7295 6.70947 30.0009 6.70947C23.2722 6.70947 16.9464 9.33893 12.1886 14.1136C7.43076 18.8882 4.81055 25.2364 4.81055 31.9888C4.81055 38.7413 7.43076 45.0894 12.1886 49.864ZM8.26674 31.989C8.26674 19.9626 18.0164 10.1786 30.0003 10.1786C41.9842 10.1786 51.7339 19.9626 51.7339 31.989C51.7339 44.0152 41.9842 53.7993 30.0003 53.7993C18.0164 53.7993 8.26674 44.0152 8.26674 31.989Z" fill="#00E8A1"/>
<path d="M47.8122 14.1136C43.0545 9.33893 36.7287 6.70947 30 6.70947V10.1784C41.9839 10.1784 51.7336 19.9625 51.7336 31.9888C51.7336 44.0151 41.9839 53.7991 30 53.7991V57.2681C36.7287 57.2681 43.0545 54.6386 47.8122 49.864C52.5701 45.0894 55.1903 38.7413 55.1903 31.9888C55.1903 25.2364 52.5701 18.8882 47.8122 14.1136Z" fill="#00E8A1"/>
<rect width="7.24641" height="12.0952" transform="matrix(-1 0 0 1 52.0723 40.2629)" fill="#F2BB88"/>
<path d="M52.0577 47.5955L55.7653 48.5028C58.251 49.1112 60 51.3459 60 53.9132V58.7435C60 59.7952 59.1475 60.6477 58.0958 60.6477H38.7991C37.7475 60.6477 36.895 59.7952 36.895 58.7435V53.9132C36.895 51.3457 38.644 49.111 41.1295 48.5028L44.8371 47.5955C44.8371 47.5955 44.8371 50.9063 48.4474 50.8685C52.0577 50.8306 52.0577 47.5955 52.0577 47.5955Z" fill="#3982F7"/>
<path d="M55.9396 37.4831V31.7765C55.9396 31.024 55.3296 30.4141 54.5773 30.4141H46.4028C43.3931 30.4141 40.9531 32.8539 40.9531 35.8637V37.4831C40.9531 38.2153 41.0712 38.9426 41.3027 39.6372L41.5295 40.3175C41.5989 40.5259 41.6343 40.7441 41.6343 40.9637V41.3133H55.2584V40.9637C55.2584 40.7441 55.2938 40.5259 55.3632 40.3175L55.59 39.6372C55.8216 38.9426 55.9396 38.2152 55.9396 37.4831Z" fill="#EAB14A"/>
<path d="M44.3613 33.1814C44.3613 34.7098 45.6003 35.9488 47.1287 35.9488H47.5118L47.6968 41.3132H55.2605V40.9636C55.2605 40.744 55.2959 40.5258 55.3653 40.3174L55.5921 39.6371C55.8237 38.9426 55.9417 38.2152 55.9417 37.483V31.7765C55.9417 31.024 55.3317 30.4141 54.5793 30.4141H47.1287C45.6003 30.4141 44.3613 31.6531 44.3613 33.1814Z" fill="#FFBB40"/>
<path d="M48.433 47.9353C44.5695 47.9353 41.4375 44.8033 41.4375 40.9398V40.1202C41.4375 39.7492 41.5849 39.3933 41.8472 39.1309L42.4268 38.5514C42.6891 38.289 42.8365 37.9331 42.8365 37.562V35.8851C42.8365 35.5611 43.054 35.2797 43.3693 35.2053C45.0237 34.8145 50.1722 33.8889 53.676 36.4658C53.9035 36.6331 54.0293 36.908 54.0293 37.1904V37.562C54.0293 37.933 54.1767 38.2889 54.4391 38.5514L55.0186 39.1309C55.2809 39.3932 55.4283 39.7491 55.4283 40.1202V40.9398C55.4286 44.8033 52.2965 47.9353 48.433 47.9353Z" fill="#FCDAB2"/>
<path d="M21.5259 46.9108C20.5708 44.3803 19.8134 40.0302 19.6497 37.7654C19.3385 33.4555 16.0905 29.9421 11.7 29.9421C7.3094 29.9421 4.06148 33.4556 3.7502 37.7654C3.58658 40.0301 2.82911 44.3803 1.87404 46.9108C1.66359 47.4687 1.90652 48.0838 2.45585 48.3328C3.47926 48.7966 5.66128 49.7052 8.29289 50.0591H15.1069C17.7262 49.7044 19.9235 48.7952 20.944 48.3328C21.4934 48.0838 21.7363 47.4687 21.5259 46.9108Z" fill="#5A4146"/>
<path d="M20.9456 48.333C21.4948 48.084 21.7379 47.4689 21.5273 46.9111C20.5724 44.3806 19.8148 40.0305 19.6513 37.7656C19.3401 33.4557 16.0921 29.9424 11.7017 29.9424C11.6906 29.9424 11.6796 29.9424 11.6685 29.9425C8.29958 29.9562 7.10903 34.5507 10.0091 36.265C10.1833 36.368 10.295 36.4175 10.295 36.4175L12.8351 50.0594H15.1086C17.7279 49.7044 19.9252 48.7953 20.9456 48.333Z" fill="#694B4B"/>
<rect x="8.03125" y="40.0007" width="7.33954" height="12.2506" fill="#FAA68E"/>
<path d="M8.04421 47.4275L4.28901 48.3465C1.77152 48.9627 0 51.2261 0 53.8265V58.7433C0 59.795 0.852524 60.6475 1.90417 60.6475H21.4977C22.5493 60.6475 23.4018 59.795 23.4018 58.7433V53.8265C23.4018 51.2259 21.6303 48.9625 19.1128 48.3465L15.3576 47.4275C15.3576 47.4275 15.3576 50.7188 11.7009 50.7425C8.04422 50.7663 8.04421 47.4275 8.04421 47.4275Z" fill="#FE6A16"/>
<path d="M11.6878 47.4275C8.52612 47.4275 5.91563 45.068 5.52092 42.0139C5.46369 41.5713 5.67642 41.1375 6.07477 40.9365C6.55194 40.6958 7.24535 40.2899 7.90926 39.6975C8.64861 39.0379 9.08235 38.3422 9.32733 37.8316C9.53831 37.3918 10.0233 36.3394 10.4959 36.46C14.1451 37.3907 16.6294 40.0929 17.5308 40.868C17.7728 41.0761 17.9122 41.3829 17.8873 41.7012C17.6362 44.9053 14.9566 47.4275 11.6878 47.4275Z" fill="#FBCBBE"/>
<rect x="30" y="7.49536" width="2.81609" height="9.40084" fill="#9E6F46"/>
<rect x="26.2402" y="10.906" width="7.24637" height="12.0951" fill="#B27A49"/>
<path d="M26.2526 18.2383L22.5451 19.1456C20.0596 19.754 18.3105 21.9887 18.3105 24.556V29.5762C18.3105 30.5229 19.0781 31.2905 20.0248 31.2905H39.7012C40.6479 31.2905 41.4155 30.5229 41.4155 29.5762V24.556C41.4155 21.9885 39.6664 19.7538 37.1809 19.1456L33.4734 18.2383C33.4734 18.2383 33.4734 21.492 29.8631 21.5113C26.2528 21.5305 26.2526 18.2383 26.2526 18.2383Z" fill="#00C8FF"/>
<path d="M23.6226 2.95107C23.1511 3.59392 22.6583 4.79993 22.6583 5.60285C22.6583 6.40578 20.7833 7.0225 21.5869 9.70107C22.3905 12.3796 24.1213 14.3866 24.1213 14.3866H30.5869L30.4798 0.660889L27.5671 0.754639C25.6641 0.754778 24.0941 2.30821 23.6226 2.95107Z" fill="#5A4146"/>
<path d="M37.918 8.86612C37.6537 10.7901 35.6525 14.4526 35.6525 14.4526L31.476 6.32148C30.2073 6.32148 27.6858 5.43755 27.6055 3.33487C27.6055 1.43189 28.851 0.562552 31.0206 0.669697H32.2394C33.5081 0.669697 34.3421 0.977732 35.3465 1.71434C36.351 2.45095 36.7662 2.93309 37.4626 4.36613C38.159 5.79916 38.1822 6.94214 37.918 8.86612Z" fill="#694B4B"/>
<path d="M30.2195 18.4663C26.4372 18.4663 23.3711 15.4001 23.3711 11.6179V10.2807C23.3711 9.67527 23.6116 9.09462 24.0396 8.66642L26.1094 6.59662C26.5477 6.15834 27.147 5.90637 27.7665 5.92586C31.4152 6.04099 34.6448 6.82261 36.4102 8.54687C36.8424 8.96898 37.068 9.55944 37.068 10.1635V11.6179C37.068 15.4002 34.0018 18.4663 30.2195 18.4663Z" fill="#C48958"/>
</g>
<defs>
<clipPath id="clip0">
<rect width="60" height="60" fill="white" transform="translate(0 0.647461)"/>
</clipPath>
</defs>
</svg>
