<?xml version="1.0" encoding="utf-8"?>
<svg width="486" height="156" viewBox="0 0 486 156" fill="none" xmlns="http://www.w3.org/2000/svg">
<rect y="0.647461" width="485.431" height="155" rx="10" fill="white"/>
<rect x="69.25" y="67.6475" width="347.265" height="49" rx="4" fill="#F6F6F6"/>
<path d="M313.141 67.6475H412.517C414.726 67.6475 416.517 69.4383 416.517 71.6475V112.647C416.517 114.857 414.726 116.647 412.517 116.647H313.141V67.6475Z" fill="#00E8A1"/>
<path d="M181.009 43.8037C183.646 43.8037 185.804 42.2314 185.804 39.624C185.804 35.0439 179.124 35.9229 179.124 33.3252C179.124 32.4463 179.886 31.8506 180.862 31.8506C181.79 31.8506 182.61 32.3877 183.089 33.3252L185.15 32.0654C184.202 30.3857 182.65 29.6436 180.95 29.6436C178.626 29.6436 176.644 31.0107 176.644 33.4521C176.644 37.9443 183.323 36.9873 183.323 39.8486C183.323 40.8252 182.523 41.6064 181.048 41.6064C179.583 41.6064 178.362 40.8447 178.187 39.126L175.726 39.751C176.165 42.4658 178.568 43.8037 181.009 43.8037ZM187.605 43.6475H190.027V38.7061C190.027 37.085 190.75 35.8447 192.273 35.8447C193.709 35.8447 194.031 36.8896 194.031 38.0908V43.6475H196.453V37.7881C196.453 35.7471 195.408 33.6865 192.849 33.6865C191.892 33.6865 190.808 34.0674 190.027 35.0244V29.8486H187.605V43.6475ZM202.482 33.6865C200.559 33.6865 199.318 34.5459 198.381 35.8252L200.207 37.1436C200.627 36.4307 201.379 35.7666 202.502 35.7666C204.055 35.7666 204.484 36.3818 204.533 37.8271H201.887C199.699 37.8271 198 38.5303 198 40.6494C198 42.6904 199.543 43.8428 201.545 43.8428C202.658 43.8428 203.957 43.3545 204.592 42.3486L204.738 43.6475H206.701V37.7295C206.701 35.3467 205.139 33.6865 202.482 33.6865ZM202.023 41.8311C200.959 41.8311 200.441 41.3721 200.441 40.7275C200.441 40.1123 200.939 39.5459 202.023 39.5459H204.543V39.624C204.397 40.7764 203.488 41.8311 202.023 41.8311ZM209.118 43.6475H211.422V39.5264C211.422 37.0459 212.584 36.0107 213.698 36.0107C214.079 36.0107 214.44 36.1279 214.762 36.3428L215.846 34.3896C215.377 33.9111 214.704 33.6865 214.059 33.6865C212.965 33.6865 211.862 34.3506 211.442 35.5322V33.8916H209.118V43.6475ZM220.587 43.8428C222.227 43.8428 223.526 43.2666 224.591 42.085L222.95 40.6494C222.267 41.4111 221.485 41.6846 220.606 41.6846C219.073 41.6846 218.37 40.8252 218.165 39.5459H224.864C224.913 39.4092 224.952 39.0088 224.952 38.6084C224.952 36.4307 223.849 33.6865 220.431 33.6865C217.13 33.6865 215.645 36.2646 215.645 38.8037C215.645 41.4307 217.227 43.8428 220.587 43.8428ZM218.165 37.8271C218.39 36.6064 219.005 35.6885 220.411 35.6885C221.446 35.6885 222.286 36.2061 222.53 37.2119C222.589 37.4072 222.608 37.6123 222.608 37.8271H218.165ZM233.193 43.6475H235.342L237.256 37.251L239.18 43.6475H241.318L244.336 33.8916H241.797L240.117 39.9854L238.281 33.8916H236.24L234.394 40.0049L232.734 33.8916H230.195L233.193 43.6475ZM249.506 43.8428C252.524 43.8428 254.506 41.5088 254.506 38.7451C254.506 35.9912 252.524 33.6865 249.506 33.6865C246.489 33.6865 244.506 35.9912 244.506 38.7451C244.506 41.5088 246.489 43.8428 249.506 43.8428ZM249.506 41.792C247.709 41.792 246.987 40.3467 246.987 38.7451C246.987 37.1436 247.709 35.7471 249.506 35.7471C251.313 35.7471 252.026 37.1436 252.026 38.7451C252.026 40.3467 251.313 41.792 249.506 41.792ZM256.307 43.6475H258.612V39.5264C258.612 37.0459 259.774 36.0107 260.887 36.0107C261.268 36.0107 261.63 36.1279 261.952 36.3428L263.036 34.3896C262.567 33.9111 261.893 33.6865 261.249 33.6865C260.155 33.6865 259.052 34.3506 258.632 35.5322V33.8916H256.307V43.6475ZM264.222 43.6475H266.605V40.7861L268.109 39.126L270.97 43.6475H273.782L269.73 37.6709L273.382 33.8916H270.286L266.605 37.9443V29.8486H264.222V43.6475ZM275.613 43.6475H278.074V35.8838H280.349V33.8916H278.074V32.8271C278.074 32.0654 278.494 31.7627 278.972 31.7627C279.226 31.7627 279.509 31.8701 279.734 32.0068L280.515 30.0439C279.988 29.8096 279.392 29.6436 278.748 29.6436C277.107 29.6436 275.632 30.6885 275.632 32.583V33.8916H273.826V35.8838H275.613V43.6475ZM283.615 43.8428C284.182 43.8428 284.895 43.7451 285.393 43.6475V41.6455C285.139 41.6846 284.875 41.7041 284.738 41.7041C284.26 41.7041 283.957 41.5088 283.957 41.0498V29.8486H281.574V41.7041C281.574 43.4229 282.492 43.8428 283.615 43.8428ZM291.188 43.8428C294.206 43.8428 296.188 41.5088 296.188 38.7451C296.188 35.9912 294.206 33.6865 291.188 33.6865C288.17 33.6865 286.188 35.9912 286.188 38.7451C286.188 41.5088 288.17 43.8428 291.188 43.8428ZM291.188 41.792C289.391 41.792 288.669 40.3467 288.669 38.7451C288.669 37.1436 289.391 35.7471 291.188 35.7471C292.995 35.7471 293.708 37.1436 293.708 38.7451C293.708 40.3467 292.995 41.792 291.188 41.792ZM299.396 43.6475H301.544L303.458 37.251L305.382 43.6475H307.521L310.538 33.8916H307.999L306.319 39.9854L304.483 33.8916H302.442L300.597 40.0049L298.937 33.8916H296.397L299.396 43.6475Z" fill="#535353"/>
<path d="M112.857 96.772C114.271 96.772 115.545 96.0249 115.545 94.4868C115.545 91.7256 111.451 92.7217 111.451 91.1396C111.451 90.5903 111.971 90.1948 112.798 90.1948C113.655 90.1948 114.197 90.6855 114.52 91.2715L115.479 90.7515C114.952 89.7773 114.029 89.2061 112.842 89.2061C111.436 89.2061 110.264 89.9238 110.264 91.3008C110.264 93.9302 114.322 92.8096 114.322 94.5454C114.322 95.1899 113.809 95.7319 112.798 95.7319C111.722 95.7319 111.106 95.0581 110.857 94.3623L109.854 94.8018C110.22 95.915 111.377 96.772 112.857 96.772ZM117.598 87.8511H118.894V86.2983H117.598V87.8511ZM117.627 96.6475H118.865V89.3306H117.627V96.6475ZM121.519 96.6475H122.756V92.4287C122.756 91.0518 123.496 90.356 124.661 90.356C125.767 90.356 126.345 91.1104 126.345 92.3188V96.6475H127.583V92.0918C127.561 90.5244 126.777 89.2061 124.998 89.2061C124.111 89.2061 123.262 89.6089 122.756 90.4438V89.3306H121.519V96.6475ZM132.954 96.772C134.148 96.772 135.027 96.3911 135.84 95.5195L134.975 94.7651C134.368 95.4097 133.767 95.644 132.961 95.644C131.592 95.644 130.852 94.7651 130.757 93.3589H136.023C136.052 93.249 136.081 92.9561 136.081 92.6851C136.081 91.1763 135.283 89.2061 132.829 89.2061C130.588 89.2061 129.446 91.0078 129.446 93.022C129.446 95.0801 130.64 96.772 132.954 96.772ZM130.757 92.4507C130.896 91.1689 131.584 90.2534 132.822 90.2534C134.053 90.2534 134.697 91.0811 134.822 91.9893C134.851 92.1357 134.851 92.2896 134.851 92.4507H130.757ZM136.765 99.7822H137.937L143.269 86.2983H142.104L136.765 99.7822ZM145.556 96.6475H146.699L148.515 91.0591L150.324 96.6475H151.467L153.649 89.3306H152.324L150.83 94.7578L149.064 89.3306H147.966L146.193 94.7651L144.714 89.3306H143.388L145.556 96.6475ZM156.105 96.6475H157.387V90.3779H159.387V89.3306H157.387V88.3711C157.387 87.6094 157.775 87.2798 158.39 87.2798C158.603 87.2798 158.823 87.3604 159.035 87.4775L159.445 86.4595C159.086 86.2837 158.691 86.1738 158.281 86.1738C157.05 86.1738 156.113 86.8916 156.113 88.2466V89.3306H154.64V90.3779H156.105V96.6475ZM159.499 99.7822H160.671L166.003 86.2983H164.838L159.499 99.7822ZM167.733 96.6475H173.659V95.4243H169.022V86.2983H167.733V96.6475ZM176.986 96.6475H178.268L180.795 88.9058L183.321 96.6475H184.596L187.621 86.2983H186.28L183.871 94.7798L181.307 86.8696H180.282L177.711 94.7798L175.301 86.2983H173.961L176.986 96.6475ZM193.6 96.772C196.903 96.772 198.441 94.2891 198.441 91.4692C198.441 88.6494 196.903 86.1738 193.6 86.1738C190.311 86.1738 188.78 88.6494 188.78 91.4692C188.78 94.2891 190.311 96.772 193.6 96.772ZM193.6 95.6221C191.146 95.6221 190.135 93.7031 190.135 91.4692C190.135 89.2427 191.146 87.3237 193.6 87.3237C196.075 87.3237 197.079 89.2427 197.079 91.4692C197.079 93.7031 196.075 95.6221 193.6 95.6221ZM203.929 89.6748C203.219 89.6748 202.545 89.8945 201.871 90.3853L202.398 87.4849H206.844V86.2983H201.373L200.413 91.6597L201.637 91.9893C202.127 91.2495 202.933 90.832 203.746 90.832C205.13 90.832 206.016 91.8647 206.016 93.1538C206.016 94.4502 205.028 95.6001 203.673 95.6001C202.318 95.6001 201.549 94.5894 201.292 93.4102L200.098 93.7397C200.479 95.4756 201.893 96.772 203.673 96.772C205.694 96.772 207.327 95.124 207.327 93.1685C207.327 91.2202 205.819 89.6748 203.929 89.6748ZM218.184 97.3652L219.019 96.5742L217.54 95.146C218.294 94.2085 218.682 92.8901 218.682 91.4839C218.682 88.6641 217.144 86.1738 213.848 86.1738C210.56 86.1738 209.022 88.6494 209.022 91.4692C209.022 94.2891 210.56 96.772 213.848 96.772C215.005 96.772 215.958 96.4497 216.705 95.8857L218.184 97.3652ZM213.848 95.5488C211.387 95.5488 210.311 93.7031 210.311 91.4692C210.311 89.2427 211.387 87.3896 213.848 87.3896C216.316 87.3896 217.393 89.2427 217.393 91.4692C217.393 92.5312 217.144 93.4688 216.609 94.2158L215.005 92.6851L214.163 93.4541L215.789 94.9922C215.298 95.3364 214.654 95.5488 213.848 95.5488ZM223.855 96.772C226.214 96.772 227.195 95.2119 227.195 92.8901V86.2983H221.797V87.4849H225.899V92.9048C225.899 94.6406 225.386 95.5708 223.855 95.5708C222.544 95.5708 221.849 94.6626 221.761 93.4175L220.494 93.5566C220.625 95.373 221.849 96.772 223.855 96.772ZM238.506 86.2983L235.276 94.3403L232.046 86.2983H230.281V96.6475H231.526V88.0415L234.646 95.7832H235.906L239.026 88.0415V96.6475H240.271V86.2983H238.506ZM245.862 96.6475H247.151V87.4556H250.637V86.2983H242.375V87.4556H245.862V96.6475Z" fill="#535353"/>
<path d="M349.63 97.7939C351.688 97.7939 353.336 96.7466 354.157 94.813L352.435 94.1099C351.879 95.5015 350.963 96.0288 349.63 96.0288C347.411 96.0288 346.466 94.4541 346.466 92.396C346.466 90.4771 347.411 88.9023 349.601 88.9023C350.949 88.9023 352.018 89.4297 352.406 90.792L354.142 90.1035C353.307 88.1699 351.666 87.1299 349.616 87.1299C346.21 87.1299 344.62 89.6348 344.62 92.4692C344.62 95.311 346.224 97.7939 349.63 97.7939ZM360.651 97.7939C364.072 97.7939 365.646 95.2891 365.646 92.4692C365.646 89.6494 364.072 87.1445 360.651 87.1445C357.231 87.1445 355.656 89.6494 355.656 92.4692C355.656 95.2891 357.231 97.7939 360.651 97.7939ZM360.651 96.146C358.432 96.146 357.619 94.4248 357.619 92.4692C357.619 90.521 358.432 88.7998 360.651 88.7998C362.871 88.7998 363.684 90.521 363.684 92.4692C363.684 94.4248 362.871 96.146 360.651 96.146ZM368.23 97.6475H370.076V93.3555H371.475C373.584 93.3555 375.129 92.2935 375.129 90.3599C375.129 88.4043 373.584 87.2983 371.475 87.2983H368.23V97.6475ZM370.076 91.6196V89.0342H371.475C372.734 89.0342 373.284 89.5176 373.284 90.3599C373.284 91.1802 372.749 91.6196 371.475 91.6196H370.076ZM379.969 97.6475H381.91V93.6118L385.777 87.2983H383.514L380.914 91.8247L378.336 87.2983H376.087L379.969 93.6118V97.6475Z" fill="white"/>
</svg>
