<?xml version="1.0" encoding="utf-8"?>
<!-- Generator: Adobe Illustrator 23.0.2, SVG Export Plug-In . SVG Version: 6.00 Build 0)  -->
<svg version="1.1" id="Layer_1" xmlns="http://www.w3.org/2000/svg" xmlns:xlink="http://www.w3.org/1999/xlink" x="0px" y="0px"
	 viewBox="0 0 904 359" style="enable-background:new 0 0 904 359;" xml:space="preserve">
<style type="text/css">
	.st0{fill-rule:evenodd;clip-rule:evenodd;fill:#556985;}
	.st1{fill-rule:evenodd;clip-rule:evenodd;fill:#00C9FD;}
	.st2{fill-rule:evenodd;clip-rule:evenodd;fill:#00ACE2;}
	.st3{fill-rule:evenodd;clip-rule:evenodd;fill:#008FCC;}
	.st4{fill:#556985;}
</style>
<path class="st0" d="M555.7,121.9h19.7v154.9h-19.7V121.9z"/>
<path class="st0" d="M555.7,81.7h19.7v20.1h-19.7V81.7z"/>
<path class="st0" d="M603.4,186.3c0-35.6,28.9-64.6,64.5-64.6c35.6,0,64.5,29,64.5,64.6v90.3h-19.7v-90.3
	c0-24.7-20.1-44.8-44.7-44.8c-24.7,0-44.7,20.1-44.7,44.8v90.3h-19.7V186.3z"/>
<path class="st0" d="M532,122l0.5,0c1.4,0,2.8,0.1,4,0.1h2.9v19.8h-2.9c-1.4,0-2.8,0-4.3-0.1l-0.3,0c-12.8-0.2-28.6-0.4-39.4,10.3
	c-8.9,8.8-13.8,24.5-13.8,47.6c0,27.3-6.5,48.1-19.8,61.3c-15.1,14.9-35,16.4-48.7,16.4c-2,0-3.8,0-5.5-0.1l-0.4,0
	c-1.5,0-2.9-0.1-4.1-0.1h-2.9v-19.8h2.9c1.4,0,2.9,0,4.5,0.1c12.3,0.2,29.2,0.4,40.4-10.7c9-8.9,13.9-24.4,13.9-47.1
	c0-27.6,6.4-48.6,19.7-61.7C495.5,121.3,518.8,121.7,532,122z"/>
<path class="st0" d="M0,179.3C0,80.3,80.3,0,179.3,0c99,0,179.3,80.3,179.3,179.3c-0.1,99-80.3,179.2-179.3,179.3
	C80.3,358.5,0,278.3,0,179.3z M21.5,179.3c0,87.1,70.6,157.8,157.8,157.8c87.1,0,157.8-70.6,157.8-157.8
	c-0.1-87.1-70.7-157.7-157.8-157.8C92.1,21.5,21.5,92.1,21.5,179.3z"/>
<path class="st1" d="M60.8,179.3c0-20.6,16.7-37.3,37.3-37.3h160.6c20.6,0,37.3,16.7,37.3,37.3s-16.7,37.3-37.3,37.3H98.1
	C77.5,216.6,60.8,199.9,60.8,179.3z"/>
<path class="st1" d="M173.2,265.9c14.6,14.6,38.2,14.6,52.7,0l59.1-59.1c14.6-14.6,14.6-38.2,0-52.7s-38.2-14.6-52.7,0l-59.1,59.1
	C158.7,227.7,158.7,251.3,173.2,265.9z"/>
<path class="st1" d="M173.2,92.7c14.6-14.6,38.2-14.6,52.7,0l59.1,59.1c14.6,14.6,14.6,38.2,0,52.7c-14.6,14.6-38.2,14.6-52.7,0
	l-59.1-59.1C158.7,130.8,158.7,107.2,173.2,92.7z"/>
<path class="st2" d="M296,179.3c0,24.4-17.8,37.3-38.7,37.3h-87.1l62.2-63.5c14.6-14.8,39.6-14.3,54.1,0.4
	C293.1,160.1,296,168.4,296,179.3z"/>
<path class="st2" d="M296,179.3c0-24.4-17.8-37.3-38.7-37.3h-87.1l62.2,63.5c14.6,14.8,39.6,14.3,54.1-0.4
	C293.1,198.5,296,190.2,296,179.3z"/>
<path class="st3" d="M286.4,205.3c-14.8,15-38.7,15-53.4,0l-25.9-26.1l25.9-26.1c14.7-15,38.7-15,53.4,0
	c7.1,7.2,10.7,16.5,11.1,25.9C297.2,188.6,293.5,198.1,286.4,205.3z"/>
<path class="st4" d="M883.6,215.1l-0.8,2.4c-0.1,0.4-0.2,0.8-0.4,1.2c-5.1,14.8-15.6,26.8-29.7,33.7c-14.1,6.9-30,7.9-44.8,2.8
	c-14.8-5.1-26.8-15.6-33.7-29.7c-14.2-29.1-2.1-64.3,26.9-78.5c8.1-4,16.7-6,25.7-6c19.6,0,38.1,9.9,48.9,26.1l-90.7,46.3l9,17.6
	l107.8-54.6l-0.8-2.3c-1.1-3.1-2.3-6-3.6-8.8c-9.2-18.8-25.2-32.9-45-39.7c-19.8-6.8-41.1-5.5-59.9,3.7c-18.8,9.2-32.9,25.2-39.7,45
	c-6.8,19.8-5.5,41.1,3.7,59.9c9.2,18.8,25.2,32.9,45,39.7c8.3,2.8,16.9,4.3,25.5,4.3c11.9,0,23.5-2.7,34.4-8
	c18.8-9.2,32.9-25.2,39.7-45c0.7-2.1,1.3-4.2,1.9-6.6l0.8-3.4H883.6z"/>
</svg>
