<?xml version="1.0" encoding="utf-8"?>
<svg width="22" height="18" viewBox="0 0 22 18" fill="none" xmlns="http://www.w3.org/2000/svg">
<path d="M19.4762 4.65121C19.4846 4.83948 19.4892 5.02928 19.4892 5.21908C19.4892 10.9981 15.0917 17.6595 7.04578 17.6595C4.57607 17.6595 2.27703 16.9378 0.342285 15.6964C0.684386 15.737 1.03261 15.7576 1.38543 15.7576C3.43497 15.7576 5.31997 15.0581 6.81695 13.8856C4.90363 13.8504 3.28803 12.5861 2.73164 10.8481C2.99797 10.8986 3.27272 10.9269 3.5536 10.9269C3.95233 10.9269 4.33959 10.8748 4.70618 10.7746C2.70561 10.3736 1.19869 8.60641 1.19869 6.48646C1.19869 6.46809 1.19869 6.44896 1.19945 6.43136C1.78875 6.75815 2.46301 6.9556 3.17935 6.9778C2.00687 6.19487 1.23466 4.85555 1.23466 3.33867C1.23466 2.53661 1.44971 1.78506 1.82625 1.13912C3.98218 3.78562 7.20574 5.52597 10.8395 5.70965C10.7645 5.38898 10.727 5.05606 10.727 4.71243C10.727 2.29783 12.6847 0.339355 15.0993 0.339355C16.3575 0.339355 17.4925 0.870492 18.2915 1.72C19.2887 1.52408 20.2224 1.16132 21.0696 0.658497C20.7405 1.68021 20.0494 2.53661 19.1441 3.07846C20.0295 2.97284 20.8745 2.73865 21.6559 2.39043C21.0727 3.26596 20.3311 4.03665 19.4762 4.65121Z" fill="white"/>
</svg>
