<?xml version="1.0" encoding="utf-8"?>
<!-- Generator: Adobe Illustrator 23.0.5, SVG Export Plug-In . SVG Version: 6.00 Build 0)  -->
<svg version="1.1" id="Layer_1" xmlns="http://www.w3.org/2000/svg" xmlns:xlink="http://www.w3.org/1999/xlink" x="0px" y="0px"
	 viewBox="0 0 612.2 426.2" style="enable-background:new 0 0 612.2 426.2;" xml:space="preserve">
<style type="text/css">
	.st0{fill-rule:evenodd;clip-rule:evenodd;fill:#FFFFFF;filter:url(#Adobe_OpacityMaskFilter);}
	.st1{fill:none;stroke:#FFFFFF;}
	.st2{mask:url(#mask0_1_);}
	.st3{fill-rule:evenodd;clip-rule:evenodd;fill:#EAECF0;}
	.st4{fill:#FFFFFF;}
	.st5{fill:#B5B7BA;}
	.st6{fill:none;stroke:#B5B7BA;stroke-width:1.1;stroke-linecap:round;}
	.st7{fill:#FFFFFF;stroke:#B5B7BA;stroke-width:1.2;}
	.st8{fill:none;stroke:#B5B7BA;stroke-width:1.1287;stroke-linecap:round;}
	.st9{fill:#0ADBB8;}
	.st10{fill:#FF7058;}
	.st11{fill:#ECEFF1;}
	.st12{fill:#E0E0E2;}
	.st13{fill:#5D9CEC;}
	.st14{fill:#545C66;}
	.st15{fill-rule:evenodd;clip-rule:evenodd;fill:#545C66;}
	.st16{fill:#D8DBDE;}
	.st17{fill:#ACB3BA;}
	.st18{fill:#FFD15C;}
	.st19{fill:#84DBFF;}
	.st20{fill:#F2F2F2;}
	.st21{fill:#324869;}
	.st22{fill:#0B2242;}
	.st23{fill:#304B70;}
	.st24{fill:#516685;}
	.st25{fill:none;stroke:#516685;stroke-width:6.144;stroke-linecap:round;}
	.st26{fill:#535353;}
	.st27{fill:none;stroke:#EAECF0;stroke-width:1.2943;stroke-linecap:square;}
</style>
<defs>
	<filter id="Adobe_OpacityMaskFilter" filterUnits="userSpaceOnUse" x="-0.6" y="-0.3" width="613.4" height="426.5">
		<feColorMatrix  type="matrix" values="1 0 0 0 0  0 1 0 0 0  0 0 1 0 0  0 0 0 1 0"/>
	</filter>
</defs>
<mask maskUnits="userSpaceOnUse" x="-0.6" y="-0.3" width="613.4" height="426.5" id="mask0_1_">
	<path class="st0" d="M11.1,0.8C5.3,0.8,0.6,5.5,0.6,11.3v404.3c0,5.8,4.7,10.5,10.5,10.5h590c5.8,0,10.5-4.7,10.5-10.5V11.3
		c0-5.8-4.7-10.5-10.5-10.5H11.1z"/>
	<path class="st1" d="M11.1,0.8C5.3,0.8,0.6,5.5,0.6,11.3v404.3c0,5.8,4.7,10.5,10.5,10.5h590c5.8,0,10.5-4.7,10.5-10.5V11.3
		c0-5.8-4.7-10.5-10.5-10.5H11.1z"/>
</mask>
<g class="st2">
	<path class="st3" d="M-0.6-0.3v426.5h613.4V-0.3H-0.6z"/>
	<path class="st4" d="M108.9,125.5H227c1.2,0,2.1,0.9,2.1,2.1v22.6c0,1.2-0.9,2.1-2.1,2.1H108.9c-1.2,0-2.1-0.9-2.1-2.1v-22.6
		C106.8,126.5,107.8,125.5,108.9,125.5z"/>
	<path class="st5" d="M121.7,142.4c1.3,0,2.4-0.8,2.4-2.1c0-2.3-3.3-1.9-3.3-3.2c0-0.4,0.4-0.7,0.9-0.7c0.5,0,0.9,0.3,1.1,0.7l1-0.6
		c-0.5-0.8-1.2-1.2-2.1-1.2c-1.2,0-2.2,0.7-2.2,1.9c0,2.2,3.3,1.8,3.3,3.2c0,0.5-0.4,0.9-1.1,0.9c-0.7,0-1.3-0.4-1.4-1.2l-1.2,0.3
		C119.3,141.7,120.5,142.4,121.7,142.4z M127.1,142.4c0.8,0,1.5-0.3,2-0.9l-0.8-0.7c-0.3,0.4-0.7,0.5-1.2,0.5
		c-0.8,0-1.1-0.4-1.2-1.1h3.3c0-0.1,0-0.3,0-0.5c0-1.1-0.6-2.5-2.3-2.5c-1.7,0-2.4,1.3-2.4,2.6C124.6,141.2,125.4,142.4,127.1,142.4
		z M125.9,139.4c0.1-0.6,0.4-1.1,1.1-1.1c0.5,0,0.9,0.3,1.1,0.8c0,0.1,0,0.2,0,0.3H125.9z M132.1,137.3c-1,0-1.6,0.4-2.1,1.1
		l0.9,0.7c0.2-0.4,0.6-0.7,1.1-0.7c0.8,0,1,0.3,1,1h-1.3c-1.1,0-1.9,0.4-1.9,1.4c0,1,0.8,1.6,1.8,1.6c0.6,0,1.2-0.2,1.5-0.7l0.1,0.6
		h1v-3C134.2,138.2,133.4,137.3,132.1,137.3z M131.9,141.4c-0.5,0-0.8-0.2-0.8-0.6c0-0.3,0.2-0.6,0.8-0.6h1.3v0
		C133,140.9,132.6,141.4,131.9,141.4z M135.5,142.3h1.2v-2.1c0-1.2,0.6-1.8,1.1-1.8c0.2,0,0.4,0.1,0.5,0.2l0.5-1
		c-0.2-0.2-0.6-0.4-0.9-0.4c-0.5,0-1.1,0.3-1.3,0.9v-0.8h-1.2V142.3z M141.2,142.4c1,0,1.7-0.5,2.1-1.4l-1.1-0.4
		c-0.1,0.5-0.5,0.8-1,0.8c-0.8,0-1.1-0.7-1.1-1.4c0-0.7,0.3-1.5,1.1-1.5c0.5,0,0.8,0.3,1,0.8l1.1-0.4c-0.4-1-1.1-1.4-2.1-1.4
		c-1.6,0-2.4,1.3-2.4,2.5C138.8,141.2,139.6,142.4,141.2,142.4z M144.1,142.3h1.2v-2.5c0-0.8,0.4-1.4,1.1-1.4c0.7,0,0.9,0.5,0.9,1.1
		v2.8h1.2v-2.9c0-1-0.5-2.1-1.8-2.1c-0.5,0-1,0.2-1.4,0.7v-2.6h-1.2V142.3z"/>
	<path class="st6" d="M213.2,140.7l1.9,3.3"/>
	<circle class="st7" cx="211.7" cy="137.3" r="3.7"/>
	<path class="st4" d="M265.3,125.5h118.1c1.2,0,2.1,0.9,2.1,2.1v22.6c0,1.2-0.9,2.1-2.1,2.1H265.3c-1.2,0-2.1-0.9-2.1-2.1v-22.6
		C263.2,126.5,264.2,125.5,265.3,125.5z"/>
	<path class="st5" d="M278.1,142.4c1.3,0,2.4-0.8,2.4-2.1c0-2.3-3.3-1.9-3.3-3.2c0-0.4,0.4-0.7,0.9-0.7c0.5,0,0.9,0.3,1.1,0.7l1-0.6
		c-0.5-0.8-1.2-1.2-2.1-1.2c-1.2,0-2.2,0.7-2.2,1.9c0,2.2,3.3,1.8,3.3,3.2c0,0.5-0.4,0.9-1.1,0.9c-0.7,0-1.3-0.4-1.4-1.2l-1.2,0.3
		C275.7,141.7,276.9,142.4,278.1,142.4z M283.3,142.4c0.4,0,0.7-0.1,0.9-0.1v-1.1c-0.2,0.1-0.4,0.2-0.7,0.2c-0.3,0-0.5-0.1-0.5-0.6
		v-2.3h1.2v-1h-1.2v-2.1l-1.2,0.8v1.2h-0.8v1h0.8v2.5C281.7,141.9,282.3,142.4,283.3,142.4z M287.1,137.3c-1,0-1.6,0.4-2.1,1.1
		l0.9,0.7c0.2-0.4,0.6-0.7,1.1-0.7c0.8,0,1,0.3,1,1h-1.3c-1.1,0-1.9,0.4-1.9,1.4c0,1,0.8,1.6,1.8,1.6c0.6,0,1.2-0.2,1.5-0.7l0.1,0.6
		h1v-3C289.2,138.2,288.4,137.3,287.1,137.3z M286.8,141.4c-0.5,0-0.8-0.2-0.8-0.6c0-0.3,0.2-0.6,0.8-0.6h1.3v0
		C288,140.9,287.6,141.4,286.8,141.4z M292.2,142.4c0.4,0,0.7-0.1,0.9-0.1v-1.1c-0.2,0.1-0.4,0.2-0.7,0.2c-0.3,0-0.5-0.1-0.5-0.6
		v-2.3h1.2v-1h-1.2v-2.1l-1.2,0.8v1.2h-0.8v1h0.8v2.5C290.6,141.9,291.2,142.4,292.2,142.4z M295.8,142.4c0.5,0,1.1-0.2,1.4-0.7v0.6
		h1.2v-4.9h-1.2v2.7c0,0.8-0.4,1.2-1.1,1.2c-0.6,0-0.9-0.5-0.9-1.1v-2.8H294v2.9C294,141.4,294.5,142.4,295.8,142.4z M301.3,142.4
		c0.9,0,1.9-0.5,1.9-1.6c0-1.8-2.5-1.4-2.5-2.1c0-0.2,0.2-0.4,0.6-0.4c0.5,0,0.8,0.3,1,0.6l0.9-0.5c-0.4-0.7-1-1.1-1.8-1.1
		c-0.9,0-1.8,0.5-1.8,1.5c0,1.7,2.5,1.2,2.5,2c0,0.3-0.2,0.6-0.8,0.6c-0.6,0-0.9-0.4-1-0.8l-0.9,0.4
		C299.5,141.8,300.3,142.4,301.3,142.4z"/>
	<path class="st8" d="M363.5,136.8l4.4,4.6l4.7-4.6"/>
	<path class="st4" d="M421.7,125.5h118.1c1.2,0,2.1,0.9,2.1,2.1v22.6c0,1.2-0.9,2.1-2.1,2.1H421.7c-1.2,0-2.1-0.9-2.1-2.1v-22.6
		C419.6,126.5,420.5,125.5,421.7,125.5z"/>
	<path class="st5" d="M434.5,142.4c1.3,0,2.4-0.8,2.4-2.1c0-2.3-3.3-1.9-3.3-3.2c0-0.4,0.4-0.7,0.9-0.7c0.5,0,0.9,0.3,1.1,0.7l1-0.6
		c-0.5-0.8-1.2-1.2-2.1-1.2c-1.2,0-2.2,0.7-2.2,1.9c0,2.2,3.3,1.8,3.3,3.2c0,0.5-0.4,0.9-1.1,0.9c-0.7,0-1.3-0.4-1.4-1.2l-1.2,0.3
		C432,141.7,433.2,142.4,434.5,142.4z M437.8,136.5h1.2v-1.1h-1.2V136.5z M437.8,142.3h1.2v-4.9h-1.2V142.3z M442.2,142.4
		c0.4,0,0.7-0.1,0.9-0.1v-1.1c-0.2,0.1-0.4,0.2-0.7,0.2c-0.3,0-0.5-0.1-0.5-0.6v-2.3h1.2v-1h-1.2v-2.1l-1.2,0.8v1.2h-0.8v1h0.8v2.5
		C440.7,141.9,441.2,142.4,442.2,142.4z M446.2,142.4c0.8,0,1.5-0.3,2-0.9l-0.8-0.7c-0.3,0.4-0.7,0.5-1.2,0.5
		c-0.8,0-1.1-0.4-1.2-1.1h3.4c0-0.1,0-0.3,0-0.5c0-1.1-0.6-2.5-2.3-2.5c-1.7,0-2.4,1.3-2.4,2.6C443.7,141.2,444.5,142.4,446.2,142.4
		z M445,139.4c0.1-0.6,0.4-1.1,1.1-1.1c0.5,0,0.9,0.3,1.1,0.8c0,0.1,0,0.2,0,0.3H445z M450.8,142.4c0.9,0,1.9-0.5,1.9-1.6
		c0-1.8-2.5-1.4-2.5-2.1c0-0.2,0.2-0.4,0.6-0.4c0.5,0,0.8,0.3,1,0.6l0.9-0.5c-0.4-0.7-1-1.1-1.9-1.1c-0.9,0-1.8,0.5-1.8,1.5
		c0,1.7,2.5,1.2,2.5,2c0,0.3-0.2,0.6-0.8,0.6c-0.6,0-0.9-0.4-1-0.8l-0.9,0.4C449,141.8,449.8,142.4,450.8,142.4z"/>
	<path class="st8" d="M519.8,136.8l4.4,4.6l4.7-4.6"/>
	<path class="st4" d="M108.8,183h431c1.1,0,2,0.9,2,2v201.3c0,1.1-0.9,2-2,2h-431c-1.1,0-2-0.9-2-2V185
		C106.8,183.9,107.7,183,108.8,183z"/>
	<rect x="42.8" y="38.9" class="st9" width="568.8" height="44.1"/>
	<path class="st10" d="M89.1,50.1c0-0.7-0.6-1.3-1.3-1.3c-4.4,0-17.4,0-21.5,0c-0.7,0-1.2,0.6-1.2,1.3v3.7h24
		C89.1,53.1,89.1,51.3,89.1,50.1z"/>
	<path class="st11" d="M65.1,53.8v18c0,0.5,0.5,1,1,1h22c0.6,0,1-0.5,1-1v-18H65.1z"/>
	<path class="st4" d="M87.4,55.5H66.7v12.8h20.7V55.5z"/>
	<path class="st12" d="M73.2,58H81v8.7h-7.9V58z"/>
	<path class="st13" d="M78.5,59.3c0-0.1,0.1-0.1,0.1-0.1h0.5c0.1,0,0.1,0.1,0.1,0.1v1.2c0,0.1-0.1,0.1-0.1,0.1h-0.5
		c-0.1,0-0.1-0.1-0.1-0.1V59.3z"/>
	<path class="st13" d="M76.7,59.3c0-0.1,0.1-0.1,0.1-0.1h0.5c0.1,0,0.1,0.1,0.1,0.1v1.2c0,0.1-0.1,0.1-0.1,0.1h-0.5
		c-0.1,0-0.1-0.1-0.1-0.1V59.3z"/>
	<path class="st13" d="M74.9,59.3c0-0.1,0.1-0.1,0.1-0.1h0.5c0.1,0,0.1,0.1,0.1,0.1v1.2c0,0.1-0.1,0.1-0.1,0.1h-0.5
		c-0.1,0-0.1-0.1-0.1-0.1V59.3z"/>
	<path class="st13" d="M78.5,61.8c0-0.1,0.1-0.1,0.1-0.1h0.5c0.1,0,0.1,0.1,0.1,0.1v1.2c0,0.1-0.1,0.1-0.1,0.1h-0.5
		c-0.1,0-0.1-0.1-0.1-0.1V61.8z"/>
	<path class="st13" d="M76.7,61.8c0-0.1,0.1-0.1,0.1-0.1h0.5c0.1,0,0.1,0.1,0.1,0.1v1.2c0,0.1-0.1,0.1-0.1,0.1h-0.5
		c-0.1,0-0.1-0.1-0.1-0.1V61.8z"/>
	<path class="st13" d="M74.9,61.8c0-0.1,0.1-0.1,0.1-0.1h0.5c0.1,0,0.1,0.1,0.1,0.1v1.2c0,0.1-0.1,0.1-0.1,0.1h-0.5
		c-0.1,0-0.1-0.1-0.1-0.1V61.8z"/>
	<path class="st14" d="M76.1,64.7c0-0.3,0.2-0.5,0.5-0.5h1.1c0.3,0,0.5,0.2,0.5,0.5v2h-2.1V64.7z"/>
	<path class="st15" d="M75.7,57.1h2.5h2.4c0.2,0,0.4,0.2,0.4,0.4v0.6h-2.8h-2.5v0h-2.5v-0.6c0-0.2,0.2-0.4,0.4-0.4L75.7,57.1
		L75.7,57.1z"/>
	<path class="st16" d="M87.3,70.1H66.8v1h20.5V70.1z"/>
	<path class="st17" d="M83.2,69.6c0-0.2-0.2-0.4-0.4-0.4h-0.6h-0.6c-0.2,0-0.4,0.2-0.4,0.4v1.9c0,0.2,0.2,0.4,0.4,0.4h0.6h0.6
		c0.2,0,0.4-0.2,0.4-0.4V69.6z"/>
	<path class="st18" d="M67.6,52.2c0.5,0,0.8-0.4,0.8-0.8s-0.4-0.8-0.8-0.8c-0.5,0-0.8,0.4-0.8,0.8S67.1,52.2,67.6,52.2z"/>
	<path class="st19" d="M70.3,52.2c0.5,0,0.8-0.4,0.8-0.8s-0.4-0.8-0.8-0.8c-0.5,0-0.8,0.4-0.8,0.8S69.8,52.2,70.3,52.2z"/>
	<path class="st20" d="M72.9,52.2c0.5,0,0.8-0.4,0.8-0.8s-0.4-0.8-0.8-0.8s-0.8,0.4-0.8,0.8S72.5,52.2,72.9,52.2z"/>
	<path class="st4" d="M110.9,57.9v5.8l-3.5-5.8h-1.5v8.3h1.4v-5.8l3.5,5.8h1.5v-8.3H110.9z M116.3,60.2c-1.2,0-1.9,0.5-2.5,1.3
		l1.1,0.8c0.3-0.4,0.7-0.8,1.4-0.8c0.9,0,1.2,0.4,1.2,1.2H116c-1.3,0-2.3,0.4-2.3,1.7c0,1.2,0.9,1.9,2.1,1.9c0.7,0,1.4-0.3,1.8-0.9
		l0.1,0.8h1.2v-3.6C118.9,61.2,117.9,60.2,116.3,60.2z M116.1,65.1c-0.6,0-0.9-0.3-0.9-0.7c0-0.4,0.3-0.7,0.9-0.7h1.5v0
		C117.5,64.5,116.9,65.1,116.1,65.1z M122.4,66.3c0.4,0,0.8-0.1,1.1-0.2v-1.3c-0.2,0.1-0.5,0.2-0.8,0.2c-0.4,0-0.7-0.2-0.7-0.7v-2.8
		h1.5v-1.2H122v-2.5l-1.4,1v1.5h-1v1.2h0.9v3C120.6,65.6,121.3,66.3,122.4,66.3z M124.8,59.2h1.5v-1.3h-1.5V59.2z M124.8,66.2h1.4
		v-5.9h-1.4V66.2z M130.4,66.3c1.8,0,3-1.4,3-3.1c0-1.7-1.2-3-3-3c-1.8,0-3,1.4-3,3C127.4,64.9,128.6,66.3,130.4,66.3z M130.4,65.1
		c-1.1,0-1.5-0.9-1.5-1.8c0-1,0.4-1.8,1.5-1.8c1.1,0,1.5,0.8,1.5,1.8C131.9,64.2,131.5,65.1,130.4,65.1z M134.6,66.2h1.4V63
		c0-1,0.5-1.5,1.3-1.5c0.7,0,1.1,0.6,1.1,1.3v3.3h1.4v-3.5c0-1.2-0.6-2.5-2.1-2.5c-0.6,0-1.2,0.2-1.7,0.8v-0.7h-1.4V66.2z
		 M143.6,60.2c-1.2,0-1.9,0.5-2.5,1.3l1.1,0.8c0.3-0.4,0.7-0.8,1.4-0.8c0.9,0,1.2,0.4,1.2,1.2h-1.6c-1.3,0-2.3,0.4-2.3,1.7
		c0,1.2,0.9,1.9,2.1,1.9c0.7,0,1.4-0.3,1.8-0.9l0.1,0.8h1.2v-3.6C146.1,61.2,145.1,60.2,143.6,60.2z M143.3,65.1c-0.6,0-1-0.3-1-0.7
		c0-0.4,0.3-0.7,1-0.7h1.5v0C144.7,64.5,144.2,65.1,143.3,65.1z M148.8,66.3c0.3,0,0.8-0.1,1.1-0.1V65c-0.2,0-0.3,0-0.4,0
		c-0.3,0-0.5-0.1-0.5-0.4v-6.7h-1.4V65C147.6,66,148.1,66.3,148.8,66.3z M157.5,66.3c1.6,0,3-0.8,3.6-2.4l-1.4-0.6
		c-0.4,1.1-1.2,1.5-2.2,1.5c-1.8,0-2.5-1.3-2.5-2.9c0-1.5,0.8-2.8,2.5-2.8c1.1,0,1.9,0.4,2.2,1.5l1.4-0.6c-0.7-1.5-2-2.4-3.6-2.4
		c-2.7,0-4,2-4,4.3C153.5,64.3,154.8,66.3,157.5,66.3z M164.5,66.3c1.8,0,3-1.4,3-3.1c0-1.7-1.2-3-3-3c-1.8,0-3,1.4-3,3
		C161.5,64.9,162.7,66.3,164.5,66.3z M164.5,65.1c-1.1,0-1.5-0.9-1.5-1.8c0-1,0.4-1.8,1.5-1.8c1.1,0,1.5,0.8,1.5,1.8
		C166,64.2,165.6,65.1,164.5,65.1z M168.7,66.2h1.4V63c0-0.8,0.5-1.4,1.2-1.4c0.7,0,0.9,0.6,0.9,1.3v3.4h1.4V63
		c0-0.8,0.5-1.4,1.2-1.4c0.7,0,1,0.6,1,1.3v3.3h1.4v-3.5c0-1.2-0.6-2.5-2.1-2.5c-0.7,0-1.4,0.3-1.9,1c-0.3-0.8-1.1-1-1.7-1
		c-0.6,0-1.2,0.2-1.6,0.9v-0.7h-1.4L168.7,66.2z M178.9,68.6h1.5v-3c0.4,0.5,1,0.7,1.6,0.7c1.6,0,2.5-1.4,2.5-3c0-1.6-0.9-3-2.5-3
		c-0.6,0-1.3,0.2-1.7,0.7v-0.6h-1.5V68.6z M181.7,65c-1,0-1.4-0.8-1.4-1.8c0-1,0.5-1.7,1.4-1.7c1,0,1.4,0.8,1.4,1.7
		C183.1,64.2,182.7,65,181.7,65z M187.9,60.2c-1.2,0-1.9,0.5-2.5,1.3l1.1,0.8c0.3-0.4,0.7-0.8,1.4-0.8c0.9,0,1.2,0.4,1.2,1.2h-1.6
		c-1.3,0-2.3,0.4-2.3,1.7c0,1.2,0.9,1.9,2.1,1.9c0.7,0,1.4-0.3,1.8-0.9l0.1,0.8h1.2v-3.6C190.5,61.2,189.5,60.2,187.9,60.2z
		 M187.6,65.1c-0.6,0-0.9-0.3-0.9-0.7c0-0.4,0.3-0.7,0.9-0.7h1.5v0C189.1,64.5,188.5,65.1,187.6,65.1z M192,66.2h1.4V63
		c0-1,0.5-1.5,1.3-1.5c0.7,0,1.1,0.6,1.1,1.3v3.3h1.4v-3.5c0-1.2-0.6-2.5-2.1-2.5c-0.6,0-1.2,0.2-1.7,0.8v-0.7H192V66.2z M199,68.7
		h1.6l3.3-8.4h-1.6l-1.5,4.1l-1.5-4.1h-1.6l2.3,5.7L199,68.7z M207.9,66.2h1.5v-8.3h-1.5V66.2z M211.3,66.2h1.4V63
		c0-1,0.5-1.5,1.3-1.5c0.7,0,1.1,0.6,1.1,1.3v3.3h1.4v-3.5c0-1.2-0.6-2.5-2.1-2.5c-0.6,0-1.2,0.2-1.7,0.8v-0.7h-1.4V66.2z
		 M220.1,66.3c0.6,0,1.3-0.2,1.7-0.8l0.1,0.7h1.3v-8.3h-1.5v3c-0.4-0.5-1.1-0.7-1.7-0.7c-1.6,0-2.5,1.4-2.5,3
		C217.6,64.9,218.5,66.3,220.1,66.3z M220.5,65c-1,0-1.4-0.8-1.4-1.8c0-1,0.4-1.8,1.4-1.8c1,0,1.4,0.8,1.4,1.8
		C221.9,64.2,221.5,65,220.5,65z M226.9,66.3c0.6,0,1.3-0.2,1.7-0.8v0.7h1.4v-5.9h-1.4v3.2c0,1-0.5,1.5-1.3,1.5
		c-0.7,0-1.1-0.6-1.1-1.3v-3.3h-1.4v3.5C224.8,65.1,225.3,66.3,226.9,66.3z M234,66.3c1.2,0,2.1-0.6,2.5-1.7l-1.3-0.5
		c-0.2,0.6-0.6,0.9-1.2,0.9c-1,0-1.4-0.8-1.4-1.7c0-0.9,0.4-1.8,1.4-1.8c0.6,0,1,0.4,1.2,1l1.4-0.5c-0.4-1.2-1.4-1.7-2.5-1.7
		c-1.9,0-2.8,1.5-2.8,3.1C231.2,64.8,232.1,66.3,234,66.3z M239.7,66.3c0.4,0,0.8-0.1,1.1-0.2v-1.3c-0.2,0.1-0.5,0.2-0.8,0.2
		c-0.4,0-0.6-0.2-0.6-0.7v-2.8h1.5v-1.2h-1.5v-2.5l-1.4,1v1.5h-1v1.2h0.9v3C237.8,65.6,238.5,66.3,239.7,66.3z M242,59.2h1.5v-1.3
		H242V59.2z M242,66.2h1.4v-5.9H242V66.2z M247.6,66.3c1.8,0,3-1.4,3-3.1c0-1.7-1.2-3-3-3c-1.8,0-3,1.4-3,3
		C244.6,64.9,245.8,66.3,247.6,66.3z M247.6,65.1c-1.1,0-1.5-0.9-1.5-1.8c0-1,0.4-1.8,1.5-1.8c1.1,0,1.5,0.8,1.5,1.8
		C249.1,64.2,248.7,65.1,247.6,65.1z M251.8,66.2h1.4V63c0-1,0.5-1.5,1.3-1.5c0.7,0,1.1,0.6,1.1,1.3v3.3h1.4v-3.5
		c0-1.2-0.6-2.5-2.1-2.5c-0.6,0-1.2,0.2-1.7,0.8v-0.7h-1.4V66.2z"/>
	<rect x="2.5" class="st21" width="610.3" height="39"/>
	<path class="st22" d="M43-0.3v426.5H0.1l0-426.5H43z"/>
	<circle class="st23" cx="20.6" cy="25.6" r="5.6"/>
	<circle class="st23" cx="20.6" cy="56.3" r="5.6"/>
	<circle class="st23" cx="20.6" cy="86.9" r="5.6"/>
	<circle class="st23" cx="20.6" cy="117.6" r="5.6"/>
	<circle class="st23" cx="20.6" cy="148.2" r="5.6"/>
	<circle class="st23" cx="20.6" cy="178.9" r="5.6"/>
	<circle class="st24" cx="580" cy="20.1" r="12"/>
	<path class="st25" d="M545.5,19.4h5.4"/>
	<path class="st25" d="M490.2,19.4h36.5"/>
	<path class="st26" d="M126.1,198.3v4.3l-2.6-4.3h-1.1v6.2h1.1v-4.4l2.6,4.4h1.1v-6.2H126.1z M130.3,200.1c-0.9,0-1.4,0.4-1.8,1
		l0.8,0.6c0.2-0.3,0.5-0.6,1-0.6c0.7,0,0.9,0.3,0.9,0.9H130c-1,0-1.7,0.3-1.7,1.3c0,0.9,0.7,1.4,1.6,1.4c0.5,0,1.1-0.2,1.4-0.7
		l0.1,0.6h0.9v-2.7C132.2,200.8,131.5,200.1,130.3,200.1z M130.1,203.7c-0.5,0-0.7-0.2-0.7-0.5c0-0.3,0.2-0.5,0.7-0.5h1.1v0
		C131.1,203.2,130.7,203.7,130.1,203.7z M133.3,204.5h1.1v-2.4c0-0.6,0.3-1.1,0.9-1.1c0.5,0,0.7,0.4,0.7,1v2.5h1.1v-2.4
		c0-0.6,0.3-1.1,0.9-1.1c0.6,0,0.7,0.4,0.7,1v2.5h1.1v-2.6c0-0.9-0.5-1.8-1.6-1.8c-0.5,0-1.1,0.2-1.4,0.8c-0.3-0.6-0.8-0.8-1.3-0.8
		c-0.4,0-0.9,0.2-1.2,0.6v-0.6h-1L133.3,204.5z M142.8,204.6c0.7,0,1.3-0.3,1.8-0.8l-0.7-0.6c-0.3,0.3-0.7,0.5-1.1,0.5
		c-0.7,0-1-0.4-1.1-1h3c0-0.1,0-0.2,0-0.4c0-1-0.5-2.2-2-2.2c-1.5,0-2.2,1.2-2.2,2.3C140.6,203.5,141.3,204.6,142.8,204.6z
		 M141.7,201.9c0.1-0.5,0.4-1,1-1c0.5,0,0.8,0.2,1,0.7c0,0.1,0,0.2,0,0.3H141.7z M122.5,238.5h3.6v-0.7h-2.8v-5.5h-0.8V238.5z
		 M127,233.3h0.8v-0.9H127V233.3z M127.1,238.5h0.7v-4.4h-0.7V238.5z M130.1,238.6c0.2,0,0.5,0,0.7-0.1l0-0.6c-0.1,0-0.3,0-0.3,0
		c-0.4,0-0.4-0.2-0.4-0.5v-5.1h-0.7v5.3C129.3,238.3,129.5,238.6,130.1,238.6z M132.6,238.6c0.2,0,0.5,0,0.7-0.1l0-0.6
		c-0.1,0-0.3,0-0.3,0c-0.4,0-0.4-0.2-0.4-0.5v-5.1h-0.7v5.3C131.7,238.3,132,238.6,132.6,238.6z M134.6,240.4h0.8l2.4-6.3H137
		l-1.3,3.5l-1.4-3.5h-0.8l1.8,4.3L134.6,240.4z M146.1,232.3l-1.9,4.8l-1.9-4.8h-1.1v6.2h0.7v-5.2l1.9,4.6h0.8l1.9-4.6v5.2h0.7v-6.2
		H146.1z M150.3,234.1c-0.8,0-1.3,0.3-1.8,0.9l0.6,0.4c0.3-0.4,0.6-0.7,1.2-0.7c0.8,0,1.1,0.4,1.1,1.3h-1.2c-1.1,0-1.8,0.3-1.8,1.3
		c0,0.9,0.6,1.4,1.5,1.4c0.6,0,1.2-0.3,1.5-0.9l0,0.8h0.6v-2.7C152.1,234.8,151.4,234.1,150.3,234.1z M150,238
		c-0.6,0-0.9-0.3-0.9-0.7c0-0.4,0.4-0.7,1.1-0.7h1.2v0.3C151.3,237.5,150.8,238,150,238z M154.8,238.6c0.3,0,0.5-0.1,0.7-0.1l0-0.7
		c-0.1,0.1-0.3,0.1-0.5,0.1c-0.4,0-0.6-0.2-0.6-0.8v-2.4h1.2v-0.6h-1.2v-1.7l-0.7,0.5v1.2h-0.7v0.6h0.7v2.5
		C153.6,238.1,154,238.6,154.8,238.6z M158,238.6c0.3,0,0.5-0.1,0.7-0.1l0-0.7c-0.1,0.1-0.3,0.1-0.5,0.1c-0.4,0-0.6-0.2-0.6-0.8
		v-2.4h1.2v-0.6h-1.2v-1.7l-0.7,0.5v1.2H156v0.6h0.7v2.5C156.7,238.1,157.2,238.6,158,238.6z M159.6,238.5h0.8v-2.4
		c0-0.8,0.4-1.4,1.2-1.4c0.7,0,1,0.5,1,1.2v2.6h0.8v-2.7c0-0.9-0.5-1.7-1.6-1.7c-0.5,0-1,0.2-1.3,0.7v-2.5h-0.8V238.5z M166.4,238.6
		c0.7,0,1.2-0.2,1.7-0.8l-0.5-0.5c-0.4,0.4-0.7,0.5-1.2,0.5c-0.8,0-1.3-0.5-1.3-1.4h3.2c0-0.1,0-0.2,0-0.4c0-0.9-0.5-2.1-2-2.1
		c-1.3,0-2,1.1-2,2.3C164.3,237.6,165,238.6,166.4,238.6z M165.1,236c0.1-0.8,0.5-1.3,1.2-1.3c0.7,0,1.1,0.5,1.2,1
		c0,0.1,0,0.2,0,0.3H165.1z M170,238.5h0.7l1.1-3.4l1.1,3.4h0.7l1.3-4.4h-0.8l-0.9,3.3l-1.1-3.3h-0.7l-1.1,3.3l-0.9-3.3h-0.8
		L170,238.5z M177.1,238.6c0.8,0,1.6-0.4,1.6-1.4c0-1.7-2.5-1.1-2.5-2c0-0.3,0.3-0.6,0.8-0.6c0.5,0,0.8,0.3,1,0.6l0.6-0.3
		c-0.3-0.6-0.9-0.9-1.6-0.9c-0.8,0-1.5,0.4-1.5,1.3c0,1.6,2.4,0.9,2.4,1.9c0,0.4-0.3,0.7-0.9,0.7c-0.6,0-1-0.4-1.2-0.8l-0.6,0.3
		C175.5,238.1,176.2,238.6,177.1,238.6z M122.5,272.5h2.2c1.1,0,2-0.6,2-1.7c0-0.7-0.4-1.4-1.1-1.6c0.4-0.2,0.8-0.7,0.8-1.3
		c0-1.2-0.9-1.6-1.9-1.6h-2V272.5z M123.3,269V267h1.2c0.7,0,1.2,0.3,1.2,1c0,0.7-0.5,1-1,1H123.3z M123.3,271.8v-2.1h1.5
		c0.7,0,1.1,0.4,1.1,1.1c0,0.7-0.4,1.1-1.2,1.1H123.3z M127.9,272.5h0.7v-2.1c0-1.2,0.6-1.6,1.2-1.6c0.2,0,0.3,0,0.5,0.1l0.3-0.6
		c-0.2-0.2-0.5-0.2-0.7-0.2c-0.5,0-1.1,0.3-1.3,0.9v-0.9h-0.7V272.5z M132.9,272.6c0.5,0,1.1-0.2,1.3-0.7v0.7h0.7v-4.4h-0.7v2.5
		c0,0.8-0.4,1.2-1.1,1.2c-0.7,0-1-0.5-1-1.2v-2.6h-0.7v2.7C131.4,271.8,131.8,272.6,132.9,272.6z M138.1,272.6
		c0.8,0,1.5-0.5,1.8-1.2l-0.7-0.3c-0.2,0.5-0.6,0.8-1.1,0.8c-0.9,0-1.3-0.8-1.3-1.6c0-0.8,0.4-1.6,1.3-1.6c0.5,0,0.9,0.3,1.1,0.8
		l0.7-0.3c-0.3-0.8-1-1.2-1.8-1.2c-1.4,0-2,1.1-2,2.3C136.1,271.6,136.8,272.6,138.1,272.6z M142.6,272.6c0.7,0,1.2-0.2,1.7-0.8
		l-0.5-0.5c-0.4,0.4-0.7,0.5-1.2,0.5c-0.8,0-1.3-0.5-1.3-1.4h3.2c0-0.1,0-0.2,0-0.4c0-0.9-0.5-2.1-2-2.1c-1.3,0-2,1.1-2,2.3
		C140.5,271.6,141.2,272.6,142.6,272.6z M141.3,270c0.1-0.8,0.5-1.3,1.2-1.3c0.7,0,1.1,0.5,1.2,1c0,0.1,0,0.2,0,0.3H141.3z
		 M149.4,272.5h0.8V267h2.1v-0.7h-5v0.7h2.1V272.5z M153.2,272.5h0.8v-2.4c0-0.8,0.4-1.4,1.2-1.4c0.7,0,1,0.5,1,1.2v2.6h0.8v-2.7
		c0-0.9-0.5-1.7-1.6-1.7c-0.5,0-1,0.2-1.3,0.7v-2.5h-0.8V272.5z M160,272.6c1.3,0,2.2-1,2.2-2.3c0-1.2-0.9-2.3-2.2-2.3
		c-1.3,0-2.2,1-2.2,2.3C157.8,271.6,158.7,272.6,160,272.6z M160,272c-0.9,0-1.4-0.7-1.4-1.6c0-0.9,0.5-1.6,1.4-1.6
		c0.9,0,1.4,0.7,1.4,1.6C161.4,271.2,160.9,272,160,272z M163.3,272.5h0.7v-2.1c0-1.2,0.6-1.6,1.2-1.6c0.2,0,0.3,0,0.5,0.1l0.3-0.6
		c-0.2-0.2-0.5-0.2-0.7-0.2c-0.5,0-1.1,0.3-1.3,0.9v-0.9h-0.7V272.5z M166.8,272.5h0.7V270c0-0.8,0.4-1.2,1.1-1.2c0.7,0,1,0.5,1,1.2
		v2.6h0.7v-2.7c0-0.9-0.5-1.7-1.6-1.7c-0.5,0-1,0.2-1.3,0.7v-0.7h-0.7V272.5z M173.2,272.6c0.3,0,0.5-0.1,0.7-0.1l0-0.7
		c-0.1,0.1-0.3,0.1-0.5,0.1c-0.4,0-0.6-0.2-0.6-0.8v-2.4h1.2v-0.6h-1.2v-1.7l-0.7,0.5v1.2h-0.7v0.6h0.7v2.5
		C172,272.1,172.4,272.6,173.2,272.6z M176.7,272.6c1.3,0,2.2-1,2.2-2.3c0-1.2-0.9-2.3-2.2-2.3c-1.3,0-2.2,1-2.2,2.3
		C174.5,271.6,175.4,272.6,176.7,272.6z M176.7,272c-0.9,0-1.4-0.7-1.4-1.6c0-0.9,0.5-1.6,1.4-1.6c0.9,0,1.4,0.7,1.4,1.6
		C178.1,271.2,177.6,272,176.7,272z M180,272.5h0.7V270c0-0.8,0.4-1.2,1.1-1.2c0.7,0,1,0.5,1,1.2v2.6h0.7v-2.7
		c0-0.9-0.5-1.7-1.6-1.7c-0.5,0-1,0.2-1.3,0.7v-0.7H180V272.5z M122.5,306.5h0.8v-2.7h1c1.3,0,2.1-0.6,2.1-1.8
		c0-1.1-0.9-1.8-2.1-1.8h-1.8V306.5z M123.3,303.1v-2.1h1c0.9,0,1.4,0.4,1.4,1.1s-0.4,1-1.4,1H123.3z M128.9,302.1
		c-0.8,0-1.3,0.3-1.8,0.9l0.6,0.4c0.3-0.4,0.6-0.7,1.2-0.7c0.8,0,1.1,0.4,1.1,1.3h-1.2c-1.1,0-1.8,0.3-1.8,1.3
		c0,0.9,0.7,1.4,1.5,1.4c0.6,0,1.2-0.3,1.5-0.9l0,0.8h0.6v-2.7C130.7,302.8,130,302.1,128.9,302.1z M128.6,306
		c-0.6,0-0.9-0.3-0.9-0.7c0-0.4,0.4-0.7,1.1-0.7h1.2v0.3C129.8,305.5,129.4,306,128.6,306z M133.4,306.6c0.5,0,1.1-0.2,1.3-0.7v0.7
		h0.7v-4.4h-0.7v2.5c0,0.8-0.4,1.2-1.1,1.2c-0.7,0-1-0.5-1-1.2v-2.6h-0.7v2.7C131.8,305.8,132.3,306.6,133.4,306.6z M137.8,306.6
		c0.2,0,0.5,0,0.7-0.1l0-0.6c-0.1,0-0.2,0-0.3,0c-0.4,0-0.4-0.2-0.4-0.5v-5.1h-0.7v5.3C136.9,306.3,137.2,306.6,137.8,306.6z
		 M139.4,301.3h0.8v-0.9h-0.8V301.3z M139.4,306.5h0.7v-4.4h-0.7V306.5z M141.6,306.5h0.7V304c0-0.8,0.4-1.2,1.1-1.2
		c0.7,0,1,0.5,1,1.2v2.6h0.7v-2.7c0-0.9-0.5-1.7-1.6-1.7c-0.5,0-1,0.2-1.3,0.7v-0.7h-0.7V306.5z M148.3,306.6c0.7,0,1.2-0.2,1.7-0.8
		l-0.5-0.5c-0.4,0.4-0.7,0.5-1.2,0.5c-0.8,0-1.3-0.5-1.3-1.4h3.2c0-0.1,0-0.2,0-0.4c0-0.9-0.5-2.1-2-2.1c-1.3,0-2,1.1-2,2.3
		C146.2,305.6,147,306.6,148.3,306.6z M147,304c0.1-0.8,0.5-1.3,1.2-1.3c0.7,0,1.1,0.5,1.2,1c0,0.1,0,0.2,0,0.3H147z M158.7,300.3
		l-1.9,4.8l-1.9-4.8h-1.1v6.2h0.7v-5.2l1.9,4.6h0.8l1.9-4.6v5.2h0.7v-6.2H158.7z M162.9,302.1c-0.8,0-1.3,0.3-1.8,0.9l0.6,0.4
		c0.3-0.4,0.6-0.7,1.2-0.7c0.8,0,1.1,0.4,1.1,1.3h-1.2c-1.1,0-1.8,0.3-1.8,1.3c0,0.9,0.7,1.4,1.5,1.4c0.6,0,1.2-0.3,1.5-0.9l0,0.8
		h0.6v-2.7C164.7,302.8,164.1,302.1,162.9,302.1z M162.7,306c-0.6,0-0.9-0.3-0.9-0.7c0-0.4,0.4-0.7,1.1-0.7h1.2v0.3
		C163.9,305.5,163.4,306,162.7,306z M166.1,306.5h0.7V304c0-0.8,0.4-1.2,1.1-1.2c0.7,0,1,0.5,1,1.2v2.6h0.7v-2.7
		c0-0.9-0.5-1.7-1.6-1.7c-0.5,0-1,0.2-1.3,0.7v-0.7h-0.7V306.5z M171.1,306.5h0.7V304c0-0.8,0.4-1.2,1.1-1.2c0.7,0,1,0.5,1,1.2v2.6
		h0.7v-2.7c0-0.9-0.5-1.7-1.6-1.7c-0.5,0-1,0.2-1.3,0.7v-0.7h-0.7V306.5z M121.8,340.5h0.8l0.5-1.4h2.6l0.5,1.4h0.8l-2.4-6.2h-0.6
		L121.8,340.5z M123.5,338.4l1.1-3l1.1,3H123.5z M129.6,340.6c0.6,0,1.2-0.3,1.5-0.9l0,0.8h0.7v-6.2h-0.8v2.6
		c-0.3-0.6-0.9-0.9-1.5-0.9c-1.2,0-1.9,1-1.9,2.3C127.7,339.6,128.4,340.6,129.6,340.6z M129.8,339.9c-0.9,0-1.4-0.7-1.4-1.6
		c0-0.9,0.5-1.6,1.4-1.6c0.9,0,1.3,0.7,1.3,1.6C131.2,339.2,130.7,339.9,129.8,339.9z M135.1,340.6c0.7,0,1.2-0.2,1.7-0.8l-0.5-0.5
		c-0.4,0.4-0.7,0.5-1.2,0.5c-0.8,0-1.3-0.5-1.3-1.4h3.2c0-0.1,0-0.2,0-0.4c0-0.9-0.5-2.1-2-2.1c-1.3,0-2,1.1-2,2.3
		C133,339.6,133.7,340.6,135.1,340.6z M133.8,338c0.1-0.8,0.5-1.3,1.2-1.3c0.7,0,1.1,0.5,1.2,1c0,0.1,0,0.2,0,0.3H133.8z
		 M138.9,340.6c0.2,0,0.5,0,0.7-0.1l0-0.6c-0.1,0-0.2,0-0.3,0c-0.4,0-0.4-0.2-0.4-0.5v-5.1H138v5.3
		C138,340.3,138.3,340.6,138.9,340.6z M142.2,340.6c0.7,0,1.2-0.2,1.7-0.8l-0.5-0.5c-0.4,0.4-0.7,0.5-1.2,0.5
		c-0.8,0-1.3-0.5-1.3-1.4h3.2c0-0.1,0-0.2,0-0.4c0-0.9-0.5-2.1-2-2.1c-1.3,0-2,1.1-2,2.3C140.1,339.6,140.8,340.6,142.2,340.6z
		 M140.9,338c0.1-0.8,0.5-1.3,1.2-1.3c0.7,0,1.1,0.5,1.2,1c0,0.1,0,0.2,0,0.3H140.9z M147.7,340.5h0.8v-2.8h0.7c0.1,0,0.3,0,0.4,0
		l1.6,2.8h0.9l-1.7-2.8c0.8-0.2,1.3-0.8,1.3-1.6c0-1.1-0.9-1.8-2.1-1.8h-1.8V340.5z M148.4,337.1V335h1.1c0.8,0,1.3,0.4,1.3,1.1
		c0,0.6-0.5,1-1.3,1H148.4z M154.6,340.6c1.3,0,2.2-1,2.2-2.3c0-1.2-0.9-2.3-2.2-2.3c-1.3,0-2.2,1-2.2,2.3
		C152.5,339.6,153.4,340.6,154.6,340.6z M154.6,340c-0.9,0-1.4-0.7-1.4-1.6c0-0.9,0.5-1.6,1.4-1.6c0.9,0,1.4,0.7,1.4,1.6
		C156,339.2,155.6,340,154.6,340z M159.2,340.6c0.8,0,1.6-0.4,1.6-1.4c0-1.7-2.5-1.1-2.5-2c0-0.3,0.3-0.6,0.8-0.6
		c0.5,0,0.8,0.3,1,0.6l0.6-0.3c-0.3-0.6-0.9-0.9-1.6-0.9c-0.8,0-1.5,0.4-1.5,1.3c0,1.6,2.4,0.9,2.4,1.9c0,0.4-0.3,0.7-0.9,0.7
		c-0.6,0-1-0.4-1.2-0.8l-0.6,0.3C157.6,340.1,158.3,340.6,159.2,340.6z M163.3,340.6c0.8,0,1.6-0.4,1.6-1.4c0-1.7-2.5-1.1-2.5-2
		c0-0.3,0.3-0.6,0.8-0.6c0.5,0,0.8,0.3,1,0.6l0.6-0.3c-0.3-0.6-0.9-0.9-1.6-0.9c-0.8,0-1.5,0.4-1.5,1.3c0,1.6,2.4,0.9,2.4,1.9
		c0,0.4-0.3,0.7-0.9,0.7c-0.6,0-1-0.4-1.2-0.8l-0.6,0.3C161.7,340.1,162.4,340.6,163.3,340.6z M123.9,374.6c1.4,0,2-0.9,2-2.3v-4
		h-3.2v0.7h2.5v3.3c0,1-0.3,1.6-1.2,1.6c-0.8,0-1.2-0.5-1.3-1.3l-0.8,0.1C122,373.8,122.7,374.6,123.9,374.6z M129.2,374.6
		c0.7,0,1.2-0.2,1.7-0.8l-0.5-0.5c-0.4,0.4-0.7,0.5-1.2,0.5c-0.8,0-1.3-0.5-1.3-1.4h3.2c0-0.1,0-0.2,0-0.4c0-0.9-0.5-2.1-2-2.1
		c-1.3,0-2,1.1-2,2.3C127.1,373.6,127.8,374.6,129.2,374.6z M127.8,372c0.1-0.8,0.5-1.3,1.2-1.3c0.7,0,1.1,0.5,1.2,1
		c0,0.1,0,0.2,0,0.3H127.8z M133.4,374.6c0.8,0,1.6-0.4,1.6-1.4c0-1.7-2.5-1.1-2.5-2c0-0.3,0.3-0.6,0.8-0.6c0.5,0,0.8,0.3,1,0.6
		l0.6-0.3c-0.3-0.6-0.9-0.9-1.6-0.9c-0.8,0-1.5,0.4-1.5,1.3c0,1.6,2.4,0.9,2.4,1.9c0,0.4-0.3,0.7-0.9,0.7c-0.6,0-1-0.4-1.2-0.8
		l-0.6,0.3C131.9,374.1,132.6,374.6,133.4,374.6z M137.5,374.6c0.8,0,1.6-0.4,1.6-1.4c0-1.7-2.5-1.1-2.5-2c0-0.3,0.3-0.6,0.8-0.6
		c0.5,0,0.8,0.3,1,0.6l0.6-0.3c-0.3-0.6-0.9-0.9-1.6-0.9c-0.8,0-1.5,0.4-1.5,1.3c0,1.6,2.4,0.9,2.4,1.9c0,0.4-0.3,0.7-0.9,0.7
		c-0.6,0-1-0.4-1.2-0.8l-0.6,0.3C135.9,374.1,136.6,374.6,137.5,374.6z M144.3,374.6c1.1,0,2.1-0.7,2.1-1.8c0-2.1-3.1-1.6-3.1-3
		c0-0.5,0.4-0.9,1-0.9c0.5,0,0.9,0.2,1.2,0.7l0.6-0.4c-0.4-0.7-1-1-1.8-1c-1,0-1.8,0.6-1.8,1.6c0,2,3.1,1.5,3.1,3c0,0.6-0.5,1-1.3,1
		c-0.8,0-1.4-0.4-1.5-1.2l-0.8,0.2C142.3,374,143.3,374.6,144.3,374.6z M147.5,369.3h0.8v-0.9h-0.8V369.3z M147.5,374.5h0.7v-4.4
		h-0.7V374.5z M149.7,374.5h0.7V372c0-0.7,0.4-1.2,1.1-1.2c0.7,0,0.9,0.5,0.9,1.2v2.6h0.7V372c0-0.7,0.4-1.2,1.1-1.2
		c0.7,0,0.9,0.5,0.9,1.3v2.5h0.7v-2.6c0-1.1-0.5-1.9-1.5-1.9c-0.6,0-1.1,0.3-1.4,0.9c-0.2-0.6-0.7-0.9-1.3-0.9c-0.5,0-1,0.2-1.3,0.8
		v-0.7h-0.7L149.7,374.5z M159.1,374.6c1.3,0,2.2-1,2.2-2.3c0-1.2-0.9-2.3-2.2-2.3c-1.3,0-2.2,1-2.2,2.3
		C157,373.6,157.9,374.6,159.1,374.6z M159.1,374c-0.9,0-1.4-0.7-1.4-1.6c0-0.9,0.5-1.6,1.4-1.6c0.9,0,1.4,0.7,1.4,1.6
		C160.5,373.2,160.1,374,159.1,374z M162.4,374.5h0.7V372c0-0.8,0.4-1.2,1.1-1.2c0.7,0,1,0.5,1,1.2v2.6h0.7v-2.7
		c0-0.9-0.5-1.7-1.6-1.7c-0.5,0-1,0.2-1.3,0.7v-0.7h-0.7V374.5z M168.7,374.6c0.8,0,1.6-0.4,1.6-1.4c0-1.7-2.5-1.1-2.5-2
		c0-0.3,0.3-0.6,0.8-0.6c0.5,0,0.8,0.3,1,0.6l0.6-0.3c-0.3-0.6-0.9-0.9-1.6-0.9c-0.8,0-1.5,0.4-1.5,1.3c0,1.6,2.4,0.9,2.4,1.9
		c0,0.4-0.3,0.7-0.9,0.7c-0.6,0-1-0.4-1.2-0.8l-0.6,0.3C167.1,374.1,167.8,374.6,168.7,374.6z"/>
	<path class="st26" d="M206.6,204.6c1.2,0,2.2-0.6,2.7-1.8l-1-0.4c-0.3,0.8-0.9,1.2-1.7,1.2c-1.3,0-1.9-0.9-1.9-2.2
		c0-1.2,0.6-2.1,1.9-2.1c0.8,0,1.4,0.3,1.7,1.1l1-0.4c-0.5-1.2-1.5-1.8-2.7-1.8c-2,0-3,1.5-3,3.2
		C203.6,203.1,204.5,204.6,206.6,204.6z M211.8,204.6c1.4,0,2.2-1.1,2.2-2.3c0-1.2-0.9-2.3-2.2-2.3s-2.2,1-2.2,2.3
		C209.6,203.6,210.5,204.6,211.8,204.6z M211.8,203.7c-0.8,0-1.1-0.6-1.1-1.4c0-0.7,0.3-1.3,1.1-1.3c0.8,0,1.1,0.6,1.1,1.3
		C213,203.1,212.6,203.7,211.8,203.7z M214.9,204.5h1.1v-2.4c0-0.6,0.3-1.1,0.9-1.1c0.5,0,0.7,0.4,0.7,1v2.5h1.1v-2.4
		c0-0.6,0.3-1.1,0.9-1.1c0.6,0,0.7,0.4,0.7,1v2.5h1.1v-2.6c0-0.9-0.5-1.8-1.6-1.8c-0.5,0-1.1,0.2-1.4,0.8c-0.3-0.6-0.8-0.8-1.3-0.8
		c-0.4,0-0.9,0.2-1.2,0.6v-0.6h-1L214.9,204.5z M222.6,206.4h1.1v-2.3c0.3,0.4,0.8,0.5,1.2,0.5c1.2,0,1.9-1.1,1.9-2.3
		c0-1.2-0.7-2.3-1.9-2.3c-0.5,0-0.9,0.2-1.3,0.5v-0.4h-1.1V206.4z M224.7,203.7c-0.7,0-1.1-0.6-1.1-1.3c0-0.7,0.3-1.3,1.1-1.3
		c0.7,0,1.1,0.6,1.1,1.3C225.8,203.1,225.4,203.7,224.7,203.7z M229.4,200.1c-0.9,0-1.4,0.4-1.8,1l0.8,0.6c0.2-0.3,0.5-0.6,1-0.6
		c0.7,0,0.9,0.3,0.9,0.9h-1.2c-1,0-1.7,0.3-1.7,1.3c0,0.9,0.7,1.4,1.6,1.4c0.5,0,1.1-0.2,1.4-0.7l0.1,0.6h0.9v-2.7
		C231.3,200.8,230.6,200.1,229.4,200.1z M229.2,203.7c-0.5,0-0.7-0.2-0.7-0.5c0-0.3,0.2-0.5,0.7-0.5h1.1v0
		C230.2,203.2,229.8,203.7,229.2,203.7z M232.4,204.5h1.1v-2.4c0-0.8,0.4-1.1,1-1.1c0.5,0,0.8,0.4,0.8,1v2.5h1.1v-2.6
		c0-0.9-0.5-1.8-1.6-1.8c-0.4,0-0.9,0.2-1.3,0.6v-0.5h-1.1V204.5z M237.7,206.4h1.2l2.5-6.3h-1.2l-1.1,3.1l-1.1-3.1h-1.2l1.7,4.3
		L237.7,206.4z M206.6,238.6c0.9,0,1.6-0.4,2-1.1l0.1,1h0.6v-3.3H207v0.6h1.5l0,0.4c-0.1,1-0.9,1.6-1.9,1.6c-1.5,0-2.1-1.1-2.1-2.5
		c0-1.4,0.7-2.5,2.1-2.5c0.9,0,1.6,0.4,1.9,1.3l0.7-0.3c-0.5-1.1-1.4-1.7-2.6-1.7c-2,0-2.9,1.4-2.9,3.2
		C203.7,237.2,204.7,238.6,206.6,238.6z M211.5,238.6c0.2,0,0.5,0,0.7-0.1l0-0.6c-0.1,0-0.2,0-0.3,0c-0.4,0-0.4-0.2-0.4-0.5v-5.1
		h-0.7v5.3C210.7,238.3,211,238.6,211.5,238.6z M214.9,238.6c1.3,0,2.2-1,2.2-2.3c0-1.2-0.9-2.3-2.2-2.3c-1.3,0-2.2,1-2.2,2.3
		C212.8,237.6,213.6,238.6,214.9,238.6z M214.9,238c-0.9,0-1.4-0.7-1.4-1.6c0-0.9,0.5-1.6,1.4-1.6c0.9,0,1.4,0.7,1.4,1.6
		C216.3,237.2,215.8,238,214.9,238z M220.4,238.6c1.2,0,1.9-1,1.9-2.3c0-1.2-0.7-2.3-1.9-2.3c-0.6,0-1.2,0.3-1.5,0.9v-2.6h-0.8v6.2
		h0.8v-0.8C219.3,238.3,219.8,238.6,220.4,238.6z M220.3,237.9c-0.9,0-1.4-0.7-1.4-1.6s0.5-1.6,1.4-1.6s1.3,0.7,1.3,1.6
		S221.1,237.9,220.3,237.9z M225,234.1c-0.8,0-1.3,0.3-1.8,0.9l0.6,0.4c0.3-0.4,0.6-0.7,1.2-0.7c0.8,0,1.1,0.4,1.1,1.3h-1.2
		c-1.1,0-1.8,0.3-1.8,1.3c0,0.9,0.6,1.4,1.5,1.4c0.6,0,1.2-0.3,1.5-0.9l0,0.8h0.6v-2.7C226.8,234.8,226.1,234.1,225,234.1z
		 M224.7,238c-0.6,0-0.9-0.3-0.9-0.7c0-0.4,0.4-0.7,1.1-0.7h1.2v0.3C225.9,237.5,225.5,238,224.7,238z M228.9,238.6
		c0.2,0,0.5,0,0.7-0.1l0-0.6c-0.1,0-0.3,0-0.3,0c-0.4,0-0.4-0.2-0.4-0.5v-5.1h-0.7v5.3C228.1,238.3,228.3,238.6,228.9,238.6z
		 M235.5,238.6c1.2,0,2.1-0.6,2.6-1.7l-0.7-0.3c-0.4,0.9-1,1.3-1.9,1.3c-1.5,0-2.1-1.1-2.1-2.5c0-1.4,0.7-2.4,2.1-2.4
		c0.9,0,1.6,0.4,1.9,1.3l0.7-0.3c-0.5-1.1-1.4-1.7-2.6-1.7c-1.9,0-2.9,1.4-2.9,3.2C232.6,237.2,233.6,238.6,235.5,238.6z
		 M240.8,238.6c1.3,0,2.2-1,2.2-2.3c0-1.2-0.9-2.3-2.2-2.3c-1.3,0-2.2,1-2.2,2.3C238.6,237.6,239.5,238.6,240.8,238.6z M240.8,238
		c-0.9,0-1.4-0.7-1.4-1.6c0-0.9,0.5-1.6,1.4-1.6c0.9,0,1.4,0.7,1.4,1.6C242.2,237.2,241.7,238,240.8,238z M244,238.5h0.7v-2.1
		c0-1.2,0.6-1.6,1.2-1.6c0.2,0,0.3,0,0.5,0.1l0.3-0.6c-0.2-0.2-0.5-0.2-0.7-0.2c-0.5,0-1.1,0.3-1.3,0.9v-0.9H244V238.5z
		 M247.6,240.4h0.8v-2.6c0.3,0.6,0.8,0.9,1.5,0.9c1.2,0,1.9-1,1.9-2.3c0-1.2-0.7-2.3-1.9-2.3c-0.6,0-1.2,0.3-1.5,0.9v-0.8h-0.8
		V240.4z M249.6,237.9c-0.9,0-1.4-0.7-1.4-1.6c0-0.9,0.5-1.6,1.4-1.6c0.9,0,1.3,0.7,1.3,1.6C250.9,237.2,250.5,237.9,249.6,237.9z
		 M204.1,272.5h3.6v-0.7h-2.8v-5.5h-0.8V272.5z M210.4,272.6c0.7,0,1.2-0.2,1.7-0.8l-0.5-0.5c-0.4,0.4-0.7,0.5-1.2,0.5
		c-0.8,0-1.3-0.5-1.3-1.4h3.2c0-0.1,0-0.2,0-0.4c0-0.9-0.5-2.1-2-2.1c-1.3,0-2,1.1-2,2.3C208.3,271.6,209,272.6,210.4,272.6z
		 M209.1,270c0.1-0.8,0.5-1.3,1.2-1.3c0.7,0,1.1,0.5,1.2,1c0,0.1,0,0.2,0,0.3H209.1z M214.8,272.6c0.3,0,0.5-0.1,0.7-0.1l0-0.7
		c-0.1,0.1-0.3,0.1-0.5,0.1c-0.4,0-0.6-0.2-0.6-0.8v-2.4h1.2v-0.6h-1.2v-1.7l-0.7,0.5v1.2h-0.7v0.6h0.7v2.5
		C213.5,272.1,214,272.6,214.8,272.6z M216.5,274.4h0.8v-2.6c0.3,0.6,0.8,0.9,1.5,0.9c1.2,0,1.9-1,1.9-2.3c0-1.2-0.7-2.3-1.9-2.3
		c-0.6,0-1.2,0.3-1.5,0.9v-0.8h-0.8V274.4z M218.5,271.9c-0.9,0-1.4-0.7-1.4-1.6c0-0.9,0.5-1.6,1.4-1.6s1.3,0.7,1.3,1.6
		C219.8,271.2,219.4,271.9,218.5,271.9z M221.7,272.5h0.7v-2.1c0-1.2,0.6-1.6,1.2-1.6c0.2,0,0.3,0,0.5,0.1l0.3-0.6
		c-0.2-0.2-0.5-0.2-0.7-0.2c-0.5,0-1.1,0.3-1.3,0.9v-0.9h-0.7V272.5z M226.7,272.6c1.3,0,2.2-1,2.2-2.3c0-1.2-0.9-2.3-2.2-2.3
		c-1.3,0-2.2,1-2.2,2.3C224.6,271.6,225.4,272.6,226.7,272.6z M226.7,272c-0.9,0-1.4-0.7-1.4-1.6c0-0.9,0.5-1.6,1.4-1.6
		c0.9,0,1.4,0.7,1.4,1.6C228.1,271.2,227.6,272,226.7,272z M205.5,306.5h0.8V301h2.1v-0.7h-5v0.7h2.1V306.5z M208.7,306.5h0.7v-2.1
		c0-1.2,0.6-1.6,1.2-1.6c0.2,0,0.3,0,0.5,0.1l0.3-0.6c-0.2-0.2-0.5-0.2-0.7-0.2c-0.5,0-1.1,0.3-1.3,0.9v-0.9h-0.7V306.5z
		 M213.8,302.1c-0.8,0-1.3,0.3-1.8,0.9l0.6,0.4c0.3-0.4,0.6-0.7,1.2-0.7c0.8,0,1.1,0.4,1.1,1.3h-1.2c-1.1,0-1.8,0.3-1.8,1.3
		c0,0.9,0.7,1.4,1.5,1.4c0.6,0,1.2-0.3,1.5-0.9l0,0.8h0.6v-2.7C215.6,302.8,215,302.1,213.8,302.1z M213.6,306
		c-0.6,0-0.9-0.3-0.9-0.7c0-0.4,0.4-0.7,1.1-0.7h1.2v0.3C214.8,305.5,214.3,306,213.6,306z M217,306.5h0.7V304
		c0-0.8,0.4-1.2,1.1-1.2c0.7,0,1,0.5,1,1.2v2.6h0.7v-2.7c0-0.9-0.5-1.7-1.6-1.7c-0.5,0-1,0.2-1.3,0.7v-0.7H217V306.5z M225.7,308.4
		v-6.2h-0.8v0.8c-0.3-0.6-0.9-0.9-1.5-0.9c-1.2,0-1.9,1-1.9,2.3c0,1.2,0.7,2.3,1.9,2.3c0.6,0,1.2-0.3,1.5-0.9v2.6H225.7z
		 M223.7,305.9c-0.9,0-1.3-0.7-1.3-1.6c0-0.9,0.4-1.6,1.3-1.6s1.4,0.7,1.4,1.6C225,305.2,224.5,305.9,223.7,305.9z M228.6,306.6
		c0.5,0,1.1-0.2,1.3-0.7v0.7h0.7v-4.4H230v2.5c0,0.8-0.4,1.2-1.1,1.2c-0.7,0-1-0.5-1-1.2v-2.6h-0.7v2.7
		C227.1,305.8,227.6,306.6,228.6,306.6z M232.2,301.3h0.8v-0.9h-0.8V301.3z M232.2,306.5h0.7v-4.4h-0.7V306.5z M235.2,306.6
		c0.2,0,0.5,0,0.7-0.1l0-0.6c-0.1,0-0.3,0-0.3,0c-0.4,0-0.4-0.2-0.4-0.5v-5.1h-0.7v5.3C234.4,306.3,234.6,306.6,235.2,306.6z
		 M240.7,306.5h0.8V301h2.1v-0.7h-5v0.7h2.1V306.5z M245.3,302.1c-0.8,0-1.3,0.3-1.8,0.9l0.6,0.4c0.3-0.4,0.6-0.7,1.2-0.7
		c0.8,0,1.1,0.4,1.1,1.3h-1.2c-1.1,0-1.8,0.3-1.8,1.3c0,0.9,0.7,1.4,1.5,1.4c0.6,0,1.2-0.3,1.5-0.9l0,0.8h0.6v-2.7
		C247.1,302.8,246.4,302.1,245.3,302.1z M245,306c-0.6,0-0.9-0.3-0.9-0.7c0-0.4,0.4-0.7,1.1-0.7h1.2v0.3
		C246.3,305.5,245.8,306,245,306z M248.4,306.5h0.7V304c0-0.8,0.4-1.2,1.1-1.2c0.7,0,1,0.5,1,1.2v2.6h0.7v-2.7
		c0-0.9-0.5-1.7-1.6-1.7c-0.5,0-1,0.2-1.3,0.7v-0.7h-0.7V306.5z M253.4,306.5h0.7v-1.3l0.9-1l1.5,2.3h0.9l-1.8-2.7l1.6-1.7h-1
		l-2.1,2.2v-4h-0.7V306.5z M206.6,340.6c1.2,0,2.1-0.6,2.6-1.7l-0.7-0.3c-0.4,0.9-1,1.3-1.9,1.3c-1.5,0-2.1-1.1-2.1-2.5
		c0-1.4,0.7-2.4,2.1-2.4c0.9,0,1.6,0.4,1.9,1.3l0.7-0.3c-0.5-1.1-1.4-1.7-2.6-1.7c-1.9,0-2.9,1.4-2.9,3.2
		C203.7,339.2,204.7,340.6,206.6,340.6z M211.6,340.6c0.5,0,1.1-0.2,1.4-0.7v0.7h0.7v-4.4h-0.7v2.5c0,0.8-0.4,1.2-1.1,1.2
		c-0.7,0-1-0.5-1-1.2v-2.6H210v2.7C210,339.8,210.5,340.6,211.6,340.6z M215.1,335.3h0.8v-0.9h-0.8V335.3z M215.1,340.5h0.7v-4.4
		h-0.7V340.5z M218.6,340.6c0.8,0,1.6-0.4,1.6-1.4c0-1.7-2.5-1.1-2.5-2c0-0.3,0.3-0.6,0.8-0.6c0.5,0,0.8,0.3,1,0.6l0.6-0.3
		c-0.3-0.6-0.9-0.9-1.6-0.9c-0.8,0-1.5,0.4-1.5,1.3c0,1.6,2.4,0.9,2.4,1.9c0,0.4-0.3,0.7-0.9,0.7c-0.6,0-1-0.4-1.2-0.8l-0.6,0.3
		C217.1,340.1,217.8,340.6,218.6,340.6z M221.4,335.3h0.8v-0.9h-0.8V335.3z M221.4,340.5h0.7v-4.4h-0.7V340.5z M223.6,340.5h0.7V338
		c0-0.8,0.4-1.2,1.1-1.2c0.7,0,1,0.5,1,1.2v2.6h0.7v-2.7c0-0.9-0.5-1.7-1.6-1.7c-0.5,0-1,0.2-1.3,0.7v-0.7h-0.7V340.5z M230.3,340.6
		c0.7,0,1.2-0.2,1.7-0.8l-0.5-0.5c-0.4,0.4-0.7,0.5-1.2,0.5c-0.8,0-1.3-0.5-1.3-1.4h3.2c0-0.1,0-0.2,0-0.4c0-0.9-0.5-2.1-2-2.1
		c-1.3,0-2,1.1-2,2.3C228.2,339.6,229,340.6,230.3,340.6z M229,338c0.1-0.8,0.5-1.3,1.2-1.3c0.7,0,1.1,0.5,1.2,1c0,0.1,0,0.2,0,0.3
		H229z M238.2,340.6c1.2,0,2.1-0.6,2.6-1.7l-0.7-0.3c-0.4,0.9-1,1.3-1.9,1.3c-1.5,0-2.1-1.1-2.1-2.5c0-1.4,0.7-2.4,2.1-2.4
		c0.9,0,1.6,0.4,1.9,1.3l0.7-0.3c-0.5-1.1-1.4-1.7-2.6-1.7c-1.9,0-2.9,1.4-2.9,3.2C235.3,339.2,236.3,340.6,238.2,340.6z
		 M243.5,340.6c1.3,0,2.2-1,2.2-2.3c0-1.2-0.9-2.3-2.2-2.3c-1.3,0-2.2,1-2.2,2.3C241.4,339.6,242.2,340.6,243.5,340.6z M243.5,340
		c-0.9,0-1.4-0.7-1.4-1.6c0-0.9,0.5-1.6,1.4-1.6c0.9,0,1.4,0.7,1.4,1.6C244.9,339.2,244.4,340,243.5,340z M206.6,374.6
		c0.9,0,1.6-0.4,2-1.1l0.1,1h0.6v-3.3H207v0.6h1.5l0,0.4c-0.1,1-0.9,1.6-1.9,1.6c-1.5,0-2.1-1.1-2.1-2.5c0-1.4,0.7-2.5,2.1-2.5
		c0.9,0,1.6,0.4,1.9,1.3l0.7-0.3c-0.5-1.1-1.4-1.7-2.6-1.7c-2,0-2.9,1.4-2.9,3.2C203.7,373.2,204.7,374.6,206.6,374.6z M210.7,374.5
		h0.7v-2.1c0-1.2,0.6-1.6,1.2-1.6c0.2,0,0.3,0,0.5,0.1l0.3-0.6c-0.2-0.2-0.5-0.2-0.7-0.2c-0.5,0-1.1,0.3-1.3,0.9v-0.9h-0.7V374.5z
		 M215.7,374.6c0.7,0,1.2-0.2,1.7-0.8l-0.5-0.5c-0.4,0.4-0.7,0.5-1.2,0.5c-0.8,0-1.3-0.5-1.3-1.4h3.2c0-0.1,0-0.2,0-0.4
		c0-0.9-0.5-2.1-2-2.1c-1.3,0-2,1.1-2,2.3C213.6,373.6,214.3,374.6,215.7,374.6z M214.4,372c0.1-0.8,0.5-1.3,1.2-1.3
		c0.7,0,1.1,0.5,1.2,1c0,0.1,0,0.2,0,0.3H214.4z M220.4,374.6c0.7,0,1.2-0.2,1.7-0.8l-0.5-0.5c-0.4,0.4-0.7,0.5-1.2,0.5
		c-0.8,0-1.3-0.5-1.3-1.4h3.2c0-0.1,0-0.2,0-0.4c0-0.9-0.5-2.1-2-2.1c-1.3,0-2,1.1-2,2.3C218.3,373.6,219,374.6,220.4,374.6z
		 M219.1,372c0.1-0.8,0.5-1.3,1.2-1.3c0.7,0,1.1,0.5,1.2,1c0,0.1,0,0.2,0,0.3H219.1z M223.4,374.5h0.7V372c0-0.8,0.4-1.2,1.1-1.2
		c0.7,0,1,0.5,1,1.2v2.6h0.7v-2.7c0-0.9-0.5-1.7-1.6-1.7c-0.5,0-1,0.2-1.3,0.7v-0.7h-0.7V374.5z M233.3,374.6c1.2,0,2.1-0.6,2.6-1.7
		l-0.7-0.3c-0.4,0.9-1,1.3-1.9,1.3c-1.5,0-2.1-1.1-2.1-2.5c0-1.4,0.7-2.4,2.1-2.4c0.9,0,1.6,0.4,1.9,1.3l0.7-0.3
		c-0.5-1.1-1.4-1.7-2.6-1.7c-1.9,0-2.9,1.4-2.9,3.2C230.4,373.2,231.4,374.6,233.3,374.6z M237.7,374.6c0.2,0,0.5,0,0.7-0.1l0-0.6
		c-0.1,0-0.2,0-0.3,0c-0.4,0-0.4-0.2-0.4-0.5v-5.1h-0.7v5.3C236.9,374.3,237.2,374.6,237.7,374.6z M241.1,374.6
		c0.7,0,1.2-0.2,1.7-0.8l-0.5-0.5c-0.4,0.4-0.7,0.5-1.2,0.5c-0.8,0-1.3-0.5-1.3-1.4h3.2c0-0.1,0-0.2,0-0.4c0-0.9-0.5-2.1-2-2.1
		c-1.3,0-2,1.1-2,2.3C239,373.6,239.7,374.6,241.1,374.6z M239.8,372c0.1-0.8,0.5-1.3,1.2-1.3c0.7,0,1.1,0.5,1.2,1
		c0,0.1,0,0.2,0,0.3H239.8z M245.6,370.1c-0.8,0-1.3,0.3-1.8,0.9l0.6,0.4c0.3-0.4,0.6-0.7,1.2-0.7c0.8,0,1.1,0.4,1.1,1.3h-1.2
		c-1.1,0-1.8,0.3-1.8,1.3c0,0.9,0.7,1.4,1.5,1.4c0.6,0,1.2-0.3,1.5-0.9l0,0.8h0.6v-2.7C247.4,370.8,246.8,370.1,245.6,370.1z
		 M245.4,374c-0.6,0-0.9-0.3-0.9-0.7c0-0.4,0.4-0.7,1.1-0.7h1.2v0.3C246.6,373.5,246.1,374,245.4,374z M248.8,374.5h0.7V372
		c0-0.8,0.4-1.2,1.1-1.2c0.7,0,1,0.5,1,1.2v2.6h0.7v-2.7c0-0.9-0.5-1.7-1.6-1.7c-0.5,0-1,0.2-1.3,0.7v-0.7h-0.7V374.5z M253.7,369.3
		h0.8v-0.9h-0.8V369.3z M253.8,374.5h0.7v-4.4h-0.7V374.5z M256,374.5h0.7V372c0-0.8,0.4-1.2,1.1-1.2c0.7,0,1,0.5,1,1.2v2.6h0.7
		v-2.7c0-0.9-0.5-1.7-1.6-1.7c-0.5,0-1,0.2-1.3,0.7v-0.7H256V374.5z M262.7,374c-0.8-0.1-1.4-0.2-1.4-0.6c0-0.2,0.1-0.3,0.3-0.4
		c0.3,0.1,0.6,0.2,0.9,0.2c0.9,0,1.7-0.6,1.7-1.5c0-0.3-0.1-0.6-0.2-0.8l0.6-0.5l-0.4-0.5l-0.6,0.5c-0.3-0.2-0.7-0.3-1.1-0.3
		c-0.9,0-1.7,0.6-1.7,1.5c0,0.4,0.1,0.7,0.4,1c-0.3,0.2-0.5,0.5-0.5,0.9c0,0.4,0.2,0.7,0.5,0.8l-0.6,0.5c0,0.1,0,0.1,0,0.2
		c0,0.9,0.7,1.5,2,1.5c1.1,0,1.9-0.5,1.9-1.4C264.5,374.2,263.6,374.1,262.7,374z M262.5,370.7c0.6,0,1,0.4,1,1c0,0.6-0.4,0.9-1,0.9
		c-0.6,0-1-0.4-1-1C261.6,371.1,261.9,370.7,262.5,370.7z M262.6,376c-0.7,0-1.2-0.3-1.3-0.8l0-0.1l0.4-0.5c0.3,0.1,0.5,0.1,0.8,0.1
		c0.8,0.1,1.3,0.2,1.3,0.7C263.8,375.7,263.3,376,262.6,376z"/>
	<path class="st26" d="M290.3,204.6c1.2,0,2.2-0.7,2.2-1.9c0-2.1-3-1.7-3-2.8c0-0.4,0.3-0.7,0.8-0.7c0.4,0,0.8,0.2,1,0.7l0.9-0.6
		c-0.4-0.8-1.1-1.1-1.9-1.1c-1,0-1.9,0.6-1.9,1.7c0,2,3,1.6,3,2.9c0,0.4-0.4,0.8-1,0.8c-0.7,0-1.2-0.3-1.3-1.1l-1.1,0.3
		C288.1,204,289.2,204.6,290.3,204.6z M294.9,204.6c0.3,0,0.6-0.1,0.8-0.1v-1c-0.1,0.1-0.4,0.2-0.6,0.2c-0.3,0-0.5-0.1-0.5-0.5V201
		h1.1v-0.9h-1.1v-1.9l-1.1,0.8v1.1h-0.7v0.9h0.7v2.3C293.6,204.1,294.1,204.6,294.9,204.6z M298.4,200.1c-0.9,0-1.4,0.4-1.8,1
		l0.8,0.6c0.2-0.3,0.5-0.6,1-0.6c0.7,0,0.9,0.3,0.9,0.9h-1.2c-1,0-1.7,0.3-1.7,1.3c0,0.9,0.7,1.4,1.6,1.4c0.5,0,1.1-0.2,1.4-0.7
		l0.1,0.6h0.9v-2.7C300.3,200.8,299.6,200.1,298.4,200.1z M298.2,203.7c-0.5,0-0.7-0.2-0.7-0.5c0-0.3,0.2-0.5,0.7-0.5h1.1v0
		C299.2,203.2,298.8,203.7,298.2,203.7z M302.9,204.6c0.3,0,0.6-0.1,0.8-0.1v-1c-0.1,0.1-0.4,0.2-0.6,0.2c-0.3,0-0.5-0.1-0.5-0.5
		V201h1.1v-0.9h-1.1v-1.9l-1.1,0.8v1.1h-0.7v0.9h0.7v2.3C301.6,204.1,302.1,204.6,302.9,204.6z M306.2,204.6c0.4,0,0.9-0.2,1.3-0.6
		v0.5h1.1v-4.4h-1.1v2.4c0,0.8-0.4,1.1-1,1.1c-0.5,0-0.8-0.4-0.8-1v-2.5h-1.1v2.6C304.6,203.7,305.1,204.6,306.2,204.6z
		 M311.2,204.6c0.8,0,1.7-0.4,1.7-1.5c0-1.6-2.2-1.2-2.2-1.9c0-0.2,0.2-0.4,0.6-0.4c0.5,0,0.7,0.3,0.9,0.6l0.8-0.5
		c-0.3-0.6-0.9-1-1.7-1c-0.8,0-1.6,0.4-1.6,1.4c0,1.6,2.2,1.1,2.2,1.8c0,0.2-0.2,0.5-0.7,0.5c-0.6,0-0.8-0.4-0.9-0.7l-0.9,0.4
		C309.6,204.1,310.3,204.6,311.2,204.6z M288.6,238.5h0.8v-2.7h1c1.3,0,2.1-0.6,2.1-1.8c0-1.1-0.9-1.8-2.1-1.8h-1.8V238.5z
		 M289.4,235.1v-2.1h1c0.9,0,1.4,0.4,1.4,1.1s-0.4,1-1.4,1H289.4z M295,238.6c0.7,0,1.2-0.2,1.7-0.8l-0.5-0.5
		c-0.4,0.4-0.7,0.5-1.2,0.5c-0.8,0-1.3-0.5-1.3-1.4h3.2c0-0.1,0-0.2,0-0.4c0-0.9-0.5-2.1-2-2.1c-1.3,0-2,1.1-2,2.3
		C292.9,237.6,293.7,238.6,295,238.6z M293.7,236c0.1-0.8,0.5-1.3,1.2-1.3c0.7,0,1.1,0.5,1.2,1c0,0.1,0,0.2,0,0.3H293.7z M298,238.5
		h0.7V236c0-0.8,0.4-1.2,1.1-1.2c0.7,0,1,0.5,1,1.2v2.6h0.7v-2.7c0-0.9-0.5-1.7-1.6-1.7c-0.5,0-1,0.2-1.3,0.7v-0.7H298V238.5z
		 M304.6,238.6c0.6,0,1.2-0.3,1.5-0.9l0,0.8h0.7v-6.2H306v2.6c-0.3-0.6-0.9-0.9-1.5-0.9c-1.2,0-1.9,1-1.9,2.3
		C302.7,237.6,303.4,238.6,304.6,238.6z M304.8,237.9c-0.9,0-1.4-0.7-1.4-1.6c0-0.9,0.5-1.6,1.4-1.6c0.9,0,1.3,0.7,1.3,1.6
		C306.1,237.2,305.6,237.9,304.8,237.9z M308.3,233.3h0.8v-0.9h-0.8V233.3z M308.3,238.5h0.7v-4.4h-0.7V238.5z M310.5,238.5h0.7V236
		c0-0.8,0.4-1.2,1.1-1.2c0.7,0,1,0.5,1,1.2v2.6h0.7v-2.7c0-0.9-0.5-1.7-1.6-1.7c-0.5,0-1,0.2-1.3,0.7v-0.7h-0.7V238.5z M317.3,238
		c-0.8-0.1-1.4-0.2-1.4-0.6c0-0.2,0.1-0.3,0.3-0.4c0.3,0.1,0.6,0.2,0.9,0.2c0.9,0,1.7-0.6,1.7-1.5c0-0.3-0.1-0.6-0.2-0.8l0.6-0.5
		l-0.4-0.5l-0.6,0.5c-0.3-0.2-0.7-0.3-1.1-0.3c-0.9,0-1.7,0.6-1.7,1.5c0,0.4,0.1,0.7,0.4,1c-0.3,0.2-0.5,0.5-0.5,0.9
		c0,0.4,0.2,0.7,0.5,0.8l-0.6,0.5c0,0.1,0,0.1,0,0.2c0,0.9,0.7,1.5,2,1.5c1.1,0,1.9-0.5,1.9-1.4C319,238.2,318.1,238.1,317.3,238z
		 M317.1,234.7c0.6,0,0.9,0.4,0.9,1c0,0.6-0.4,0.9-1,0.9c-0.6,0-1-0.4-1-0.9C316.1,235.1,316.5,234.7,317.1,234.7z M317.2,240
		c-0.7,0-1.2-0.3-1.3-0.8l0-0.1l0.4-0.5c0.3,0.1,0.5,0.1,0.8,0.1c0.8,0.1,1.3,0.2,1.3,0.7C318.3,239.7,317.9,240,317.2,240z
		 M287.9,272.5h0.8l0.5-1.4h2.6l0.5,1.4h0.8l-2.4-6.2h-0.6L287.9,272.5z M289.5,270.4l1.1-3l1.1,3H289.5z M295.8,272.6
		c0.8,0,1.5-0.5,1.8-1.2l-0.7-0.3c-0.2,0.5-0.6,0.8-1.1,0.8c-0.9,0-1.3-0.8-1.3-1.6c0-0.8,0.4-1.6,1.3-1.6c0.5,0,0.9,0.3,1.1,0.8
		l0.7-0.3c-0.3-0.8-1-1.2-1.8-1.2c-1.4,0-2,1.1-2,2.3C293.8,271.6,294.5,272.6,295.8,272.6z M300.2,272.6c0.8,0,1.5-0.5,1.8-1.2
		l-0.7-0.3c-0.2,0.5-0.6,0.8-1.1,0.8c-0.9,0-1.3-0.8-1.3-1.6c0-0.8,0.4-1.6,1.3-1.6c0.5,0,0.9,0.3,1.1,0.8l0.7-0.3
		c-0.3-0.8-1-1.2-1.8-1.2c-1.4,0-2,1.1-2,2.3C298.2,271.6,298.9,272.6,300.2,272.6z M304.7,272.6c0.7,0,1.2-0.2,1.7-0.8l-0.5-0.5
		c-0.4,0.4-0.7,0.5-1.2,0.5c-0.8,0-1.3-0.5-1.3-1.4h3.2c0-0.1,0-0.2,0-0.4c0-0.9-0.5-2.1-2-2.1c-1.3,0-2,1.1-2,2.3
		C302.6,271.6,303.3,272.6,304.7,272.6z M303.4,270c0.1-0.8,0.5-1.3,1.2-1.3c0.7,0,1.1,0.5,1.2,1c0,0.1,0,0.2,0,0.3H303.4z
		 M307.7,274.4h0.8v-2.6c0.3,0.6,0.8,0.9,1.5,0.9c1.2,0,1.9-1,1.9-2.3c0-1.2-0.7-2.3-1.9-2.3c-0.6,0-1.2,0.3-1.5,0.9v-0.8h-0.8
		V274.4z M309.7,271.9c-0.9,0-1.4-0.7-1.4-1.6c0-0.9,0.5-1.6,1.4-1.6s1.3,0.7,1.3,1.6C311,271.2,310.6,271.9,309.7,271.9z
		 M314.3,272.6c0.3,0,0.5-0.1,0.7-0.1l0-0.7c-0.1,0.1-0.3,0.1-0.5,0.1c-0.4,0-0.6-0.2-0.6-0.8v-2.4h1.2v-0.6h-1.2v-1.7l-0.7,0.5v1.2
		h-0.7v0.6h0.7v2.5C313,272.1,313.5,272.6,314.3,272.6z M317.7,272.6c0.7,0,1.2-0.2,1.7-0.8l-0.5-0.5c-0.4,0.4-0.7,0.5-1.2,0.5
		c-0.8,0-1.3-0.5-1.3-1.4h3.2c0-0.1,0-0.2,0-0.4c0-0.9-0.5-2.1-2-2.1c-1.3,0-2,1.1-2,2.3C315.6,271.6,316.4,272.6,317.7,272.6z
		 M316.4,270c0.1-0.8,0.5-1.3,1.2-1.3c0.7,0,1.1,0.5,1.2,1c0,0.1,0,0.2,0,0.3H316.4z M322.3,272.6c0.6,0,1.2-0.3,1.5-0.9l0,0.8h0.7
		v-6.2h-0.8v2.6c-0.3-0.6-0.9-0.9-1.5-0.9c-1.2,0-1.9,1-1.9,2.3C320.4,271.6,321.1,272.6,322.3,272.6z M322.5,271.9
		c-0.9,0-1.4-0.7-1.4-1.6c0-0.9,0.5-1.6,1.4-1.6c0.9,0,1.3,0.7,1.3,1.6C323.8,271.2,323.3,271.9,322.5,271.9z M288.6,306.5h0.8v-2.8
		h0.7c0.1,0,0.3,0,0.4,0l1.6,2.8h0.9l-1.7-2.8c0.8-0.2,1.3-0.8,1.3-1.6c0-1.1-0.9-1.8-2.1-1.8h-1.8V306.5z M289.4,303.1V301h1.1
		c0.8,0,1.3,0.4,1.3,1.1c0,0.6-0.5,1-1.3,1H289.4z M295.6,306.6c0.7,0,1.2-0.2,1.7-0.8l-0.5-0.5c-0.4,0.4-0.7,0.5-1.2,0.5
		c-0.8,0-1.3-0.5-1.3-1.4h3.2c0-0.1,0-0.2,0-0.4c0-0.9-0.5-2.1-2-2.1c-1.3,0-2,1.1-2,2.3C293.5,305.6,294.2,306.6,295.6,306.6z
		 M294.3,304c0.1-0.8,0.5-1.3,1.2-1.3c0.7,0,1.1,0.5,1.2,1c0,0.1,0,0.2,0,0.3H294.3z M298.6,301.3h0.8v-0.9h-0.8V301.3z
		 M298.1,308.4c0.8,0,1.2-0.6,1.2-1.4v-4.9h-0.7v5c0,0.4-0.2,0.7-0.5,0.7c-0.1,0-0.3,0-0.5-0.1l-0.2,0.7
		C297.6,308.4,297.9,308.4,298.1,308.4z M302.6,306.6c0.7,0,1.2-0.2,1.7-0.8l-0.5-0.5c-0.4,0.4-0.7,0.5-1.2,0.5
		c-0.8,0-1.3-0.5-1.3-1.4h3.2c0-0.1,0-0.2,0-0.4c0-0.9-0.5-2.1-2-2.1c-1.3,0-2,1.1-2,2.3C300.4,305.6,301.2,306.6,302.6,306.6z
		 M301.2,304c0.1-0.8,0.5-1.3,1.2-1.3c0.7,0,1.1,0.5,1.2,1c0,0.1,0,0.2,0,0.3H301.2z M307.2,306.6c0.8,0,1.5-0.5,1.8-1.2l-0.7-0.3
		c-0.2,0.5-0.6,0.8-1.1,0.8c-0.9,0-1.3-0.8-1.3-1.6c0-0.8,0.4-1.6,1.3-1.6c0.5,0,0.9,0.3,1.1,0.8l0.7-0.3c-0.3-0.8-1-1.2-1.8-1.2
		c-1.4,0-2,1.1-2,2.3C305.2,305.6,305.9,306.6,307.2,306.6z M311.4,306.6c0.3,0,0.5-0.1,0.7-0.1l0-0.7c-0.1,0.1-0.3,0.1-0.5,0.1
		c-0.4,0-0.6-0.2-0.6-0.8v-2.4h1.2v-0.6h-1.2v-1.7l-0.7,0.5v1.2h-0.7v0.6h0.7v2.5C310.1,306.1,310.6,306.6,311.4,306.6z
		 M314.8,306.6c0.7,0,1.2-0.2,1.7-0.8l-0.5-0.5c-0.4,0.4-0.7,0.5-1.2,0.5c-0.8,0-1.3-0.5-1.3-1.4h3.2c0-0.1,0-0.2,0-0.4
		c0-0.9-0.5-2.1-2-2.1c-1.3,0-2,1.1-2,2.3C312.7,305.6,313.5,306.6,314.8,306.6z M313.5,304c0.1-0.8,0.5-1.3,1.2-1.3
		c0.7,0,1.1,0.5,1.2,1c0,0.1,0,0.2,0,0.3H313.5z M319.4,306.6c0.6,0,1.2-0.3,1.5-0.9l0,0.8h0.7v-6.2h-0.8v2.6
		c-0.3-0.6-0.9-0.9-1.5-0.9c-1.2,0-1.9,1-1.9,2.3C317.5,305.6,318.2,306.6,319.4,306.6z M319.6,305.9c-0.9,0-1.4-0.7-1.4-1.6
		c0-0.9,0.5-1.6,1.4-1.6c0.9,0,1.3,0.7,1.3,1.6C320.9,305.2,320.4,305.9,319.6,305.9z M288.6,340.5h4.1v-0.7h-3.3v-2h3v-0.7h-3v-2
		h3.3v-0.7h-4.1V340.5z M293.4,340.5h0.9l1.2-1.7l1.2,1.7h0.9l-1.6-2.2l1.6-2.2h-0.9l-1.2,1.7l-1.2-1.7h-0.9l1.6,2.2L293.4,340.5z
		 M298.5,342.4h0.8v-2.6c0.3,0.6,0.8,0.9,1.5,0.9c1.2,0,1.9-1,1.9-2.3c0-1.2-0.7-2.3-1.9-2.3c-0.6,0-1.2,0.3-1.5,0.9v-0.8h-0.8
		V342.4z M300.5,339.9c-0.9,0-1.4-0.7-1.4-1.6c0-0.9,0.5-1.6,1.4-1.6s1.3,0.7,1.3,1.6C301.8,339.2,301.4,339.9,300.5,339.9z
		 M303.7,335.3h0.8v-0.9h-0.8V335.3z M303.7,340.5h0.7v-4.4h-0.7V340.5z M305.9,340.5h0.7v-2.1c0-1.2,0.6-1.6,1.2-1.6
		c0.2,0,0.3,0,0.5,0.1l0.3-0.6c-0.2-0.2-0.5-0.2-0.7-0.2c-0.5,0-1.1,0.3-1.3,0.9v-0.9h-0.7V340.5z M310.9,340.6
		c0.7,0,1.2-0.2,1.7-0.8l-0.5-0.5c-0.4,0.4-0.7,0.5-1.2,0.5c-0.8,0-1.3-0.5-1.3-1.4h3.2c0-0.1,0-0.2,0-0.4c0-0.9-0.5-2.1-2-2.1
		c-1.3,0-2,1.1-2,2.3C308.8,339.6,309.5,340.6,310.9,340.6z M309.6,338c0.1-0.8,0.5-1.3,1.2-1.3c0.7,0,1.1,0.5,1.2,1
		c0,0.1,0,0.2,0,0.3H309.6z M315.4,340.6c0.6,0,1.2-0.3,1.5-0.9l0,0.8h0.7v-6.2h-0.8v2.6c-0.3-0.6-0.9-0.9-1.5-0.9
		c-1.2,0-1.9,1-1.9,2.3C313.5,339.6,314.2,340.6,315.4,340.6z M315.6,339.9c-0.9,0-1.4-0.7-1.4-1.6c0-0.9,0.5-1.6,1.4-1.6
		c0.9,0,1.3,0.7,1.3,1.6C316.9,339.2,316.5,339.9,315.6,339.9z M287.9,374.5h0.8l0.5-1.4h2.6l0.5,1.4h0.8l-2.4-6.2h-0.6L287.9,374.5
		z M289.5,372.4l1.1-3l1.1,3H289.5z M295.8,374.6c0.8,0,1.5-0.5,1.8-1.2l-0.7-0.3c-0.2,0.5-0.6,0.8-1.1,0.8c-0.9,0-1.3-0.8-1.3-1.6
		c0-0.8,0.4-1.6,1.3-1.6c0.5,0,0.9,0.3,1.1,0.8l0.7-0.3c-0.3-0.8-1-1.2-1.8-1.2c-1.4,0-2,1.1-2,2.3
		C293.8,373.6,294.5,374.6,295.8,374.6z M300.2,374.6c0.8,0,1.5-0.5,1.8-1.2l-0.7-0.3c-0.2,0.5-0.6,0.8-1.1,0.8
		c-0.9,0-1.3-0.8-1.3-1.6c0-0.8,0.4-1.6,1.3-1.6c0.5,0,0.9,0.3,1.1,0.8l0.7-0.3c-0.3-0.8-1-1.2-1.8-1.2c-1.4,0-2,1.1-2,2.3
		C298.2,373.6,298.9,374.6,300.2,374.6z M304.7,374.6c0.7,0,1.2-0.2,1.7-0.8l-0.5-0.5c-0.4,0.4-0.7,0.5-1.2,0.5
		c-0.8,0-1.3-0.5-1.3-1.4h3.2c0-0.1,0-0.2,0-0.4c0-0.9-0.5-2.1-2-2.1c-1.3,0-2,1.1-2,2.3C302.6,373.6,303.3,374.6,304.7,374.6z
		 M303.4,372c0.1-0.8,0.5-1.3,1.2-1.3c0.7,0,1.1,0.5,1.2,1c0,0.1,0,0.2,0,0.3H303.4z M307.7,376.4h0.8v-2.6c0.3,0.6,0.8,0.9,1.5,0.9
		c1.2,0,1.9-1,1.9-2.3c0-1.2-0.7-2.3-1.9-2.3c-0.6,0-1.2,0.3-1.5,0.9v-0.8h-0.8V376.4z M309.7,373.9c-0.9,0-1.4-0.7-1.4-1.6
		c0-0.9,0.5-1.6,1.4-1.6s1.3,0.7,1.3,1.6C311,373.2,310.6,373.9,309.7,373.9z M314.3,374.6c0.3,0,0.5-0.1,0.7-0.1l0-0.7
		c-0.1,0.1-0.3,0.1-0.5,0.1c-0.4,0-0.6-0.2-0.6-0.8v-2.4h1.2v-0.6h-1.2v-1.7l-0.7,0.5v1.2h-0.7v0.6h0.7v2.5
		C313,374.1,313.5,374.6,314.3,374.6z M317.7,374.6c0.7,0,1.2-0.2,1.7-0.8l-0.5-0.5c-0.4,0.4-0.7,0.5-1.2,0.5
		c-0.8,0-1.3-0.5-1.3-1.4h3.2c0-0.1,0-0.2,0-0.4c0-0.9-0.5-2.1-2-2.1c-1.3,0-2,1.1-2,2.3C315.6,373.6,316.4,374.6,317.7,374.6z
		 M316.4,372c0.1-0.8,0.5-1.3,1.2-1.3c0.7,0,1.1,0.5,1.2,1c0,0.1,0,0.2,0,0.3H316.4z M322.3,374.6c0.6,0,1.2-0.3,1.5-0.9l0,0.8h0.7
		v-6.2h-0.8v2.6c-0.3-0.6-0.9-0.9-1.5-0.9c-1.2,0-1.9,1-1.9,2.3C320.4,373.6,321.1,374.6,322.3,374.6z M322.5,373.9
		c-0.9,0-1.4-0.7-1.4-1.6c0-0.9,0.5-1.6,1.4-1.6c0.9,0,1.3,0.7,1.3,1.6C323.8,373.2,323.3,373.9,322.5,373.9z"/>
	<path class="st26" d="M352.8,204.6c1.2,0,2.2-0.7,2.2-1.9c0-2.1-3-1.7-3-2.8c0-0.4,0.3-0.7,0.8-0.7c0.4,0,0.8,0.2,1,0.7l0.9-0.6
		c-0.4-0.8-1.1-1.1-1.9-1.1c-1,0-1.9,0.6-1.9,1.7c0,2,3,1.6,3,2.9c0,0.4-0.4,0.8-1,0.8c-0.7,0-1.2-0.3-1.3-1.1l-1.1,0.3
		C350.6,204,351.7,204.6,352.8,204.6z M357.5,204.6c0.3,0,0.6-0.1,0.8-0.1v-1c-0.1,0.1-0.4,0.2-0.6,0.2c-0.3,0-0.5-0.1-0.5-0.5V201
		h1.1v-0.9h-1.1v-1.9l-1.1,0.8v1.1h-0.7v0.9h0.7v2.3C356.1,204.1,356.6,204.6,357.5,204.6z M360.9,200.1c-0.9,0-1.4,0.4-1.8,1
		l0.8,0.6c0.2-0.3,0.5-0.6,1-0.6c0.7,0,0.9,0.3,0.9,0.9h-1.2c-1,0-1.7,0.3-1.7,1.3c0,0.9,0.7,1.4,1.6,1.4c0.5,0,1.1-0.2,1.4-0.7
		l0.1,0.6h0.9v-2.7C362.8,200.8,362.1,200.1,360.9,200.1z M360.7,203.7c-0.5,0-0.7-0.2-0.7-0.5c0-0.3,0.2-0.5,0.7-0.5h1.1v0
		C361.8,203.2,361.3,203.7,360.7,203.7z M363.9,204.5h1v-1.9c0-1.1,0.5-1.6,1-1.6c0.2,0,0.3,0.1,0.5,0.1l0.5-0.9
		c-0.2-0.2-0.5-0.3-0.8-0.3c-0.5,0-1,0.3-1.2,0.8v-0.7h-1V204.5z M369.3,204.6c0.3,0,0.6-0.1,0.8-0.1v-1c-0.1,0.1-0.4,0.2-0.6,0.2
		c-0.3,0-0.5-0.1-0.5-0.5V201h1.1v-0.9H369v-1.9l-1.1,0.8v1.1h-0.7v0.9h0.7v2.3C367.9,204.1,368.4,204.6,369.3,204.6z M372.5,204.6
		c0.8,0,1.7-0.4,1.7-1.5c0-1.6-2.2-1.2-2.2-1.9c0-0.2,0.2-0.4,0.6-0.4c0.5,0,0.7,0.3,0.9,0.6l0.8-0.5c-0.3-0.6-0.9-1-1.7-1
		c-0.8,0-1.6,0.4-1.6,1.4c0,1.6,2.2,1.1,2.2,1.8c0,0.2-0.2,0.5-0.7,0.5c-0.6,0-0.8-0.4-0.9-0.7l-0.9,0.4
		C370.9,204.1,371.6,204.6,372.5,204.6z M352.7,238.6c1.2,0,2.2-0.7,2.2-1.9c0-0.8-0.6-1.4-1.4-1.5c0.7-0.2,1.1-0.7,1.1-1.3
		c0-1-0.9-1.6-1.9-1.6c-1.1,0-1.9,0.7-1.9,1.8l0.7,0c0-0.7,0.5-1.1,1.2-1.1c0.6,0,1.1,0.4,1.1,1c0,0.7-0.5,1-1.4,1v0.6
		c0.8,0,1.8,0.1,1.8,1.1c0,0.8-0.7,1.2-1.5,1.2c-0.9,0-1.5-0.5-1.5-1.3l-0.7,0C350.5,237.9,351.5,238.6,352.7,238.6z M358,232.3v0.5
		c0,0.4-0.2,0.5-0.6,0.5h-1v0.6h1.5v4.6h0.8v-6.2H358z M365,238.6c1.4,0,2-0.9,2-2.3v-4h-3.2v0.7h2.5v3.3c0,1-0.3,1.6-1.2,1.6
		c-0.8,0-1.2-0.5-1.3-1.3l-0.8,0.1C363.1,237.8,363.8,238.6,365,238.6z M370,234.1c-0.8,0-1.3,0.3-1.8,0.9l0.6,0.4
		c0.3-0.4,0.6-0.7,1.2-0.7c0.8,0,1.1,0.4,1.1,1.3h-1.2c-1.1,0-1.8,0.3-1.8,1.3c0,0.9,0.7,1.4,1.5,1.4c0.6,0,1.2-0.3,1.5-0.9l0,0.8
		h0.6v-2.7C371.8,234.8,371.2,234.1,370,234.1z M369.8,238c-0.6,0-0.9-0.3-0.9-0.7c0-0.4,0.4-0.7,1.1-0.7h1.2v0.3
		C371,237.5,370.5,238,369.8,238z M373.2,238.5h0.7V236c0-0.8,0.4-1.2,1.1-1.2c0.7,0,1,0.5,1,1.2v2.6h0.7v-2.7
		c0-0.9-0.5-1.7-1.6-1.7c-0.5,0-1,0.2-1.3,0.7v-0.7h-0.7V238.5z M382.3,232.3v0.5c0,0.4-0.2,0.5-0.6,0.5h-1v0.6h1.5v4.6h0.8v-6.2
		H382.3z M387.4,232.3c-1.2,0-2.2,0.9-2.2,2.1c0,1,0.7,1.8,1.6,2c0.3,0.1,0.7,0.1,1,0l-1.4,2.2h0.9l1.9-3.1c0.2-0.3,0.3-0.7,0.3-1.1
		C389.6,233.2,388.6,232.3,387.4,232.3z M387.4,235.7c-0.8,0-1.4-0.6-1.4-1.4c0-0.8,0.6-1.4,1.4-1.4c0.8,0,1.4,0.6,1.4,1.4
		C388.8,235.1,388.2,235.7,387.4,235.7z M351.8,271.8c1.2-0.7,2.8-2.2,2.8-3.7c0-1.2-0.8-1.9-1.9-1.9c-1.3,0-2,1-2,2.2l0.8,0
		c0-0.8,0.4-1.5,1.3-1.5c0.7,0,1.1,0.5,1.1,1.1c0,1.6-1.9,2.9-3.3,3.8v0.7h4.4v-0.7H351.8z M357.9,272.6c1.1,0,2.1-0.6,2.1-1.8
		c0-0.7-0.4-1.3-1.1-1.6c0.5-0.3,0.7-0.7,0.7-1.3c0-1-0.8-1.6-1.8-1.6c-0.9,0-1.8,0.6-1.8,1.6c0,0.6,0.3,1,0.7,1.3
		c-0.7,0.3-1.1,0.8-1.1,1.6C355.7,272,356.8,272.6,357.9,272.6z M357.9,268.9c-0.6,0-1.1-0.4-1.1-1.1c0-0.7,0.5-1,1.1-1
		c0.6,0,1.1,0.4,1.1,1C359,268.6,358.5,268.9,357.9,268.9z M357.9,271.9c-0.7,0-1.4-0.4-1.4-1.2c0-0.8,0.6-1.2,1.4-1.2
		c0.8,0,1.4,0.5,1.4,1.2C359.3,271.5,358.6,271.9,357.9,271.9z M363.6,272.5h0.8v-2.8h3.1v-0.7h-3.1v-2h3.5v-0.7h-4.3V272.5z
		 M370.4,272.6c0.7,0,1.2-0.2,1.7-0.8l-0.5-0.5c-0.4,0.4-0.7,0.5-1.2,0.5c-0.8,0-1.3-0.5-1.3-1.4h3.2c0-0.1,0-0.2,0-0.4
		c0-0.9-0.5-2.1-2-2.1c-1.3,0-2,1.1-2,2.3C368.3,271.6,369,272.6,370.4,272.6z M369.1,270c0.1-0.8,0.5-1.3,1.2-1.3
		c0.7,0,1.1,0.5,1.2,1c0,0.1,0,0.2,0,0.3H369.1z M375.6,272.6c1.2,0,1.9-1,1.9-2.3c0-1.2-0.7-2.3-1.9-2.3c-0.6,0-1.2,0.3-1.5,0.9
		v-2.6h-0.8v6.2h0.8v-0.8C374.4,272.3,375,272.6,375.6,272.6z M375.4,271.9c-0.9,0-1.4-0.7-1.4-1.6s0.5-1.6,1.4-1.6
		c0.9,0,1.3,0.7,1.3,1.6S376.3,271.9,375.4,271.9z M382.7,266.3v0.5c0,0.4-0.2,0.5-0.6,0.5h-1v0.6h1.5v4.6h0.8v-6.2H382.7z
		 M387.8,266.3c-1.2,0-2.2,0.9-2.2,2.1c0,1,0.7,1.8,1.6,2c0.3,0.1,0.7,0.1,1,0l-1.4,2.2h0.9l1.9-3.1c0.2-0.3,0.3-0.7,0.3-1.1
		C390,267.2,389,266.3,387.8,266.3z M387.8,269.7c-0.8,0-1.4-0.6-1.4-1.4c0-0.8,0.6-1.4,1.4-1.4c0.8,0,1.4,0.6,1.4,1.4
		C389.2,269.1,388.6,269.7,387.8,269.7z M352.8,306.6c1.6,0,2.1-1.6,2.1-3.2c0-1.6-0.5-3.2-2.2-3.2c-1.8,0-2.1,1.8-2.1,3.2
		C350.6,304.8,351,306.6,352.8,306.6z M352.8,305.9c-1.2,0-1.4-1.3-1.4-2.4c0-1.1,0.2-2.4,1.4-2.4c1.1,0,1.4,1.3,1.4,2.4
		C354.1,304.6,353.9,305.9,352.8,305.9z M359.3,304.4v-4h-0.7l-3.1,4.3v0.5h3v1.5h0.8v-1.5h1v-0.7H359.3z M356.5,304.4l2-2.9v2.9
		H356.5z M363.6,306.5h0.8v-2.8h3.1v-0.7h-3.1v-2h3.5v-0.7h-4.3V306.5z M370.4,306.6c0.7,0,1.2-0.2,1.7-0.8l-0.5-0.5
		c-0.4,0.4-0.7,0.5-1.2,0.5c-0.8,0-1.3-0.5-1.3-1.4h3.2c0-0.1,0-0.2,0-0.4c0-0.9-0.5-2.1-2-2.1c-1.3,0-2,1.1-2,2.3
		C368.3,305.6,369,306.6,370.4,306.6z M369.1,304c0.1-0.8,0.5-1.3,1.2-1.3c0.7,0,1.1,0.5,1.2,1c0,0.1,0,0.2,0,0.3H369.1z
		 M375.6,306.6c1.2,0,1.9-1,1.9-2.3c0-1.2-0.7-2.3-1.9-2.3c-0.6,0-1.2,0.3-1.5,0.9v-2.6h-0.8v6.2h0.8v-0.8
		C374.4,306.3,375,306.6,375.6,306.6z M375.4,305.9c-0.9,0-1.4-0.7-1.4-1.6s0.5-1.6,1.4-1.6c0.9,0,1.3,0.7,1.3,1.6
		S376.3,305.9,375.4,305.9z M382.7,300.3v0.5c0,0.4-0.2,0.5-0.6,0.5h-1v0.6h1.5v4.6h0.8v-6.2H382.7z M387.8,300.3
		c-1.2,0-2.2,0.9-2.2,2.1c0,1,0.7,1.8,1.6,2c0.3,0.1,0.7,0.1,1,0l-1.4,2.2h0.9l1.9-3.1c0.2-0.3,0.3-0.7,0.3-1.1
		C390,301.2,389,300.3,387.8,300.3z M387.8,303.7c-0.8,0-1.4-0.6-1.4-1.4c0-0.8,0.6-1.4,1.4-1.4c0.8,0,1.4,0.6,1.4,1.4
		C389.2,303.1,388.6,303.7,387.8,303.7z M352.8,334.3v0.5c0,0.4-0.2,0.5-0.6,0.5h-1v0.6h1.5v4.6h0.8v-6.2H352.8z M355.7,334.3v0.7
		h3.5l-2.9,5.5h0.9l2.9-5.8v-0.4H355.7z M365,340.6c1.4,0,2-0.9,2-2.3v-4h-3.2v0.7h2.5v3.3c0,1-0.3,1.6-1.2,1.6
		c-0.8,0-1.2-0.5-1.3-1.3l-0.8,0.1C363.1,339.8,363.8,340.6,365,340.6z M370,336.1c-0.8,0-1.3,0.3-1.8,0.9l0.6,0.4
		c0.3-0.4,0.6-0.7,1.2-0.7c0.8,0,1.1,0.4,1.1,1.3h-1.2c-1.1,0-1.8,0.3-1.8,1.3c0,0.9,0.7,1.4,1.5,1.4c0.6,0,1.2-0.3,1.5-0.9l0,0.8
		h0.6v-2.7C371.8,336.8,371.2,336.1,370,336.1z M369.8,340c-0.6,0-0.9-0.3-0.9-0.7c0-0.4,0.4-0.7,1.1-0.7h1.2v0.3
		C371,339.5,370.5,340,369.8,340z M373.2,340.5h0.7V338c0-0.8,0.4-1.2,1.1-1.2c0.7,0,1,0.5,1,1.2v2.6h0.7v-2.7
		c0-0.9-0.5-1.7-1.6-1.7c-0.5,0-1,0.2-1.3,0.7v-0.7h-0.7V340.5z M382.3,334.3v0.5c0,0.4-0.2,0.5-0.6,0.5h-1v0.6h1.5v4.6h0.8v-6.2
		H382.3z M387.4,334.3c-1.2,0-2.2,0.9-2.2,2.1c0,1,0.7,1.8,1.6,2c0.3,0.1,0.7,0.1,1,0l-1.4,2.2h0.9l1.9-3.1c0.2-0.3,0.3-0.7,0.3-1.1
		C389.6,335.2,388.6,334.3,387.4,334.3z M387.4,337.7c-0.8,0-1.4-0.6-1.4-1.4c0-0.8,0.6-1.4,1.4-1.4c0.8,0,1.4,0.6,1.4,1.4
		C388.8,337.1,388.2,337.7,387.4,337.7z M352.8,374.6c1.6,0,2.1-1.6,2.1-3.2c0-1.6-0.5-3.2-2.2-3.2c-1.8,0-2.1,1.8-2.1,3.2
		C350.6,372.8,351,374.6,352.8,374.6z M352.8,373.9c-1.2,0-1.4-1.3-1.4-2.4c0-1.1,0.2-2.4,1.4-2.4c1.1,0,1.4,1.3,1.4,2.4
		C354.1,372.6,353.9,373.9,352.8,373.9z M356.9,373.8c1.2-0.7,2.8-2.2,2.8-3.7c0-1.2-0.8-1.9-1.9-1.9c-1.3,0-2,1-2,2.2l0.8,0
		c0-0.8,0.4-1.5,1.3-1.5c0.7,0,1.1,0.5,1.1,1.1c0,1.6-1.9,2.9-3.3,3.8v0.7h4.4v-0.7H356.9z M363.6,374.5h0.8v-2.8h3.1v-0.7h-3.1v-2
		h3.5v-0.7h-4.3V374.5z M370.4,374.6c0.7,0,1.2-0.2,1.7-0.8l-0.5-0.5c-0.4,0.4-0.7,0.5-1.2,0.5c-0.8,0-1.3-0.5-1.3-1.4h3.2
		c0-0.1,0-0.2,0-0.4c0-0.9-0.5-2.1-2-2.1c-1.3,0-2,1.1-2,2.3C368.3,373.6,369,374.6,370.4,374.6z M369.1,372
		c0.1-0.8,0.5-1.3,1.2-1.3c0.7,0,1.1,0.5,1.2,1c0,0.1,0,0.2,0,0.3H369.1z M375.6,374.6c1.2,0,1.9-1,1.9-2.3c0-1.2-0.7-2.3-1.9-2.3
		c-0.6,0-1.2,0.3-1.5,0.9v-2.6h-0.8v6.2h0.8v-0.8C374.4,374.3,375,374.6,375.6,374.6z M375.4,373.9c-0.9,0-1.4-0.7-1.4-1.6
		s0.5-1.6,1.4-1.6c0.9,0,1.3,0.7,1.3,1.6S376.3,373.9,375.4,373.9z M382.7,368.3v0.5c0,0.4-0.2,0.5-0.6,0.5h-1v0.6h1.5v4.6h0.8v-6.2
		H382.7z M387.8,368.3c-1.2,0-2.2,0.9-2.2,2.1c0,1,0.7,1.8,1.6,2c0.3,0.1,0.7,0.1,1,0l-1.4,2.2h0.9l1.9-3.1c0.2-0.3,0.3-0.7,0.3-1.1
		C390,369.2,389,368.3,387.8,368.3z M387.8,371.7c-0.8,0-1.4-0.6-1.4-1.4c0-0.8,0.6-1.4,1.4-1.4c0.8,0,1.4,0.6,1.4,1.4
		C389.2,371.1,388.6,371.7,387.8,371.7z"/>
	<path class="st26" d="M416.3,204.5h4.1v-1.1h-3v-1.5h2.8v-1h-2.8v-1.6h3v-1h-4.1V204.5z M421.6,204.5h1.1v-2.4c0-0.8,0.4-1.1,1-1.1
		c0.5,0,0.8,0.4,0.8,1v2.5h1.1v-2.6c0-0.9-0.5-1.8-1.6-1.8c-0.4,0-0.9,0.2-1.3,0.6v-0.5h-1.1V204.5z M428.2,204.6
		c0.5,0,1-0.2,1.3-0.6l0,0.5h1v-6.2h-1.1v2.3c-0.3-0.4-0.8-0.5-1.2-0.5c-1.2,0-1.9,1.1-1.9,2.3C426.3,203.6,427,204.6,428.2,204.6z
		 M428.5,203.7c-0.7,0-1.1-0.6-1.1-1.3c0-0.7,0.3-1.3,1.1-1.3c0.7,0,1.1,0.6,1.1,1.3C429.6,203.1,429.2,203.7,428.5,203.7z
		 M433.2,204.6c0.8,0,1.7-0.4,1.7-1.5c0-1.6-2.2-1.2-2.2-1.9c0-0.2,0.2-0.4,0.6-0.4c0.5,0,0.7,0.3,0.9,0.6l0.8-0.5
		c-0.3-0.6-0.9-1-1.7-1c-0.8,0-1.6,0.4-1.6,1.4c0,1.6,2.2,1.1,2.2,1.8c0,0.2-0.2,0.5-0.7,0.5c-0.6,0-0.8-0.4-0.9-0.7l-0.9,0.4
		C431.5,204.1,432.2,204.6,433.2,204.6z M418.1,232.3v0.5c0,0.4-0.2,0.5-0.6,0.5h-1v0.6h1.5v4.6h0.8v-6.2H418.1z M424.6,236.4v-4
		h-0.7l-3.1,4.3v0.5h3v1.5h0.8v-1.5h1v-0.7H424.6z M421.7,236.4l2-2.9v2.9H421.7z M428.9,238.5h0.8v-2.8h3.1v-0.7h-3.1v-2h3.5v-0.7
		h-4.3V238.5z M435.7,238.6c0.7,0,1.2-0.2,1.7-0.8l-0.5-0.5c-0.4,0.4-0.7,0.5-1.2,0.5c-0.8,0-1.3-0.5-1.3-1.4h3.2c0-0.1,0-0.2,0-0.4
		c0-0.9-0.5-2.1-2-2.1c-1.3,0-2,1.1-2,2.3C433.6,237.6,434.3,238.6,435.7,238.6z M434.4,236c0.1-0.8,0.5-1.3,1.2-1.3
		c0.7,0,1.1,0.5,1.2,1c0,0.1,0,0.2,0,0.3H434.4z M440.9,238.6c1.2,0,1.9-1,1.9-2.3c0-1.2-0.7-2.3-1.9-2.3c-0.6,0-1.2,0.3-1.5,0.9
		v-2.6h-0.8v6.2h0.8v-0.8C439.7,238.3,440.3,238.6,440.9,238.6z M440.7,237.9c-0.9,0-1.4-0.7-1.4-1.6s0.5-1.6,1.4-1.6
		s1.3,0.7,1.3,1.6S441.6,237.9,440.7,237.9z M448,232.3v0.5c0,0.4-0.2,0.5-0.6,0.5h-1v0.6h1.5v4.6h0.8v-6.2H448z M453.1,232.3
		c-1.2,0-2.2,0.9-2.2,2.1c0,1,0.7,1.8,1.6,2c0.3,0.1,0.7,0.1,1,0l-1.4,2.2h0.9l1.9-3.1c0.2-0.3,0.3-0.7,0.3-1.1
		C455.2,233.2,454.3,232.3,453.1,232.3z M453.1,235.7c-0.8,0-1.4-0.6-1.4-1.4c0-0.8,0.6-1.4,1.4-1.4c0.8,0,1.4,0.6,1.4,1.4
		C454.5,235.1,453.9,235.7,453.1,235.7z M418.1,272.6c1.6,0,2.1-1.6,2.1-3.2c0-1.6-0.5-3.2-2.2-3.2c-1.8,0-2.1,1.8-2.1,3.2
		C415.9,270.8,416.3,272.6,418.1,272.6z M418.1,271.9c-1.2,0-1.4-1.3-1.4-2.4c0-1.1,0.2-2.4,1.4-2.4c1.1,0,1.4,1.3,1.4,2.4
		C419.4,270.6,419.2,271.9,418.1,271.9z M423.1,272.6c1.2,0,2.2-0.7,2.2-1.9c0-0.8-0.6-1.4-1.4-1.5c0.7-0.2,1.1-0.7,1.1-1.3
		c0-1-0.9-1.6-1.9-1.6c-1.1,0-1.9,0.7-1.9,1.8l0.7,0c0-0.7,0.5-1.1,1.2-1.1c0.6,0,1.1,0.4,1.1,1c0,0.7-0.5,1-1.4,1v0.6
		c0.8,0,1.8,0.1,1.8,1.1c0,0.8-0.6,1.2-1.5,1.2c-0.9,0-1.5-0.5-1.5-1.3l-0.7,0C420.9,271.9,421.9,272.6,423.1,272.6z M433.8,266.3
		l-1.9,4.8l-1.9-4.8h-1.1v6.2h0.7v-5.2l1.9,4.6h0.8l1.9-4.6v5.2h0.7v-6.2H433.8z M438,268.1c-0.8,0-1.3,0.3-1.8,0.9l0.6,0.4
		c0.3-0.4,0.6-0.7,1.2-0.7c0.8,0,1.1,0.4,1.1,1.3h-1.2c-1.1,0-1.8,0.3-1.8,1.3c0,0.9,0.7,1.4,1.5,1.4c0.6,0,1.2-0.3,1.5-0.9l0,0.8
		h0.6v-2.7C439.8,268.8,439.2,268.1,438,268.1z M437.8,272c-0.6,0-0.9-0.3-0.9-0.7c0-0.4,0.4-0.7,1.1-0.7h1.2v0.3
		C439,271.5,438.5,272,437.8,272z M441.2,272.5h0.7v-2.1c0-1.2,0.6-1.6,1.2-1.6c0.2,0,0.3,0,0.5,0.1l0.3-0.6
		c-0.2-0.2-0.5-0.2-0.7-0.2c-0.5,0-1.1,0.3-1.3,0.9v-0.9h-0.7V272.5z M448.9,266.3v0.5c0,0.4-0.2,0.5-0.6,0.5h-1v0.6h1.5v4.6h0.8
		v-6.2H448.9z M453.9,266.3c-1.2,0-2.2,0.9-2.2,2.1c0,1,0.7,1.8,1.6,2c0.3,0.1,0.7,0.1,1,0l-1.4,2.2h0.9l1.9-3.1
		c0.2-0.3,0.3-0.7,0.3-1.1C456.1,267.2,455.1,266.3,453.9,266.3z M453.9,269.7c-0.8,0-1.4-0.6-1.4-1.4c0-0.8,0.6-1.4,1.4-1.4
		c0.8,0,1.4,0.6,1.4,1.4C455.3,269.1,454.7,269.7,453.9,269.7z M418.1,306.6c1.6,0,2.1-1.6,2.1-3.2c0-1.6-0.5-3.2-2.2-3.2
		c-1.8,0-2.1,1.8-2.1,3.2C415.9,304.8,416.3,306.6,418.1,306.6z M418.1,305.9c-1.2,0-1.4-1.3-1.4-2.4c0-1.1,0.2-2.4,1.4-2.4
		c1.1,0,1.4,1.3,1.4,2.4C419.4,304.6,419.2,305.9,418.1,305.9z M423.1,306.6c1.1,0,2.1-0.6,2.1-1.8c0-0.7-0.4-1.3-1.1-1.6
		c0.5-0.3,0.7-0.7,0.7-1.3c0-1-0.8-1.6-1.8-1.6c-0.9,0-1.8,0.6-1.8,1.6c0,0.6,0.3,1,0.7,1.3c-0.7,0.3-1.1,0.8-1.1,1.6
		C421,306,422.1,306.6,423.1,306.6z M423.2,302.9c-0.6,0-1.1-0.4-1.1-1.1c0-0.7,0.5-1,1.1-1c0.6,0,1.1,0.4,1.1,1
		C424.2,302.6,423.8,302.9,423.2,302.9z M423.1,305.9c-0.7,0-1.4-0.4-1.4-1.2c0-0.8,0.6-1.2,1.4-1.2c0.8,0,1.4,0.5,1.4,1.2
		C424.5,305.5,423.9,305.9,423.1,305.9z M428.9,306.5h0.8v-2.8h3.1v-0.7h-3.1v-2h3.5v-0.7h-4.3V306.5z M435.7,306.6
		c0.7,0,1.2-0.2,1.7-0.8l-0.5-0.5c-0.4,0.4-0.7,0.5-1.2,0.5c-0.8,0-1.3-0.5-1.3-1.4h3.2c0-0.1,0-0.2,0-0.4c0-0.9-0.5-2.1-2-2.1
		c-1.3,0-2,1.1-2,2.3C433.5,305.6,434.3,306.6,435.7,306.6z M434.3,304c0.1-0.8,0.5-1.3,1.2-1.3c0.7,0,1.1,0.5,1.2,1
		c0,0.1,0,0.2,0,0.3H434.3z M440.9,306.6c1.2,0,1.9-1,1.9-2.3c0-1.2-0.7-2.3-1.9-2.3c-0.6,0-1.2,0.3-1.5,0.9v-2.6h-0.8v6.2h0.8v-0.8
		C439.7,306.3,440.3,306.6,440.9,306.6z M440.7,305.9c-0.9,0-1.4-0.7-1.4-1.6s0.5-1.6,1.4-1.6s1.3,0.7,1.3,1.6
		S441.5,305.9,440.7,305.9z M448,300.3v0.5c0,0.4-0.2,0.5-0.6,0.5h-1v0.6h1.5v4.6h0.8v-6.2H448z M453.1,300.3
		c-1.2,0-2.2,0.9-2.2,2.1c0,1,0.7,1.8,1.6,2c0.3,0.1,0.7,0.1,1,0l-1.4,2.2h0.9l1.9-3.1c0.2-0.3,0.3-0.7,0.3-1.1
		C455.2,301.2,454.3,300.3,453.1,300.3z M453.1,303.7c-0.8,0-1.4-0.6-1.4-1.4c0-0.8,0.6-1.4,1.4-1.4c0.8,0,1.4,0.6,1.4,1.4
		C454.5,303.1,453.8,303.7,453.1,303.7z M418.1,334.3v0.5c0,0.4-0.2,0.5-0.6,0.5h-1v0.6h1.5v4.6h0.8v-6.2H418.1z M420.9,334.3v0.7
		h3.5l-2.9,5.5h0.9l2.9-5.8v-0.4H420.9z M430.3,340.6c1.4,0,2-0.9,2-2.3v-4H429v0.7h2.5v3.3c0,1-0.3,1.6-1.2,1.6
		c-0.8,0-1.2-0.5-1.3-1.3l-0.8,0.1C428.3,339.8,429.1,340.6,430.3,340.6z M435.3,336.1c-0.8,0-1.3,0.3-1.8,0.9l0.6,0.4
		c0.3-0.4,0.6-0.7,1.2-0.7c0.8,0,1.1,0.4,1.1,1.3h-1.2c-1.1,0-1.8,0.3-1.8,1.3c0,0.9,0.7,1.4,1.5,1.4c0.6,0,1.2-0.3,1.5-0.9l0,0.8
		h0.6v-2.7C437.1,336.8,436.5,336.1,435.3,336.1z M435.1,340c-0.6,0-0.9-0.3-0.9-0.7c0-0.4,0.4-0.7,1.1-0.7h1.2v0.3
		C436.3,339.5,435.8,340,435.1,340z M438.5,340.5h0.7V338c0-0.8,0.4-1.2,1.1-1.2c0.7,0,1,0.5,1,1.2v2.6h0.7v-2.7
		c0-0.9-0.5-1.7-1.6-1.7c-0.5,0-1,0.2-1.3,0.7v-0.7h-0.7V340.5z M447.6,334.3v0.5c0,0.4-0.2,0.5-0.6,0.5h-1v0.6h1.5v4.6h0.8v-6.2
		H447.6z M452.7,334.3c-1.2,0-2.2,0.9-2.2,2.1c0,1,0.7,1.8,1.6,2c0.3,0.1,0.7,0.1,1,0l-1.4,2.2h0.9l1.9-3.1c0.2-0.3,0.3-0.7,0.3-1.1
		C454.9,335.2,453.9,334.3,452.7,334.3z M452.7,337.7c-0.8,0-1.4-0.6-1.4-1.4c0-0.8,0.6-1.4,1.4-1.4c0.8,0,1.4,0.6,1.4,1.4
		C454.1,337.1,453.5,337.7,452.7,337.7z M418.1,374.6c1.6,0,2.1-1.6,2.1-3.2c0-1.6-0.5-3.2-2.2-3.2c-1.8,0-2.1,1.8-2.1,3.2
		C415.9,372.8,416.3,374.6,418.1,374.6z M418.1,373.9c-1.2,0-1.4-1.3-1.4-2.4c0-1.1,0.2-2.4,1.4-2.4c1.1,0,1.4,1.3,1.4,2.4
		C419.4,372.6,419.2,373.9,418.1,373.9z M424.6,372.4v-4h-0.7l-3.1,4.3v0.5h3v1.5h0.8v-1.5h1v-0.7H424.6z M421.7,372.4l2-2.9v2.9
		H421.7z M428.9,374.5h0.8v-2.8h3.1v-0.7h-3.1v-2h3.5v-0.7h-4.3V374.5z M435.7,374.6c0.7,0,1.2-0.2,1.7-0.8l-0.5-0.5
		c-0.4,0.4-0.7,0.5-1.2,0.5c-0.8,0-1.3-0.5-1.3-1.4h3.2c0-0.1,0-0.2,0-0.4c0-0.9-0.5-2.1-2-2.1c-1.3,0-2,1.1-2,2.3
		C433.6,373.6,434.3,374.6,435.7,374.6z M434.4,372c0.1-0.8,0.5-1.3,1.2-1.3c0.7,0,1.1,0.5,1.2,1c0,0.1,0,0.2,0,0.3H434.4z
		 M440.9,374.6c1.2,0,1.9-1,1.9-2.3c0-1.2-0.7-2.3-1.9-2.3c-0.6,0-1.2,0.3-1.5,0.9v-2.6h-0.8v6.2h0.8v-0.8
		C439.7,374.3,440.3,374.6,440.9,374.6z M440.7,373.9c-0.9,0-1.4-0.7-1.4-1.6s0.5-1.6,1.4-1.6s1.3,0.7,1.3,1.6
		S441.6,373.9,440.7,373.9z M448,368.3v0.5c0,0.4-0.2,0.5-0.6,0.5h-1v0.6h1.5v4.6h0.8v-6.2H448z M453.1,368.3
		c-1.2,0-2.2,0.9-2.2,2.1c0,1,0.7,1.8,1.6,2c0.3,0.1,0.7,0.1,1,0l-1.4,2.2h0.9l1.9-3.1c0.2-0.3,0.3-0.7,0.3-1.1
		C455.2,369.2,454.3,368.3,453.1,368.3z M453.1,371.7c-0.8,0-1.4-0.6-1.4-1.4c0-0.8,0.6-1.4,1.4-1.4c0.8,0,1.4,0.6,1.4,1.4
		C454.5,371.1,453.9,371.7,453.1,371.7z"/>
	<path class="st26" d="M485.4,204.6c1.2,0,2.2-0.7,2.2-1.9c0-2.1-3-1.7-3-2.8c0-0.4,0.3-0.7,0.8-0.7c0.4,0,0.8,0.2,1,0.7l0.9-0.6
		c-0.4-0.8-1.1-1.1-1.9-1.1c-1,0-1.9,0.6-1.9,1.7c0,2,3,1.6,3,2.9c0,0.4-0.4,0.8-1,0.8c-0.7,0-1.2-0.3-1.3-1.1l-1.1,0.3
		C483.2,204,484.3,204.6,485.4,204.6z M488.4,199.3h1.1v-1h-1.1V199.3z M488.4,204.5h1.1v-4.4h-1.1V204.5z M492.3,204.6
		c0.3,0,0.6-0.1,0.8-0.1v-1c-0.1,0.1-0.4,0.2-0.6,0.2c-0.3,0-0.5-0.1-0.5-0.5V201h1.1v-0.9H492v-1.9l-1.1,0.8v1.1h-0.7v0.9h0.7v2.3
		C491,204.1,491.5,204.6,492.3,204.6z M495.9,204.6c0.7,0,1.3-0.3,1.8-0.8l-0.7-0.6c-0.3,0.3-0.7,0.5-1.1,0.5c-0.7,0-1-0.4-1.1-1h3
		c0-0.1,0-0.2,0-0.4c0-1-0.5-2.2-2-2.2c-1.5,0-2.2,1.2-2.2,2.3C493.7,203.5,494.4,204.6,495.9,204.6z M494.8,201.9
		c0.1-0.5,0.4-1,1-1c0.5,0,0.8,0.2,1,0.7c0,0.1,0,0.2,0,0.3H494.8z M500.1,204.6c0.8,0,1.7-0.4,1.7-1.5c0-1.6-2.2-1.2-2.2-1.9
		c0-0.2,0.2-0.4,0.6-0.4c0.5,0,0.7,0.3,0.9,0.6l0.8-0.5c-0.3-0.6-0.9-1-1.7-1c-0.8,0-1.6,0.4-1.6,1.4c0,1.6,2.2,1.1,2.2,1.8
		c0,0.2-0.2,0.5-0.7,0.5c-0.6,0-0.8-0.4-0.9-0.7l-0.9,0.4C498.5,204.1,499.2,204.6,500.1,204.6z M485.1,238.5h0.8V233h2.1v-0.7h-5
		v0.7h2.1V238.5z M489,238.5h0.8v-2.4c0-0.8,0.4-1.4,1.2-1.4c0.7,0,1,0.5,1,1.2v2.6h0.8v-2.7c0-0.9-0.5-1.7-1.6-1.7
		c-0.5,0-1,0.2-1.3,0.7v-2.5H489V238.5z M495.7,238.6c0.7,0,1.2-0.2,1.7-0.8l-0.5-0.5c-0.4,0.4-0.7,0.5-1.2,0.5
		c-0.8,0-1.3-0.5-1.3-1.4h3.2c0-0.1,0-0.2,0-0.4c0-0.9-0.5-2.1-2-2.1c-1.3,0-2,1.1-2,2.3C493.6,237.6,494.3,238.6,495.7,238.6z
		 M494.4,236c0.1-0.8,0.5-1.3,1.2-1.3c0.7,0,1.1,0.5,1.2,1c0,0.1,0,0.2,0,0.3H494.4z M502.5,238.5h0.8V233h2.1v-0.7h-5v0.7h2.1
		V238.5z M507.3,238.6c1.3,0,2.2-1,2.2-2.3c0-1.2-0.9-2.3-2.2-2.3s-2.2,1-2.2,2.3C505.1,237.6,506,238.6,507.3,238.6z M507.3,238
		c-0.9,0-1.4-0.7-1.4-1.6c0-0.9,0.5-1.6,1.4-1.6c0.9,0,1.4,0.7,1.4,1.6C508.7,237.2,508.2,238,507.3,238z M511.1,238.5h0.7l1.1-3.4
		l1.1,3.4h0.7l1.3-4.4h-0.8l-0.9,3.3l-1.1-3.3h-0.7l-1.1,3.3l-0.9-3.3h-0.8L511.1,238.5z M518.5,238.6c0.7,0,1.2-0.2,1.7-0.8
		l-0.5-0.5c-0.4,0.4-0.7,0.5-1.2,0.5c-0.8,0-1.3-0.5-1.3-1.4h3.2c0-0.1,0-0.2,0-0.4c0-0.9-0.5-2.1-2-2.1c-1.3,0-2,1.1-2,2.3
		C516.4,237.6,517.2,238.6,518.5,238.6z M517.2,236c0.1-0.8,0.5-1.3,1.2-1.3c0.7,0,1.1,0.5,1.2,1c0,0.1,0,0.2,0,0.3H517.2z
		 M521.5,238.5h0.7v-2.1c0-1.2,0.6-1.6,1.2-1.6c0.2,0,0.3,0,0.5,0.1l0.3-0.6c-0.2-0.2-0.5-0.2-0.7-0.2c-0.5,0-1.1,0.3-1.3,0.9v-0.9
		h-0.7V238.5z M485.4,272.6c1.1,0,2.1-0.7,2.1-1.8c0-2.1-3.1-1.6-3.1-3c0-0.5,0.4-0.9,1-0.9c0.5,0,0.9,0.2,1.2,0.7l0.6-0.4
		c-0.4-0.7-1-1-1.8-1c-1,0-1.8,0.6-1.8,1.6c0,2,3.1,1.5,3.1,3c0,0.6-0.5,1-1.3,1c-0.8,0-1.4-0.4-1.5-1.2l-0.8,0.2
		C483.4,272,484.3,272.6,485.4,272.6z M488.5,267.3h0.8v-0.9h-0.8V267.3z M488.6,272.5h0.7v-4.4h-0.7V272.5z M490.8,272.5h0.7V270
		c0-0.8,0.4-1.2,1.1-1.2c0.7,0,1,0.5,1,1.2v2.6h0.7v-2.7c0-0.9-0.5-1.7-1.6-1.7c-0.5,0-1,0.2-1.3,0.7v-0.7h-0.7V272.5z M497.5,272.6
		c0.7,0,1.2-0.2,1.7-0.8l-0.5-0.5c-0.4,0.4-0.7,0.5-1.2,0.5c-0.8,0-1.3-0.5-1.3-1.4h3.2c0-0.1,0-0.2,0-0.4c0-0.9-0.5-2.1-2-2.1
		c-1.3,0-2,1.1-2,2.3C495.4,271.6,496.1,272.6,497.5,272.6z M496.2,270c0.1-0.8,0.5-1.3,1.2-1.3c0.7,0,1.1,0.5,1.2,1
		c0,0.1,0,0.2,0,0.3H496.2z M502.9,272.5h0.8v-2.8h3.1v2.8h0.8v-6.2h-0.8v2.7h-3.1v-2.7h-0.8V272.5z M514.5,273l0.5-0.5l-0.9-0.9
		c0.5-0.6,0.7-1.4,0.7-2.2c0-1.7-0.9-3.2-2.9-3.2c-2,0-2.9,1.5-2.9,3.2c0,1.7,0.9,3.2,2.9,3.2c0.7,0,1.3-0.2,1.7-0.5L514.5,273z
		 M511.9,271.9c-1.5,0-2.1-1.1-2.1-2.4c0-1.3,0.6-2.4,2.1-2.4c1.5,0,2.1,1.1,2.1,2.4c0,0.6-0.1,1.2-0.5,1.6l-1-0.9l-0.5,0.5l1,0.9
		C512.8,271.8,512.4,271.9,511.9,271.9z M485.1,306.5h0.8V301h2.1v-0.7h-5v0.7h2.1V306.5z M489,306.5h0.8v-2.4
		c0-0.8,0.4-1.4,1.2-1.4c0.7,0,1,0.5,1,1.2v2.6h0.8v-2.7c0-0.9-0.5-1.7-1.6-1.7c-0.5,0-1,0.2-1.3,0.7v-2.5H489V306.5z M495.7,306.6
		c0.7,0,1.2-0.2,1.7-0.8l-0.5-0.5c-0.4,0.4-0.7,0.5-1.2,0.5c-0.8,0-1.3-0.5-1.3-1.4h3.2c0-0.1,0-0.2,0-0.4c0-0.9-0.5-2.1-2-2.1
		c-1.3,0-2,1.1-2,2.3C493.6,305.6,494.3,306.6,495.7,306.6z M494.4,304c0.1-0.8,0.5-1.3,1.2-1.3c0.7,0,1.1,0.5,1.2,1
		c0,0.1,0,0.2,0,0.3H494.4z M502.5,306.5h0.8V301h2.1v-0.7h-5v0.7h2.1V306.5z M507.3,306.6c1.3,0,2.2-1,2.2-2.3
		c0-1.2-0.9-2.3-2.2-2.3s-2.2,1-2.2,2.3C505.1,305.6,506,306.6,507.3,306.6z M507.3,306c-0.9,0-1.4-0.7-1.4-1.6
		c0-0.9,0.5-1.6,1.4-1.6c0.9,0,1.4,0.7,1.4,1.6C508.7,305.2,508.2,306,507.3,306z M511.1,306.5h0.7l1.1-3.4l1.1,3.4h0.7l1.3-4.4
		h-0.8l-0.9,3.3l-1.1-3.3h-0.7l-1.1,3.3l-0.9-3.3h-0.8L511.1,306.5z M518.5,306.6c0.7,0,1.2-0.2,1.7-0.8l-0.5-0.5
		c-0.4,0.4-0.7,0.5-1.2,0.5c-0.8,0-1.3-0.5-1.3-1.4h3.2c0-0.1,0-0.2,0-0.4c0-0.9-0.5-2.1-2-2.1c-1.3,0-2,1.1-2,2.3
		C516.4,305.6,517.2,306.6,518.5,306.6z M517.2,304c0.1-0.8,0.5-1.3,1.2-1.3c0.7,0,1.1,0.5,1.2,1c0,0.1,0,0.2,0,0.3H517.2z
		 M521.5,306.5h0.7v-2.1c0-1.2,0.6-1.6,1.2-1.6c0.2,0,0.3,0,0.5,0.1l0.3-0.6c-0.2-0.2-0.5-0.2-0.7-0.2c-0.5,0-1.1,0.3-1.3,0.9v-0.9
		h-0.7V306.5z M485.4,340.6c1.1,0,2.1-0.7,2.1-1.8c0-2.1-3.1-1.6-3.1-3c0-0.5,0.4-0.9,1-0.9c0.5,0,0.9,0.2,1.2,0.7l0.6-0.4
		c-0.4-0.7-1-1-1.8-1c-1,0-1.8,0.6-1.8,1.6c0,2,3.1,1.5,3.1,3c0,0.6-0.5,1-1.3,1c-0.8,0-1.4-0.4-1.5-1.2l-0.8,0.2
		C483.4,340,484.3,340.6,485.4,340.6z M488.5,335.3h0.8v-0.9h-0.8V335.3z M488.6,340.5h0.7v-4.4h-0.7V340.5z M490.8,340.5h0.7V338
		c0-0.8,0.4-1.2,1.1-1.2c0.7,0,1,0.5,1,1.2v2.6h0.7v-2.7c0-0.9-0.5-1.7-1.6-1.7c-0.5,0-1,0.2-1.3,0.7v-0.7h-0.7V340.5z M497.5,340.6
		c0.7,0,1.2-0.2,1.7-0.8l-0.5-0.5c-0.4,0.4-0.7,0.5-1.2,0.5c-0.8,0-1.3-0.5-1.3-1.4h3.2c0-0.1,0-0.2,0-0.4c0-0.9-0.5-2.1-2-2.1
		c-1.3,0-2,1.1-2,2.3C495.4,339.6,496.1,340.6,497.5,340.6z M496.2,338c0.1-0.8,0.5-1.3,1.2-1.3c0.7,0,1.1,0.5,1.2,1
		c0,0.1,0,0.2,0,0.3H496.2z M502.9,340.5h0.8v-2.8h3.1v2.8h0.8v-6.2h-0.8v2.7h-3.1v-2.7h-0.8V340.5z M514.5,341l0.5-0.5l-0.9-0.9
		c0.5-0.6,0.7-1.4,0.7-2.2c0-1.7-0.9-3.2-2.9-3.2c-2,0-2.9,1.5-2.9,3.2c0,1.7,0.9,3.2,2.9,3.2c0.7,0,1.3-0.2,1.7-0.5L514.5,341z
		 M511.9,339.9c-1.5,0-2.1-1.1-2.1-2.4c0-1.3,0.6-2.4,2.1-2.4c1.5,0,2.1,1.1,2.1,2.4c0,0.6-0.1,1.2-0.5,1.6l-1-0.9l-0.5,0.5l1,0.9
		C512.8,339.8,512.4,339.9,511.9,339.9z M485.4,374.6c1.1,0,2.1-0.7,2.1-1.8c0-2.1-3.1-1.6-3.1-3c0-0.5,0.4-0.9,1-0.9
		c0.5,0,0.9,0.2,1.2,0.7l0.6-0.4c-0.4-0.7-1-1-1.8-1c-1,0-1.8,0.6-1.8,1.6c0,2,3.1,1.5,3.1,3c0,0.6-0.5,1-1.3,1
		c-0.8,0-1.4-0.4-1.5-1.2l-0.8,0.2C483.4,374,484.3,374.6,485.4,374.6z M488.5,369.3h0.8v-0.9h-0.8V369.3z M488.6,374.5h0.7v-4.4
		h-0.7V374.5z M490.8,374.5h0.7V372c0-0.8,0.4-1.2,1.1-1.2c0.7,0,1,0.5,1,1.2v2.6h0.7v-2.7c0-0.9-0.5-1.7-1.6-1.7
		c-0.5,0-1,0.2-1.3,0.7v-0.7h-0.7V374.5z M497.5,374.6c0.7,0,1.2-0.2,1.7-0.8l-0.5-0.5c-0.4,0.4-0.7,0.5-1.2,0.5
		c-0.8,0-1.3-0.5-1.3-1.4h3.2c0-0.1,0-0.2,0-0.4c0-0.9-0.5-2.1-2-2.1c-1.3,0-2,1.1-2,2.3C495.4,373.6,496.1,374.6,497.5,374.6z
		 M496.2,372c0.1-0.8,0.5-1.3,1.2-1.3c0.7,0,1.1,0.5,1.2,1c0,0.1,0,0.2,0,0.3H496.2z M502.9,374.5h0.8v-2.8h3.1v2.8h0.8v-6.2h-0.8
		v2.7h-3.1v-2.7h-0.8V374.5z M514.5,375l0.5-0.5l-0.9-0.9c0.5-0.6,0.7-1.4,0.7-2.2c0-1.7-0.9-3.2-2.9-3.2c-2,0-2.9,1.5-2.9,3.2
		c0,1.7,0.9,3.2,2.9,3.2c0.7,0,1.3-0.2,1.7-0.5L514.5,375z M511.9,373.9c-1.5,0-2.1-1.1-2.1-2.4c0-1.3,0.6-2.4,2.1-2.4
		c1.5,0,2.1,1.1,2.1,2.4c0,0.6-0.1,1.2-0.5,1.6l-1-0.9l-0.5,0.5l1,0.9C512.8,373.8,512.4,373.9,511.9,373.9z"/>
	<path class="st27" d="M106.6,217.2h434.4"/>
	<path class="st27" d="M107.1,251.1h434.4"/>
	<path class="st27" d="M107.1,285h434.4"/>
	<path class="st27" d="M107.1,319h434.4"/>
	<path class="st27" d="M107.1,352.9h434.4"/>
</g>
</svg>
