<?xml version="1.0" encoding="utf-8"?>
<!-- Generator: Adobe Illustrator 23.0.5, SVG Export Plug-In . SVG Version: 6.00 Build 0)  -->
<svg version="1.1" id="Layer_1" xmlns="http://www.w3.org/2000/svg" xmlns:xlink="http://www.w3.org/1999/xlink" x="0px" y="0px"
	 viewBox="0 0 614.3 426" style="enable-background:new 0 0 614.3 426;" xml:space="preserve">
<style type="text/css">
	.st0{fill-rule:evenodd;clip-rule:evenodd;fill:#EAECF0;}
	.st1{fill:#324869;}
	.st2{fill:#0B2242;}
	.st3{fill:none;stroke:#516685;stroke-width:6.144;stroke-linecap:round;}
	.st4{fill:#304B70;}
	.st5{fill:#516685;}
	.st6{fill:#FFFFFF;}
	.st7{fill:#535353;}
	.st8{fill:#5F5F5F;}
	.st9{fill:#0ADBB8;}
	.st10{fill-rule:evenodd;clip-rule:evenodd;fill:#FFFFFF;}
	.st11{fill-rule:evenodd;clip-rule:evenodd;fill:#0ADBB8;}
	.st12{fill:#FFFFFF;stroke:#979797;stroke-width:0.998;}
	.st13{fill:none;stroke:#DBE1EA;stroke-width:0.998;}
	.st14{fill:none;stroke:#979797;stroke-width:0.998;stroke-linecap:round;}
	.st15{fill:none;stroke:#FFFFFF;stroke-width:0.998;stroke-linecap:round;}
	.st16{fill:#FF7058;}
	.st17{fill:#ECEFF1;}
	.st18{fill:#E0E0E2;}
	.st19{fill:#5D9CEC;}
	.st20{fill:#545C66;}
	.st21{fill-rule:evenodd;clip-rule:evenodd;fill:#545C66;}
	.st22{fill:#D8DBDE;}
	.st23{fill:#ACB3BA;}
	.st24{fill:#FFD15C;}
	.st25{fill:#84DBFF;}
	.st26{fill:#F2F2F2;}
</style>
<g>
	<path class="st0" d="M10.3,0c-5.5,0-10,4.5-10,10v406c0,5.5,4.5,10,10,10h594c5.5,0,10-4.5,10-10V10c0-5.5-4.5-10-10-10H10.3z"/>
	<path class="st1" d="M4.2,10c0-5.5,4.5-10,10-10h590.3c5.5,0,10,4.5,10,10v29H4.2V10z"/>
	<path class="st2" d="M44.7,0v426.5H10c-5.5,0-10-4.5-10-10V10C0,4.5,4.5,0,10,0H44.7z"/>
	<path class="st3" d="M547.2,19.6h5.4"/>
	<path class="st3" d="M492,19.6h36.5"/>
	<circle class="st4" cx="22.3" cy="25.8" r="5.6"/>
	<circle class="st4" cx="22.3" cy="56.5" r="5.6"/>
	<circle class="st4" cx="22.3" cy="87.1" r="5.6"/>
	<circle class="st4" cx="22.3" cy="117.8" r="5.6"/>
	<circle class="st4" cx="22.3" cy="148.4" r="5.6"/>
	<circle class="st4" cx="22.3" cy="179.1" r="5.6"/>
	<circle class="st5" cx="581.7" cy="20.2" r="12"/>
</g>
<g>
	<path class="st6" d="M110.6,110.7h430.2c1.1,0,2,0.9,2,2v78.8c0,1.1-0.9,2-2,2H110.6c-1.1,0-2-0.9-2-2v-78.8
		C108.6,111.6,109.5,110.7,110.6,110.7z"/>
	<path class="st7" d="M131.6,134.7h2.4c2.8,0,4.3-1.5,4.3-4.1c0-2.7-1.5-4.2-4.3-4.2h-2.4V134.7z M133.1,133.3v-5.5h0.9
		c2,0,2.8,0.8,2.8,2.8c0,2.1-1.1,2.8-3,2.8h-0.7V133.3z M142.1,134.8c1,0,1.8-0.3,2.4-1.1l-1-0.9c-0.4,0.5-0.9,0.6-1.4,0.6
		c-0.9,0-1.3-0.5-1.5-1.3h4c0-0.1,0.1-0.3,0.1-0.6c0-1.3-0.7-2.9-2.7-2.9s-2.9,1.5-2.9,3.1C139.2,133.4,140.1,134.8,142.1,134.8z
		 M140.7,131.2c0.1-0.7,0.5-1.3,1.3-1.3c0.6,0,1.1,0.3,1.3,0.9c0,0.1,0,0.2,0,0.4L140.7,131.2L140.7,131.2z M148,134.8
		c0.4,0,0.8-0.1,1.1-0.2v-1.3c-0.2,0.1-0.5,0.2-0.8,0.2c-0.4,0-0.6-0.2-0.6-0.7V130h1.5v-1.2h-1.5v-2.5l-1.4,1v1.5h-1v1.2h0.9v3
		C146.2,134.1,146.8,134.8,148,134.8z M152.6,128.7c-1.2,0-1.9,0.5-2.5,1.3l1.1,0.8c0.3-0.4,0.7-0.8,1.4-0.8c0.9,0,1.2,0.4,1.2,1.2
		h-1.6c-1.3,0-2.3,0.4-2.3,1.7c0,1.2,0.9,1.9,2.1,1.9c0.7,0,1.4-0.3,1.8-0.9l0.1,0.8h1.2v-3.5C155.1,129.7,154.2,128.7,152.6,128.7z
		 M152.3,133.6c-0.6,0-0.9-0.3-0.9-0.7s0.3-0.7,0.9-0.7h1.5l0,0C153.7,133,153.2,133.6,152.3,133.6z M156.6,127.7h1.5v-1.3h-1.5
		V127.7z M156.6,134.7h1.4v-5.8h-1.4V134.7z M160.9,134.8c0.3,0,0.8-0.1,1.1-0.1v-1.2c-0.2,0-0.3,0-0.4,0c-0.3,0-0.5-0.1-0.5-0.4
		v-6.7h-1.4v7.1C159.7,134.6,160.3,134.8,160.9,134.8z M164.9,134.8c1.1,0,2.3-0.6,2.3-1.9c0-2.1-3-1.6-3-2.5c0-0.3,0.3-0.5,0.8-0.5
		c0.6,0,1,0.4,1.2,0.7l1.1-0.6c-0.4-0.8-1.2-1.3-2.2-1.3c-1.1,0-2.2,0.6-2.2,1.8c0,2.1,2.9,1.4,2.9,2.4c0,0.3-0.3,0.7-0.9,0.7
		c-0.8,0-1.1-0.5-1.2-1l-1.1,0.5C162.7,134.1,163.6,134.8,164.9,134.8z"/>
	<path class="st8" d="M132.7,157.7c1.4,0,2.5-0.9,2.5-2.2c0-2.5-3.8-1.9-3.8-3.6c0-0.6,0.5-1.1,1.2-1.1c0.6,0,1.1,0.3,1.4,0.9
		l0.8-0.5c-0.5-0.9-1.3-1.3-2.2-1.3c-1.2,0-2.2,0.8-2.2,2c0,2.4,3.8,1.8,3.8,3.6c0,0.7-0.6,1.3-1.5,1.3s-1.7-0.5-1.8-1.5l-0.9,0.2
		C130.2,157,131.4,157.7,132.7,157.7z M136.5,151.2h0.9v-1.1h-0.9V151.2z M136.6,157.7h0.9v-5.4h-0.9V157.7z M141,157.7
		c0.3,0,0.7-0.1,0.8-0.1v-0.8c-0.2,0.1-0.4,0.1-0.7,0.1c-0.5,0-0.8-0.3-0.8-0.9v-2.9h1.4v-0.8h-1.4v-2.1l-0.9,0.7v1.5h-0.9v0.8h0.9
		v3.1C139.4,157.2,140,157.7,141,157.7z M145.2,157.7c0.9,0,1.5-0.3,2.1-0.9l-0.6-0.6c-0.4,0.5-0.9,0.6-1.5,0.6
		c-1,0-1.5-0.6-1.6-1.7h3.9c0-0.1,0-0.3,0-0.5c0-1.1-0.6-2.5-2.4-2.5c-1.6,0-2.5,1.3-2.5,2.8C142.6,156.5,143.5,157.7,145.2,157.7z
		 M143.6,154.6c0.1-0.9,0.6-1.6,1.5-1.6s1.4,0.6,1.5,1.3c0,0.1,0,0.2,0,0.3H143.6z M151.6,151.2h0.9v-1.1h-0.9V151.2z M151.6,157.7
		h0.9v-5.4h-0.9V157.7z M154.3,157.7h0.9v-3.1c0-1,0.5-1.5,1.4-1.5c0.8,0,1.2,0.6,1.2,1.4v3.2h0.9v-3.3c0-1.1-0.6-2.1-1.9-2.1
		c-0.6,0-1.3,0.3-1.6,0.9v-0.8h-0.9V157.7L154.3,157.7z M162.3,157.7c0.8,0,1.5-0.4,1.8-1.1v1h0.8V150H164v3.2
		c-0.3-0.7-1-1.1-1.8-1.1c-1.5,0-2.3,1.3-2.3,2.8C159.9,156.5,160.8,157.7,162.3,157.7z M162.5,156.9c-1,0-1.7-0.9-1.7-1.9
		c0-1.1,0.6-1.9,1.7-1.9c1,0,1.6,0.8,1.6,1.9C164.2,156.1,163.6,156.9,162.5,156.9z M168.5,157.7c0.6,0,1.3-0.3,1.6-0.9v0.8h0.9
		v-5.4h-0.9v3.1c0,1-0.5,1.5-1.4,1.5c-0.8,0-1.2-0.6-1.2-1.4v-3.2h-0.9v3.3C166.7,156.8,167.2,157.7,168.5,157.7z M174.9,157.7
		c1,0,1.8-0.6,2.1-1.5l-0.8-0.3c-0.2,0.6-0.7,1-1.3,1c-1.1,0-1.5-0.9-1.5-1.9s0.5-2,1.5-2c0.6,0,1.1,0.4,1.3,1l0.9-0.3
		c-0.4-1-1.2-1.5-2.2-1.5c-1.7,0-2.5,1.4-2.5,2.8C172.4,156.5,173.3,157.7,174.9,157.7z M180,157.7c0.3,0,0.7-0.1,0.8-0.1v-0.8
		c-0.2,0.1-0.4,0.1-0.7,0.1c-0.5,0-0.8-0.3-0.8-0.9v-2.9h1.4v-0.8h-1.3v-2.1l-0.9,0.7v1.5h-0.9v0.8h0.9v3.1
		C178.5,157.2,179,157.7,180,157.7z M182.1,151.2h0.9v-1.1h-0.9V151.2z M182.1,157.7h0.9v-5.4h-0.9V157.7z M187,157.7
		c1.6,0,2.6-1.2,2.6-2.8c0-1.5-1.1-2.8-2.6-2.8s-2.6,1.2-2.6,2.8S185.4,157.7,187,157.7z M187,157c-1.1,0-1.7-0.9-1.7-2s0.6-2,1.7-2
		c1.1,0,1.7,0.9,1.7,2C188.7,156,188.1,157,187,157z M191,157.7h0.9v-3.1c0-1,0.5-1.5,1.4-1.5c0.8,0,1.2,0.6,1.2,1.4v3.2h0.9v-3.3
		c0-1.1-0.6-2.1-1.9-2.1c-0.6,0-1.3,0.3-1.6,0.9v-0.8H191V157.7L191,157.7z M200.2,157.7h0.9v-4.6h1.5v-0.8h-1.5v-0.7
		c0-0.6,0.3-0.8,0.7-0.8c0.2,0,0.3,0.1,0.5,0.1l0.3-0.7c-0.3-0.1-0.6-0.2-0.9-0.2c-0.9,0-1.6,0.5-1.6,1.5v0.8H199v0.8h1.1v4.6H200.2
		z M205.6,157.7c1.6,0,2.6-1.2,2.6-2.8c0-1.5-1.1-2.8-2.6-2.8c-1.6,0-2.6,1.2-2.6,2.8C202.9,156.5,204,157.7,205.6,157.7z
		 M205.6,157c-1.1,0-1.7-0.9-1.7-2s0.6-2,1.7-2s1.7,0.9,1.7,2C207.3,156,206.7,157,205.6,157z M209.6,157.7h0.9v-2.6
		c0-1.4,0.8-2,1.5-2c0.2,0,0.4,0.1,0.6,0.2l0.4-0.8c-0.2-0.2-0.6-0.3-0.9-0.3c-0.6,0-1.3,0.4-1.6,1.1v-1.1h-0.9V157.7z M218.5,152.2
		c-1,0-1.6,0.4-2.1,1.1l0.7,0.5c0.3-0.5,0.8-0.8,1.5-0.8c1,0,1.4,0.5,1.4,1.5h-1.5c-1.3,0-2.2,0.4-2.2,1.5s0.8,1.7,1.9,1.7
		c0.7,0,1.5-0.3,1.9-1l0.1,1h0.8v-3.3C220.7,153.1,219.9,152.2,218.5,152.2z M218.2,157c-0.7,0-1.1-0.3-1.1-0.9
		c0-0.5,0.4-0.9,1.3-0.9h1.5v0.3C219.7,156.3,219.1,157,218.2,157z M223.3,157.7c0.3,0,0.6,0,0.8-0.1v-0.8c-0.2,0-0.3,0-0.4,0
		c-0.4,0-0.5-0.3-0.5-0.6V150h-0.9v6.5C222.3,157.4,222.6,157.7,223.3,157.7z M226.3,157.7c0.3,0,0.6,0,0.8-0.1v-0.8
		c-0.2,0-0.3,0-0.4,0c-0.4,0-0.5-0.3-0.5-0.6V150h-0.9v6.5C225.3,157.4,225.6,157.7,226.3,157.7z M231,157.7h0.9v-3.1
		c0-1,0.5-1.5,1.4-1.5c0.8,0,1.2,0.6,1.2,1.4v3.2h0.9v-3.3c0-1.1-0.6-2.1-1.9-2.1c-0.6,0-1.3,0.3-1.6,0.9v-0.8H231V157.7L231,157.7z
		 M239.3,157.7c0.9,0,1.5-0.3,2.1-0.9l-0.6-0.6c-0.4,0.5-0.9,0.6-1.5,0.6c-1,0-1.5-0.6-1.6-1.7h3.9c0-0.1,0-0.3,0-0.5
		c0-1.1-0.6-2.5-2.4-2.5c-1.6,0-2.5,1.3-2.5,2.8C236.7,156.5,237.6,157.7,239.3,157.7z M237.7,154.6c0.1-0.9,0.6-1.6,1.5-1.6
		s1.4,0.6,1.5,1.3c0,0.1,0,0.2,0,0.3H237.7z M243.7,157.7h0.8l1.3-4.1l1.3,4.1h0.8l1.6-5.4h-1l-1.1,4l-1.3-4h-0.8l-1.3,4l-1.1-4h-1
		L243.7,157.7z M255.6,157.7c0.9,0,1.5-0.3,2.1-0.9l-0.6-0.6c-0.4,0.5-0.9,0.6-1.5,0.6c-1,0-1.5-0.6-1.6-1.7h3.9c0-0.1,0-0.3,0-0.5
		c0-1.1-0.6-2.5-2.4-2.5c-1.6,0-2.5,1.3-2.5,2.8C253.1,156.5,253.9,157.7,255.6,157.7z M254,154.6c0.1-0.9,0.6-1.6,1.5-1.6
		s1.4,0.6,1.5,1.3c0,0.1,0,0.2,0,0.3H254z M259.3,157.7h0.9v-3.1c0-0.9,0.5-1.5,1.3-1.5s1.1,0.6,1.1,1.4v3.2h0.9v-3.1
		c0-0.9,0.5-1.5,1.3-1.5s1.1,0.6,1.1,1.5v3.1h0.9v-3.2c0-1.3-0.6-2.3-1.9-2.3c-0.8,0-1.4,0.3-1.8,1.1c-0.3-0.8-0.9-1.1-1.6-1.1
		s-1.2,0.3-1.6,0.9v-0.8H259L259.3,157.7z M268.6,159.9h0.9v-3.2c0.3,0.7,1,1.1,1.8,1.1c1.5,0,2.3-1.3,2.3-2.8s-0.8-2.8-2.3-2.8
		c-0.8,0-1.4,0.4-1.8,1.1v-1h-0.9V159.9z M271.1,156.9c-1,0-1.7-0.8-1.7-1.9c0-1.1,0.6-1.9,1.7-1.9c1,0,1.6,0.8,1.6,1.9
		C272.7,156.1,272.2,156.9,271.1,156.9z M276,157.7c0.3,0,0.6,0,0.8-0.1v-0.8c-0.2,0-0.3,0-0.4,0c-0.4,0-0.5-0.3-0.5-0.6V150H275
		v6.5C275,157.4,275.3,157.7,276,157.7z M280.1,157.7c1.6,0,2.6-1.2,2.6-2.8c0-1.5-1.1-2.8-2.6-2.8c-1.6,0-2.6,1.2-2.6,2.8
		S278.6,157.7,280.1,157.7z M280.1,157c-1.1,0-1.7-0.9-1.7-2s0.6-2,1.7-2s1.7,0.9,1.7,2C281.8,156,281.2,157,280.1,157z
		 M284.4,159.9h1l3-7.7h-1l-1.6,4.2l-1.7-4.2h-1l2.2,5.3L284.4,159.9z M291.2,157.7c0.9,0,1.5-0.3,2.1-0.9l-0.6-0.6
		c-0.4,0.5-0.9,0.6-1.5,0.6c-1,0-1.5-0.6-1.6-1.7h3.9c0-0.1,0-0.3,0-0.5c0-1.1-0.6-2.5-2.4-2.5c-1.6,0-2.5,1.3-2.5,2.8
		C288.7,156.5,289.5,157.7,291.2,157.7z M289.6,154.6c0.1-0.9,0.6-1.6,1.5-1.6s1.4,0.6,1.5,1.3c0,0.1,0,0.2,0,0.3H289.6z M297,157.7
		c0.9,0,1.5-0.3,2.1-0.9l-0.6-0.6c-0.4,0.5-0.9,0.6-1.5,0.6c-1,0-1.5-0.6-1.6-1.7h3.9c0-0.1,0-0.3,0-0.5c0-1.1-0.6-2.5-2.4-2.5
		c-1.6,0-2.5,1.3-2.5,2.8C294.4,156.5,295.3,157.7,297,157.7z M295.4,154.6c0.1-0.9,0.6-1.6,1.5-1.6s1.4,0.6,1.5,1.3
		c0,0.1,0,0.2,0,0.3H295.4z M302.2,157.7c1,0,2-0.5,2-1.7c0-2-3-1.3-3-2.4c0-0.4,0.4-0.7,1-0.7s1,0.4,1.3,0.8l0.7-0.4
		c-0.4-0.7-1.1-1.1-1.9-1.1c-1,0-1.9,0.5-1.9,1.5c0,1.9,3,1.1,3,2.4c0,0.5-0.4,0.9-1.1,0.9c-0.8,0-1.2-0.5-1.4-1l-0.7,0.3
		C300.3,157.1,301.1,157.7,302.2,157.7z M310,157.7c0.3,0,0.7-0.1,0.8-0.1v-0.8c-0.2,0.1-0.4,0.1-0.7,0.1c-0.5,0-0.8-0.3-0.8-0.9
		v-2.9h1.4v-0.8h-1.3v-2.1l-0.9,0.7v1.5h-0.9v0.8h0.9v3.1C308.5,157.2,309,157.7,310,157.7z M314.3,157.7c1.6,0,2.6-1.2,2.6-2.8
		c0-1.5-1.1-2.8-2.6-2.8c-1.6,0-2.6,1.2-2.6,2.8C311.6,156.5,312.7,157.7,314.3,157.7z M314.3,157c-1.1,0-1.7-0.9-1.7-2s0.6-2,1.7-2
		s1.7,0.9,1.7,2C316,156,315.4,157,314.3,157z M132.5,169.7c1,0,1.8-0.6,2.1-1.5l-0.8-0.3c-0.2,0.6-0.7,1-1.3,1
		c-1.1,0-1.5-0.9-1.5-1.9s0.5-2,1.5-2c0.6,0,1.1,0.4,1.3,1l0.9-0.3c-0.4-1-1.2-1.5-2.2-1.5c-1.7,0-2.5,1.4-2.5,2.8
		C130,168.5,130.9,169.7,132.5,169.7z M138,169.7c1.6,0,2.6-1.2,2.6-2.8c0-1.5-1.1-2.8-2.6-2.8c-1.6,0-2.6,1.2-2.6,2.8
		C135.3,168.5,136.4,169.7,138,169.7z M138,169c-1.1,0-1.7-0.9-1.7-2s0.6-2,1.7-2c1.1,0,1.7,0.9,1.7,2C139.7,168,139.1,169,138,169z
		 M142,169.7h0.9v-3.1c0-0.9,0.5-1.5,1.3-1.5c0.8,0,1.1,0.6,1.1,1.4v3.2h0.9v-3.1c0-0.9,0.5-1.5,1.3-1.5c0.8,0,1.1,0.6,1.1,1.5v3.1
		h0.9v-3.2c0-1.3-0.6-2.3-1.9-2.3c-0.8,0-1.4,0.3-1.8,1.1c-0.3-0.8-0.9-1.1-1.6-1.1s-1.2,0.3-1.6,0.9v-0.8h-0.9L142,169.7z
		 M151.3,171.9h0.9v-3.2c0.3,0.7,1,1.1,1.8,1.1c1.5,0,2.3-1.3,2.3-2.8s-0.8-2.8-2.3-2.8c-0.8,0-1.4,0.4-1.8,1.1v-1h-0.9V171.9z
		 M153.8,168.9c-1,0-1.7-0.8-1.7-1.9c0-1.1,0.6-1.9,1.7-1.9c1,0,1.6,0.8,1.6,1.9S154.8,168.9,153.8,168.9z M158.7,169.7
		c0.3,0,0.6,0,0.8-0.1v-0.8c-0.2,0-0.3,0-0.4,0c-0.4,0-0.5-0.3-0.5-0.6V162h-0.9v6.5C157.6,169.4,158,169.7,158.7,169.7z
		 M162.8,169.7c0.9,0,1.5-0.3,2.1-0.9l-0.6-0.6c-0.4,0.5-0.9,0.6-1.5,0.6c-1,0-1.5-0.6-1.6-1.7h3.9c0-0.1,0-0.3,0-0.5
		c0-1.1-0.6-2.5-2.4-2.5c-1.6,0-2.5,1.3-2.5,2.8C160.2,168.5,161.1,169.7,162.8,169.7z M161.2,166.6c0.1-0.9,0.6-1.6,1.5-1.6
		s1.4,0.6,1.5,1.3c0,0.1,0,0.2,0,0.3H161.2z M168.1,169.7c0.3,0,0.7-0.1,0.8-0.1v-0.8c-0.2,0.1-0.4,0.1-0.7,0.1
		c-0.5,0-0.8-0.3-0.8-0.9v-2.9h1.4v-0.8h-1.4v-2.1l-0.9,0.7v1.5h-0.9v0.8h0.9v3.1C166.6,169.2,167.1,169.7,168.1,169.7z
		 M172.4,169.7c0.9,0,1.5-0.3,2.1-0.9l-0.6-0.6c-0.4,0.5-0.9,0.6-1.5,0.6c-1,0-1.5-0.6-1.6-1.7h3.9c0-0.1,0-0.3,0-0.5
		c0-1.1-0.6-2.5-2.4-2.5c-1.6,0-2.5,1.3-2.5,2.8C169.8,168.5,170.7,169.7,172.4,169.7z M170.8,166.6c0.1-0.9,0.6-1.6,1.5-1.6
		s1.4,0.6,1.5,1.3c0,0.1,0,0.2,0,0.3H170.8z M180.6,164.2c-1,0-1.6,0.4-2.1,1.1l0.7,0.5c0.3-0.5,0.8-0.8,1.5-0.8
		c1,0,1.4,0.5,1.4,1.5h-1.5c-1.3,0-2.2,0.4-2.2,1.5s0.8,1.7,1.9,1.7c0.7,0,1.5-0.3,1.9-1l0.1,1h0.8v-3.3
		C182.8,165.1,182,164.2,180.6,164.2z M180.3,169c-0.7,0-1.1-0.3-1.1-0.9c0-0.5,0.4-0.9,1.3-0.9h1.5v0.3
		C181.8,168.3,181.2,169,180.3,169z M186.1,169.7c0.3,0,0.7-0.1,0.8-0.1v-0.8c-0.2,0.1-0.4,0.1-0.7,0.1c-0.5,0-0.8-0.3-0.8-0.9v-2.9
		h1.4v-0.8h-1.4v-2.1l-0.9,0.7v1.5h-0.9v0.8h0.9v3.1C184.6,169.2,185.2,169.7,186.1,169.7z M192.8,169.7c0.3,0,0.7-0.1,0.8-0.1v-0.8
		c-0.2,0.1-0.4,0.1-0.7,0.1c-0.5,0-0.8-0.3-0.8-0.9v-2.9h1.4v-0.8h-1.4v-2.1l-0.9,0.7v1.5h-0.9v0.8h0.9v3.1
		C191.2,169.2,191.8,169.7,192.8,169.7z M194.7,169.7h0.9v-2.9c0-1,0.5-1.7,1.4-1.7s1.2,0.6,1.2,1.5v3.2h0.9v-3.3
		c0-1.1-0.6-2.1-1.9-2.1c-0.6,0-1.3,0.3-1.6,0.9v-3h-0.9L194.7,169.7L194.7,169.7z M203,169.7c0.9,0,1.5-0.3,2.1-0.9l-0.6-0.6
		c-0.4,0.5-0.9,0.6-1.5,0.6c-1,0-1.5-0.6-1.6-1.7h3.9c0-0.1,0-0.3,0-0.5c0-1.1-0.6-2.5-2.4-2.5c-1.6,0-2.5,1.3-2.5,2.8
		C200.4,168.5,201.3,169.7,203,169.7z M201.4,166.6c0.1-0.9,0.6-1.6,1.5-1.6s1.4,0.6,1.5,1.3c0,0.1,0,0.2,0,0.3H201.4z M211.4,169.7
		c1,0,1.8-0.6,2.1-1.5l-0.8-0.3c-0.2,0.6-0.7,1-1.3,1c-1.1,0-1.5-0.9-1.5-1.9s0.5-2,1.5-2c0.6,0,1.1,0.4,1.3,1l0.9-0.3
		c-0.4-1-1.2-1.5-2.2-1.5c-1.7,0-2.5,1.4-2.5,2.8C208.9,168.5,209.8,169.7,211.4,169.7z M216.9,169.7c1.6,0,2.6-1.2,2.6-2.8
		c0-1.5-1.1-2.8-2.6-2.8c-1.6,0-2.6,1.2-2.6,2.8C214.2,168.5,215.3,169.7,216.9,169.7z M216.9,169c-1.1,0-1.7-0.9-1.7-2s0.6-2,1.7-2
		c1.1,0,1.7,0.9,1.7,2C218.6,168,218,169,216.9,169z M220.9,169.7h0.9v-3.1c0-0.9,0.5-1.5,1.3-1.5c0.8,0,1.1,0.6,1.1,1.4v3.2h0.9
		v-3.1c0-0.9,0.5-1.5,1.3-1.5c0.8,0,1.1,0.6,1.1,1.5v3.1h0.9v-3.2c0-1.3-0.6-2.3-1.9-2.3c-0.8,0-1.4,0.3-1.8,1.1
		c-0.3-0.8-0.9-1.1-1.6-1.1s-1.2,0.3-1.6,0.9v-0.8h-0.9L220.9,169.7z M230.2,171.9h0.9v-3.2c0.3,0.7,1,1.1,1.8,1.1
		c1.5,0,2.3-1.3,2.3-2.8s-0.8-2.8-2.3-2.8c-0.8,0-1.4,0.4-1.8,1.1v-1h-0.9V171.9z M232.7,168.9c-1,0-1.7-0.8-1.7-1.9
		c0-1.1,0.6-1.9,1.7-1.9c1,0,1.6,0.8,1.6,1.9C234.3,168.1,233.8,168.9,232.7,168.9z M238.5,164.2c-1,0-1.6,0.4-2.1,1.1l0.7,0.5
		c0.3-0.5,0.8-0.8,1.5-0.8c1,0,1.4,0.5,1.4,1.5h-1.5c-1.3,0-2.2,0.4-2.2,1.5s0.8,1.7,1.9,1.7c0.7,0,1.5-0.3,1.9-1l0.1,1h0.8v-3.3
		C240.6,165.1,239.9,164.2,238.5,164.2z M238.2,169c-0.7,0-1.1-0.3-1.1-0.9c0-0.5,0.4-0.9,1.3-0.9h1.5v0.3
		C239.6,168.3,239.1,169,238.2,169z M242.3,169.7h0.9v-3.1c0-1,0.5-1.5,1.4-1.5c0.8,0,1.2,0.6,1.2,1.4v3.2h0.9v-3.3
		c0-1.1-0.6-2.1-1.9-2.1c-0.6,0-1.3,0.3-1.6,0.9v-0.8h-0.9V169.7L242.3,169.7z M248.8,171.9h1l3-7.7h-1l-1.6,4.2l-1.7-4.2h-1
		l2.2,5.3L248.8,171.9z"/>
	<path class="st8" d="M350.7,160.6h0.9l1.8-5.7l1.9,5.7h0.9l2.2-7.6h-1l-1.8,6.2l-1.9-5.8h-0.8l-1.9,5.8l-1.8-6.2h-1L350.7,160.6z
		 M361.4,160.7c1.6,0,2.6-1.2,2.6-2.8c0-1.5-1.1-2.8-2.6-2.8c-1.6,0-2.6,1.2-2.6,2.8S359.8,160.7,361.4,160.7z M361.4,159.9
		c-1.1,0-1.7-0.9-1.7-2s0.6-2,1.7-2s1.7,0.9,1.7,2C363.1,159,362.5,159.9,361.4,159.9z M365.4,160.6h0.9V158c0-1.4,0.8-2,1.5-2
		c0.2,0,0.4,0.1,0.6,0.2l0.4-0.8c-0.2-0.2-0.6-0.3-0.9-0.3c-0.6,0-1.3,0.4-1.6,1.1v-1h-0.9V160.6z M369.7,160.6h0.9V159l1.1-1.2
		l1.8,2.8h1.1l-2.2-3.3l2-2h-1.2l-2.5,2.7v-4.9h-0.9L369.7,160.6L369.7,160.6z M376,160.6h0.9V156h1.5v-0.8h-1.5v-0.7
		c0-0.6,0.3-0.8,0.7-0.8c0.2,0,0.3,0.1,0.5,0.1l0.3-0.7c-0.3-0.1-0.6-0.2-0.9-0.2c-0.9,0-1.6,0.5-1.6,1.5v0.8h-1.1v0.8h1.1v4.6H376z
		 M380.4,160.7c0.3,0,0.6,0,0.8-0.1v-0.8c-0.2,0-0.3,0-0.4,0c-0.4,0-0.5-0.3-0.5-0.6V153h-0.9v6.5
		C379.3,160.4,379.7,160.7,380.4,160.7z M384.5,160.7c1.6,0,2.6-1.2,2.6-2.8c0-1.5-1.1-2.8-2.6-2.8c-1.6,0-2.6,1.2-2.6,2.8
		S382.9,160.7,384.5,160.7z M384.5,159.9c-1.1,0-1.7-0.9-1.7-2s0.6-2,1.7-2s1.7,0.9,1.7,2C386.2,159,385.6,159.9,384.5,159.9z
		 M389.3,160.6h0.8l1.3-4.1l1.3,4.1h0.8l1.6-5.4h-1l-1.1,4l-1.3-4h-0.8l-1.3,4l-1.1-4h-1L389.3,160.6z M401.2,160.7
		c0.9,0,1.5-0.3,2.1-0.9l-0.6-0.6c-0.4,0.5-0.9,0.6-1.5,0.6c-1,0-1.5-0.6-1.6-1.7h3.9c0-0.1,0-0.3,0-0.5c0-1.1-0.6-2.5-2.4-2.5
		c-1.6,0-2.5,1.3-2.5,2.8C398.6,159.5,399.5,160.7,401.2,160.7z M399.6,157.6c0.1-0.9,0.6-1.6,1.5-1.6s1.4,0.6,1.5,1.3
		c0,0.1,0,0.2,0,0.3H399.6z M404.8,160.6h0.9v-3.1c0-1,0.5-1.5,1.4-1.5c0.8,0,1.2,0.6,1.2,1.4v3.2h0.9v-3.3c0-1.1-0.6-2.1-1.9-2.1
		c-0.6,0-1.3,0.3-1.6,0.9v-0.8h-0.9V160.6z M412.8,155.2c-1,0-1.6,0.4-2.1,1.1l0.7,0.5c0.3-0.5,0.8-0.8,1.5-0.8c1,0,1.4,0.5,1.4,1.5
		h-1.5c-1.3,0-2.2,0.4-2.2,1.5s0.8,1.7,1.9,1.7c0.7,0,1.5-0.3,1.9-1l0.1,1h0.8v-3.3C415,156.1,414.2,155.2,412.8,155.2z M412.5,160
		c-0.7,0-1.1-0.3-1.1-0.9c0-0.5,0.4-0.9,1.3-0.9h1.5v0.3C413.9,159.3,413.4,160,412.5,160z M419.3,160.7c1.5,0,2.3-1.3,2.3-2.8
		s-0.8-2.8-2.3-2.8c-0.8,0-1.4,0.4-1.8,1.1V153h-0.9v7.6h0.9v-1C417.9,160.4,418.6,160.7,419.3,160.7z M419.1,159.9
		c-1,0-1.7-0.8-1.7-1.9c0-1.1,0.6-1.9,1.7-1.9c1,0,1.6,0.9,1.6,1.9C420.7,159.1,420.2,159.9,419.1,159.9z M424,160.7
		c0.3,0,0.6,0,0.8-0.1v-0.8c-0.2,0-0.3,0-0.4,0c-0.4,0-0.5-0.3-0.5-0.6V153H423v6.5C423,160.4,423.3,160.7,424,160.7z M428.1,160.7
		c0.9,0,1.5-0.3,2.1-0.9l-0.6-0.6c-0.4,0.5-0.9,0.6-1.5,0.6c-1,0-1.5-0.6-1.6-1.7h3.9c0-0.1,0-0.3,0-0.5c0-1.1-0.6-2.5-2.4-2.5
		c-1.6,0-2.5,1.3-2.5,2.8C425.5,159.5,426.4,160.7,428.1,160.7z M426.5,157.6c0.1-0.9,0.6-1.6,1.5-1.6s1.4,0.6,1.5,1.3
		c0,0.1,0,0.2,0,0.3H426.5z M433.6,160.7c0.8,0,1.5-0.4,1.8-1.1v1h0.8V153h-0.8v3.2c-0.3-0.7-1-1.1-1.8-1.1c-1.5,0-2.3,1.3-2.3,2.8
		C431.3,159.5,432.2,160.7,433.6,160.7z M433.9,159.9c-1.1,0-1.7-0.9-1.7-1.9c0-1.1,0.6-1.9,1.7-1.9c1,0,1.6,0.8,1.6,1.9
		S434.9,159.9,433.9,159.9z"/>
	<path class="st9" d="M512.1,149.6h-16.8c-4.1,0-7.5,3.4-7.5,7.5l0,0c0,4.1,3.4,7.5,7.5,7.5h16.8c4.1,0,7.5-3.4,7.5-7.5l0,0
		C519.6,153,516.2,149.6,512.1,149.6z"/>
	<path class="st10" d="M511.3,163.4c-3.6,0-6.5-2.8-6.5-6.2s2.9-6.2,6.5-6.2c3.6,0,6.5,2.8,6.5,6.2S514.9,163.4,511.3,163.4z"/>
	<path class="st6" d="M110.6,204.5h430.2c1.1,0,2,0.9,2,2v78.8c0,1.1-0.9,2-2,2H110.6c-1.1,0-2-0.9-2-2v-78.8
		C108.6,205.4,109.5,204.5,110.6,204.5z"/>
	<path class="st11" d="M501.5,261.7c4.2,0,7.6-3.4,7.6-7.6s-3.4-7.6-7.6-7.6s-7.6,3.4-7.6,7.6C493.8,258.3,497.2,261.7,501.5,261.7z
		"/>
	<path class="st8" d="M348.4,254.5h1l0.6-1.8h3.2l0.6,1.8h1l-2.9-7.6h-0.8L348.4,254.5z M350.3,251.9l1.3-3.6l1.3,3.6H350.3z
		 M357.7,254.6c1,0,2-0.5,2-1.7c0-2-3-1.3-3-2.4c0-0.4,0.4-0.7,1-0.7s1,0.4,1.3,0.8l0.7-0.4c-0.4-0.7-1.1-1.1-1.9-1.1
		c-1,0-1.9,0.5-1.9,1.5c0,1.9,3,1.1,3,2.4c0,0.5-0.4,0.9-1.1,0.9c-0.8,0-1.2-0.5-1.4-1l-0.7,0.3
		C355.7,253.9,356.6,254.6,357.7,254.6z M361,254.5h0.9v-1.6l1.1-1.2l1.8,2.8h1.1l-2.2-3.3l2-2h-1.3l-2.5,2.7V247H361V254.5z
		 M369.7,254.5h0.9v-2.6c0-1.4,0.8-2,1.5-2c0.2,0,0.4,0.1,0.6,0.2l0.4-0.8c-0.2-0.2-0.6-0.3-0.9-0.3c-0.6,0-1.3,0.4-1.6,1.1V249
		h-0.9V254.5z M375.7,254.6c0.9,0,1.5-0.3,2.1-0.9l-0.6-0.6c-0.4,0.5-0.9,0.6-1.5,0.6c-1,0-1.5-0.6-1.6-1.7h3.9c0-0.1,0-0.3,0-0.5
		c0-1.1-0.6-2.5-2.4-2.5c-1.6,0-2.5,1.3-2.5,2.8C373.2,253.3,374,254.6,375.7,254.6z M374.1,251.4c0.1-0.9,0.6-1.6,1.5-1.6
		s1.4,0.6,1.5,1.3c0,0.1,0,0.2,0,0.3H374.1z M381,254.6c1,0,2-0.5,2-1.7c0-2-3-1.3-3-2.4c0-0.4,0.4-0.7,1-0.7s1,0.4,1.3,0.8l0.7-0.4
		c-0.4-0.7-1.1-1.1-1.9-1.1c-1,0-1.9,0.5-1.9,1.5c0,1.9,3,1.1,3,2.4c0,0.5-0.4,0.9-1.1,0.9c-0.8,0-1.2-0.5-1.4-1l-0.7,0.3
		C379,253.9,379.9,254.6,381,254.6z M384.3,256.7h0.9v-3.2c0.3,0.7,1,1.1,1.8,1.1c1.5,0,2.3-1.3,2.3-2.8s-0.8-2.8-2.3-2.8
		c-0.8,0-1.4,0.4-1.8,1.1v-1h-0.9V256.7z M386.8,253.7c-1,0-1.7-0.8-1.7-1.9c0-1.1,0.6-1.9,1.7-1.9c1,0,1.6,0.8,1.6,1.9
		C388.4,252.9,387.9,253.7,386.8,253.7z M392.9,254.6c1.6,0,2.6-1.2,2.6-2.8c0-1.5-1.1-2.8-2.6-2.8c-1.6,0-2.6,1.2-2.6,2.8
		C390.2,253.3,391.3,254.6,392.9,254.6z M392.9,253.8c-1.1,0-1.7-0.9-1.7-2s0.6-2,1.7-2s1.7,0.9,1.7,2S394,253.8,392.9,253.8z
		 M396.8,254.5h0.9v-3.1c0-1,0.5-1.5,1.4-1.5c0.8,0,1.2,0.6,1.2,1.4v3.2h0.9v-3.3c0-1.1-0.6-2.1-1.9-2.1c-0.6,0-1.3,0.3-1.6,0.9
		v-0.8h-0.9V254.5z M404.9,254.6c0.8,0,1.5-0.4,1.8-1.1v1h0.8v-7.6h-0.9v3.2c-0.3-0.7-1-1.1-1.8-1.1c-1.5,0-2.3,1.3-2.3,2.8
		C402.5,253.3,403.4,254.6,404.9,254.6z M405.1,253.7c-1.1,0-1.7-0.9-1.7-1.9c0-1.1,0.6-1.9,1.7-1.9c1,0,1.6,0.8,1.6,1.9
		C406.7,252.9,406.1,253.7,405.1,253.7z M411.2,249c-1,0-1.6,0.4-2.1,1.1l0.7,0.5c0.3-0.5,0.8-0.8,1.5-0.8c1,0,1.4,0.5,1.4,1.5h-1.5
		c-1.3,0-2.2,0.4-2.2,1.5s0.8,1.7,1.9,1.7c0.7,0,1.5-0.3,1.9-1l0.1,1h0.8v-3.3C413.4,249.9,412.6,249,411.2,249z M410.9,253.8
		c-0.7,0-1.1-0.3-1.1-0.9c0-0.5,0.4-0.9,1.3-0.9h1.5v0.3C412.4,253.2,411.8,253.8,410.9,253.8z M415,254.5h0.9v-3.1
		c0-1,0.5-1.5,1.4-1.5c0.8,0,1.2,0.6,1.2,1.4v3.2h0.9v-3.3c0-1.1-0.6-2.1-1.9-2.1c-0.6,0-1.3,0.3-1.6,0.9v-0.8H415V254.5z
		 M422.9,254.6c0.3,0,0.7-0.1,0.8-0.1v-0.8c-0.2,0.1-0.4,0.2-0.7,0.2c-0.5,0-0.8-0.3-0.8-0.9v-2.9h1.4v-0.8h-1.4v-2.1l-0.9,0.7v1.5
		h-0.9v0.8h0.9v3.1C421.3,254,421.9,254.6,422.9,254.6z M429.5,254.6c0.3,0,0.7-0.1,0.8-0.1v-0.8c-0.2,0.1-0.4,0.2-0.7,0.2
		c-0.5,0-0.8-0.3-0.8-0.9v-2.9h1.4v-0.8h-1.4v-2.1l-0.9,0.7v1.5H427v0.8h0.9v3.1C427.9,254,428.5,254.6,429.5,254.6z M433.7,254.6
		c1.6,0,2.6-1.2,2.6-2.8c0-1.5-1.1-2.8-2.6-2.8c-1.6,0-2.6,1.2-2.6,2.8C431.1,253.3,432.2,254.6,433.7,254.6z M433.7,253.8
		c-1.1,0-1.7-0.9-1.7-2s0.6-2,1.7-2s1.7,0.9,1.7,2S434.8,253.8,433.7,253.8z M351,266.6c1,0,1.8-0.6,2.1-1.5l-0.8-0.3
		c-0.2,0.6-0.7,1-1.3,1c-1.1,0-1.5-0.9-1.5-1.9s0.5-2,1.5-2c0.6,0,1.1,0.4,1.3,1l0.9-0.3c-0.4-1-1.2-1.5-2.2-1.5
		c-1.7,0-2.5,1.4-2.5,2.8C348.6,265.3,349.4,266.6,351,266.6z M354.4,266.5h0.9v-2.9c0-1,0.5-1.7,1.4-1.7s1.2,0.6,1.2,1.5v3.2h0.9
		v-3.3c0-1.1-0.6-2.1-1.9-2.1c-0.6,0-1.3,0.3-1.6,0.9v-3h-0.9V266.5z M362.7,266.6c1.6,0,2.6-1.2,2.6-2.8c0-1.5-1.1-2.8-2.6-2.8
		c-1.6,0-2.6,1.2-2.6,2.8C360.1,265.3,361.1,266.6,362.7,266.6z M362.7,265.8c-1.1,0-1.7-0.9-1.7-2s0.6-2,1.7-2s1.7,0.9,1.7,2
		S363.8,265.8,362.7,265.8z M368.8,266.6c1.6,0,2.6-1.2,2.6-2.8c0-1.5-1.1-2.8-2.6-2.8c-1.6,0-2.6,1.2-2.6,2.8
		C366.2,265.3,367.3,266.6,368.8,266.6z M368.8,265.8c-1.1,0-1.7-0.9-1.7-2s0.6-2,1.7-2s1.7,0.9,1.7,2S369.9,265.8,368.8,265.8z
		 M374.4,266.6c1,0,2-0.5,2-1.7c0-2-3-1.3-3-2.5c0-0.4,0.4-0.7,1-0.7s1,0.4,1.3,0.8l0.7-0.4c-0.4-0.7-1.1-1.1-1.9-1.1
		c-1,0-1.9,0.5-1.9,1.5c0,1.9,3,1.1,3,2.4c0,0.5-0.4,0.9-1.1,0.9c-0.8,0-1.2-0.5-1.4-1l-0.7,0.3
		C372.5,265.9,373.3,266.6,374.4,266.6z M379.9,266.6c0.9,0,1.5-0.3,2.1-0.9l-0.6-0.6c-0.4,0.5-0.9,0.6-1.5,0.6
		c-1,0-1.5-0.6-1.6-1.7h3.9c0-0.1,0-0.3,0-0.5c0-1.1-0.6-2.5-2.4-2.5c-1.6,0-2.5,1.3-2.5,2.8C377.3,265.3,378.2,266.6,379.9,266.6z
		 M378.2,263.4c0.1-0.9,0.6-1.6,1.5-1.6s1.4,0.6,1.5,1.3c0,0.1,0,0.2,0,0.3L378.2,263.4L378.2,263.4z M387.8,266.6c1,0,2-0.5,2-1.7
		c0-2-3-1.3-3-2.5c0-0.4,0.4-0.7,1-0.7s1,0.4,1.3,0.8l0.7-0.4c-0.4-0.7-1.1-1.1-1.9-1.1c-1,0-1.9,0.5-1.9,1.5c0,1.9,3,1.1,3,2.4
		c0,0.5-0.4,0.9-1.1,0.9c-0.8,0-1.2-0.5-1.4-1l-0.7,0.3C385.9,265.9,386.8,266.6,387.8,266.6z M391.2,260h0.9v-1.1h-0.9V260z
		 M391.2,266.5h0.9v-5.4h-0.9V266.5z M395.6,266.6c0.3,0,0.7-0.1,0.8-0.1v-0.8c-0.2,0.1-0.4,0.2-0.7,0.2c-0.5,0-0.8-0.3-0.8-0.9
		v-2.9h1.4v-0.8h-1.4v-2.1l-0.9,0.7v1.5h-0.9v0.8h0.9v3.1C394.1,266,394.6,266.6,395.6,266.6z M399.8,266.6c0.9,0,1.5-0.3,2.1-0.9
		l-0.6-0.6c-0.4,0.5-0.9,0.6-1.5,0.6c-1,0-1.5-0.6-1.6-1.7h3.9c0-0.1,0-0.3,0-0.5c0-1.1-0.6-2.5-2.4-2.5c-1.6,0-2.5,1.3-2.5,2.8
		C397.3,265.3,398.1,266.6,399.8,266.6z M398.2,263.4c0.1-0.9,0.6-1.6,1.5-1.6s1.4,0.6,1.5,1.3c0,0.1,0,0.2,0,0.3L398.2,263.4
		L398.2,263.4z"/>
	<path class="st7" d="M134,233.6c1.6,0,2.9-0.9,2.9-2.5c0-2.7-4-2.2-4-3.8c0-0.5,0.5-0.9,1-0.9c0.6,0,1,0.3,1.3,0.9l1.2-0.8
		c-0.6-1-1.5-1.5-2.5-1.5c-1.4,0-2.6,0.8-2.6,2.3c0,2.7,4,2.1,4,3.8c0,0.6-0.5,1.1-1.4,1.1s-1.6-0.5-1.7-1.5l-1.5,0.4
		C131.1,232.8,132.5,233.6,134,233.6z M138,226.6h1.5v-1.3H138V226.6z M138,233.5h1.4v-5.8H138V233.5z M143.2,233.6
		c0.4,0,0.8-0.1,1.1-0.2v-1.3c-0.2,0.1-0.5,0.2-0.8,0.2c-0.4,0-0.6-0.2-0.6-0.7v-2.8h1.5v-1.2h-1.5v-2.5l-1.4,1v1.4h-1v1.2h0.9v3
		C141.4,233,142.1,233.6,143.2,233.6z M148,233.6c1,0,1.8-0.3,2.4-1.1l-1-0.9c-0.4,0.5-0.9,0.6-1.4,0.6c-0.9,0-1.3-0.5-1.5-1.3h4
		c0-0.1,0.1-0.3,0.1-0.6c0-1.3-0.7-2.9-2.7-2.9s-2.9,1.5-2.9,3.1C145,232.2,146,233.6,148,233.6z M146.5,230
		c0.1-0.7,0.5-1.3,1.3-1.3c0.6,0,1.1,0.3,1.3,0.9c0,0.1,0,0.2,0,0.4L146.5,230L146.5,230z M153.6,233.6c1.1,0,2.3-0.6,2.3-1.9
		c0-2.1-3-1.6-3-2.5c0-0.3,0.3-0.5,0.8-0.5c0.6,0,1,0.4,1.2,0.7l1.1-0.6c-0.4-0.8-1.2-1.3-2.2-1.3c-1.1,0-2.2,0.6-2.2,1.8
		c0,2.1,2.9,1.4,2.9,2.4c0,0.3-0.3,0.7-0.9,0.7c-0.8,0-1.1-0.5-1.2-1l-1.1,0.5C151.4,232.9,152.3,233.6,153.6,233.6z"/>
	<path class="st8" d="M130.7,256.5h2.1c2.5,0,3.9-1.4,3.9-3.7c0-2.5-1.4-3.8-3.9-3.8h-2.1V256.5z M131.6,255.6v-5.8h1.1
		c2,0,3,0.9,3,2.9s-1.1,2.9-3,2.9L131.6,255.6L131.6,255.6z M140.3,256.5c1.6,0,2.6-1.2,2.6-2.8c0-1.5-1.1-2.8-2.6-2.8
		c-1.6,0-2.6,1.2-2.6,2.8C137.7,255.3,138.8,256.5,140.3,256.5z M140.3,255.8c-1.1,0-1.7-0.9-1.7-2s0.6-2,1.7-2c1.1,0,1.7,0.9,1.7,2
		C142,254.8,141.4,255.8,140.3,255.8z M144.3,256.5h0.9v-3.1c0-1,0.5-1.5,1.4-1.5c0.8,0,1.2,0.6,1.2,1.4v3.2h0.9v-3.3
		c0-1.1-0.6-2.1-1.9-2.1c-0.6,0-1.3,0.3-1.6,0.9v-0.8h-0.9V256.5L144.3,256.5z M149.6,252h0.6l1.4-3.1h-1L149.6,252z M154.7,256.5
		c0.3,0,0.7-0.1,0.8-0.1v-0.8c-0.2,0.1-0.4,0.1-0.7,0.1c-0.5,0-0.8-0.3-0.8-0.9v-2.9h1.4v-0.8H154V249l-0.9,0.7v1.5h-0.9v0.8h0.9
		v3.1C153.2,256,153.8,256.5,154.7,256.5z M159.6,250h0.9v-1.1h-0.9V250z M159.6,256.5h0.9v-5.4h-0.9V256.5z M162.3,256.5h0.9v-3.1
		c0-1,0.5-1.5,1.4-1.5c0.8,0,1.2,0.6,1.2,1.4v3.2h0.9v-3.3c0-1.1-0.6-2.1-1.9-2.1c-0.6,0-1.3,0.3-1.6,0.9v-0.8h-0.9V256.5
		L162.3,256.5z M170.5,256.5c1,0,1.8-0.6,2.1-1.5l-0.8-0.3c-0.2,0.6-0.7,1-1.3,1c-1.1,0-1.5-0.9-1.5-1.9s0.5-2,1.5-2
		c0.6,0,1.1,0.4,1.3,1l0.9-0.3c-0.4-1-1.2-1.5-2.2-1.5c-1.7,0-2.5,1.4-2.5,2.8C168,255.3,168.8,256.5,170.5,256.5z M174.9,256.5
		c0.3,0,0.6,0,0.8-0.1v-0.8c-0.2,0-0.3,0-0.4,0c-0.4,0-0.5-0.3-0.5-0.6v-6.2h-0.9v6.5C173.8,256.2,174.2,256.5,174.9,256.5z
		 M178.6,256.5c0.6,0,1.3-0.3,1.6-0.9v0.8h0.9V251h-0.9v3.1c0,1-0.5,1.5-1.4,1.5c-0.8,0-1.2-0.6-1.2-1.4V251h-0.9v3.3
		C176.7,255.6,177.3,256.5,178.6,256.5z M184.8,256.5c0.8,0,1.5-0.4,1.8-1.1v1h0.8v-7.6h-0.9v3.2c-0.3-0.7-1-1.1-1.8-1.1
		c-1.5,0-2.3,1.3-2.3,2.8C182.4,255.3,183.3,256.5,184.8,256.5z M185,255.7c-1.1,0-1.7-0.9-1.7-1.9c0-1.1,0.6-1.9,1.7-1.9
		c1,0,1.6,0.8,1.6,1.9C186.7,254.9,186.1,255.7,185,255.7z M191.4,256.5c0.9,0,1.5-0.3,2.1-0.9l-0.6-0.6c-0.4,0.5-0.9,0.6-1.5,0.6
		c-1,0-1.5-0.6-1.6-1.7h3.9c0-0.1,0-0.3,0-0.5c0-1.1-0.6-2.5-2.4-2.5c-1.6,0-2.5,1.3-2.5,2.8C188.9,255.3,189.7,256.5,191.4,256.5z
		 M189.8,253.4c0.1-0.9,0.6-1.6,1.5-1.6s1.4,0.6,1.5,1.3c0,0.1,0,0.2,0,0.3H189.8z M199.4,256.5c1,0,2-0.5,2-1.7c0-2-3-1.3-3-2.4
		c0-0.4,0.4-0.7,1-0.7s1,0.4,1.3,0.8l0.7-0.4c-0.4-0.7-1.1-1.1-1.9-1.1c-1,0-1.9,0.5-1.9,1.5c0,1.9,3,1.1,3,2.4
		c0,0.5-0.4,0.9-1.1,0.9c-0.8,0-1.2-0.5-1.4-1l-0.7,0.3C197.5,255.9,198.3,256.5,199.4,256.5z M202.7,250h0.9v-1.1h-0.9V250z
		 M202.8,256.5h0.9v-5.4h-0.9V256.5z M207.2,256.5c0.3,0,0.7-0.1,0.8-0.1v-0.8c-0.2,0.1-0.4,0.1-0.7,0.1c-0.5,0-0.8-0.3-0.8-0.9
		v-2.9h1.4v-0.8h-1.4V249l-0.9,0.7v1.5h-0.9v0.8h0.9v3.1C205.6,256,206.2,256.5,207.2,256.5z M211.4,256.5c0.9,0,1.5-0.3,2.1-0.9
		l-0.6-0.6c-0.4,0.5-0.9,0.6-1.5,0.6c-1,0-1.5-0.6-1.6-1.7h3.9c0-0.1,0-0.3,0-0.5c0-1.1-0.6-2.5-2.4-2.5c-1.6,0-2.5,1.3-2.5,2.8
		C208.8,255.3,209.7,256.5,211.4,256.5z M209.8,253.4c0.1-0.9,0.6-1.6,1.5-1.6s1.4,0.6,1.5,1.3c0,0.1,0,0.2,0,0.3H209.8z
		 M216.6,256.5c1,0,2-0.5,2-1.7c0-2-3-1.3-3-2.4c0-0.4,0.4-0.7,1-0.7s1,0.4,1.3,0.8l0.7-0.4c-0.4-0.7-1.1-1.1-1.9-1.1
		c-1,0-1.9,0.5-1.9,1.5c0,1.9,3,1.1,3,2.4c0,0.5-0.4,0.9-1.1,0.9c-0.8,0-1.2-0.5-1.4-1l-0.7,0.3
		C214.7,255.9,215.5,256.5,216.6,256.5z"/>
	<path class="st12" d="M262.1,254.1c0,3.9-3.2,7.1-7.1,7.1s-7.1-3.2-7.1-7.1c0-3.9,3.2-7.1,7.1-7.1S262.1,250.2,262.1,254.1z"/>
	<path class="st6" d="M110.6,297.4h430.2c1.1,0,2,0.9,2,2v78.8c0,1.1-0.9,2-2,2H110.6c-1.1,0-2-0.9-2-2v-78.8
		C108.6,298.3,109.5,297.4,110.6,297.4z"/>
	<path class="st7" d="M131.6,325.3h2.4c2.8,0,4.3-1.5,4.3-4.1c0-2.7-1.5-4.2-4.3-4.2h-2.4V325.3z M133.1,324v-5.5h0.9
		c2,0,2.8,0.8,2.8,2.8c0,2.1-1.1,2.8-3,2.8L133.1,324L133.1,324z M141.6,325.4c0.6,0,1.3-0.2,1.7-0.8v0.7h1.4v-5.8h-1.4v3.2
		c0,1-0.5,1.5-1.3,1.5c-0.7,0-1.1-0.6-1.1-1.3v-3.3h-1.4v3.5C139.5,324.2,140.1,325.4,141.6,325.4z M146.4,325.3h1.4v-2.5
		c0-1.5,0.7-2.1,1.4-2.1c0.2,0,0.4,0.1,0.6,0.2l0.7-1.2c-0.3-0.3-0.7-0.4-1.1-0.4c-0.7,0-1.3,0.4-1.6,1.1v-1h-1.4V325.3z
		 M153.4,319.4c-1.2,0-1.9,0.5-2.5,1.3l1.1,0.8c0.3-0.4,0.7-0.8,1.4-0.8c0.9,0,1.2,0.4,1.2,1.2H153c-1.3,0-2.3,0.4-2.3,1.7
		c0,1.2,0.9,1.9,2.1,1.9c0.7,0,1.4-0.3,1.8-0.9l0.1,0.8h1.2v-3.6C156,320.4,155,319.4,153.4,319.4z M153.2,324.2
		c-0.6,0-0.9-0.3-0.9-0.7c0-0.4,0.3-0.7,0.9-0.7h1.5l0,0C154.6,323.6,154,324.2,153.2,324.2z M159.5,325.4c0.4,0,0.8-0.1,1.1-0.2
		v-1.3c-0.2,0.1-0.5,0.2-0.8,0.2c-0.4,0-0.7-0.2-0.7-0.7v-2.8h1.5v-1.2h-1.5v-2.5l-1.4,1v1.5h-1v1.2h0.9v3
		C157.7,324.8,158.4,325.4,159.5,325.4z M161.9,318.4h1.5v-1.3h-1.5V318.4z M161.9,325.3h1.4v-5.8h-1.4V325.3z M167.5,325.4
		c1.8,0,3-1.4,3-3.1c0-1.6-1.2-3-3-3c-1.8,0-3,1.4-3,3C164.5,324,165.7,325.4,167.5,325.4z M167.5,324.2c-1.1,0-1.5-0.9-1.5-1.8
		c0-1,0.4-1.8,1.5-1.8s1.5,0.8,1.5,1.8C169,323.3,168.6,324.2,167.5,324.2z M171.6,325.3h1.4v-3.2c0-1,0.5-1.5,1.3-1.5
		c0.7,0,1.1,0.6,1.1,1.3v3.3h1.4v-3.4c0-1.2-0.6-2.5-2.1-2.5c-0.6,0-1.2,0.2-1.7,0.8v-0.7h-1.4V325.3z"/>
	<path class="st8" d="M130.7,351.3h0.9v-3.4h3.7V347h-3.7v-2.5h4.3v-0.9h-5.2V351.3z M136.8,351.3h0.9v-2.6c0-1.4,0.8-2,1.5-2
		c0.2,0,0.4,0.1,0.6,0.2l0.4-0.8c-0.2-0.2-0.6-0.3-0.9-0.3c-0.6,0-1.3,0.4-1.6,1.1v-1.1h-0.9V351.3z M142.9,351.4
		c1.6,0,2.6-1.2,2.6-2.8c0-1.5-1.1-2.8-2.6-2.8c-1.6,0-2.6,1.2-2.6,2.8C140.3,350.1,141.3,351.4,142.9,351.4z M142.9,350.6
		c-1.1,0-1.7-0.9-1.7-2s0.6-2,1.7-2c1.1,0,1.7,0.9,1.7,2S144,350.6,142.9,350.6z M146.9,351.3h0.9v-3.1c0-0.9,0.5-1.5,1.3-1.5
		c0.8,0,1.1,0.6,1.1,1.4v3.2h0.9v-3.1c0-0.9,0.5-1.5,1.3-1.5c0.8,0,1.1,0.6,1.1,1.5v3h0.9V348c0-1.3-0.6-2.3-1.9-2.3
		c-0.8,0-1.4,0.3-1.8,1.1c-0.3-0.8-0.9-1.1-1.6-1.1s-1.2,0.3-1.6,0.9v-0.8h-0.9L146.9,351.3z"/>
	<path class="st8" d="M178.8,353.3c2,0,2.9-1.5,2.9-3.2s-0.9-3.2-2.9-3.2s-2.9,1.5-2.9,3.2S176.9,353.3,178.8,353.3z M178.8,352.6
		c-1.5,0-2.1-1.1-2.1-2.5c0-1.3,0.6-2.5,2.1-2.5s2.1,1.1,2.1,2.5C180.9,351.5,180.3,352.6,178.8,352.6z M183,353.3h0.7v-2.5
		c0-0.8,0.4-1.2,1.1-1.2c0.7,0,1,0.5,1,1.2v2.6h0.7v-2.7c0-0.9-0.5-1.7-1.5-1.7c-0.5,0-1,0.2-1.3,0.7V349H183V353.3z M191.5,353.3
		c0.8,0,1.6-0.4,1.6-1.4c0-1.7-2.5-1.1-2.5-2c0-0.3,0.3-0.6,0.8-0.6s0.8,0.3,1,0.6l0.6-0.3c-0.3-0.6-0.9-0.9-1.6-0.9
		c-0.8,0-1.5,0.4-1.5,1.3c0,1.6,2.4,0.9,2.4,1.9c0,0.4-0.3,0.7-0.9,0.7c-0.6,0-1-0.4-1.2-0.8l-0.6,0.3
		C189.9,352.8,190.6,353.3,191.5,353.3z M195.7,353.3c0.5,0,1-0.2,1.3-0.7v0.7h0.7v-4.4H197v2.5c0,0.8-0.4,1.2-1.1,1.2
		c-0.7,0-1-0.5-1-1.2v-2.6h-0.7v2.7C194.1,352.5,194.6,353.3,195.7,353.3z M201.5,353.3c1.2,0,1.9-1,1.9-2.3c0-1.2-0.7-2.3-1.9-2.3
		c-0.6,0-1.2,0.3-1.5,0.9V347h-0.8v6.2h0.8v-0.8C200.3,353,200.8,353.3,201.5,353.3z M201.3,352.6c-0.9,0-1.4-0.7-1.4-1.6
		s0.5-1.6,1.4-1.6s1.3,0.7,1.3,1.6C202.6,352,202.1,352.6,201.3,352.6z M204.4,353.3h0.7v-2.5c0-0.7,0.4-1.2,1.1-1.2
		c0.7,0,0.9,0.5,0.9,1.2v2.6h0.7v-2.5c0-0.7,0.4-1.2,1.1-1.2s0.9,0.5,0.9,1.3v2.5h0.7v-2.6c0-1.1-0.5-1.9-1.5-1.9
		c-0.6,0-1.1,0.3-1.4,0.9c-0.2-0.6-0.7-0.9-1.3-0.9c-0.5,0-1,0.2-1.3,0.8v-0.7h-0.6V353.3z M212.1,348h0.8v-0.9h-0.8V348z
		 M212.1,353.3h0.7v-4.4h-0.7V353.3z M215.6,353.3c0.8,0,1.6-0.4,1.6-1.4c0-1.7-2.5-1.1-2.5-2c0-0.3,0.3-0.6,0.8-0.6s0.8,0.3,1,0.6
		l0.6-0.3c-0.3-0.6-0.9-0.9-1.6-0.9c-0.8,0-1.5,0.4-1.5,1.3c0,1.6,2.4,0.9,2.4,1.9c0,0.4-0.3,0.7-0.9,0.7s-1-0.4-1.2-0.8l-0.6,0.3
		C214,352.8,214.7,353.3,215.6,353.3z M219.6,353.3c0.8,0,1.6-0.4,1.6-1.4c0-1.7-2.5-1.1-2.5-2c0-0.3,0.3-0.6,0.8-0.6s0.8,0.3,1,0.6
		l0.6-0.3c-0.3-0.6-0.9-0.9-1.6-0.9c-0.8,0-1.5,0.4-1.5,1.3c0,1.6,2.4,0.9,2.4,1.9c0,0.4-0.3,0.7-0.9,0.7s-1-0.4-1.2-0.8l-0.6,0.3
		C218.1,352.8,218.8,353.3,219.6,353.3z M222.4,348h0.8v-0.9h-0.8V348z M222.4,353.3h0.7v-4.4h-0.7V353.3z M226.4,353.3
		c1.3,0,2.2-1,2.2-2.3c0-1.2-0.9-2.3-2.2-2.3c-1.3,0-2.2,1-2.2,2.3S225.1,353.3,226.4,353.3z M226.4,352.7c-0.9,0-1.4-0.7-1.4-1.6
		s0.5-1.6,1.4-1.6s1.4,0.7,1.4,1.6C227.7,351.9,227.3,352.7,226.4,352.7z M229.6,353.3h0.7v-2.5c0-0.8,0.4-1.2,1.1-1.2s1,0.5,1,1.2
		v2.6h0.7v-2.7c0-0.9-0.5-1.7-1.5-1.7c-0.5,0-1,0.2-1.3,0.7V349h-0.7V353.3z"/>
	<path class="st8" d="M380.3,353.3h0.8l0.5-1.4h2.6l0.5,1.4h0.8l-2.4-6.2h-0.6L380.3,353.3z M381.9,351.2l1.1-3l1.1,3H381.9z
		 M387.9,353.3c0.8,0,1.6-0.4,1.6-1.4c0-1.7-2.5-1.1-2.5-2c0-0.3,0.3-0.6,0.8-0.6s0.8,0.3,1,0.6l0.6-0.3c-0.3-0.6-0.9-0.9-1.6-0.9
		c-0.8,0-1.5,0.4-1.5,1.3c0,1.6,2.4,0.9,2.4,1.9c0,0.4-0.3,0.7-0.9,0.7s-1-0.4-1.2-0.8l-0.6,0.3C386.3,352.8,387,353.3,387.9,353.3z
		 M390.6,353.3h0.7V352l0.9-1l1.5,2.3h0.9l-1.8-2.7l1.6-1.7h-1l-2.1,2.2v-4h-0.7V353.3z M397.7,353.3h0.7v-2.1
		c0-1.2,0.6-1.6,1.2-1.6c0.2,0,0.3,0,0.5,0.1l0.3-0.6c-0.2-0.2-0.5-0.2-0.7-0.2c-0.5,0-1.1,0.3-1.3,0.9v-0.9h-0.7V353.3z
		 M402.7,353.3c0.7,0,1.2-0.2,1.7-0.8l-0.5-0.5c-0.4,0.4-0.7,0.5-1.2,0.5c-0.8,0-1.3-0.5-1.3-1.4h3.2c0-0.1,0-0.2,0-0.4
		c0-0.9-0.5-2.1-1.9-2.1c-1.3,0-2,1.1-2,2.3C400.6,352.3,401.3,353.3,402.7,353.3z M401.3,350.8c0.1-0.8,0.5-1.3,1.2-1.3
		s1.1,0.5,1.2,1c0,0.1,0,0.2,0,0.3H401.3z M406.9,353.3c0.8,0,1.6-0.4,1.6-1.4c0-1.7-2.5-1.1-2.5-2c0-0.3,0.3-0.6,0.8-0.6
		s0.8,0.3,1,0.6l0.6-0.3c-0.3-0.6-0.9-0.9-1.6-0.9c-0.8,0-1.5,0.4-1.5,1.3c0,1.6,2.4,0.9,2.4,1.9c0,0.4-0.3,0.7-0.9,0.7
		s-1-0.4-1.2-0.8l-0.6,0.3C405.3,352.8,406,353.3,406.9,353.3z M409.7,355.1h0.8v-2.6c0.3,0.6,0.8,0.9,1.5,0.9c1.2,0,1.9-1,1.9-2.3
		c0-1.2-0.7-2.3-1.9-2.3c-0.6,0-1.2,0.3-1.5,0.9v-0.8h-0.8V355.1z M411.7,352.7c-0.9,0-1.4-0.7-1.4-1.6s0.5-1.6,1.4-1.6
		s1.3,0.7,1.3,1.6C413,352,412.6,352.7,411.7,352.7z M416.7,353.3c1.3,0,2.2-1,2.2-2.3c0-1.2-0.9-2.3-2.2-2.3s-2.2,1-2.2,2.3
		C414.5,352.3,415.4,353.3,416.7,353.3z M416.7,352.7c-0.9,0-1.4-0.7-1.4-1.6s0.5-1.6,1.4-1.6s1.4,0.7,1.4,1.6
		C418,351.9,417.6,352.7,416.7,352.7z M419.9,353.3h0.7v-2.5c0-0.8,0.4-1.2,1.1-1.2s1,0.5,1,1.2v2.6h0.7v-2.7c0-0.9-0.5-1.7-1.5-1.7
		c-0.5,0-1,0.2-1.3,0.7V349h-0.7L419.9,353.3L419.9,353.3z M426.5,353.3c0.6,0,1.2-0.3,1.5-0.9v0.8h0.7V347h-0.8v2.6
		c-0.3-0.6-0.9-0.9-1.5-0.9c-1.2,0-1.9,1-1.9,2.3C424.5,352.3,425.3,353.3,426.5,353.3z M426.6,352.7c-0.9,0-1.4-0.7-1.4-1.6
		s0.5-1.6,1.4-1.6s1.3,0.7,1.3,1.6C428,352,427.5,352.7,426.6,352.7z M431.7,348.8c-0.8,0-1.3,0.3-1.8,0.9l0.6,0.4
		c0.3-0.4,0.6-0.7,1.2-0.7c0.8,0,1.1,0.4,1.1,1.3h-1.2c-1.1,0-1.8,0.3-1.8,1.3c0,0.9,0.6,1.4,1.5,1.4c0.6,0,1.2-0.3,1.5-0.9v0.8h0.6
		v-2.7C433.5,349.5,432.8,348.8,431.7,348.8z M431.4,352.7c-0.6,0-0.9-0.3-0.9-0.7c0-0.4,0.4-0.7,1.1-0.7h1.2v0.3
		C432.6,352.2,432.2,352.7,431.4,352.7z M434.8,353.3h0.7v-2.5c0-0.8,0.4-1.2,1.1-1.2s1,0.5,1,1.2v2.6h0.7v-2.7
		c0-0.9-0.5-1.7-1.5-1.7c-0.5,0-1,0.2-1.3,0.7V349h-0.7L434.8,353.3L434.8,353.3z M441.2,353.3c0.3,0,0.5-0.1,0.7-0.1v-0.7
		c-0.1,0.1-0.3,0.1-0.5,0.1c-0.4,0-0.6-0.2-0.6-0.8v-2.4h1.2v-0.6h-1.2v-1.7l-0.7,0.5v1.2h-0.7v0.6h0.7v2.5
		C440,352.9,440.4,353.3,441.2,353.3z"/>
	<path class="st8" d="M350.9,351.3h0.9v-6.7h2.6v-0.8h-6v0.8h2.6v6.7H350.9z M356.7,351.4c1.6,0,2.6-1.2,2.6-2.8
		c0-1.5-1.1-2.8-2.6-2.8c-1.6,0-2.6,1.2-2.6,2.8C354.1,350.1,355.1,351.4,356.7,351.4z M356.7,350.6c-1.1,0-1.7-0.9-1.7-2
		s0.6-2,1.7-2s1.7,0.9,1.7,2S357.8,350.6,356.7,350.6z"/>
	<path class="st13" d="M167.5,339.8h143.7c0.8,0,1.5,0.7,1.5,1.5v19c0,0.8-0.7,1.5-1.5,1.5H167.5c-0.8,0-1.5-0.7-1.5-1.5v-19
		C166,340.4,166.6,339.8,167.5,339.8z"/>
	<path class="st14" d="M292.2,348.3l5,5l5-5"/>
	<path class="st13" d="M372.1,339.8h143.7c0.8,0,1.5,0.7,1.5,1.5v19c0,0.8-0.7,1.5-1.5,1.5H372.1c-0.8,0-1.5-0.7-1.5-1.5v-19
		C370.6,340.4,371.2,339.8,372.1,339.8z"/>
	<path class="st14" d="M495.8,348.8l5,5l5-5"/>
	<path class="st15" d="M497.8,254.5l2.3,1.9l4.7-5"/>
	<rect x="44.7" y="39" class="st9" width="569.6" height="44"/>
	<path class="st16" d="M90.9,50.2c0-0.7-0.6-1.3-1.2-1.3c-4.4,0-17.4,0-21.5,0c-0.7,0-1.2,0.6-1.2,1.3v3.7h24
		C90.9,53.1,90.9,51.4,90.9,50.2z"/>
	<path class="st17" d="M66.9,53.9v18c0,0.5,0.4,1,1,1h22c0.5,0,1-0.4,1-1v-18H66.9z"/>
	<path class="st6" d="M89.2,55.5H68.6v12.8h20.6C89.2,68.3,89.2,55.5,89.2,55.5z"/>
	<path class="st18" d="M75,58h7.8v8.7H75V58z"/>
	<path class="st19" d="M80.3,59.3C80.3,59.2,80.4,59.2,80.3,59.3l0.6-0.1c0.1,0,0.1,0.1,0.1,0.1v1.2c0,0.1-0.1,0.1-0.1,0.1h-0.5
		c-0.1,0-0.1-0.1-0.1-0.1V59.3z"/>
	<path class="st19" d="M78.5,59.3C78.5,59.2,78.6,59.2,78.5,59.3l0.6-0.1c0.1,0,0.1,0.1,0.1,0.1v1.2c0,0.1-0.1,0.1-0.1,0.1h-0.5
		c-0.1,0-0.1-0.1-0.1-0.1V59.3z"/>
	<path class="st19" d="M76.7,59.3C76.7,59.2,76.8,59.2,76.7,59.3l0.7-0.1c0.1,0,0.1,0.1,0.1,0.1v1.2c0,0.1-0.1,0.1-0.1,0.1h-0.5
		c-0.1,0-0.1-0.1-0.1-0.1L76.7,59.3L76.7,59.3z"/>
	<path class="st19" d="M80.3,61.9C80.3,61.8,80.4,61.8,80.3,61.9l0.6-0.1c0.1,0,0.1,0.1,0.1,0.1v1.2c0,0.1-0.1,0.1-0.1,0.1h-0.5
		c-0.1,0-0.1-0.1-0.1-0.1V61.9z"/>
	<path class="st19" d="M78.5,61.9C78.5,61.8,78.6,61.8,78.5,61.9l0.6-0.1c0.1,0,0.1,0.1,0.1,0.1v1.2c0,0.1-0.1,0.1-0.1,0.1h-0.5
		c-0.1,0-0.1-0.1-0.1-0.1V61.9z"/>
	<path class="st19" d="M76.7,61.9C76.7,61.8,76.8,61.8,76.7,61.9l0.7-0.1c0.1,0,0.1,0.1,0.1,0.1v1.2c0,0.1-0.1,0.1-0.1,0.1h-0.5
		c-0.1,0-0.1-0.1-0.1-0.1L76.7,61.9L76.7,61.9z"/>
	<path class="st20" d="M77.9,64.7c0-0.3,0.2-0.5,0.5-0.5h1c0.3,0,0.5,0.2,0.5,0.5v2h-2.1L77.9,64.7L77.9,64.7z"/>
	<path class="st21" d="M77.5,57.2H80v1h-2.5l0,0H75v-0.6c0-0.2,0.2-0.4,0.4-0.4H77.5L77.5,57.2z M82.4,57.2H80v1h2.8v-0.6
		C82.8,57.3,82.6,57.2,82.4,57.2z"/>
	<path class="st22" d="M89.1,70.1H68.7v1h20.5v-1H89.1z"/>
	<path class="st23" d="M85,69.6c0-0.2-0.2-0.4-0.4-0.4H84h-0.6c-0.2,0-0.4,0.2-0.4,0.4v1.9c0,0.2,0.2,0.4,0.4,0.4H84h0.6
		c0.2,0,0.4-0.2,0.4-0.4V69.6z"/>
	<path class="st24" d="M69.4,52.2c0.5,0,0.8-0.4,0.8-0.8c0-0.5-0.4-0.8-0.8-0.8s-0.8,0.4-0.8,0.8S68.9,52.2,69.4,52.2z"/>
	<path class="st25" d="M72.1,52.2c0.5,0,0.8-0.4,0.8-0.8c0-0.5-0.4-0.8-0.8-0.8c-0.5,0-0.8,0.4-0.8,0.8
		C71.2,51.8,71.6,52.2,72.1,52.2z"/>
	<path class="st26" d="M74.8,52.2c0.5,0,0.8-0.4,0.8-0.8c0-0.5-0.4-0.8-0.8-0.8S74,51,74,51.4C73.9,51.8,74.3,52.2,74.8,52.2z"/>
	<path class="st6" d="M112.6,57.9v5.8l-3.5-5.8h-1.5v8.3h1.4v-5.8l3.5,5.8h1.5v-8.3C114,57.9,112.6,57.9,112.6,57.9z M118.1,60.2
		c-1.2,0-1.9,0.5-2.5,1.3l1.1,0.8c0.3-0.4,0.7-0.8,1.4-0.8c0.9,0,1.2,0.4,1.2,1.2h-1.6c-1.3,0-2.3,0.4-2.3,1.7
		c0,1.2,0.9,1.9,2.1,1.9c0.7,0,1.4-0.3,1.8-0.9l0.1,0.8h1.2v-3.5C120.6,61.2,119.7,60.2,118.1,60.2z M117.8,65.1
		c-0.6,0-0.9-0.3-0.9-0.7s0.3-0.7,0.9-0.7h1.5l0,0C119.2,64.5,118.7,65.1,117.8,65.1z M124.2,66.3c0.4,0,0.8-0.1,1.1-0.2v-1.3
		c-0.2,0.1-0.5,0.2-0.8,0.2c-0.4,0-0.6-0.2-0.6-0.7v-2.8h1.5v-1.2h-1.5v-2.5l-1.4,1v1.5h-1v1.2h0.9v3
		C122.3,65.6,123,66.3,124.2,66.3z M126.5,59.2h1.5v-1.3h-1.5V59.2z M126.5,66.2h1.4v-5.8h-1.4V66.2z M132.1,66.3c1.8,0,3-1.4,3-3.1
		c0-1.6-1.2-3-3-3c-1.8,0-3,1.4-3,3C129.1,64.9,130.3,66.3,132.1,66.3z M132.1,65.1c-1.1,0-1.5-0.9-1.5-1.8c0-1,0.4-1.8,1.5-1.8
		s1.5,0.8,1.5,1.8C133.6,64.2,133.2,65.1,132.1,65.1z M136.3,66.2h1.4V63c0-1,0.5-1.5,1.3-1.5c0.7,0,1.1,0.6,1.1,1.3v3.3h1.4v-3.5
		c0-1.2-0.6-2.5-2.1-2.5c-0.6,0-1.2,0.2-1.7,0.8v-0.7h-1.4V66.2z M145.2,60.2c-1.2,0-1.9,0.5-2.5,1.3l1.1,0.8
		c0.3-0.4,0.7-0.8,1.4-0.8c0.9,0,1.2,0.4,1.2,1.2h-1.6c-1.3,0-2.3,0.4-2.3,1.7c0,1.2,0.9,1.9,2.1,1.9c0.7,0,1.4-0.3,1.8-0.9l0.1,0.8
		h1.2v-3.5C147.8,61.2,146.8,60.2,145.2,60.2z M145,65.1c-0.6,0-0.9-0.3-0.9-0.7s0.3-0.7,0.9-0.7h1.5l0,0
		C146.4,64.5,145.8,65.1,145,65.1z M150.5,66.3c0.3,0,0.8-0.1,1.1-0.1V65c-0.2,0-0.3,0-0.4,0c-0.3,0-0.5-0.1-0.5-0.4v-6.7h-1.4V65
		C149.2,66.1,149.8,66.3,150.5,66.3z M159.2,66.3c1.6,0,3-0.8,3.6-2.4l-1.4-0.6c-0.4,1.1-1.2,1.5-2.2,1.5c-1.8,0-2.5-1.3-2.5-2.9
		c0-1.5,0.8-2.8,2.5-2.8c1.1,0,1.9,0.4,2.2,1.5l1.4-0.5c-0.7-1.5-2-2.4-3.6-2.4c-2.7,0-4,2-4,4.3C155.2,64.3,156.4,66.3,159.2,66.3z
		 M166.1,66.3c1.8,0,3-1.4,3-3.1c0-1.6-1.2-3-3-3c-1.8,0-3,1.4-3,3C163.1,64.9,164.3,66.3,166.1,66.3z M166.1,65.1
		c-1.1,0-1.5-0.9-1.5-1.8c0-1,0.4-1.8,1.5-1.8s1.5,0.8,1.5,1.8C167.6,64.2,167.2,65.1,166.1,65.1z M170.3,66.2h1.4V63
		c0-0.8,0.5-1.4,1.2-1.4c0.7,0,0.9,0.6,0.9,1.3v3.4h1.4v-3.2c0-0.8,0.5-1.4,1.2-1.4c0.7,0,1,0.6,1,1.3v3.3h1.4v-3.5
		c0-1.2-0.6-2.5-2.1-2.5c-0.7,0-1.4,0.3-1.9,1c-0.3-0.8-1.1-1-1.7-1c-0.6,0-1.2,0.2-1.6,0.9v-0.7h-1.4L170.3,66.2z M180.5,68.6h1.5
		v-3c0.4,0.5,1,0.7,1.6,0.7c1.6,0,2.5-1.4,2.5-3c0-1.6-0.9-3-2.5-3c-0.6,0-1.3,0.2-1.7,0.7v-0.6h-1.5L180.5,68.6L180.5,68.6z
		 M183.3,65c-1,0-1.4-0.8-1.4-1.7c0-1,0.5-1.7,1.4-1.7c1,0,1.4,0.8,1.4,1.7C184.7,64.2,184.3,65,183.3,65z M189.5,60.2
		c-1.2,0-1.9,0.5-2.5,1.3l1.1,0.8c0.3-0.4,0.7-0.8,1.4-0.8c0.9,0,1.2,0.4,1.2,1.2h-1.6c-1.3,0-2.3,0.4-2.3,1.7
		c0,1.2,0.9,1.9,2.1,1.9c0.7,0,1.4-0.3,1.8-0.9l0.1,0.8h1.2v-3.5C192,61.2,191.1,60.2,189.5,60.2z M189.2,65.1
		c-0.6,0-0.9-0.3-0.9-0.7s0.3-0.7,0.9-0.7h1.5l0,0C190.7,64.5,190.1,65.1,189.2,65.1z M193.6,66.2h1.4V63c0-1,0.5-1.5,1.3-1.5
		c0.7,0,1.1,0.6,1.1,1.3v3.3h1.4v-3.5c0-1.2-0.6-2.5-2.1-2.5c-0.6,0-1.2,0.2-1.7,0.8v-0.7h-1.4V66.2z M200.6,68.7h1.6l3.3-8.4h-1.6
		l-1.5,4.1l-1.5-4.1h-1.5l2.3,5.7L200.6,68.7z M209.4,66.2h1.5v-8.3h-1.5V66.2z M212.8,66.2h1.4V63c0-1,0.5-1.5,1.3-1.5
		c0.7,0,1.1,0.6,1.1,1.3v3.3h1.4v-3.5c0-1.2-0.6-2.5-2.1-2.5c-0.6,0-1.2,0.2-1.7,0.8v-0.7h-1.4V66.2z M221.7,66.3
		c0.6,0,1.3-0.2,1.7-0.8l0.1,0.7h1.3v-8.3h-1.5v3c-0.4-0.5-1.1-0.7-1.7-0.7c-1.6,0-2.5,1.4-2.5,3C219.1,64.9,220,66.3,221.7,66.3z
		 M222,65c-1,0-1.4-0.8-1.4-1.7c0-1,0.4-1.7,1.4-1.7s1.4,0.8,1.4,1.7C223.4,64.3,223,65,222,65z M228.4,66.3c0.6,0,1.3-0.2,1.7-0.8
		v0.7h1.4v-5.8h-1.4v3.2c0,1-0.5,1.5-1.3,1.5c-0.7,0-1.1-0.5-1.1-1.3v-3.3h-1.4V64C226.3,65.1,226.9,66.3,228.4,66.3z M235.5,66.3
		c1.2,0,2.1-0.6,2.5-1.7l-1.3-0.5c-0.2,0.5-0.6,0.9-1.2,0.9c-1,0-1.4-0.8-1.4-1.7s0.4-1.8,1.4-1.8c0.6,0,1,0.4,1.2,1l1.4-0.5
		c-0.4-1.2-1.4-1.7-2.5-1.7c-1.9,0-2.8,1.5-2.8,3.1C232.7,64.8,233.6,66.3,235.5,66.3z M241.1,66.3c0.4,0,0.8-0.1,1.1-0.2v-1.3
		c-0.2,0.1-0.5,0.2-0.8,0.2c-0.4,0-0.6-0.2-0.6-0.7v-2.8h1.5v-1.2h-1.5v-2.5l-1.4,1v1.5h-1v1.2h0.9v3
		C239.3,65.6,240,66.3,241.1,66.3z M243.5,59.2h1.5v-1.3h-1.5V59.2z M243.5,66.2h1.4v-5.8h-1.4V66.2z M249.1,66.3c1.8,0,3-1.4,3-3.1
		c0-1.6-1.2-3-3-3c-1.8,0-3,1.4-3,3C246.1,64.9,247.3,66.3,249.1,66.3z M249.1,65.1c-1.1,0-1.5-0.9-1.5-1.8c0-1,0.4-1.8,1.5-1.8
		s1.5,0.8,1.5,1.8C250.6,64.2,250.2,65.1,249.1,65.1z M253.3,66.2h1.4V63c0-1,0.5-1.5,1.3-1.5c0.7,0,1.1,0.6,1.1,1.3v3.3h1.4v-3.5
		c0-1.2-0.6-2.5-2.1-2.5c-0.6,0-1.2,0.2-1.7,0.8v-0.7h-1.4L253.3,66.2L253.3,66.2z"/>
</g>
</svg>
