<?xml version="1.0" encoding="utf-8"?>
<svg width="539" height="509" viewBox="0 0 539 509" fill="none" xmlns="http://www.w3.org/2000/svg">
<rect y="0.345215" width="538.213" height="508.042" rx="7.88341" fill="white"/>
<path d="M53.2958 63.092C56.7762 63.092 59.6249 61.0167 59.6249 57.575C59.6249 51.5295 50.808 52.6896 50.808 49.2608C50.808 48.1007 51.8135 47.3144 53.1025 47.3144C54.327 47.3144 55.4098 48.0234 56.0414 49.2608L58.7613 47.598C57.5109 45.3809 55.4614 44.4012 53.2185 44.4012C50.1506 44.4012 47.5339 46.2059 47.5339 49.4284C47.5339 55.3579 56.3508 54.0946 56.3508 57.8715C56.3508 59.1605 55.2938 60.1917 53.3474 60.1917C51.4139 60.1917 49.8026 59.1863 49.5706 56.9176L46.3222 57.7426C46.9023 61.326 50.0733 63.092 53.2958 63.092ZM62.1514 47.5722H65.4513V44.6719H62.1514V47.5722ZM62.2287 62.8857H65.3739V50.0085H62.2287V62.8857ZM69.1378 62.8857H72.283V55.8348C72.283 53.5919 73.3916 52.6381 75.1576 52.6381C76.7688 52.6381 77.6196 53.8626 77.6196 55.5512V62.8857H80.7648V55.1516C80.7648 52.4576 79.4371 49.7378 76.0599 49.7378C74.7966 49.7378 73.3143 50.2405 72.283 51.5037V50.0085H69.1378V62.8857ZM89.5301 63.1435C91.6956 63.1435 93.41 62.383 94.8151 60.8233L92.6495 58.9285C91.7472 59.9339 90.716 60.2948 89.5559 60.2948C87.5321 60.2948 86.604 59.1605 86.3333 57.4719H95.176C95.2404 57.2914 95.292 56.7629 95.292 56.2344C95.292 53.3599 93.8354 49.7378 89.3238 49.7378C84.967 49.7378 83.0077 53.1408 83.0077 56.4922C83.0077 59.9597 85.0959 63.1435 89.5301 63.1435ZM86.3333 55.2032C86.6298 53.5919 87.4419 52.3803 89.2981 52.3803C90.6644 52.3803 91.773 53.0634 92.0952 54.3911C92.1726 54.6489 92.1984 54.9196 92.1984 55.2032H86.3333ZM112.307 63.1435C115.929 63.1435 118.829 61.3003 120.273 57.8972L117.244 56.6598C116.264 59.1089 114.653 60.037 112.307 60.037C108.401 60.037 106.738 57.2656 106.738 53.6435C106.738 50.2663 108.401 47.4949 112.255 47.4949C114.627 47.4949 116.509 48.423 117.192 50.8205L120.247 49.6089C118.778 46.2059 115.89 44.3755 112.281 44.3755C106.287 44.3755 103.49 48.7839 103.49 53.7724C103.49 58.7738 106.313 63.1435 112.307 63.1435ZM127.685 63.1435C131.668 63.1435 134.285 60.0628 134.285 56.4149C134.285 52.7798 131.668 49.7378 127.685 49.7378C123.702 49.7378 121.085 52.7798 121.085 56.4149C121.085 60.0628 123.702 63.1435 127.685 63.1435ZM127.685 60.4366C125.313 60.4366 124.359 58.5289 124.359 56.4149C124.359 54.3009 125.313 52.4576 127.685 52.4576C130.07 52.4576 131.011 54.3009 131.011 56.4149C131.011 58.5289 130.07 60.4366 127.685 60.4366ZM136.837 62.8857H139.879V57.4461C139.879 54.172 141.413 52.8056 142.883 52.8056C143.385 52.8056 143.862 52.9603 144.288 53.2439L145.718 50.6659C145.1 50.0342 144.21 49.7378 143.359 49.7378C141.916 49.7378 140.459 50.6143 139.905 52.174V50.0085H136.837V62.8857ZM152.151 63.1435C154.316 63.1435 156.03 62.383 157.436 60.8233L155.27 58.9285C154.368 59.9339 153.336 60.2948 152.176 60.2948C150.153 60.2948 149.224 59.1605 148.954 57.4719H157.796C157.861 57.2914 157.912 56.7629 157.912 56.2344C157.912 53.3599 156.456 49.7378 151.944 49.7378C147.587 49.7378 145.628 53.1408 145.628 56.4922C145.628 59.9597 147.716 63.1435 152.151 63.1435ZM148.954 55.2032C149.25 53.5919 150.062 52.3803 151.919 52.3803C153.285 52.3803 154.393 53.0634 154.716 54.3911C154.793 54.6489 154.819 54.9196 154.819 55.2032H148.954ZM171.55 61.5194H173.922V56.0282H179.413V53.6435H173.922V48.1523H171.55V53.6435H166.059V56.0282H171.55V61.5194ZM192.574 62.8857H195.732L199.689 50.8979L203.66 62.8857H206.818L212.283 44.6719H208.88L205 58.0777L200.966 45.7289H198.426L194.392 58.0777L190.512 44.6719H187.109L192.574 62.8857ZM218.87 63.1435C222.853 63.1435 225.47 60.0628 225.47 56.4149C225.47 52.7798 222.853 49.7378 218.87 49.7378C214.887 49.7378 212.27 52.7798 212.27 56.4149C212.27 60.0628 214.887 63.1435 218.87 63.1435ZM218.87 60.4366C216.498 60.4366 215.544 58.5289 215.544 56.4149C215.544 54.3009 216.498 52.4576 218.87 52.4576C221.255 52.4576 222.196 54.3009 222.196 56.4149C222.196 58.5289 221.255 60.4366 218.87 60.4366ZM228.022 62.8857H231.064V57.4461C231.064 54.172 232.598 52.8056 234.068 52.8056C234.57 52.8056 235.047 52.9603 235.473 53.2439L236.903 50.6659C236.285 50.0342 235.395 49.7378 234.545 49.7378C233.101 49.7378 231.644 50.6143 231.09 52.174V50.0085H228.022V62.8857ZM238.644 62.8857H241.789V59.1089L243.774 56.9176L247.551 62.8857H251.263L245.914 54.997L250.735 50.0085H246.648L241.789 55.3579V44.6719H238.644V62.8857ZM253.854 62.8857H257.102V52.6381H260.106V50.0085H257.102V48.6034C257.102 47.598 257.657 47.1984 258.288 47.1984C258.623 47.1984 258.997 47.3402 259.294 47.5207L260.325 44.9297C259.629 44.6204 258.842 44.4012 257.992 44.4012C255.826 44.4012 253.88 45.7805 253.88 48.2812V50.0085H251.495V52.6381H253.854V62.8857ZM264.591 63.1435C265.339 63.1435 266.28 63.0146 266.937 62.8857V60.2433C266.602 60.2948 266.254 60.3206 266.074 60.3206C265.442 60.3206 265.043 60.0628 265.043 59.457V44.6719H261.897V60.3206C261.897 62.5893 263.109 63.1435 264.591 63.1435ZM274.762 63.1435C278.745 63.1435 281.362 60.0628 281.362 56.4149C281.362 52.7798 278.745 49.7378 274.762 49.7378C270.779 49.7378 268.162 52.7798 268.162 56.4149C268.162 60.0628 270.779 63.1435 274.762 63.1435ZM274.762 60.4366C272.39 60.4366 271.436 58.5289 271.436 56.4149C271.436 54.3009 272.39 52.4576 274.762 52.4576C277.147 52.4576 278.087 54.3009 278.087 56.4149C278.087 58.5289 277.147 60.4366 274.762 60.4366ZM285.77 62.8857H288.606L291.132 54.4427L293.672 62.8857H296.495L300.478 50.0085H297.126L294.909 58.0519L292.486 50.0085H289.792L287.356 58.0777L285.164 50.0085H281.813L285.77 62.8857ZM309.295 62.8857H312.569V44.6719H309.295V62.8857ZM316.784 62.8857H319.929V55.8348C319.929 53.5919 321.038 52.6381 322.803 52.6381C324.415 52.6381 325.266 53.8626 325.266 55.5512V62.8857H328.411V55.1516C328.411 52.4576 327.083 49.7378 323.706 49.7378C322.443 49.7378 320.96 50.2405 319.929 51.5037V50.0085H316.784V62.8857ZM336.338 63.1435C337.279 63.1435 338.207 62.9373 338.684 62.7568V59.9081C338.259 60.1144 337.55 60.3722 336.892 60.3722C336.067 60.3722 335.462 60.0112 335.462 58.7738V52.6381H338.684V50.0085H335.462V44.5688L332.368 46.8117V50.0085H330.241V52.6381H332.316V59.3281C332.316 61.6741 333.825 63.1435 336.338 63.1435ZM346.844 63.1435C349.009 63.1435 350.724 62.383 352.129 60.8233L349.963 58.9285C349.061 59.9339 348.03 60.2948 346.869 60.2948C344.846 60.2948 343.918 59.1605 343.647 57.4719H352.49C352.554 57.2914 352.606 56.7629 352.606 56.2344C352.606 53.3599 351.149 49.7378 346.637 49.7378C342.281 49.7378 340.321 53.1408 340.321 56.4922C340.321 59.9597 342.409 63.1435 346.844 63.1435ZM343.647 55.2032C343.943 53.5919 344.755 52.3803 346.612 52.3803C347.978 52.3803 349.087 53.0634 349.409 54.3911C349.486 54.6489 349.512 54.9196 349.512 55.2032H343.647ZM361.165 60.8749C358.87 60.5913 357.285 60.5655 357.285 59.5085C357.285 59.212 357.401 58.9929 357.659 58.8253C358.393 59.1476 359.218 59.3281 360.108 59.3281C362.931 59.3281 365.341 57.4977 365.341 54.6231C365.341 53.7853 365.148 53.0248 364.787 52.3803L366.656 50.8721L365.019 48.8741L363.047 50.5627C362.183 50.0342 361.126 49.7378 360.005 49.7378C357.156 49.7378 354.72 51.6713 354.72 54.4685C354.72 55.6028 355.119 56.6211 355.789 57.4332C355.029 58.1035 354.591 58.9285 354.591 60.0628C354.591 61.3003 355.106 62.0737 355.854 62.5764L354.359 63.8396C354.333 63.9685 354.307 64.0974 354.307 64.3939C354.307 67.0364 356.421 68.9828 360.481 68.9828C363.678 68.9828 366.179 67.5907 366.179 64.6775C366.179 61.7256 363.601 61.1971 361.165 60.8749ZM360.108 52.174C361.487 52.174 362.222 53.1408 362.222 54.4942C362.222 55.809 361.513 56.7629 360.108 56.7629C358.715 56.7629 357.968 55.809 357.968 54.4942C357.968 53.1408 358.741 52.174 360.108 52.174ZM360.456 66.5594C358.896 66.5594 357.555 66.1083 357.182 64.8193L357.104 64.4712L357.8 63.3111C358.587 63.4658 359.386 63.5303 360.056 63.5947C362.196 63.8138 363.201 64.0459 363.201 65.0255C363.201 66.0567 362.119 66.5594 360.456 66.5594ZM368.808 62.8857H371.851V57.4461C371.851 54.172 373.385 52.8056 374.854 52.8056C375.357 52.8056 375.834 52.9603 376.259 53.2439L377.69 50.6659C377.071 50.0342 376.182 49.7378 375.331 49.7378C373.887 49.7378 372.431 50.6143 371.876 52.174V50.0085H368.808V62.8857ZM384.238 49.7378C381.699 49.7378 380.062 50.8721 378.824 52.5607L381.235 54.3009C381.789 53.3599 382.781 52.4834 384.264 52.4834C386.313 52.4834 386.881 53.2955 386.945 55.2032H383.452C380.564 55.2032 378.321 56.1313 378.321 58.9285C378.321 61.6225 380.358 63.1435 383.001 63.1435C384.47 63.1435 386.184 62.499 387.022 61.1713L387.216 62.8857H389.807V55.0743C389.807 51.9291 387.744 49.7378 384.238 49.7378ZM383.632 60.4882C382.227 60.4882 381.544 59.8823 381.544 59.0316C381.544 58.2195 382.201 57.4719 383.632 57.4719H386.958V57.575C386.765 59.096 385.566 60.4882 383.632 60.4882ZM397.644 63.1435C398.585 63.1435 399.513 62.9373 399.99 62.7568V59.9081C399.564 60.1144 398.855 60.3722 398.198 60.3722C397.373 60.3722 396.767 60.0112 396.767 58.7738V52.6381H399.99V50.0085H396.767V44.5688L393.674 46.8117V50.0085H391.547V52.6381H393.622V59.3281C393.622 61.6741 395.13 63.1435 397.644 63.1435ZM402.813 47.5722H406.113V44.6719H402.813V47.5722ZM402.89 62.8857H406.035V50.0085H402.89V62.8857ZM415.187 63.1435C419.17 63.1435 421.787 60.0628 421.787 56.4149C421.787 52.7798 419.17 49.7378 415.187 49.7378C411.204 49.7378 408.588 52.7798 408.588 56.4149C408.588 60.0628 411.204 63.1435 415.187 63.1435ZM415.187 60.4366C412.816 60.4366 411.862 58.5289 411.862 56.4149C411.862 54.3009 412.816 52.4576 415.187 52.4576C417.572 52.4576 418.513 54.3009 418.513 56.4149C418.513 58.5289 417.572 60.4366 415.187 60.4366ZM424.339 62.8857H427.485V55.8348C427.485 53.5919 428.593 52.6381 430.359 52.6381C431.97 52.6381 432.821 53.8626 432.821 55.5512V62.8857H435.966V55.1516C435.966 52.4576 434.639 49.7378 431.261 49.7378C429.998 49.7378 428.516 50.2405 427.485 51.5037V50.0085H424.339V62.8857Z" fill="#979797"/>
<path d="M51.9844 109.501C54.1797 109.501 55.9375 108.384 56.8125 106.322L54.9766 105.572C54.3828 107.056 53.4062 107.619 51.9844 107.619C49.6172 107.619 48.6094 105.939 48.6094 103.744C48.6094 101.697 49.6172 100.017 51.9531 100.017C53.3906 100.017 54.5312 100.58 54.9453 102.033L56.7969 101.298C55.9062 99.2358 54.1562 98.1265 51.9688 98.1265C48.3359 98.1265 46.6406 100.798 46.6406 103.822C46.6406 106.853 48.3516 109.501 51.9844 109.501ZM63.0469 109.501C66.6953 109.501 68.375 106.83 68.375 103.822C68.375 100.814 66.6953 98.1421 63.0469 98.1421C59.3984 98.1421 57.7188 100.814 57.7188 103.822C57.7188 106.83 59.3984 109.501 63.0469 109.501ZM63.0469 107.744C60.6797 107.744 59.8125 105.908 59.8125 103.822C59.8125 101.744 60.6797 99.9077 63.0469 99.9077C65.4141 99.9077 66.2812 101.744 66.2812 103.822C66.2812 105.908 65.4141 107.744 63.0469 107.744ZM77.0469 98.3062V106.025L72.4062 98.3062H70.4375V109.345H72.3438V101.587L76.9688 109.345H78.9531V98.3062H77.0469ZM81.7969 109.345H83.7812V104.736H88.9375V102.916H83.7812V100.126H89.625V98.3062H81.7969V109.345ZM91.4531 109.345H93.4375V98.3062H91.4531V109.345ZM101.422 103.376V104.978H103.852C103.789 106.775 102.57 107.728 100.844 107.728C98.4766 107.728 97.4688 105.939 97.4688 103.744C97.4688 101.697 98.4766 99.8608 100.812 99.8608C102.219 99.8608 103.375 100.533 103.883 102.033L105.641 101.298C104.75 99.2358 103 98.1265 100.828 98.1265C97.1797 98.1265 95.5 100.798 95.5 103.822C95.5 106.853 97.2109 109.501 100.844 109.501C102.312 109.501 103.516 108.83 104.109 107.791L104.281 109.345H105.852V103.376H101.422ZM112.234 109.501C115.195 109.501 116.461 107.744 116.461 104.962V98.3062H114.477V104.814C114.477 106.595 114.016 107.587 112.234 107.587C110.461 107.587 109.992 106.595 109.992 104.814V98.3062H108.016V105.041C108.016 107.744 109.273 109.501 112.234 109.501ZM119.047 109.345H121.031V104.626H121.719H122.359L125.078 109.345H127.352L124.281 104.431C125.531 104.001 126.438 102.947 126.438 101.556C126.438 99.4858 124.68 98.3062 122.617 98.3062H119.047V109.345ZM121.047 103.009V100.08H122.633C123.766 100.08 124.477 100.673 124.477 101.587C124.477 102.416 123.852 102.962 122.797 103.009H121.047ZM128.953 109.345H136.297V107.47H130.938V104.736H135.93V102.916H130.938V100.126H136.297V98.3062H128.953V109.345ZM52.8394 132.944V139.518L48.8875 132.944H47.2109V142.345H48.8342V135.739L52.7729 142.345H54.4628V132.944H52.8394ZM59.0668 135.559C57.7561 135.559 56.9112 136.144 56.2725 137.016L57.5166 137.914C57.8027 137.429 58.315 136.976 59.0801 136.976C60.1379 136.976 60.4307 137.395 60.4639 138.38H58.6609C57.1706 138.38 56.013 138.859 56.013 140.303C56.013 141.693 57.0642 142.478 58.4281 142.478C59.1865 142.478 60.0714 142.146 60.5039 141.46L60.6037 142.345H61.9409V138.313C61.9409 136.69 60.8764 135.559 59.0668 135.559ZM58.7541 141.108C58.0289 141.108 57.6763 140.795 57.6763 140.356C57.6763 139.937 58.0156 139.551 58.7541 139.551H60.4706V139.604C60.3708 140.389 59.7521 141.108 58.7541 141.108ZM63.6907 142.345H65.3141V138.693C65.3141 137.808 65.833 137.069 66.7179 137.069C67.5495 137.069 67.7957 137.728 67.7957 138.533V142.345H69.4191V138.693C69.4191 137.808 69.9314 137.069 70.8096 137.069C71.6479 137.069 71.8941 137.741 71.8941 138.56V142.345H73.5174V138.353C73.5174 136.95 72.8255 135.559 71.1356 135.559C70.3306 135.559 69.5388 135.872 69.0066 136.73C68.614 135.845 67.7957 135.559 67.0439 135.559C66.3653 135.559 65.68 135.792 65.2476 136.53V135.699H63.6774L63.6907 142.345ZM78.0482 142.478C79.1659 142.478 80.0508 142.086 80.776 141.281L79.6583 140.303C79.1926 140.822 78.6603 141.008 78.0615 141.008C77.017 141.008 76.538 140.422 76.3982 139.551H80.9623C80.9956 139.458 81.0222 139.185 81.0222 138.912C81.0222 137.429 80.2704 135.559 77.9418 135.559C75.693 135.559 74.6817 137.315 74.6817 139.045C74.6817 140.835 75.7595 142.478 78.0482 142.478ZM76.3982 138.38C76.5513 137.548 76.9704 136.923 77.9285 136.923C78.6337 136.923 79.2059 137.276 79.3722 137.961C79.4121 138.094 79.4254 138.234 79.4254 138.38H76.3982ZM62.7659 176.345H64.0433L64.8417 174.15H68.8003L69.5854 176.345H70.8562L67.2768 166.944H66.3453L62.7659 176.345ZM65.2076 173.145L66.8177 168.621L68.4344 173.145H65.2076ZM73.5507 176.458C73.87 176.458 74.2692 176.405 74.5753 176.339L74.5686 175.387C74.3757 175.42 74.1894 175.44 74.0563 175.44C73.5108 175.44 73.3977 175.114 73.3977 174.669V166.944H72.2666V174.968C72.2666 175.986 72.6658 176.458 73.5507 176.458ZM78.4075 176.458C79.3655 176.458 80.2238 175.966 80.6562 175.088L80.7028 176.345H81.754V166.944H80.6097V170.896C80.1772 170.058 79.319 169.586 78.3875 169.586C76.5845 169.586 75.4734 171.149 75.4734 173.019C75.4734 174.895 76.5845 176.458 78.4075 176.458ZM78.6736 175.434C77.3696 175.434 76.6178 174.376 76.6178 173.019C76.6178 171.668 77.3696 170.61 78.6736 170.61C79.9643 170.61 80.7028 171.655 80.7028 173.019C80.7028 174.389 79.9643 175.434 78.6736 175.434ZM86.6374 176.458C87.7219 176.458 88.5203 176.112 89.2588 175.321L88.4737 174.635C87.9215 175.221 87.3759 175.434 86.6441 175.434C85.3999 175.434 84.728 174.635 84.6415 173.358H89.4251C89.4517 173.258 89.4783 172.992 89.4783 172.746C89.4783 171.375 88.7531 169.586 86.5243 169.586C84.4885 169.586 83.4506 171.222 83.4506 173.052C83.4506 174.921 84.535 176.458 86.6374 176.458ZM84.6415 172.533C84.7679 171.369 85.3933 170.537 86.5177 170.537C87.6354 170.537 88.2209 171.289 88.334 172.114C88.3606 172.247 88.3606 172.387 88.3606 172.533H84.6415ZM91.135 176.345H92.2261V173.145C92.2261 171.382 93.1908 170.683 94.0291 170.683C94.2952 170.683 94.548 170.757 94.7742 170.883L95.2932 169.952C94.9938 169.699 94.5879 169.586 94.1954 169.586C93.417 169.586 92.5521 170.045 92.2327 171.003V169.699H91.135V176.345ZM100.157 176.345H103.463C105.166 176.345 106.484 175.407 106.484 173.704C106.484 172.606 105.805 171.635 104.82 171.355C105.472 171.069 106.025 170.324 106.025 169.399C106.025 167.643 104.667 166.944 103.144 166.944H100.157V176.345ZM101.328 170.956V168.009H103.164C104.248 168.009 104.94 168.494 104.94 169.466C104.94 170.497 104.222 170.956 103.39 170.956H101.328ZM101.328 175.227V171.974H103.616C104.681 171.974 105.326 172.639 105.326 173.578C105.326 174.675 104.681 175.227 103.477 175.227H101.328ZM110.329 176.458C111.134 176.458 111.919 176.092 112.372 175.334V176.345H113.49V169.699H112.372V173.531C112.372 174.775 111.693 175.414 110.635 175.414C109.631 175.414 109.105 174.728 109.105 173.631V169.699H107.987V173.83C108.007 175.254 108.713 176.458 110.329 176.458ZM115.698 168.355H116.876V166.944H115.698V168.355ZM115.725 176.345H116.849V169.699H115.725V176.345ZM120.322 176.458C120.642 176.458 121.041 176.405 121.347 176.339L121.34 175.387C121.147 175.42 120.961 175.44 120.828 175.44C120.282 175.44 120.169 175.114 120.169 174.669V166.944H119.038V174.968C119.038 175.986 119.437 176.458 120.322 176.458ZM125.179 176.458C126.137 176.458 126.995 175.966 127.428 175.088L127.474 176.345H128.526V166.944H127.381V170.896C126.949 170.058 126.091 169.586 125.159 169.586C123.356 169.586 122.245 171.149 122.245 173.019C122.245 174.895 123.356 176.458 125.179 176.458ZM125.445 175.434C124.141 175.434 123.389 174.376 123.389 173.019C123.389 171.668 124.141 170.61 125.445 170.61C126.736 170.61 127.474 171.655 127.474 173.019C127.474 174.389 126.736 175.434 125.445 175.434ZM136.982 176.438C138.718 176.438 140.089 175.374 140.089 173.711C140.089 170.604 135.352 171.315 135.352 169.24C135.352 168.441 136.017 167.876 136.889 167.876C137.68 167.876 138.286 168.248 138.685 168.987L139.656 168.388C139.044 167.304 138.08 166.831 136.929 166.831C135.418 166.831 134.181 167.763 134.181 169.293C134.181 172.273 138.918 171.515 138.918 173.81C138.918 174.709 138.186 175.394 137.002 175.394C135.831 175.394 134.926 174.762 134.76 173.504L133.602 173.797C133.888 175.527 135.345 176.438 136.982 176.438ZM141.553 179.1H142.717V175.148C143.149 175.986 143.981 176.458 144.919 176.458C146.742 176.458 147.76 174.901 147.76 173.025C147.76 171.156 146.742 169.586 144.939 169.586C144.008 169.586 143.149 170.058 142.717 170.896V169.699H141.553V179.1ZM144.666 175.434C143.369 175.434 142.617 174.389 142.617 173.025C142.617 171.655 143.369 170.63 144.666 170.63C145.964 170.63 146.629 171.675 146.629 173.025C146.629 174.376 145.964 175.434 144.666 175.434ZM152.104 176.458C153.189 176.458 153.987 176.112 154.726 175.321L153.941 174.635C153.388 175.221 152.843 175.434 152.111 175.434C150.867 175.434 150.195 174.635 150.108 173.358H154.892C154.919 173.258 154.945 172.992 154.945 172.746C154.945 171.375 154.22 169.586 151.991 169.586C149.955 169.586 148.918 171.222 148.918 173.052C148.918 174.921 150.002 176.458 152.104 176.458ZM150.108 172.533C150.235 171.369 150.86 170.537 151.985 170.537C153.102 170.537 153.688 171.289 153.801 172.114C153.828 172.247 153.828 172.387 153.828 172.533H150.108ZM159.11 176.458C160.368 176.458 161.352 175.766 161.771 174.575L160.747 174.19C160.507 174.948 159.895 175.434 159.097 175.434C157.766 175.434 157.187 174.283 157.187 173.032C157.187 171.801 157.766 170.61 159.097 170.61C159.889 170.61 160.501 171.103 160.767 171.874L161.838 171.455C161.346 170.218 160.341 169.586 159.097 169.586C157.041 169.586 156.043 171.289 156.043 173.032C156.043 174.875 157.114 176.458 159.11 176.458ZM163.308 168.355H164.486V166.944H163.308V168.355ZM163.335 176.345H164.459V169.699H163.335V176.345ZM168.997 169.586C167.779 169.586 166.981 170.098 166.335 170.983L167.2 171.608C167.6 170.989 168.165 170.57 169.01 170.57C170.268 170.57 170.693 171.176 170.7 172.473H168.817C167.18 172.473 166.076 172.999 166.076 174.376C166.076 175.693 167.061 176.458 168.411 176.458C169.323 176.458 170.241 176.026 170.713 175.161L170.786 176.345H171.725V172.293C171.725 170.643 170.74 169.586 168.997 169.586ZM168.631 175.494C167.726 175.494 167.234 175.061 167.234 174.416C167.234 173.744 167.766 173.298 168.884 173.298H170.7V173.731C170.48 174.728 169.755 175.494 168.631 175.494ZM175.011 176.458C175.331 176.458 175.73 176.405 176.036 176.339L176.029 175.387C175.836 175.42 175.65 175.44 175.517 175.44C174.971 175.44 174.858 175.114 174.858 174.669V166.944H173.727V174.968C173.727 175.986 174.126 176.458 175.011 176.458ZM181.179 176.345H182.343V172.3H183.88C185.803 172.3 187.1 171.355 187.1 169.645C187.1 167.936 185.783 166.944 183.88 166.944H181.179V176.345ZM182.343 171.202V168.042H183.88C185.244 168.042 185.936 168.634 185.936 169.645C185.936 170.657 185.27 171.202 183.88 171.202H182.343ZM190.906 176.458C191.99 176.458 192.788 176.112 193.527 175.321L192.742 174.635C192.19 175.221 191.644 175.434 190.912 175.434C189.668 175.434 188.996 174.635 188.91 173.358H193.693C193.72 173.258 193.746 172.992 193.746 172.746C193.746 171.375 193.021 169.586 190.792 169.586C188.757 169.586 187.719 171.222 187.719 173.052C187.719 174.921 188.803 176.458 190.906 176.458ZM188.91 172.533C189.036 171.369 189.661 170.537 190.786 170.537C191.904 170.537 192.489 171.289 192.602 172.114C192.629 172.247 192.629 172.387 192.629 172.533H188.91ZM195.403 176.345H196.494V173.145C196.494 171.382 197.459 170.683 198.297 170.683C198.563 170.683 198.816 170.757 199.042 170.883L199.561 169.952C199.262 169.699 198.856 169.586 198.464 169.586C197.685 169.586 196.82 170.045 196.501 171.003V169.699H195.403V176.345ZM200.759 176.345H201.89V172.5C201.89 171.435 202.522 170.637 203.56 170.637C204.564 170.637 204.964 171.342 204.964 172.393V176.345H206.088V172.5C206.088 171.435 206.727 170.637 207.751 170.637C208.789 170.637 209.162 171.369 209.162 172.56V176.345H210.293V172.427C210.293 170.823 209.594 169.586 207.971 169.586C207.039 169.586 206.234 170.018 205.795 170.956C205.469 169.978 204.678 169.586 203.779 169.586C202.954 169.586 202.229 169.932 201.843 170.743V169.699H200.752L200.759 176.345ZM212.315 168.355H213.493V166.944H212.315V168.355ZM212.342 176.345H213.466V169.699H212.342V176.345ZM217.824 176.458C218.237 176.458 218.636 176.378 218.849 176.299L218.842 175.274C218.649 175.361 218.323 175.46 218.017 175.46C217.405 175.46 217.052 175.141 217.052 174.303V170.65H218.849V169.699H217.052V167.051L215.941 167.862V169.699H214.83V170.65H215.928V174.489C215.928 175.74 216.607 176.458 217.824 176.458ZM222.628 176.458C223.912 176.458 225.069 175.78 225.069 174.383C225.069 171.874 221.35 172.779 221.35 171.342C221.35 170.843 221.823 170.484 222.575 170.484C223.353 170.484 223.845 170.93 224.138 171.462L225.01 170.989C224.531 170.105 223.692 169.586 222.614 169.586C221.337 169.586 220.273 170.238 220.273 171.488C220.273 173.877 223.958 172.859 223.958 174.436C223.958 175.021 223.493 175.514 222.575 175.514C221.597 175.514 221.038 174.901 220.811 174.269L219.9 174.669C220.233 175.68 221.284 176.458 222.628 176.458ZM47.2109 220.345H53.4648V218.748H48.9008V216.42H53.1521V214.87H48.9008V212.494H53.4648V210.944H47.2109V220.345ZM54.3564 220.345H56.3323L57.7095 218.11L59.0867 220.345H61.076L58.7874 216.992L61.076 213.699H59.0867L57.7095 215.888L56.3323 213.699H54.3564L56.6317 216.992L54.3564 220.345ZM64.5623 220.478C65.048 220.478 65.527 220.372 65.7732 220.279V218.808C65.5536 218.915 65.1877 219.048 64.8484 219.048C64.4226 219.048 64.1099 218.862 64.1099 218.223V215.056H65.7732V213.699H64.1099V210.891L62.5131 212.049V213.699H61.4153V215.056H62.4865V218.509C62.4865 219.72 63.2649 220.478 64.5623 220.478ZM69.9846 220.478C71.1023 220.478 71.9872 220.086 72.7124 219.281L71.5947 218.303C71.1289 218.822 70.5967 219.008 69.9979 219.008C68.9534 219.008 68.4743 218.422 68.3346 217.551H72.8987C72.9319 217.458 72.9586 217.185 72.9586 216.912C72.9586 215.429 72.2068 213.559 69.8781 213.559C67.6294 213.559 66.6181 215.315 66.6181 217.045C66.6181 218.835 67.6959 220.478 69.9846 220.478ZM68.3346 216.38C68.4876 215.548 68.9068 214.923 69.8648 214.923C70.5701 214.923 71.1422 215.276 71.3086 215.961C71.3485 216.094 71.3618 216.234 71.3618 216.38H68.3346ZM74.3225 220.345H75.8926V217.538C75.8926 215.848 76.6843 215.142 77.4428 215.142C77.7023 215.142 77.9484 215.222 78.168 215.369L78.9065 214.038C78.5871 213.712 78.1281 213.559 77.6889 213.559C76.9438 213.559 76.192 214.011 75.9059 214.816V213.699H74.3225V220.345ZM79.7913 220.345H81.4147V216.706C81.4147 215.548 81.9869 215.056 82.8984 215.056C83.73 215.056 84.1691 215.688 84.1691 216.56V220.345H85.7925V216.353C85.7925 214.963 85.1072 213.559 83.3641 213.559C82.7121 213.559 81.947 213.818 81.4147 214.47V213.699H79.7913V220.345ZM89.9906 213.559C88.6799 213.559 87.835 214.144 87.1963 215.016L88.4404 215.914C88.7265 215.429 89.2388 214.976 90.0039 214.976C91.0618 214.976 91.3545 215.395 91.3878 216.38H89.5848C88.0945 216.38 86.9368 216.859 86.9368 218.303C86.9368 219.693 87.988 220.478 89.3519 220.478C90.1104 220.478 90.9952 220.146 91.4277 219.46L91.5275 220.345H92.8648V216.313C92.8648 214.69 91.8003 213.559 89.9906 213.559ZM89.6779 219.108C88.9527 219.108 88.6001 218.795 88.6001 218.356C88.6001 217.937 88.9394 217.551 89.6779 217.551H91.3944V217.604C91.2946 218.389 90.6759 219.108 89.6779 219.108ZM95.9518 220.478C96.3377 220.478 96.8234 220.412 97.1627 220.345V218.981C96.9897 219.008 96.8101 219.021 96.717 219.021C96.3909 219.021 96.1847 218.888 96.1847 218.575V210.944H94.5613V219.021C94.5613 220.192 95.1867 220.478 95.9518 220.478ZM101.953 220.345H103.643V210.944H101.953V220.345ZM106.065 220.345H108.779C111.939 220.345 113.682 218.642 113.682 215.715C113.682 212.661 111.993 210.944 108.792 210.944H106.065V220.345ZM107.755 218.795V212.494H108.766C111.081 212.494 111.993 213.413 111.993 215.641C111.993 217.99 110.689 218.795 108.613 218.795H107.755ZM63.3913 252.011C62.746 252.011 62.1339 252.211 61.5218 252.657L62.0008 250.022H66.0393V248.944H61.0694L60.1978 253.814L61.3089 254.114C61.7547 253.442 62.4865 253.063 63.225 253.063C64.4824 253.063 65.2875 254.001 65.2875 255.172C65.2875 256.349 64.3893 257.394 63.1585 257.394C61.9276 257.394 61.2291 256.476 60.9962 255.405L59.9117 255.704C60.2577 257.281 61.5418 258.458 63.1585 258.458C64.9947 258.458 66.4784 256.961 66.4784 255.185C66.4784 253.415 65.1078 252.011 63.3913 252.011ZM70.7031 258.458C71.9606 258.458 72.9452 257.766 73.3644 256.575L72.3398 256.19C72.1003 256.948 71.4882 257.434 70.6898 257.434C69.3592 257.434 68.7804 256.283 68.7804 255.032C68.7804 253.801 69.3592 252.61 70.6898 252.61C71.4816 252.61 72.0936 253.103 72.3598 253.874L73.4309 253.455C72.9386 252.218 71.934 251.586 70.6898 251.586C68.634 251.586 67.636 253.289 67.636 255.032C67.636 256.875 68.7072 258.458 70.7031 258.458ZM77.3696 258.458C78.627 258.458 79.6117 257.766 80.0309 256.575L79.0063 256.19C78.7668 256.948 78.1547 257.434 77.3563 257.434C76.0257 257.434 75.4468 256.283 75.4468 255.032C75.4468 253.801 76.0257 252.61 77.3563 252.61C78.148 252.61 78.7601 253.103 79.0262 253.874L80.0974 253.455C79.6051 252.218 78.6004 251.586 77.3563 251.586C75.3005 251.586 74.3025 253.289 74.3025 255.032C74.3025 256.875 75.3736 258.458 77.3696 258.458ZM83.9163 258.458C84.8743 258.458 85.7326 257.966 86.1651 257.088L86.2116 258.345H87.2628V248.944H86.1185V252.896C85.686 252.058 84.8278 251.586 83.8963 251.586C82.0933 251.586 80.9823 253.149 80.9823 255.019C80.9823 256.895 82.0933 258.458 83.9163 258.458ZM84.1824 257.434C82.8784 257.434 82.1266 256.376 82.1266 255.019C82.1266 253.668 82.8784 252.61 84.1824 252.61C85.4731 252.61 86.2116 253.655 86.2116 255.019C86.2116 256.389 85.4731 257.434 84.1824 257.434ZM89.944 258.345H91.1083V252.65H92.9247V251.699H91.1083V250.827C91.1083 250.135 91.461 249.836 92.0198 249.836C92.2128 249.836 92.4124 249.909 92.6053 250.015L92.9779 249.091C92.6519 248.931 92.2926 248.831 91.92 248.831C90.8023 248.831 89.9507 249.483 89.9507 250.714V251.699H88.6134V252.65H89.944V258.345ZM96.9631 248.831C95.1601 248.831 93.7031 250.255 93.7031 251.998C93.7031 253.488 94.7742 254.713 96.1448 255.019C96.6371 255.132 97.1427 255.118 97.6284 254.999L95.5726 258.345H96.9099L99.7308 253.688C100.03 253.189 100.23 252.63 100.23 251.985C100.23 250.255 98.7661 248.831 96.9631 248.831ZM96.9631 254.087C95.7922 254.087 94.8474 253.142 94.8474 252.005C94.8474 250.86 95.7922 249.922 96.9631 249.922C98.1407 249.922 99.0855 250.854 99.0855 251.998C99.0855 253.149 98.1341 254.087 96.9631 254.087ZM102.332 258.345H103.497V252.65H105.313V251.699H103.497V250.827C103.497 250.135 103.849 249.836 104.408 249.836C104.601 249.836 104.801 249.909 104.993 250.015L105.366 249.091C105.04 248.931 104.681 248.831 104.308 248.831C103.19 248.831 102.339 249.483 102.339 250.714V251.699H101.002V252.65H102.332V258.345ZM108.746 258.458C109.704 258.458 110.562 257.966 110.995 257.088L111.041 258.345H112.092V248.944H110.948V252.896C110.516 252.058 109.657 251.586 108.726 251.586C106.923 251.586 105.812 253.149 105.812 255.019C105.812 256.895 106.923 258.458 108.746 258.458ZM109.012 257.434C107.708 257.434 106.956 256.376 106.956 255.019C106.956 253.668 107.708 252.61 109.012 252.61C110.303 252.61 111.041 253.655 111.041 255.019C111.041 256.389 110.303 257.434 109.012 257.434ZM114.354 258.345H115.499V254.693C115.499 253.482 116.118 252.61 117.255 252.61C118.353 252.61 118.739 253.349 118.739 254.413V258.345H119.883V254.207C119.863 252.783 119.131 251.586 117.515 251.586C116.71 251.586 115.951 251.952 115.499 252.71V248.944H114.354V258.345ZM125.512 252.271C125.019 252.158 124.514 252.171 124.028 252.291L126.084 248.944H124.747L121.926 253.602C121.626 254.101 121.427 254.659 121.427 255.305C121.427 257.035 122.89 258.458 124.693 258.458C126.496 258.458 127.953 257.035 127.953 255.291C127.953 253.801 126.882 252.577 125.512 252.271ZM124.693 257.367C123.516 257.367 122.571 256.436 122.571 255.291C122.571 254.14 123.522 253.202 124.693 253.202C125.864 253.202 126.809 254.147 126.809 255.285C126.809 256.429 125.864 257.367 124.693 257.367ZM129.038 248.944V250.015H134.38L130.029 258.345H131.32L135.784 249.596V248.944H129.038ZM139.789 258.458C140.747 258.458 141.606 257.966 142.038 257.088L142.085 258.345H143.136V248.944H141.992V252.896C141.559 252.058 140.701 251.586 139.769 251.586C137.966 251.586 136.855 253.149 136.855 255.019C136.855 256.895 137.966 258.458 139.789 258.458ZM140.056 257.434C138.752 257.434 138 256.376 138 255.019C138 253.668 138.752 252.61 140.056 252.61C141.346 252.61 142.085 253.655 142.085 255.019C142.085 256.389 141.346 257.434 140.056 257.434ZM54.2266 314.306L51.2656 322.126L48.2891 314.306H46.0938L50.5156 325.345H52L56.3984 314.306H54.2266ZM57.9219 325.345H59.9062V314.306H57.9219V325.345ZM65.9062 325.47C68.0156 325.47 69.7422 324.212 69.7422 322.126C69.7422 318.462 64.3984 319.166 64.3984 317.087C64.3984 316.384 65.0078 315.908 65.7891 315.908C66.5312 315.908 67.1875 316.337 67.5703 317.087L69.2188 316.08C68.4609 314.736 67.2188 314.142 65.8594 314.142C64 314.142 62.4141 315.236 62.4141 317.189C62.4141 320.783 67.7578 320.017 67.7578 322.306C67.7578 323.087 67.1172 323.712 65.9375 323.712C64.7656 323.712 63.7891 323.103 63.6484 321.728L61.6797 322.228C62.0312 324.4 63.9531 325.47 65.9062 325.47ZM71.6406 325.345H73.625V314.306H71.6406V325.345ZM78.6641 325.345H80.6484V316.08H84.1016V314.306H75.2031V316.08H78.6641V325.345ZM89.9219 325.501C93.5703 325.501 95.25 322.83 95.25 319.822C95.25 316.814 93.5703 314.142 89.9219 314.142C86.2734 314.142 84.5938 316.814 84.5938 319.822C84.5938 322.83 86.2734 325.501 89.9219 325.501ZM89.9219 323.744C87.5547 323.744 86.6875 321.908 86.6875 319.822C86.6875 317.744 87.5547 315.908 89.9219 315.908C92.2891 315.908 93.1562 317.744 93.1562 319.822C93.1562 321.908 92.2891 323.744 89.9219 323.744ZM97.3125 325.345H99.2969V320.626H99.9844H100.625L103.344 325.345H105.617L102.547 320.431C103.797 320.001 104.703 318.947 104.703 317.556C104.703 315.486 102.945 314.306 100.883 314.306H97.3125V325.345ZM99.3125 319.009V316.08H100.898C102.031 316.08 102.742 316.673 102.742 317.587C102.742 318.416 102.117 318.962 101.062 319.009H99.3125ZM113.273 325.345H115.258V316.08H118.711V314.306H109.812V316.08H113.273V325.345ZM123.328 325.345H125.398V321.041L129.523 314.306H127.109L124.336 319.134L121.586 314.306H119.188L123.328 321.041V325.345ZM130.938 325.345H132.906V320.767H134.398C136.648 320.767 138.297 319.634 138.297 317.572C138.297 315.486 136.648 314.306 134.398 314.306H130.938V325.345ZM132.906 318.916V316.158H134.398C135.742 316.158 136.328 316.673 136.328 317.572C136.328 318.447 135.758 318.916 134.398 318.916H132.906ZM140.219 325.345H147.562V323.47H142.203V320.736H147.195V318.916H142.203V316.126H147.562V314.306H140.219V325.345ZM153.109 325.47C155.219 325.47 156.945 324.212 156.945 322.126C156.945 318.462 151.602 319.166 151.602 317.087C151.602 316.384 152.211 315.908 152.992 315.908C153.734 315.908 154.391 316.337 154.773 317.087L156.422 316.08C155.664 314.736 154.422 314.142 153.062 314.142C151.203 314.142 149.617 315.236 149.617 317.189C149.617 320.783 154.961 320.017 154.961 322.306C154.961 323.087 154.32 323.712 153.141 323.712C151.969 323.712 150.992 323.103 150.852 321.728L148.883 322.228C149.234 324.4 151.156 325.47 153.109 325.47ZM50.5781 430.47C52.6875 430.47 54.4141 429.212 54.4141 427.126C54.4141 423.462 49.0703 424.166 49.0703 422.087C49.0703 421.384 49.6797 420.908 50.4609 420.908C51.2031 420.908 51.8594 421.337 52.2422 422.087L53.8906 421.08C53.1328 419.736 51.8906 419.142 50.5312 419.142C48.6719 419.142 47.0859 420.236 47.0859 422.189C47.0859 425.783 52.4297 425.017 52.4297 427.306C52.4297 428.087 51.7891 428.712 50.6094 428.712C49.4375 428.712 48.4609 428.103 48.3203 426.728L46.3516 427.228C46.7031 429.4 48.625 430.47 50.5781 430.47ZM58.4766 430.345H60.4609V421.08H63.9141V419.306H55.0156V421.08H58.4766V430.345ZM63.125 430.345H65.2891L66.1797 427.947H70.4062L71.2891 430.345H73.4297L69.0312 419.306H67.5469L63.125 430.345ZM66.8047 426.251L68.2969 422.22L69.7812 426.251H66.8047ZM76.1016 430.345H78.0859V421.08H81.5391V419.306H72.6406V421.08H76.1016V430.345ZM87.1406 430.501C90.1016 430.501 91.3672 428.744 91.3672 425.962V419.306H89.3828V425.814C89.3828 427.595 88.9219 428.587 87.1406 428.587C85.3672 428.587 84.8984 427.595 84.8984 425.814V419.306H82.9219V426.041C82.9219 428.744 84.1797 430.501 87.1406 430.501ZM97.1094 430.47C99.2188 430.47 100.945 429.212 100.945 427.126C100.945 423.462 95.6016 424.166 95.6016 422.087C95.6016 421.384 96.2109 420.908 96.9922 420.908C97.7344 420.908 98.3906 421.337 98.7734 422.087L100.422 421.08C99.6641 419.736 98.4219 419.142 97.0625 419.142C95.2031 419.142 93.6172 420.236 93.6172 422.189C93.6172 425.783 98.9609 425.017 98.9609 427.306C98.9609 428.087 98.3203 428.712 97.1406 428.712C95.9688 428.712 94.9922 428.103 94.8516 426.728L92.8828 427.228C93.2344 429.4 95.1562 430.47 97.1094 430.47ZM47.2109 463.345H53.4648V461.748H48.9008V459.42H53.1521V457.87H48.9008V455.494H53.4648V453.944H47.2109V463.345ZM55.1747 463.345H56.7981V459.706C56.7981 458.548 57.3702 458.056 58.2817 458.056C59.1134 458.056 59.5525 458.688 59.5525 459.56V463.345H61.1758V459.353C61.1758 457.963 60.4906 456.559 58.7474 456.559C58.0954 456.559 57.3303 456.818 56.7981 457.47V456.699H55.1747V463.345ZM65.374 456.559C64.0633 456.559 63.2183 457.144 62.5796 458.016L63.8238 458.914C64.1099 458.429 64.6222 457.976 65.3873 457.976C66.4451 457.976 66.7379 458.395 66.7711 459.38H64.9681C63.4778 459.38 62.3202 459.859 62.3202 461.303C62.3202 462.693 63.3714 463.478 64.7353 463.478C65.4937 463.478 66.3786 463.146 66.811 462.46L66.9108 463.345H68.2481V459.313C68.2481 457.69 67.1836 456.559 65.374 456.559ZM65.0613 462.108C64.3361 462.108 63.9835 461.795 63.9835 461.356C63.9835 460.937 64.3228 460.551 65.0613 460.551H66.7778V460.604C66.678 461.389 66.0592 462.108 65.0613 462.108ZM73.5706 463.478C75.4136 463.478 76.4182 461.862 76.4182 460.019C76.4182 458.169 75.4136 456.559 73.544 456.559C72.8321 456.559 72.1402 456.792 71.6745 457.364V453.944H69.9979V463.345H71.6745V462.68C72.1402 463.252 72.8787 463.478 73.5706 463.478ZM73.1648 461.981C72.0471 461.981 71.5281 461.136 71.5281 460.019C71.5281 458.901 72.0471 458.029 73.1648 458.029C74.2825 458.029 74.7815 458.914 74.7815 460.019C74.7815 461.123 74.2825 461.981 73.1648 461.981ZM79.1593 463.478C79.5452 463.478 80.0309 463.412 80.3702 463.345V461.981C80.1972 462.008 80.0175 462.021 79.9244 462.021C79.5984 462.021 79.3921 461.888 79.3921 461.575V453.944H77.7688V462.021C77.7688 463.192 78.3942 463.478 79.1593 463.478ZM84.4086 463.478C85.5264 463.478 86.4112 463.086 87.1364 462.281L86.0187 461.303C85.553 461.822 85.0207 462.008 84.4219 462.008C83.3774 462.008 82.8984 461.422 82.7586 460.551H87.3227C87.356 460.458 87.3826 460.185 87.3826 459.912C87.3826 458.429 86.6308 456.559 84.3022 456.559C82.0534 456.559 81.0421 458.315 81.0421 460.045C81.0421 461.835 82.1199 463.478 84.4086 463.478ZM82.7586 459.38C82.9117 458.548 83.3308 457.923 84.2889 457.923C84.9941 457.923 85.5663 458.276 85.7326 458.961C85.7725 459.094 85.7858 459.234 85.7858 459.38H82.7586ZM92.4057 466.206H94.1754L97.9744 456.699H96.1914L94.4881 461.316L92.8116 456.699H91.0285L93.6299 463.166L92.4057 466.206ZM101.361 463.478C103.417 463.478 104.767 461.888 104.767 460.005C104.767 458.129 103.417 456.559 101.361 456.559C99.305 456.559 97.9544 458.129 97.9544 460.005C97.9544 461.888 99.305 463.478 101.361 463.478ZM101.361 462.081C100.137 462.081 99.6443 461.096 99.6443 460.005C99.6443 458.914 100.137 457.963 101.361 457.963C102.592 457.963 103.077 458.914 103.077 460.005C103.077 461.096 102.592 462.081 101.361 462.081ZM108.28 463.478C108.939 463.478 109.711 463.225 110.243 462.567V463.345H111.853V456.699H110.243V460.331C110.243 461.489 109.657 461.981 108.746 461.981C107.914 461.981 107.475 461.356 107.475 460.484V456.699H105.872V460.691C105.872 462.081 106.537 463.478 108.28 463.478ZM113.789 463.345H115.359V460.538C115.359 458.848 116.151 458.142 116.909 458.142C117.169 458.142 117.415 458.222 117.634 458.369L118.373 457.038C118.054 456.712 117.595 456.559 117.155 456.559C116.41 456.559 115.658 457.011 115.372 457.816V456.699H113.789V463.345ZM122.465 455.441H124.168V453.944H122.465V455.441ZM122.505 463.345H124.128V456.699H122.505V463.345ZM126.071 463.345H127.694V459.706C127.694 458.548 128.266 458.056 129.178 458.056C130.009 458.056 130.448 458.688 130.448 459.56V463.345H132.072V459.353C132.072 457.963 131.387 456.559 129.643 456.559C128.991 456.559 128.226 456.818 127.694 457.47V456.699H126.071V463.345ZM136.163 463.478C136.649 463.478 137.128 463.372 137.374 463.279V461.808C137.155 461.915 136.789 462.048 136.45 462.048C136.024 462.048 135.711 461.862 135.711 461.223V458.056H137.374V456.699H135.711V453.891L134.114 455.049V456.699H133.017V458.056H134.088V461.509C134.088 462.72 134.866 463.478 136.163 463.478ZM141.586 463.478C142.704 463.478 143.588 463.086 144.314 462.281L143.196 461.303C142.73 461.822 142.198 462.008 141.599 462.008C140.555 462.008 140.076 461.422 139.936 460.551H144.5C144.533 460.458 144.56 460.185 144.56 459.912C144.56 458.429 143.808 456.559 141.479 456.559C139.231 456.559 138.219 458.315 138.219 460.045C138.219 461.835 139.297 463.478 141.586 463.478ZM139.936 459.38C140.089 458.548 140.508 457.923 141.466 457.923C142.171 457.923 142.743 458.276 142.91 458.961C142.95 459.094 142.963 459.234 142.963 459.38H139.936ZM148.977 462.307C147.793 462.161 146.975 462.148 146.975 461.602C146.975 461.449 147.035 461.336 147.168 461.249C147.547 461.416 147.973 461.509 148.432 461.509C149.889 461.509 151.133 460.564 151.133 459.081C151.133 458.648 151.033 458.256 150.847 457.923L151.812 457.144L150.967 456.113L149.949 456.985C149.503 456.712 148.957 456.559 148.379 456.559C146.908 456.559 145.651 457.557 145.651 459.001C145.651 459.586 145.857 460.112 146.203 460.531C145.811 460.877 145.584 461.303 145.584 461.888C145.584 462.527 145.85 462.926 146.236 463.186L145.465 463.838C145.451 463.904 145.438 463.971 145.438 464.124C145.438 465.488 146.529 466.492 148.625 466.492C150.275 466.492 151.565 465.774 151.565 464.27C151.565 462.746 150.235 462.474 148.977 462.307ZM148.432 457.816C149.144 457.816 149.523 458.315 149.523 459.014C149.523 459.693 149.157 460.185 148.432 460.185C147.713 460.185 147.327 459.693 147.327 459.014C147.327 458.315 147.727 457.816 148.432 457.816ZM148.612 465.241C147.806 465.241 147.115 465.009 146.922 464.343L146.882 464.164L147.241 463.565C147.647 463.645 148.059 463.678 148.405 463.711C149.51 463.824 150.029 463.944 150.029 464.45C150.029 464.982 149.47 465.241 148.612 465.241ZM152.923 463.345H154.493V460.538C154.493 458.848 155.285 458.142 156.043 458.142C156.303 458.142 156.549 458.222 156.768 458.369L157.507 457.038C157.187 456.712 156.728 456.559 156.289 456.559C155.544 456.559 154.792 457.011 154.506 457.816V456.699H152.923V463.345ZM160.887 456.559C159.576 456.559 158.731 457.144 158.092 458.016L159.336 458.914C159.622 458.429 160.135 457.976 160.9 457.976C161.958 457.976 162.25 458.395 162.284 459.38H160.481C158.99 459.38 157.833 459.859 157.833 461.303C157.833 462.693 158.884 463.478 160.248 463.478C161.006 463.478 161.891 463.146 162.324 462.46L162.423 463.345H163.761V459.313C163.761 457.69 162.696 456.559 160.887 456.559ZM160.574 462.108C159.849 462.108 159.496 461.795 159.496 461.356C159.496 460.937 159.835 460.551 160.574 460.551H162.29V460.604C162.191 461.389 161.572 462.108 160.574 462.108ZM167.806 463.478C168.292 463.478 168.771 463.372 169.017 463.279V461.808C168.797 461.915 168.431 462.048 168.092 462.048C167.666 462.048 167.353 461.862 167.353 461.223V458.056H169.017V456.699H167.353V453.891L165.757 455.049V456.699H164.659V458.056H165.73V461.509C165.73 462.72 166.508 463.478 167.806 463.478ZM170.474 455.441H172.177V453.944H170.474V455.441ZM170.514 463.345H172.137V456.699H170.514V463.345ZM176.861 463.478C178.917 463.478 180.267 461.888 180.267 460.005C180.267 458.129 178.917 456.559 176.861 456.559C174.805 456.559 173.454 458.129 173.454 460.005C173.454 461.888 174.805 463.478 176.861 463.478ZM176.861 462.081C175.637 462.081 175.144 461.096 175.144 460.005C175.144 458.914 175.637 457.963 176.861 457.963C178.092 457.963 178.577 458.914 178.577 460.005C178.577 461.096 178.092 462.081 176.861 462.081ZM181.585 463.345H183.208V459.706C183.208 458.548 183.78 458.056 184.692 458.056C185.523 458.056 185.962 458.688 185.962 459.56V463.345H187.586V459.353C187.586 457.963 186.9 456.559 185.157 456.559C184.505 456.559 183.74 456.818 183.208 457.47V456.699H181.585V463.345Z" fill="#535353"/>
<rect x="46.4721" y="154.011" width="443.32" height="39.4171" rx="3.27005" stroke="#DCDCDC" stroke-width="1.45989"/>
<rect x="46.4721" y="234.925" width="443.32" height="39.4171" rx="3.27005" stroke="#DCDCDC" stroke-width="1.45989"/>
<rect x="45.7422" y="337.345" width="130.417" height="40.8769" rx="4" fill="#FF4D2E"/>
<path d="M79.8479 363.357H81.7288V358.11H83.5833C86.1145 358.11 87.8987 356.844 87.8987 354.559C87.8987 352.256 86.1057 350.938 83.5833 350.938H79.8479V363.357ZM81.7288 356.343V352.705H83.5833C85.2356 352.705 86.0266 353.381 86.0266 354.559C86.0266 355.719 85.262 356.343 83.5833 356.343H81.7288ZM92.7854 363.524C94.2356 363.524 95.343 363.032 96.3098 361.977L95.0618 360.878C94.385 361.608 93.6731 361.872 92.7942 361.872C91.2825 361.872 90.5266 360.958 90.3684 359.534H96.5471C96.5823 359.411 96.6174 359.05 96.6174 358.716C96.6174 356.827 95.6506 354.41 92.636 354.41C89.8059 354.41 88.4524 356.651 88.4524 359.006C88.4524 361.415 89.885 363.524 92.7854 363.524ZM90.3684 358.215C90.553 356.897 91.2473 355.939 92.6184 355.939C93.8313 355.939 94.5959 356.668 94.7717 357.662C94.8157 357.837 94.8333 358.022 94.8245 358.215H90.3684ZM98.6301 363.357H100.379V359.393C100.379 357.108 101.539 356.176 102.603 356.176C102.946 356.176 103.28 356.282 103.57 356.466L104.396 354.972C103.991 354.585 103.42 354.41 102.875 354.41C101.865 354.41 100.792 355.007 100.397 356.176V354.577H98.6301V363.357ZM105.793 363.357H107.613V358.409C107.613 357.117 108.377 356.106 109.643 356.106C110.856 356.106 111.278 357.002 111.278 358.224V363.357H113.097V358.409C113.097 357.117 113.862 356.106 115.11 356.106C116.358 356.106 116.762 357.029 116.762 358.356V363.357H118.581V358.127C118.581 356.141 117.658 354.41 115.47 354.41C114.327 354.41 113.273 354.902 112.631 356.088C112.156 354.858 111.093 354.41 110.003 354.41C109.01 354.41 108.078 354.788 107.533 355.816V354.577H105.784L105.793 363.357ZM121.051 352.854H122.949V350.938H121.051V352.854ZM121.095 363.357H122.906V354.577H121.095V363.357ZM128.618 363.524C129.207 363.524 129.787 363.392 130.095 363.278L130.086 361.634C129.814 361.757 129.365 361.916 128.935 361.916C128.249 361.916 127.81 361.582 127.81 360.606V356.106H130.095V354.577H127.81V350.973L126.026 352.274V354.577H124.558V356.106H125.999V360.914C125.999 362.54 126.957 363.524 128.618 363.524ZM135.008 363.524C136.687 363.524 138.33 362.627 138.33 360.685C138.33 357.416 133.646 358.409 133.646 356.8C133.646 356.255 134.173 355.851 135.017 355.851C136.01 355.851 136.581 356.431 136.924 357.055L138.33 356.291C137.68 355.113 136.546 354.41 135.078 354.41C133.391 354.41 131.906 355.28 131.906 357.038C131.906 360.158 136.546 358.998 136.546 360.773C136.546 361.388 136.019 362.003 134.92 362.003C133.69 362.003 133.083 361.195 132.82 360.465L131.361 361.107C131.8 362.452 133.198 363.524 135.008 363.524Z" fill="white"/>
<rect x="203.167" y="338.075" width="128.957" height="39.4171" rx="3.27005" stroke="#FFBB40" stroke-width="1.45989"/>
<path d="M230.49 363.524C232.942 363.524 234.849 362.293 235.833 360.008L234.075 359.288C233.372 361.019 232.212 361.722 230.49 361.722C227.677 361.722 226.482 359.701 226.482 357.064C226.482 354.498 227.739 352.555 230.49 352.555C232.23 352.555 233.522 353.241 234.04 354.955L235.816 354.251C234.84 351.966 232.968 350.753 230.507 350.753C226.517 350.753 224.61 353.645 224.61 357.143C224.61 360.632 226.534 363.524 230.49 363.524ZM241.045 363.524C243.691 363.524 245.466 361.441 245.466 358.945C245.466 356.458 243.691 354.41 241.045 354.41C238.4 354.41 236.633 356.458 236.633 358.945C236.633 361.45 238.4 363.524 241.045 363.524ZM241.045 361.951C239.331 361.951 238.523 360.562 238.523 358.945C238.523 357.336 239.331 355.983 241.045 355.983C242.759 355.983 243.576 357.345 243.576 358.945C243.576 360.553 242.759 361.951 241.045 361.951ZM247.426 363.357H249.237V358.426C249.237 356.835 250.063 356.088 251.364 356.088C252.568 356.088 253.209 356.958 253.209 358.259V363.357H255.02V357.987C255.011 356.132 254.088 354.41 251.873 354.41C250.906 354.41 249.887 354.823 249.237 355.754V354.577H247.426V363.357ZM260.487 363.524C261.075 363.524 261.656 363.392 261.963 363.278L261.954 361.634C261.682 361.757 261.234 361.916 260.803 361.916C260.117 361.916 259.678 361.582 259.678 360.606V356.106H261.963V354.577H259.678V350.973L257.894 352.274V354.577H256.426V356.106H257.867V360.914C257.867 362.54 258.825 363.524 260.487 363.524ZM263.932 363.357H265.681V359.393C265.681 357.108 266.841 356.176 267.905 356.176C268.247 356.176 268.581 356.282 268.871 356.466L269.698 354.972C269.293 354.585 268.722 354.41 268.177 354.41C267.166 354.41 266.094 355.007 265.698 356.176V354.577H263.932V363.357ZM274.268 354.41C272.598 354.41 271.508 355.13 270.664 356.299L272.053 357.301C272.501 356.572 273.222 356 274.277 356C275.815 356 276.281 356.668 276.316 358.18H273.872C271.816 358.18 270.322 358.839 270.322 360.711C270.322 362.496 271.657 363.524 273.459 363.524C274.558 363.524 275.753 363.014 276.342 361.986L276.465 363.357H277.968V358.013C277.968 355.851 276.615 354.41 274.268 354.41ZM273.82 361.977C272.739 361.977 272.185 361.485 272.185 360.764C272.185 360.043 272.756 359.499 273.978 359.499H276.316V359.771C276.131 360.958 275.243 361.977 273.82 361.977ZM283.83 363.524C285.535 363.524 286.863 362.575 287.434 360.975L285.781 360.351C285.509 361.265 284.771 361.872 283.813 361.872C282.187 361.872 281.528 360.474 281.528 358.98C281.528 357.512 282.196 356.062 283.813 356.062C284.771 356.062 285.5 356.686 285.799 357.609L287.522 356.941C286.863 355.253 285.509 354.41 283.813 354.41C281.027 354.41 279.682 356.677 279.682 358.98C279.682 361.362 281.079 363.524 283.83 363.524ZM292.25 363.524C292.839 363.524 293.419 363.392 293.727 363.278L293.718 361.634C293.446 361.757 292.997 361.916 292.567 361.916C291.881 361.916 291.442 361.582 291.442 360.606V356.106H293.727V354.577H291.442V350.973L289.657 352.274V354.577H288.19V356.106H289.631V360.914C289.631 362.54 290.589 363.524 292.25 363.524ZM299.334 363.524C301.98 363.524 303.755 361.441 303.755 358.945C303.755 356.458 301.98 354.41 299.334 354.41C296.689 354.41 294.922 356.458 294.922 358.945C294.922 361.45 296.689 363.524 299.334 363.524ZM299.334 361.951C297.62 361.951 296.812 360.562 296.812 358.945C296.812 357.336 297.62 355.983 299.334 355.983C301.048 355.983 301.865 357.345 301.865 358.945C301.865 360.553 301.048 361.951 299.334 361.951ZM305.715 363.357H307.464V359.393C307.464 357.108 308.624 356.176 309.688 356.176C310.031 356.176 310.365 356.282 310.655 356.466L311.481 354.972C311.076 354.585 310.505 354.41 309.96 354.41C308.949 354.41 307.877 355.007 307.482 356.176V354.577H305.715V363.357Z" fill="#FFBB40"/>
<rect x="359.865" y="338.075" width="128.957" height="39.4171" rx="3.27005" stroke="#4990E2" stroke-width="1.45989"/>
<path d="M392.29 363.357H395.788C399.937 363.357 402.231 361.116 402.231 357.24C402.231 353.206 399.998 350.938 395.806 350.938H392.29V363.357ZM394.18 361.617V352.678H395.78C398.979 352.678 400.341 354.041 400.341 357.161C400.341 360.377 398.539 361.617 395.613 361.617H394.18ZM408.111 363.524C409.561 363.524 410.668 363.032 411.635 361.977L410.387 360.878C409.71 361.608 408.998 361.872 408.119 361.872C406.608 361.872 405.852 360.958 405.694 359.534H411.872C411.907 359.411 411.943 359.05 411.943 358.716C411.943 356.827 410.976 354.41 407.961 354.41C405.131 354.41 403.778 356.651 403.778 359.006C403.778 361.415 405.21 363.524 408.111 363.524ZM405.694 358.215C405.878 356.897 406.573 355.939 407.944 355.939C409.156 355.939 409.921 356.668 410.097 357.662C410.141 357.837 410.158 358.022 410.15 358.215H405.694ZM415.669 363.524C416.126 363.524 416.715 363.445 417.146 363.357L417.137 361.828C416.9 361.863 416.654 361.889 416.504 361.889C415.924 361.889 415.713 361.582 415.713 361.081V350.938H413.903V361.573C413.903 363.023 414.579 363.524 415.669 363.524ZM418.886 352.854H420.784V350.938H418.886V352.854ZM418.93 363.357H420.74V354.577H418.93V363.357ZM425.759 363.357H427.271L430.857 354.577H428.879L426.515 361.019L424.159 354.577H422.173L425.759 363.357ZM435.585 363.524C437.035 363.524 438.143 363.032 439.11 361.977L437.862 360.878C437.185 361.608 436.473 361.872 435.594 361.872C434.082 361.872 433.326 360.958 433.168 359.534H439.347C439.382 359.411 439.417 359.05 439.417 358.716C439.417 356.827 438.45 354.41 435.436 354.41C432.606 354.41 431.252 356.651 431.252 359.006C431.252 361.415 432.685 363.524 435.585 363.524ZM433.168 358.215C433.353 356.897 434.047 355.939 435.418 355.939C436.631 355.939 437.396 356.668 437.572 357.662C437.615 357.837 437.633 358.022 437.624 358.215H433.168ZM441.43 363.357H443.179V359.393C443.179 357.108 444.339 356.176 445.403 356.176C445.745 356.176 446.079 356.282 446.369 356.466L447.196 354.972C446.791 354.585 446.22 354.41 445.675 354.41C444.664 354.41 443.592 355.007 443.197 356.176V354.577H441.43V363.357ZM449.595 367.127H451.581L456.538 354.577H454.543L452.144 361.081L449.639 354.577H447.644L451.177 363.164L449.595 367.127Z" fill="#4990E2"/>
</svg>
