<?xml version="1.0" encoding="utf-8"?>
<svg width="12" height="14" viewBox="0 0 12 14" fill="none" xmlns="http://www.w3.org/2000/svg">
<path d="M0.59055 5.14666C-0.593024 7.20053 0.159396 10.3174 1.46824 12.2073C2.12155 13.1521 2.783 14.0002 3.68896 14.0002C3.70603 14.0002 3.72315 13.9999 3.74069 13.9992C4.16633 13.9822 4.47392 13.8512 4.77132 13.7245C5.10521 13.5822 5.45052 13.4351 5.99216 13.4351C6.50746 13.4351 6.8363 13.5775 7.1543 13.7151C7.46772 13.8507 7.79054 13.9909 8.26756 13.982C9.28804 13.963 9.9146 13.0478 10.4674 12.2404C11.0442 11.3975 11.3336 10.579 11.4312 10.2662L11.4352 10.2538C11.4538 10.1982 11.4275 10.1375 11.3742 10.113C11.3728 10.1124 11.3673 10.1101 11.3658 10.1095C11.1861 10.036 9.60977 9.33666 9.59319 7.43064C9.57782 5.8821 10.7758 5.06207 11.016 4.91344L11.0272 4.90646C11.0532 4.88971 11.0714 4.86313 11.0775 4.83274C11.0837 4.8024 11.0772 4.77082 11.0598 4.7453C10.2329 3.53524 8.96558 3.35287 8.45534 3.33093C8.3813 3.32354 8.30487 3.31982 8.22813 3.31982C7.62883 3.31982 7.05474 3.54617 6.59352 3.72803C6.27515 3.85357 6.00015 3.96199 5.81048 3.96199C5.59736 3.96199 5.32081 3.85224 5.00055 3.72518C4.57229 3.55521 4.08688 3.3626 3.57301 3.3626C3.56075 3.3626 3.54868 3.36274 3.53679 3.36297C2.34197 3.38055 1.21298 4.06412 0.59055 5.14666Z" fill="white"/>
<path d="M8.45625 8.8197e-05C7.73271 0.0295571 6.86475 0.474941 6.34597 1.08259C5.90509 1.59333 5.47439 2.4449 5.58786 3.30326C5.59498 3.35697 5.63867 3.39842 5.6927 3.40259C5.74154 3.4064 5.79139 3.40833 5.84105 3.40838C6.54854 3.40838 7.31174 3.01697 7.83296 2.38674C8.38153 1.72126 8.65891 0.867216 8.575 0.102219C8.56839 0.0422718 8.51565 -0.00225279 8.45625 8.8197e-05Z" fill="white"/>
</svg>
